<?xml version="1.0" standalone="yes"?>
<svg xmlns="http://www.w3.org/2000/svg" width="219" height="970">
  <path style="fill:#010101; stroke:none;"
        d="M94 214C76.8249 205.445 67.9605 185.461 53 173.888C49.1694 170.925 39.618 162.615 34.6034 167.604C27.3382 174.832 43.8927 186.127 47.9606 190.089C61.1147 202.904 73.5312 218.109 85.5756 232C90.1615 237.289 97.106 243.193 95.4529 251C91.2738 270.737 67.7911 283.978 66.0934 305C64.4018 325.945 79.6266 341.951 81.8117 362C83.7872 380.125 65.1736 396.046 67.1736 415C70.3387 444.996 89.0799 473.059 96.5216 502C102.716 526.089 98.2975 557.327 97.4059 582C97.227 586.948 98.3364 595.773 94.4861 599.527C90.6944 603.224 83.6802 599.66 79 600.189C70.6359 601.134 60.5346 607.766 56.3665 615.001C44.2987 635.948 58.2575 661.666 60 683C43.6201 666.482 28.902 631.231 35.4282 608C37.7504 599.734 40.66 590.156 47.0432 584.108C50.2887 581.033 55.7191 580.178 58.3927 576.722C60.9128 573.465 59.212 569.309 55.8912 567.458C41.8961 559.655 28.0802 580.692 24.2292 591C13.4329 619.899 21.6437 651.822 36.4244 678C39.9556 684.254 54.907 699.778 53.1829 706.867C51.8696 712.266 33.0638 712.598 28 715.529C7.98635 727.115 -1.99798 760.095 18.0401 776.61C39.1372 793.996 81.4305 770.989 62.8665 744.093C59.2476 738.85 45.7547 732.581 42.8472 742.055C41.2795 747.163 46.9688 751.775 46.4205 757C45.1713 768.907 31.4717 768.391 25.3943 760.957C15.8671 749.302 29.8839 731.361 42 728.533C54.632 725.585 72.2752 734.65 81.9961 741.924C97.8701 753.803 72.0244 776.269 64.3048 788C58.2481 797.204 48.6026 807.619 47.1852 819C45.4082 833.267 54.6239 845.068 60.7407 857C69.4056 873.901 76.1471 892.369 83.1998 910C87.74 921.35 92.3692 932.671 96.9653 944C98.695 948.264 101.691 953.043 107 952.547C118.801 951.445 122.815 931.888 126.192 923C136.6 895.606 146.529 867.7 156.003 840C159.559 829.604 167.943 818.34 163.387 807C157.115 791.386 144.067 775.517 134.155 762C130.189 756.592 122.963 748.963 127.013 742C134.504 729.12 151.984 717.248 167 716.599C179.655 716.052 192.839 726.566 190.785 740C190.455 742.164 189.639 744.184 188.347 745.957C177.931 760.254 173.238 742.43 167.351 736.438C162.684 731.687 157.686 737.281 156.533 742.001C153.218 755.57 161.983 770.267 177 769.736C203.47 768.8 211.192 736.306 199.521 717C191.307 703.414 173.633 700 159 700C160.735 686.959 172.28 673.91 177.688 662C186.46 642.678 190.44 614.895 186.919 594C184.755 581.162 178.481 570.032 166 564.684C161.547 562.775 152.07 561.069 149.032 566.228C144.627 573.711 167.063 583.266 170.442 590C179.078 607.212 173.113 640.961 159 654C162.054 637.548 165.517 616.656 148.999 605.969C142.879 602.009 135.219 600.287 128 601.185C124.553 601.614 120.524 604.321 117.055 603.292C113.566 602.258 112.276 598.261 112.133 595C111.3 575.859 112 556.271 112 537C112 526.678 110.284 515.058 112.924 505C118.566 483.51 126.963 462.118 134 441C137.145 431.562 142.721 419.976 142.945 410C143.311 393.761 126.268 379.278 127.214 363C128.376 343.001 147.887 320.818 143.61 301C139.514 282.028 116.446 267.567 114.268 248C113.384 240.059 121.486 232.504 126.08 227C138.763 211.805 151.692 196.564 165.086 182C169.616 177.074 183.674 166.08 180.242 158.232C176.909 150.611 165.875 162.411 163 165.089C150.323 176.898 140.534 191.443 128.025 203.286C125.738 205.45 117.677 217.041 114.046 211.638C111.716 208.17 115.705 203.61 117.63 201C123.858 192.557 130.795 184.849 137.715 177C152.229 160.537 175.47 142.596 183.906 122C189.98 107.171 188.076 87.6451 188.001 72C187.958 63.0328 192.727 35.2744 179.985 33.3218C173.453 32.3208 167.192 38.9265 163 43.0146C151.541 54.1884 140.241 66.4385 130.339 79C127.581 82.4978 118.771 97.0613 113.318 94.7438C109.628 93.1756 111 85.1229 111 82C111 71.657 114.024 55.6757 110.258 46.0046C106.725 36.933 98.9526 41.7081 97.6235 49C94.9094 63.8897 99.3637 79.31 94 94C84.8076 89.2308 79.5844 79.3368 73.9992 71C66.127 59.2495 53.3865 41.8494 40.9992 34.7029C34.034 30.6846 27.4387 34.848 25.3048 42C21.6961 54.095 23.2899 67.5683 22.9853 80C22.6135 95.18 17.9404 112.221 23.5633 127C30.9258 146.351 54.1173 163.089 67 179C74.7255 188.542 96.9354 200.32 94 214z"/>
</svg>
