<?xml version="1.0" standalone="yes"?>
<svg xmlns="http://www.w3.org/2000/svg" width="219" height="970">
  <path style="fill:#010101; stroke:none;"
        d="M94 214C76.8249 205.445 67.9605 185.461 53 173.888C49.1694 170.925 39.618 162.615 34.6034 167.604C27.3382 174.832 43.8927 186.127 47.9606 190.089C61.1147 202.904 73.5312 218.109 85.5756 232C90.1615 237.289 97.106 243.193 95.4529 251C91.2738 270.737 67.7911 283.978 66.0934 305C64.4018 325.945 79.6266 341.951 81.8117 362C83.7872 380.125 65.1736 396.046 67.1736 415C70.3387 444.996 89.0799 473.059 96.5216 502C102.716 526.089 98.2975 557.327 97.4059 582C97.227 586.948 98.3364 595.773 94.4861 599.527C90.6944 603.224 83.6802 599.66 79 600.189C70.6359 601.134 60.5346 607.766 56.3665 615.001C44.2987 635.948 58.2575 661.666 60 683C43.6201 666.482 28.902 631.231 35.4282 608C37.7504 599.734 40.66 590.156 47.0432 584.108C50.2887 581.033 55.7191 580.178 58.3927 576.722C60.9128 573.465 59.212 569.309 55.8912 567.458C41.8961 559.655 28.0802 580.692 24.2292 591C13.4329 619.899 21.6437 651.822 36.4244 678C39.9556 684.254 54.907 699.778 53.1829 706.867C51.8696 712.266 33.0638 712.598 28 715.529C7.98635 727.115 -1.99798 760.095 18.0401 776.61C39.1372 793.996 81.4305 770.989 62.8665 744.093C59.2476 738.85 45.7547 732.581 42.8472 742.055C41.2795 747.163 46.9688 751.775 46.4205 757C45.1713 768.907 31.4717 768.391 25.3943 760.957C15.8671 749.302 29.8839 731.361 42 728.533C54.632 725.585 72.2752 734.65 81.9961 741.924C97.8701 753.803 72.0244 776.269 64.3048 788C58.2481 797.204 48.6026 807.619 47.1852 819C45.4082 833.267 54.6239 845.068 60.7407 857C69.4056 873.901 76.1471 892.369 83.1998 910C87.74 921.35 92.3692 932.671 96.9653 944C98.695 948.264 101.691 953.043 107 952.547C118.801 951.445 122.815 931.888 126.192 923C136.6 895.606 146.529 867.7 156.003 840C159.559 829.604 167.943 818.34 163.387 807C157.115 791.386 144.067 775.517 134.155 762C130.189 756.592 122.963 748.963 127.013 742C134.504 729.12 151.984 717.248 167 716.599C179.655 716.052 192.839 726.566 190.785 740C190.455 742.164 189.639 744.184 188.347 745.957C177.931 760.254 173.238 742.43 167.351 736.438C162.684 731.687 157.686 737.281 156.533 742.001C153.218 755.57 161.983 770.267 177 769.736C203.47 768.8 211.192 736.306 199.521 717C191.307 703.414 173.633 700 159 700C160.735 686.959 172.28 673.91 177.688 662C186.46 642.678 190.44 614.895 186.919 594C184.755 581.162 178.481 570.032 166 564.684C161.547 562.775 152.07 561.069 149.032 566.228C144.627 573.711 167.063 583.266 170.442 590C179.078 607.212 173.113 640.961 159 654C162.054 637.548 165.517 616.656 148.999 605.969C142.879 602.009 135.219 600.287 128 601.185C124.553 601.614 120.524 604.321 117.055 603.292C113.566 602.258 112.276 598.261 112.133 595C111.3 575.859 112 556.271 112 537C112 526.678 110.284 515.058 112.924 505C118.566 483.51 126.963 462.118 134 441C137.145 431.562 142.721 419.976 142.945 410C143.311 393.761 126.268 379.278 127.214 363C128.376 343.001 147.887 320.818 143.61 301C139.514 282.028 116.446 267.567 114.268 248C113.384 240.059 121.486 232.504 126.08 227C138.763 211.805 151.692 196.564 165.086 182C169.616 177.074 183.674 166.08 180.242 158.232C176.909 150.611 165.875 162.411 163 165.089C150.323 176.898 140.534 191.443 128.025 203.286C125.738 205.45 117.677 217.041 114.046 211.638C111.716 208.17 115.705 203.61 117.63 201C123.858 192.557 130.795 184.849 137.715 177C152.229 160.537 175.47 142.596 183.906 122C189.98 107.171 188.076 87.6451 188.001 72C187.958 63.0328 192.727 35.2744 179.985 33.3218C173.453 32.3208 167.192 38.9265 163 43.0146C151.541 54.1884 140.241 66.4385 130.339 79C127.581 82.4978 118.771 97.0613 113.318 94.7438C109.628 93.1756 111 85.1229 111 82C111 71.657 114.024 55.6757 110.258 46.0046C106.725 36.933 98.9526 41.7081 97.6235 49C94.9094 63.8897 99.3637 79.31 94 94C84.8076 89.2308 79.5844 79.3368 73.9992 71C66.127 59.2495 53.3865 41.8494 40.9992 34.7029C34.034 30.6846 27.4387 34.848 25.3048 42C21.6961 54.095 23.2899 67.5683 22.9853 80C22.6135 95.18 17.9404 112.221 23.5633 127C30.9258 146.351 54.1173 163.089 67 179C74.7255 188.542 96.9354 200.32 94 214z"/>
  <path style="fill:#ffffff; stroke:none;"
        d="M169.957 58.0864C163.597 59.6714 158.143 70.164 154.339 75C142.381 90.1994 128.181 103.609 116.525 119C114.772 121.315 106.356 137.92 115.133 136.824C120.868 136.108 127.099 126.82 131 123.015C144.862 109.492 160.458 96.4418 171.15 80C173.236 76.7912 178.966 55.8411 169.957 58.0864M94 138C98.5993 127.083 91.0487 119.089 84.4244 111C74.986 99.4747 67.9874 86.3721 58.4097 75C55.2781 71.2817 46.1298 57.0676 40.2785 59.4074C31.4445 62.9399 38.4355 79.1144 41.4676 84C45.9812 91.2726 53.1425 95.8749 58.9105 102.004C69.1741 112.91 79.2803 132.996 94 138M38.1481 103.176C30.7389 104.128 36.5002 121.707 38.8002 125C49.589 140.449 66.7507 153.592 79.2816 168C82.2179 171.376 88.3935 181.183 93.7716 180.118C101.326 178.623 94.9042 163.213 92.4668 160C80.6652 144.442 64.8389 131.344 52.3889 116C49.4813 112.417 43.6007 102.475 38.1481 103.176M168.956 106.086C163.099 106.336 156.861 114.939 153.439 119C141.513 133.153 129.275 146.97 117.188 161C115.338 163.147 107.398 177.364 115.148 177.364C120.907 177.364 126.694 167.762 130.17 164.015C143.115 150.058 157.674 136.855 169.66 122C172.231 118.814 177.764 105.711 168.956 106.086M114.434 287.176C111.297 288.663 112.005 294.234 112 297C111.983 307.339 110.196 318.846 111.289 329C111.551 331.426 112.002 342.094 116.664 339.824C120.021 338.19 121.294 332.1 122.784 329C127.133 319.952 134.515 311.412 129.081 301C127.206 297.407 119.628 284.713 114.434 287.176M95 287C79.536 294.368 78.5476 312.492 84.4244 326C85.9121 329.42 88.6533 338.418 92.9715 339.079C97.9136 339.835 96.999 329.701 97 327C97.0046 315.167 100.185 297.775 95 287M96 447C99.3576 432.897 97.6866 418.257 97.0394 404C96.8855 400.611 97.2699 389.636 91.0216 391.346C86.8742 392.48 84.8325 398.549 83.2338 402C77.592 414.178 82.9461 440.579 96 447M114 445C123.389 436.951 130.86 414.518 125.687 403C124.218 399.731 120.714 390.496 116.09 391.037C111.064 391.625 112.007 400.607 112 404C111.973 417.469 110.318 431.899 114 445M114 705C121.903 702.728 123.827 692.636 127.258 686C134.995 671.038 154.632 642.376 144.633 625.004C131.218 601.697 112.006 628.968 112 645L112 671C112 682.335 110.91 694.003 114 705M96 705C99.976 695.577 98.179 684.869 98.179 675C98.179 661.865 100.218 646.869 96.3657 634C93.7545 625.276 85.2382 613.516 75.0039 618.688C66.1562 623.159 66.2583 633.454 67.5903 642C70.1535 658.445 74.8821 676.585 83.4529 691C86.6365 696.354 89.9021 702.828 96 705M114 901L116 901C126.951 882.166 133.785 857.664 140.667 837C143.031 829.901 148.756 820.578 147.772 813C146.88 806.132 140.91 799.265 136.79 794C133.171 789.376 122.152 768.12 115.317 769.832C112.577 770.518 112.98 774.886 112.715 777C111.759 784.644 111.997 792.302 112 800C112.008 820.931 113 841.991 113 863C113 875.201 111.167 889.099 114 901M98 898L99 869L98.9105 803L97.8256 781.001L94.7361 774.921L88.4282 780.005L75.8565 799L63.4198 821L69.5756 841L88.2469 881L98 898z"/>
</svg>
