<?xml version="1.0" standalone="yes"?>
<svg xmlns="http://www.w3.org/2000/svg" width="219" height="970">
  <path style="fill:#ffffff; stroke:none;"
        d="M169.957 58.0864C163.597 59.6714 158.143 70.164 154.339 75C142.381 90.1994 128.181 103.609 116.525 119C114.772 121.315 106.356 137.92 115.133 136.824C120.868 136.108 127.099 126.82 131 123.015C144.862 109.492 160.458 96.4418 171.15 80C173.236 76.7912 178.966 55.8411 169.957 58.0864M94 138C98.5993 127.083 91.0487 119.089 84.4244 111C74.986 99.4747 67.9874 86.3721 58.4097 75C55.2781 71.2817 46.1298 57.0676 40.2785 59.4074C31.4445 62.9399 38.4355 79.1144 41.4676 84C45.9812 91.2726 53.1425 95.8749 58.9105 102.004C69.1741 112.91 79.2803 132.996 94 138M38.1481 103.176C30.7389 104.128 36.5002 121.707 38.8002 125C49.589 140.449 66.7507 153.592 79.2816 168C82.2179 171.376 88.3935 181.183 93.7716 180.118C101.326 178.623 94.9042 163.213 92.4668 160C80.6652 144.442 64.8389 131.344 52.3889 116C49.4813 112.417 43.6007 102.475 38.1481 103.176M168.956 106.086C163.099 106.336 156.861 114.939 153.439 119C141.513 133.153 129.275 146.97 117.188 161C115.338 163.147 107.398 177.364 115.148 177.364C120.907 177.364 126.694 167.762 130.17 164.015C143.115 150.058 157.674 136.855 169.66 122C172.231 118.814 177.764 105.711 168.956 106.086M114.434 287.176C111.297 288.663 112.005 294.234 112 297C111.983 307.339 110.196 318.846 111.289 329C111.551 331.426 112.002 342.094 116.664 339.824C120.021 338.19 121.294 332.1 122.784 329C127.133 319.952 134.515 311.412 129.081 301C127.206 297.407 119.628 284.713 114.434 287.176M95 287C79.536 294.368 78.5476 312.492 84.4244 326C85.9121 329.42 88.6533 338.418 92.9715 339.079C97.9136 339.835 96.999 329.701 97 327C97.0046 315.167 100.185 297.775 95 287M96 447C99.3576 432.897 97.6866 418.257 97.0394 404C96.8855 400.611 97.2699 389.636 91.0216 391.346C86.8742 392.48 84.8325 398.549 83.2338 402C77.592 414.178 82.9461 440.579 96 447M114 445C123.389 436.951 130.86 414.518 125.687 403C124.218 399.731 120.714 390.496 116.09 391.037C111.064 391.625 112.007 400.607 112 404C111.973 417.469 110.318 431.899 114 445M114 705C121.903 702.728 123.827 692.636 127.258 686C134.995 671.038 154.632 642.376 144.633 625.004C131.218 601.697 112.006 628.968 112 645L112 671C112 682.335 110.91 694.003 114 705M96 705C99.976 695.577 98.179 684.869 98.179 675C98.179 661.865 100.218 646.869 96.3657 634C93.7545 625.276 85.2382 613.516 75.0039 618.688C66.1562 623.159 66.2583 633.454 67.5903 642C70.1535 658.445 74.8821 676.585 83.4529 691C86.6365 696.354 89.9021 702.828 96 705M114 901L116 901C126.951 882.166 133.785 857.664 140.667 837C143.031 829.901 148.756 820.578 147.772 813C146.88 806.132 140.91 799.265 136.79 794C133.171 789.376 122.152 768.12 115.317 769.832C112.577 770.518 112.98 774.886 112.715 777C111.759 784.644 111.997 792.302 112 800C112.008 820.931 113 841.991 113 863C113 875.201 111.167 889.099 114 901M98 898L99 869L98.9105 803L97.8256 781.001L94.7361 774.921L88.4282 780.005L75.8565 799L63.4198 821L69.5756 841L88.2469 881L98 898z"/>
</svg>
