<?xml version="1.0" encoding="UTF-8" standalone="no"?>
<svg
  xmlns:inkscape="http://www.inkscape.org/namespaces/inkscape"
  xmlns:sodipodi="http://sodipodi.sourceforge.net/DTD/sodipodi-0.dtd"
  inkscape:version="1.1.2 (0a00cf5339, 2022-02-04)"
  sodipodi:docname="Agroglyphe_de_Sarraltroff.svg"
  id="svg140"
  xml:space="preserve"
  stroke-linejoin="round"
  stroke-width="28.222"
  fill-rule="evenodd"
  preserveAspectRatio="xMidYMid"
  viewBox="0 0 32125.098 19049.011"
  height="190.49011mm"
  width="321.25098mm"
  version="1.2"
  xmlns="http://www.w3.org/2000/svg"
>
    <sodipodi:namedview
      inkscape:current-layer="svg140"
      inkscape:window-maximized="1"
      inkscape:window-y="0"
      inkscape:window-x="0"
      inkscape:cy="393.85372"
      inkscape:cx="607.60088"
      inkscape:zoom="0.96609472"
      fit-margin-bottom="0"
      fit-margin-right="0"
      fit-margin-left="0"
      fit-margin-top="0"
      showgrid="false"
      id="namedview142"
      inkscape:window-height="1007"
      inkscape:window-width="1920"
      inkscape:pageshadow="2"
      inkscape:pageopacity="0"
      guidetolerance="10"
      gridtolerance="10"
      objecttolerance="10"
      borderopacity="1"
      bordercolor="#666666"
      pagecolor="#ffffff"
      inkscape:pagecheckerboard="0"
      inkscape:document-units="mm"/>
  <path
    style="fill:#000000;fill-opacity:1;fill-rule:evenodd;stroke:none;stroke-width:746.707"
    d="m 20296.722,7124.3307 v 0 l 425.428,38.099 30.69,8.466 27.516,3.175 115.352,34.923 226.471,61.38 58.206,27.515 50.797,15.874 103.711,56.089 156.626,73.021 80.429,55.031 66.671,37.039 77.255,63.497 107.944,74.08 94.187,92.07 45.506,38.098 30.69,25.399 48.681,59.263 68.788,66.672 101.595,139.693 74.079,88.895 25.399,46.564 37.039,50.797 102.653,207.423 56.089,103.711 8.466,25.399 13.758,28.573 c 49.739,126.994 89.954,259.279 117.469,395.797 l 15.874,151.333 14.816,-151.333 c 224.355,-1093.202 1191.622,-1916.543 2351.495,-1916.543 1159.873,0 2128.198,823.341 2351.493,1916.543 l 27.517,269.86 49.739,-248.695 c 180.964,-427.544 604.276,-727.037 1097.433,-727.037 493.16,0 916.469,299.493 1097.436,727.037 l 47.623,239.17 83.603,-123.817 c 88.897,-88.896 212.714,-143.926 348.173,-143.926 204.247,0 378.865,123.818 452.945,300.55 l 33.864,168.266 63.498,-151.334 c 44.447,-44.447 105.828,-73.021 173.556,-73.021 136.519,0 246.578,111.119 246.578,246.579 0,136.518 -110.059,246.579 -246.578,246.579 -67.728,0 -129.109,-27.516 -173.556,-71.963 l -63.498,-151.334 -33.864,168.266 c -74.08,176.733 -248.698,300.5513 -452.945,300.5513 -135.459,0 -259.276,-55.0303 -348.173,-143.9253 l -83.603,-123.819 -47.623,239.171 c -180.967,427.5443 -604.276,727.0373 -1097.436,727.0373 -493.157,0 -916.469,-299.493 -1097.433,-727.0373 l -49.739,-248.696 -27.517,269.8613 c -223.295,1093.202 -1191.62,1915.484 -2351.493,1915.484 -993.724,0 -1846.696,-604.277 -2211.802,-1465.715 l -34.923,-113.236 9.524,89.954 c 437.069,2139.838 2330.329,3749.48 4600.336,3749.48 2592.781,0 4695.581,-2102.799 4695.581,-4695.5813 l -1.058,-11.641 h 35.981 l 1.058,32.806 c 0,3930.4463 -3184.358,7116.9223 -7113.746,7116.9223 -1382.112,0 -2671.095,-393.679 -3762.18,-1075.21 l -464.584,-319.601 -262.453,350.291 c -1747.219,2117.615 -4390.798,3465.861 -7349.745,3465.861 -4932.6354,0 -8989.0167,-3747.363 -9476.883,-8549.831 l -11.6411,-245.52 107.9444,706.93 c 664.5989,3246.798 3536.7663,5688.246 6979.3467,5688.246 3935.737,0 7125.388,-3189.651 7125.388,-7124.3303 v 0 0 -4.233 -9.525 l 2.117,-32.806 h 2.116 l 44.448,-437.068 c 27.515,-136.518 67.73,-268.803 117.469,-395.797 l 14.816,-28.573 7.408,-25.399 56.088,-103.711 102.653,-207.423 38.098,-50.797 24.341,-46.564 74.079,-88.895 101.595,-139.693 68.788,-66.672 48.681,-59.263 76.196,-63.497 94.187,-92.07 109.003,-74.08 76.196,-63.497 67.729,-37.039 79.371,-55.031 157.685,-73.021 102.653,-56.089 50.797,-15.874 58.205,-27.515 227.53,-61.38 114.294,-34.923 27.515,-3.175 31.749,-8.466 c 137.576,-24.341 279.385,-38.099 424.369,-38.099 z m -8314.894,-1133.416 c -1708.061,0 -3132.5044,1211.729 -3462.6875,2822.429 l -52.914,350.29 -19.049,360.872 v 0 0 l 24.341,-239.171 c 111.1191,-542.896 591.5771,-950.333 1166.2231,-950.333 575.7034,0 1056.1614,407.437 1167.2814,950.333 l 7.408,77.254 31.748,-318.541 c 222.238,-1086.851 1184.213,-1904.901 2337.737,-1904.901 823.34,0 1549.32,416.962 1977.922,1051.929 l 211.656,388.388 -133.343,-429.661 c -536.547,-1268.875 -1792.724,-2158.888 -3256.323,-2158.888 z M 13172.391,0 c 4931.578,0 8987.96,3748.4226 9475.826,8550.8907 l 12.699,245.52 -107.944,-706.93 C 21888.373,4842.6817 19015.146,2400.176 15572.567,2400.176 c -3689.159,0 -6723.2434,2804.4377 -7088.3495,6396.2347 l -12.699,245.521 66.6711,-440.244 c 428.603,-2167.354 2340.9124,-3801.337 4634.2014,-3801.337 2608.657,0 4724.155,2115.5 4724.155,4724.155 v 0 0 c 0,658.2493 -533.372,1190.5633 -1190.563,1190.5633 -431.778,0 -809.583,-229.646 -1018.064,-572.528 l -144.984,-369.3403 -23.282,232.8213 c -223.297,1086.852 -1185.272,1904.902 -2337.737,1904.902 -988.432,0 -1836.113,-601.103 -2198.044,-1457.25 l -67.73,-215.888 59.264,296.318 c 433.894,1460.424 1786.373,2525.052 3387.549,2525.052 1707.003,0 3132.504,-1211.729 3461.628,-2822.429 l 53.972,-350.2903 -6.349,121.7023 c -242.346,2382.185 -2254.133,4240.521 -4699.815,4240.521 -2446.739,0 -4458.5274,-1858.336 -4700.8725,-4240.521 l -24.341,-482.5753 v 0 -1.058 l -48.681,484.6913 c -223.2959,1093.202 -1191.6209,1915.484 -2351.4938,1915.484 -1159.8733,0 -2127.1397,-822.282 -2351.4947,-1915.484 l -17.9906,-179.9073 -31.7484,158.742 c -180.9658,427.5443 -604.2769,727.0373 -1097.4347,727.0373 -493.1578,0 -916.4691,-299.493 -1097.4347,-727.0373 l -46.5642,-232.821 -84.6623,125.935 c -89.9537,88.895 -212.714,143.9263 -348.1736,143.9263 -204.2477,0 -378.8637,-123.8193 -452.9431,-300.5513 l -35.9815,-175.675 -61.3802,148.159 c -44.4477,44.448 -105.8278,71.963 -174.6159,71.963 C 111.1192,9768.9677 0,9658.9067 0,9522.3887 c 0,-135.459 111.1192,-246.578 246.5788,-246.578 68.7881,0 130.1682,27.515 174.6159,73.021 l 64.555,154.508 32.8067,-161.916 c 74.0794,-175.674 248.6954,-299.492 452.9431,-299.492 135.4596,0 258.2199,55.03 348.1736,143.926 l 81.4874,121.701 49.7391,-245.52 c 180.9656,-427.544 604.2769,-727.037 1097.4347,-727.037 493.1578,0 916.4689,299.493 1097.4347,727.037 l 19.0489,98.42 30.6901,-609.568 C 4183.3743,3748.4226 8239.7556,0 13172.391,0 Z"
    id="path310"/>
</svg>
