<?xml version="1.0" standalone="no"?>
<!DOCTYPE svg PUBLIC "-//W3C//DTD SVG 20010904//EN"
  "http://www.w3.org/TR/2001/REC-SVG-20010904/DTD/svg10.dtd">
<svg version="1.0" xmlns="http://www.w3.org/2000/svg"
     width="112.000000pt" height="252.000000pt" viewBox="0 0 112.000000 252.000000"
     preserveAspectRatio="xMidYMid meet">

  <g transform="translate(0.000000,252.000000) scale(0.100000,-0.100000)"
     fill="#000000" stroke="none">
    <path d="M180 2511 c0 -31 86 -265 121 -330 35 -65 38 -76 24 -84 -33 -18
-105 -130 -125 -194 -36 -116 -21 -218 56 -382 63 -135 61 -149 -35 -261 -84
-97 -167 -220 -192 -281 -56 -141 -26 -356 81 -586 37 -80 38 -82 19 -99 -67
-60 -78 -142 -33 -236 l28 -58 106 0 107 0 27 53 c15 30 30 77 35 105 9 61 31
96 74 122 44 27 119 26 165 -2 36 -22 71 -85 72 -128 0 -14 13 -53 30 -88 l29
-63 113 3 112 3 24 46 c26 52 38 114 28 153 -3 13 -22 45 -41 70 l-34 45 39
83 c71 151 119 360 105 458 -14 102 -45 169 -135 288 -48 65 -97 126 -109 137
-61 54 -66 125 -17 223 105 208 104 385 -3 520 -21 26 -47 55 -59 65 l-20 19
28 41 c32 49 90 192 118 295 l20 72 -152 0 -153 0 -23 -77 c-13 -43 -25 -112
-28 -153 -4 -63 -1 -85 19 -129 l23 -54 -23 -18 c-13 -11 -32 -19 -43 -19 -24
0 -81 29 -76 38 50 94 55 194 16 327 l-23 80 -147 3 c-94 2 -148 -1 -148 -7z"/>
  </g>
</svg>
