<?xml version="1.0" standalone="no"?>
<!DOCTYPE svg PUBLIC "-//W3C//DTD SVG 20010904//EN"
 "http://www.w3.org/TR/2001/REC-SVG-20010904/DTD/svg10.dtd">
<svg version="1.0" xmlns="http://www.w3.org/2000/svg"
 width="217.000000pt" height="252.000000pt" viewBox="0 0 217.000000 252.000000"
 preserveAspectRatio="xMidYMid meet">

<g transform="translate(0.000000,252.000000) scale(0.100000,-0.100000)"
fill="#000000" stroke="none">
<path d="M429 2491 c37 -52 181 -200 261 -269 86 -73 217 -141 383 -198 118
-40 119 -42 88 -109 -39 -84 -94 -118 -354 -214 -181 -67 -242 -99 -309 -160
-62 -56 -167 -203 -198 -277 -43 -99 -81 -257 -87 -360 -5 -90 9 -309 24 -358
5 -17 0 -18 -63 -12 -124 12 -179 -41 -171 -162 8 -114 106 -263 224 -341 l46
-31 175 0 175 0 71 73 c179 184 392 191 571 18 100 -96 80 -91 333 -91 257 0
237 -10 237 112 0 72 -2 79 -30 108 -16 18 -54 46 -82 62 -29 16 -53 31 -53
33 0 2 25 40 56 85 71 103 91 156 105 278 15 133 -7 323 -57 482 -19 63 -38
124 -40 135 -5 19 -1 20 98 17 125 -4 190 16 261 79 53 46 70 87 68 173 -1
107 -47 211 -140 323 -116 139 -402 304 -553 320 -57 6 -73 13 -168 79 -58 39
-136 88 -175 107 -139 70 -345 114 -579 124 l-140 6 23 -32z m1346 -661 c0
-18 -6 -26 -23 -28 -24 -4 -38 18 -28 44 3 9 15 14 28 12 17 -2 23 -10 23 -28z"/>
</g>
</svg>
