<?xml version="1.0" encoding="UTF-8" standalone="no"?>
<!-- Created with Inkscape (http://www.inkscape.org/) -->

<svg
  xmlns:inkscape="http://www.inkscape.org/namespaces/inkscape"
  xmlns:sodipodi="http://sodipodi.sourceforge.net/DTD/sodipodi-0.dtd"
  version="1.1"
  id="svg2"
  width="144"
  height="352"
  viewBox="0 0 144 352"
  sodipodi:docname="rabbit2_front.svg"
  inkscape:version="1.1.2 (0a00cf5339, 2022-02-04)"
  xmlns="http://www.w3.org/2000/svg"
>
  <defs
    id="defs6"/>
  <sodipodi:namedview
    id="namedview4"
    pagecolor="#ffffff"
    bordercolor="#666666"
    borderopacity="1.0"
    inkscape:pageshadow="2"
    inkscape:pageopacity="0.0"
    inkscape:pagecheckerboard="0"
    showgrid="false"
    inkscape:zoom="1.8295455"
    inkscape:cx="72.149068"
    inkscape:cy="175.72671"
    inkscape:window-width="1920"
    inkscape:window-height="1007"
    inkscape:window-x="0"
    inkscape:window-y="0"
    inkscape:window-maximized="1"
    inkscape:current-layer="g8"/>
  <g
    inkscape:groupmode="layer"
    inkscape:label="Image"
    id="g8">
    <path
      style="fill:#000000;stroke-width:1.33333"
      d="m 32.141988,351.10443 c -12.590917,-0.43818 -15.843304,-0.99291 -19,-3.24068 -4.2822289,-3.04922 -4.9974351,-7.93422 -2.005866,-13.70048 2.482651,-4.78531 1.604213,-16.75976 -1.7367661,-23.6748 -2.213092,-4.58058 -2.7326892,-8.27382 -2.7326892,-19.42367 0,-8.64595 -0.6153284,-14.75295 -1.6540624,-16.41623 -1.3165276,-2.10809 -1.3165276,-3.18905 0,-5.29714 0.9097342,-1.45672 1.6540624,-3.75672 1.6540624,-5.11111 0,-1.3544 0.4112028,-2.87375 0.913784,-3.37632 1.8279594,-1.82796 4.3798893,-10.98428 4.3994743,-15.78531 0.01104,-2.70672 0.620075,-5.29213 1.353408,-5.74536 0.733334,-0.45322 1.333334,-1.67361 1.333334,-2.71196 0,-1.03836 1.8,-5.81797 4,-10.62137 3.652274,-7.97424 4,-9.97553 4,-23.02157 0,-13.67551 0.20263,-14.69823 4.725812,-23.85244 2.599197,-5.26038 5.599197,-10.28915 6.666666,-11.17508 2.671994,-2.21755 2.429975,-8.22644 -0.60276,-14.96544 -3.19388,-7.09708 -4.451576,-12.35796 -4.3794,-18.3188 0.07224,-5.9667 1.439935,-14.57319 2.86045,-18 5.478974,-13.21737 6.223108,-31.689017 1.50398,-37.333337 C 26.572951,71.118297 25.069653,56.424125 27.598609,22.222055 28.486104,10.219412 29.104216,7.4581407 31.25484,5.8887216 32.678335,4.8499247 34.8823,4 36.152539,4 c 2.610209,0 10.514128,6.195527 10.514128,8.241552 0,0.73581 1.2,2.863389 2.666666,4.727953 C 50.8,18.834071 52,21.361008 52,22.584923 c 0,1.223914 2.1381,4.292998 4.751332,6.820188 4.017267,3.884993 10.53076,15.281298 12.91398,22.594889 0.7176,2.202161 2.086037,-0.567172 4.941397,-10 2.588994,-8.552873 4.984484,-13.151109 8.640494,-16.585752 1.880705,-1.766831 3.419464,-3.914837 3.419464,-4.773349 0,-0.858514 1.2,-2.646918 2.666666,-3.974232 C 90.8,15.339352 92,13.476893 92,12.527872 92,9.6275847 100.61192,4 105.05025,4 c 7.73466,0 8.28308,2.3538632 8.28308,35.551319 0,18.311505 -0.50917,29.939324 -1.33333,30.448681 -0.73333,0.453225 -1.33167,1.838635 -1.32963,3.078689 0.002,1.240055 -1.15213,4.654644 -2.56483,7.587978 -4.41458,9.166505 -5.92569,15.932344 -4.25544,19.053238 0.81578,1.524295 1.48323,4.039885 1.48323,5.590185 0,1.5503 1.2,5.30244 2.66667,8.33809 1.46667,3.03565 2.66667,6.48667 2.66667,7.66893 0,1.18225 0.66798,2.81754 1.4844,3.63396 0.87337,0.87337 1.16885,3.59018 0.71783,6.6 -1.75594,11.71789 -2.5589,15.17865 -3.68288,15.87332 -0.65231,0.40314 -1.18602,3.35748 -1.18602,6.56517 0,4.37961 1.66041,9.06397 6.66667,18.80805 3.66666,7.13674 6.66666,13.95684 6.66666,15.1558 0,1.19896 0.53855,2.74992 1.19677,3.44659 0.65822,0.69667 1.52424,3.66667 1.92449,6.6 0.40024,2.93333 1.13061,7.28883 1.62302,9.67888 0.56166,2.72609 0.284,5.08212 -0.74505,6.32205 -3.48635,4.2008 -1.98448,14.0824 3.82752,25.18326 3.02862,5.78464 5.50659,11.44204 5.50659,12.57201 0,2.28832 2.3273,10.02056 4.35857,14.48093 0.73777,1.62006 0.86592,4.56736 0.28985,6.66667 -0.5679,2.06957 -1.25874,10.66287 -1.53521,19.0962 -0.27645,8.43333 -1.00689,16.53333 -1.62317,18 -4.75653,11.31972 -5.11779,16.41856 -1.49004,21.03049 1.66326,2.11451 2.66666,5.40904 2.66666,8.7557 0,4.43853 -0.6903,5.85709 -3.99542,8.21056 -3.83844,2.7332 -5.6066,2.86053 -45.000002,3.24066 -22.552516,0.21763 -47.84068,0.15779 -56.19592,-0.13293 z"
      id="path30"/>
  </g>
</svg>
