<?xml version="1.0" encoding="UTF-8" standalone="no"?>
<!-- Created with Inkscape (http://www.inkscape.org/) -->

<svg
  xmlns:inkscape="http://www.inkscape.org/namespaces/inkscape"
  xmlns:sodipodi="http://sodipodi.sourceforge.net/DTD/sodipodi-0.dtd"
  version="1.1"
  id="svg2"
  width="168"
  height="135.97093"
  viewBox="0 0 168 135.97093"
  sodipodi:docname="rabbit2_top.svg"
  inkscape:version="1.1.2 (0a00cf5339, 2022-02-04)"
  xmlns="http://www.w3.org/2000/svg"
>
  <defs
    id="defs6"/>
  <sodipodi:namedview
    id="namedview4"
    pagecolor="#ffffff"
    bordercolor="#666666"
    borderopacity="1.0"
    inkscape:pageshadow="2"
    inkscape:pageopacity="0.0"
    inkscape:pagecheckerboard="0"
    showgrid="false"
    inkscape:zoom="3.7734374"
    inkscape:cx="84.008284"
    inkscape:cy="67.975157"
    inkscape:window-width="1920"
    inkscape:window-height="1007"
    inkscape:window-x="0"
    inkscape:window-y="0"
    inkscape:window-maximized="1"
    inkscape:current-layer="g8"
    fit-margin-top="0"
    fit-margin-left="0"
    fit-margin-right="0"
    fit-margin-bottom="0"/>
  <g
    inkscape:groupmode="layer"
    inkscape:label="Image"
    id="g8"
    transform="translate(12.000002,-17.347868)">
    <path
      style="fill:#000000;stroke-width:1.33333"
      d="m 152.82742,93.16778 c -1.74492,1.639267 -5.14856,4.040215 -7.56364,5.335439 -2.41508,1.295225 -5.47802,4.381681 -6.80651,6.858801 -1.32849,2.47712 -5.72485,7.84816 -9.76969,11.93564 -4.04483,4.08749 -7.35424,7.997 -7.35424,8.6878 0,1.81862 -14.96238,16.66667 -16.79501,16.66667 -0.84983,0 -2.28174,0.88755 -3.18203,1.97233 -3.886542,4.68299 -9.532962,6.02767 -25.310712,6.02767 -12.816034,0 -16.513565,-0.4681 -21.064074,-2.66667 -3.132199,-1.51331 -8.248042,-2.66666 -11.828335,-2.66666 -6.012591,0 -21.06693,4.32362 -23.75318,6.82195 -0.696667,0.64792 -5.926667,1.17805 -11.6222234,1.17805 -10.0757513,0 -10.4828486,-0.1273 -15.0666668,-4.71112 -4.3441798,-4.34417 -4.7111108,-5.33331 -4.7111108,-12.69966 0,-7.13418 0.331581,-8.11463 3.1003146,-9.1673 1.7051732,-0.6483 4.0377702,-2.60947 5.1835488,-4.35815 1.1457784,-1.74868 6.2006362,-5.21605 11.2330182,-7.70528 C 19.228275,108.88436 23.438432,104.99595 27.437251,96.279286 31.177247,88.1268 31.354748,85.957942 28.785249,79.808268 26.658319,74.717804 18.066245,65.318799 15.539745,65.318799 c -0.91587,0 -4.008756,-2.4 -6.8730804,-5.333333 -2.864324,-2.933337 -6.321275,-5.333337 -7.68211504,-5.333337 -1.36084,0 -4.83907116,-1.90042 -7.72940306,-4.22315 -5.2502075,-4.21918 -5.2551485,-4.23228 -5.2551485,-13.93214 0,-9.44307 0.122135,-9.80215 4.4591876,-13.11019 5.2766722,-4.0247 11.757939,-4.42321 18.3359624,-1.1274 2.496001,1.25059 7.238184,2.72787 10.538184,3.28286 3.3,0.55499 8.000485,1.40729 10.445524,1.89401 3.295347,0.65599 5.365163,0.22264 8,-1.67491 1.954962,-1.40792 6.254476,-3.34192 9.554477,-4.29776 3.3,-0.95584 7.041858,-2.27941 8.315241,-2.94126 3.154624,-1.63967 24.658318,-1.53087 25.684759,0.13 0.453226,0.73333 1.896452,1.33333 3.207172,1.33333 3.479433,0 9.795853,3.43356 13.427153,7.29891 1.740122,1.85221 3.837492,3.3677 4.660832,3.3677 1.89675,0 10.71911,9.22571 11.81324,12.35335 0.4528,1.29434 2.22558,2.8865 3.93951,3.53813 1.71394,0.65164 6.18512,4.54264 9.93596,8.64666 4.11154,4.498667 7.92488,7.461863 9.6027,7.461863 3.33473,0 7.44492,2.179612 12.41344,6.582788 C 155.6388,72.164272 156,73.356332 156,81.335835 c 0,7.598001 -0.44926,9.273528 -3.17258,11.831945 z"
      id="path30"/>
  </g>
</svg>
