<?xml version="1.0" encoding="UTF-8" standalone="no"?>
<!-- Created with Inkscape (http://www.inkscape.org/) -->

<svg
   version="1.1"
   id="svg2"
   width="170.66667"
   height="352"
   viewBox="0 0 170.66667 352"
   sodipodi:docname="rabbit2_side.svg"
   inkscape:version="1.1.2 (0a00cf5339, 2022-02-04)"
   xmlns:inkscape="http://www.inkscape.org/namespaces/inkscape"
   xmlns:sodipodi="http://sodipodi.sourceforge.net/DTD/sodipodi-0.dtd"
   xmlns="http://www.w3.org/2000/svg"
   xmlns:svg="http://www.w3.org/2000/svg">
  <defs
     id="defs6" />
  <sodipodi:namedview
     id="namedview4"
     pagecolor="#ffffff"
     bordercolor="#666666"
     borderopacity="1.0"
     inkscape:pageshadow="2"
     inkscape:pageopacity="0.0"
     inkscape:pagecheckerboard="0"
     showgrid="false"
     inkscape:zoom="1.8295455"
     inkscape:cx="85.267081"
     inkscape:cy="175.72671"
     inkscape:window-width="1920"
     inkscape:window-height="1007"
     inkscape:window-x="0"
     inkscape:window-y="0"
     inkscape:window-maximized="1"
     inkscape:current-layer="g8" />
  <g
     inkscape:groupmode="layer"
     inkscape:label="Image"
     id="g8">
    <path
       style="fill:#000000;stroke-width:1.33333"
       d="m 26.818139,349.61636 c -2.117835,-3.95721 -1.8559,-6.11831 1.214708,-10.02195 3.259602,-4.1439 9.784171,-7.57898 14.505338,-7.63681 3.595796,-0.044 8.132604,-2.70889 8.122903,-4.77125 -0.0031,-0.6525 -1.50307,-4.13804 -3.333334,-7.74566 -1.830264,-3.60761 -3.327753,-7.53761 -3.327753,-8.73333 0,-1.19572 -0.629497,-2.80352 -1.398883,-3.57291 -1.412844,-1.41284 -0.966793,-32.52993 0.775994,-54.13445 0.994541,-12.32887 0.93599,-12.35615 -12.216585,-5.69161 -7.148241,3.62209 -10.786079,4.64721 -16.560527,4.66666 -8.7284191,0.0295 -10.5999999,-1.42509 -10.5999999,-8.23788 0,-3.94433 1.065248,-6.24193 4.8218165,-10.4 C 11.473816,230.40173 14.341148,228 15.193668,228 c 0.852519,0 5.342494,-3.82647 9.977723,-8.50327 l 8.427688,-8.50328 -0.8582,-7.83005 c -1.660989,-15.15459 -0.65788,-27.77069 3.305142,-41.56875 1.58272,-5.51056 1.498648,-5.89481 -2.115012,-9.66666 C 31.861221,149.7676 29.282727,148 28.201022,148 c -3.398543,0 -12.901651,-6.30715 -14.398498,-9.55619 -6.5441244,-14.20458 -5.9430314,-18.00012 4.634902,-29.26659 3.178938,-3.38586 7.080993,-8.76859 8.671232,-11.961621 1.590239,-3.193028 4.237211,-6.476046 5.882161,-7.295594 1.644951,-0.819548 4.092195,-2.486818 5.438322,-3.705046 C 39.775266,84.996732 42.516659,84 44.521125,84 c 2.004465,0 6.514577,-0.93876 10.022471,-2.086135 7.157896,-2.341228 10.789739,-7.6866 10.789739,-15.880412 0,-2.498508 0.530822,-4.870808 1.179605,-5.271777 C 68.071932,59.798165 69.290157,53.795271 70.726307,40 72.915845,18.967876 73.509699,15.346115 75.478436,11.018005 78.363775,4.674822 82.12699,3.0770544 86.499839,6.3385919 90.455436,9.2889183 95.881155,19.060293 98.527695,28 c 0.976944,3.3 2.262675,7.2 2.857185,8.666667 2.54049,6.267456 3.10924,11.888002 3.35302,33.135092 0.236,20.570404 1.12764,27.515945 4.64698,36.198241 2.17222,5.35892 2.99159,10.94504 3.5203,24 0.57152,14.11183 3.85708,23.98991 9.75446,29.32697 1.46881,1.32926 5.656,8.47447 9.30488,15.87826 3.64888,7.40378 8.14959,15.20476 10.00158,17.33549 1.85197,2.13073 3.36724,4.43933 3.36724,5.13023 0,0.6909 2.34642,6.14757 5.21428,12.12594 2.86785,5.97838 5.92817,13.26978 6.80069,16.20311 0.87253,2.93333 2.68136,7.73333 4.01961,10.66667 1.33826,2.93333 2.86056,7.73333 3.38291,10.66666 1.53467,8.61832 1.21043,46.16044 -0.44912,52 -0.83363,2.93334 -1.8976,7.13334 -2.36439,9.33334 -0.46678,2.2 -2.35492,7.18504 -4.19584,11.07788 -3.0865,6.52672 -3.1808,7.26169 -1.21098,9.43832 2.64381,2.92137 2.9936,17.77901 0.46792,19.87513 -1.06394,0.883 -24.67562,1.7374 -65.181864,2.35864 -63.457331,0.97324 -63.514926,0.97165 -64.998417,-1.80028 z"
       id="path30" />
  </g>
</svg>
