<?xml version="1.0" encoding="UTF-8" standalone="no"?>
<svg
        xmlns:inkscape="http://www.inkscape.org/namespaces/inkscape"
        xmlns:sodipodi="http://sodipodi.sourceforge.net/DTD/sodipodi-0.dtd"
        version="1.0"
        width="247.2pt"
        height="691.06622pt"
        viewBox="0 0 247.2 691.06622"
        preserveAspectRatio="xMidYMid meet"
        id="svg6"
        sodipodi:docname="reindeer_side.svg"
        inkscape:version="1.1.2 (0a00cf5339, 2022-02-04)"
        xmlns="http://www.w3.org/2000/svg"
>
    <defs
            id="defs10"/>
    <sodipodi:namedview
            id="namedview8"
            pagecolor="#ffffff"
            bordercolor="#666666"
            borderopacity="1.0"
            inkscape:pageshadow="2"
            inkscape:pageopacity="0.0"
            inkscape:pagecheckerboard="0"
            inkscape:document-units="pt"
            showgrid="false"
            inkscape:zoom="0.69797688"
            inkscape:cx="-48.712215"
            inkscape:cy="459.90062"
            inkscape:window-width="1402"
            inkscape:window-height="884"
            inkscape:window-x="2179"
            inkscape:window-y="121"
            inkscape:window-maximized="0"
            inkscape:current-layer="svg6"
            fit-margin-top="0"
            fit-margin-left="0"
            fit-margin-right="0"
            fit-margin-bottom="0"/>
    <g
            transform="matrix(0.1,0,0,-0.1,-145.8,691.06625)"
            fill="#000000"
            stroke="none"
            id="g4">
        <path
                d="m 2393,6894 c -4,-11 24,-77 72,-173 171,-343 203,-533 123,-748 -18,-49 -22,-53 -52,-53 -29,0 -35,5 -54,48 -12,26 -40,125 -62,220 -68,295 -157,437 -304,481 -37,12 -88,21 -112,21 h -44 v -56 c 0,-54 2,-57 91,-175 73,-95 98,-138 125,-210 32,-84 34,-96 34,-217 v -127 l -44,-66 -44,-65 -67,-12 c -66,-13 -67,-13 -123,19 -64,36 -172,136 -238,221 -24,31 -61,93 -81,137 -36,80 -36,81 -73,81 -44,0 -45,-3 -56,-130 l -6,-86 63,-143 64,-143 114,-107 114,-106 100,-20 100,-20 -100,-85 c -56,-47 -136,-105 -179,-129 -43,-24 -108,-70 -145,-103 -63,-56 -69,-66 -109,-168 l -42,-108 15,-86 c 14,-71 24,-98 64,-158 42,-64 53,-73 88,-81 90,-19 138,-2 428,152 291,153 328,154 353,10 11,-66 10,-76 -11,-138 -42,-122 -121,-275 -220,-426 -54,-82 -213,-330 -354,-550 l -256,-400 -52,-160 c -53,-159 -53,-160 -53,-289 0,-193 22,-265 310,-1011 232,-599 249,-648 270,-769 l 23,-129 -23,-161 c -12,-89 -37,-222 -55,-296 -30,-117 -85,-364 -85,-376 0,-2 65,-4 145,-4 h 145 v 51 c 0,45 5,57 35,90 19,21 33,44 30,51 -2,7 -15,65 -29,129 l -26,116 35,104 c 34,99 35,109 35,248 0,83 9,217 20,311 11,91 20,226 20,301 0,133 1,139 32,205 38,82 191,252 304,339 100,77 165,98 275,90 l 87,-7 -18,-58 -18,-59 43,-118 c 24,-65 65,-167 92,-227 l 48,-108 113,-47 112,-46 v -84 c 0,-55 18,-189 52,-385 l 51,-301 -42,-290 C 3418,145 3399,12 3400,8 c 0,-5 56,-8 123,-8 h 124 l 16,60 c 17,59 17,62 -5,125 l -23,64 23,178 c 19,155 22,224 22,533 0,349 1,358 29,520 16,91 55,257 85,370 55,200 56,208 56,336 0,171 -21,248 -86,314 -51,53 -55,79 -16,101 46,26 109,120 147,216 32,84 35,101 35,196 0,57 -3,125 -6,150 -6,39 -11,46 -33,52 -14,3 -34,8 -43,11 -14,4 -29,-18 -72,-103 -49,-99 -62,-116 -141,-188 l -87,-79 -101,34 c -56,18 -138,52 -182,75 -64,34 -122,53 -290,94 l -210,52 -131,-44 c -108,-37 -144,-55 -207,-101 l -76,-56 h -90 -89 l -41,49 c -35,41 -41,56 -41,94 0,79 143,355 485,937 l 308,525 45,165 44,165 -27,165 -27,165 -75,133 c -41,73 -73,134 -71,136 1,1 26,16 53,34 28,17 84,71 126,119 72,84 216,278 236,319 5,10 29,88 53,173 l 44,154 -17,171 c -15,160 -19,178 -61,281 -40,101 -48,113 -97,152 -41,32 -63,42 -91,43 h -38 v -122 c 0,-79 9,-177 24,-271 l 23,-149 -32,-129 c -42,-167 -82,-259 -111,-259 -20,0 -21,4 -16,73 2,41 -3,139 -12,218 -14,124 -23,163 -64,274 -39,107 -60,148 -119,230 -62,87 -79,104 -127,128 -66,32 -143,37 -153,11 z"
                id="path2"/>
    </g>
</svg>
