<?xml version="1.0" standalone="no"?>
<!DOCTYPE svg PUBLIC "-//W3C//DTD SVG 20010904//EN" "http://www.w3.org/TR/2001/REC-SVG-20010904/DTD/svg10.dtd">
<svg xmlns="http://www.w3.org/2000/svg" version="1.0" width="993.000000pt" height="949.000000pt" viewBox="0 0 993.000000 949.000000" preserveAspectRatio="xMidYMid meet">
  <g transform="translate(0.000000,949.000000) scale(0.100000,-0.100000)" fill="#000000" stroke="none">
    <path d="M1490 9450 c13 -24 77 -121 155 -230 21 -30 66 -93 99 -140 33 -47 84 -119 113 -160 29 -41 77 -108 106 -149 28 -41 73 -104 99 -140 79 -110 100 -143 94 -149 -8 -7 -64 33 -121 87 -29 27 -52 41 -61 37 -18 -7 -19 -6 -441 447 -271 290 -333 352 -333 334 0 -4 46 -62 164 -209 102 -126 203 -237 383 -421 96 -99 172 -181 170 -184 -3 -2 -34 15 -68 39 -98 67 -168 92 -235 84 l-55 -6 -91 77 c-87 75 -205 175 -297 251 -25 20 -52 44 -60 53 -9 8 -56 49 -106 89 -49 41 -103 87 -118 102 -16 15 -36 28 -45 28 -24 0 414 -428 499 -488 31 -22 22 -32 -27 -29 -45 2 -46 1 -62 -40 -22 -54 -28 -59 -50 -40 -23 21 -81 45 -157 67 -33 10 -112 33 -175 53 -103 31 -152 43 -310 78 -25 5 -53 12 -62 15 -10 3 -18 1 -18 -5 0 -6 5 -11 11 -11 6 0 25 -6 42 -14 29 -13 98 -36 372 -125 49 -16 91 -33 92 -38 2 -6 -21 -20 -50 -32 -30 -12 -67 -35 -82 -51 l-27 -28 21 -14 c11 -7 21 -16 21 -20 0 -5 -29 -22 -64 -38 -88 -42 -145 -95 -181 -169 -26 -55 -40 -70 -130 -137 -180 -135 -401 -355 -470 -469 -19 -31 -3 -16 210 190 104 102 252 221 262 211 3 -3 2 -18 -2 -33 -5 -15 -9 -32 -11 -38 -25 -89 -46 -152 -57 -169 -26 -39 -39 -130 -32 -233 l6 -98 -56 -80 c-31 -44 -79 -114 -107 -155 -29 -41 -58 -81 -65 -88 -17 -18 -46 -73 -40 -78 4 -4 10 3 178 207 57 70 150 176 206 237 60 65 105 122 108 139 4 15 8 33 10 39 2 5 22 16 46 23 60 18 111 52 171 116 34 36 65 59 88 65 114 29 116 25 23 -47 -121 -92 -371 -356 -427 -450 -20 -34 18 0 168 150 256 256 409 372 545 413 47 15 99 33 115 41 22 11 31 12 40 3 8 -9 6 -15 -8 -24 -91 -56 -255 -168 -270 -185 -36 -39 4 -22 153 68 l149 90 62 -20 c34 -10 94 -22 133 -25 88 -8 103 -15 121 -58 8 -19 30 -52 50 -74 42 -46 46 -65 14 -57 -13 3 -52 12 -88 20 -64 15 -350 48 -357 41 -3 -3 97 -28 312 -78 50 -11 141 -37 203 -56 110 -36 112 -37 112 -67 0 -71 183 -252 337 -333 60 -30 66 -42 25 -42 -41 0 -43 -6 -21 -57 20 -48 25 -77 10 -71 -5 2 -48 35 -96 73 -48 39 -130 105 -183 147 -131 104 -322 223 -322 200 0 -8 52 -52 330 -276 102 -83 190 -155 197 -160 7 -6 19 -16 27 -23 98 -82 279 -236 307 -262 24 -21 46 -57 65 -104 15 -40 41 -91 57 -115 16 -23 27 -47 25 -53 -3 -10 -79 43 -143 102 -115 105 -618 494 -723 559 -52 33 -77 35 -51 4 7 -9 50 -44 94 -77 44 -34 82 -64 85 -67 3 -4 56 -46 118 -94 123 -95 198 -168 513 -491 197 -204 208 -217 328 -404 118 -183 250 -360 399 -534 37 -43 71 -86 76 -95 5 -9 30 -48 55 -86 39 -59 47 -79 51 -133 3 -34 3 -63 -1 -63 -5 0 -230 299 -521 691 -128 173 -213 280 -216 270 -7 -20 233 -373 458 -673 19 -26 56 -76 81 -110 181 -248 256 -346 278 -368 14 -14 55 -59 91 -99 63 -71 64 -73 65 -132 l1 -59 -37 0 c-31 0 -43 8 -90 58 -30 31 -77 91 -106 132 -57 83 -247 347 -266 370 -7 8 -59 80 -117 160 -111 155 -193 261 -197 256 -4 -3 41 -88 91 -171 46 -78 97 -154 225 -334 92 -128 161 -226 277 -392 24 -34 30 -49 21 -58 -22 -22 -44 -11 -62 29 -13 29 -24 40 -40 40 -13 0 -28 7 -35 15 -8 9 -21 13 -37 9 -16 -5 -44 4 -88 26 -37 19 -87 35 -121 39 -33 4 -69 12 -81 19 -33 18 -64 15 -70 -8 -3 -11 -8 -20 -12 -20 -15 0 -108 53 -134 76 -20 18 -32 23 -39 16 -15 -15 8 -103 50 -192 20 -41 36 -79 36 -85 1 -5 -12 -12 -29 -15 -28 -5 -30 -8 -29 -48 0 -28 11 -58 33 -94 27 -42 31 -56 22 -70 -16 -26 -14 -32 23 -77 29 -35 33 -46 29 -79 -4 -33 -2 -39 21 -51 27 -15 34 -35 16 -46 -16 -10 -11 -30 15 -61 27 -31 32 -63 13 -82 -9 -9 -3 -22 30 -55 47 -47 49 -57 26 -92 -22 -34 -12 -44 92 -95 46 -23 87 -46 90 -52 3 -5 -2 -18 -11 -28 -23 -25 -14 -35 40 -49 27 -7 49 -19 55 -32 7 -11 27 -27 45 -35 22 -9 35 -22 37 -36 2 -19 11 -24 45 -29 23 -3 48 -11 57 -18 14 -11 27 -11 78 -1 61 13 61 13 85 -14 21 -25 23 -35 23 -151 l0 -124 -80 -95 c-92 -110 -125 -169 -141 -249 -10 -48 -9 -60 4 -81 14 -20 14 -33 5 -84 -14 -77 -8 -92 37 -92 19 0 35 -2 35 -4 0 -17 -93 -267 -139 -376 -61 -140 -68 -162 -81 -245 -14 -89 -19 -103 -74 -207 -63 -120 -125 -283 -158 -418 -20 -82 -23 -120 -23 -285 0 -182 2 -195 32 -313 32 -121 81 -257 108 -298 8 -13 29 -24 54 -28 22 -3 42 -10 45 -14 3 -4 -1 -48 -9 -98 -23 -148 -45 -305 -51 -366 -7 -57 -6 -58 19 -58 24 0 25 2 25 65 0 35 7 108 17 162 48 279 56 313 74 313 23 0 20 -47 -8 -156 -17 -65 -29 -120 -26 -122 7 -7 7 -6 38 64 15 34 27 69 27 78 0 10 5 14 10 11 6 -3 10 -35 10 -71 0 -36 4 -64 10 -64 6 0 10 6 10 14 0 30 19 25 41 -10 l22 -36 -26 -54 c-14 -29 -49 -85 -77 -123 l-50 -71 55 0 c51 0 55 2 61 28 9 33 33 72 45 72 5 0 9 -22 9 -50 0 -38 4 -50 15 -50 12 0 15 17 15 90 0 79 2 90 18 90 30 0 44 -17 48 -56 7 -86 16 -124 28 -124 10 0 13 24 12 102 -1 62 3 102 9 105 6 2 22 -42 36 -99 l25 -103 33 -3 c28 -3 32 -1 27 15 -30 102 -39 174 -43 343 -5 209 5 229 32 60 26 -165 45 -156 26 13 -4 37 -6 67 -5 67 2 0 23 -26 47 -58 39 -51 45 -65 51 -127 18 -178 55 -315 86 -315 16 0 16 7 -11 98 -33 111 -41 228 -14 201 9 -8 29 -67 44 -130 35 -139 46 -169 64 -169 11 0 9 19 -9 93 -33 128 -32 140 12 161 20 9 38 16 39 14 1 -2 5 -43 7 -93 6 -104 25 -175 46 -175 9 0 12 6 8 16 -11 29 -26 146 -26 207 0 60 13 70 24 17 3 -17 24 -78 47 -135 l41 -105 38 0 39 0 -48 103 c-26 56 -56 129 -66 161 -15 51 -16 62 -4 81 16 27 123 115 138 115 6 0 11 -21 11 -50 0 -41 5 -55 24 -73 17 -16 28 -45 41 -110 16 -79 28 -107 41 -95 2 3 -5 47 -15 99 -11 51 -17 97 -15 101 12 19 33 5 47 -31 9 -21 33 -65 54 -97 22 -34 46 -90 57 -132 12 -45 24 -72 32 -72 17 0 17 13 3 63 -6 22 -8 41 -5 44 9 9 87 -61 92 -84 7 -25 29 -31 37 -10 4 9 7 9 18 0 16 -15 113 -18 104 -3 -3 5 -60 46 -125 90 -121 82 -164 128 -203 213 -23 50 -40 222 -33 317 4 41 9 118 11 170 4 85 3 93 -10 76 -29 -37 -55 -208 -55 -363 0 -89 -3 -113 -14 -113 -25 0 -35 25 -37 95 -3 88 -19 161 -55 254 -22 57 -36 78 -59 91 -31 17 -41 46 -75 217 -7 35 -17 60 -22 57 -13 -8 -7 -136 9 -199 30 -116 6 -93 -33 33 -24 77 -25 94 -22 242 2 88 0 160 -4 160 -4 0 -14 -24 -22 -52 -19 -70 -18 -231 4 -330 9 -43 13 -78 9 -78 -15 0 -58 74 -80 136 -24 68 -49 190 -49 240 0 19 -5 34 -11 34 -8 0 -10 -36 -8 -117 4 -115 5 -120 46 -206 23 -48 56 -107 73 -132 17 -25 27 -45 22 -45 -37 0 -167 227 -194 340 -41 172 -21 311 77 553 16 39 -16 13 -49 -40 -38 -61 -46 -54 -21 17 8 23 15 47 15 52 0 23 -32 -19 -63 -81 -32 -65 -32 -66 -35 -32 -2 19 2 63 8 99 12 69 9 87 -10 52 -20 -38 -39 -150 -33 -204 4 -34 1 -56 -6 -60 -6 -4 -11 -1 -12 6 -5 86 -30 321 -37 338 -10 27 -21 -63 -21 -176 -1 -103 -3 -112 -25 -133 -27 -26 -37 -18 -42 33 -6 59 -23 391 -24 450 0 48 -2 57 -12 47 -10 -9 -13 -63 -11 -209 2 -224 -5 -230 -43 -40 -28 141 -30 200 -9 298 30 145 102 272 223 396 46 47 86 83 89 80 3 -3 -12 -29 -34 -58 -54 -72 -78 -121 -103 -202 -21 -70 -26 -116 -12 -116 4 0 25 46 47 103 57 147 111 227 154 227 6 0 20 -19 32 -41 13 -26 31 -45 49 -52 22 -8 36 -26 53 -67 24 -53 24 -56 7 -80 -47 -67 -102 -211 -87 -226 3 -3 17 17 31 44 33 65 85 142 96 142 19 0 18 -19 -5 -65 -25 -49 -34 -112 -15 -100 6 4 22 29 35 56 14 27 28 49 31 49 4 0 21 -9 39 -20 31 -19 32 -23 39 -102 6 -82 6 -83 -21 -106 -64 -54 -93 -84 -108 -113 -9 -17 -15 -33 -13 -35 3 -2 26 17 54 42 77 71 92 80 110 63 12 -13 9 -22 -31 -68 -58 -67 -98 -135 -93 -158 2 -13 22 6 67 65 66 87 87 104 102 81 5 -9 0 -22 -15 -39 -31 -33 -61 -87 -76 -133 -18 -58 -7 -66 22 -14 32 57 89 127 104 127 6 0 17 -7 24 -15 10 -13 10 -23 -3 -55 -19 -50 -6 -60 26 -19 l25 32 36 -22 c20 -13 36 -24 36 -27 0 -2 -18 -27 -40 -56 -101 -134 -170 -340 -171 -512 -1 -99 16 -139 25 -60 15 122 27 201 36 229 55 175 86 239 140 290 26 25 33 27 40 15 17 -27 11 -54 -24 -106 -32 -47 -86 -165 -86 -186 0 -22 22 9 75 107 32 58 62 105 67 105 16 0 21 -33 8 -54 -48 -75 -81 -170 -94 -271 -9 -68 4 -46 54 91 42 113 75 162 105 151 13 -6 12 -12 -7 -51 -27 -56 -15 -72 21 -29 30 36 52 41 72 17 11 -14 10 -22 -10 -58 -38 -66 -111 -209 -111 -218 0 -25 25 4 89 102 40 61 79 110 87 110 27 0 27 -30 1 -79 -14 -26 -38 -85 -53 -131 -24 -74 -27 -102 -28 -220 -1 -128 0 -138 26 -190 l27 -55 -7 50 c-4 28 -7 104 -7 170 1 112 3 127 38 230 63 182 93 208 55 48 -27 -116 -32 -316 -9 -370 7 -18 16 -33 20 -33 3 0 6 62 6 138 0 147 3 166 31 255 20 64 36 71 59 28 13 -25 13 -45 4 -133 -17 -164 1 -319 51 -431 20 -45 47 -67 36 -29 -13 45 -38 148 -41 171 -1 14 -6 47 -10 74 -4 26 -4 90 0 141 6 80 10 95 25 99 11 3 23 19 28 38 6 27 13 34 32 34 20 0 33 -14 65 -70 39 -69 40 -69 43 -37 2 21 -6 50 -26 86 l-29 53 28 38 c16 21 30 39 32 41 8 9 96 -115 125 -176 17 -37 42 -106 56 -155 48 -172 46 -169 42 -65 -4 102 -32 206 -73 272 -13 21 -23 42 -23 46 0 5 -9 21 -21 36 -11 14 -19 31 -17 37 5 15 79 -62 151 -158 34 -46 65 -83 69 -83 11 0 -14 59 -47 114 -17 27 -58 85 -92 128 -67 83 -76 111 -43 128 17 9 29 5 68 -21 26 -17 71 -55 99 -82 29 -28 55 -48 59 -45 13 14 -32 81 -98 146 l-71 70 30 48 c16 27 37 50 46 52 23 5 118 -95 174 -180 33 -51 103 -197 103 -215 0 -2 5 -3 10 -3 12 0 7 27 -22 120 -30 97 -78 175 -162 268 -79 86 -91 116 -60 146 19 19 17 19 49 4 37 -17 125 -131 173 -223 43 -83 116 -292 126 -357 3 -21 10 -57 16 -80 19 -84 12 -192 -16 -265 -27 -68 -49 -102 -59 -91 -3 2 -15 49 -26 103 -28 132 -123 364 -142 345 -2 -3 18 -72 45 -155 42 -126 51 -165 55 -245 5 -89 3 -100 -27 -180 -35 -89 -57 -130 -71 -130 -4 0 -5 40 -2 88 7 108 -4 225 -20 219 -8 -2 -18 -66 -29 -173 -9 -93 -22 -185 -29 -204 -10 -29 -74 -122 -136 -198 -23 -29 -26 -3 -5 50 31 81 61 178 68 225 9 56 -3 133 -21 133 -9 0 -12 -10 -8 -38 6 -44 -24 -171 -58 -247 -21 -48 -22 -49 -32 -25 -6 14 -11 124 -12 245 -2 219 -11 289 -41 329 -22 31 -25 14 -10 -60 28 -139 31 -354 4 -354 -12 0 -81 149 -107 234 -13 41 -21 95 -21 137 0 66 -12 90 -25 50 -9 -28 4 -179 20 -231 7 -25 28 -81 47 -125 19 -44 39 -98 46 -120 6 -22 19 -66 28 -98 16 -56 16 -147 -1 -190 -6 -15 -1 -17 42 -17 40 0 54 5 73 25 29 31 38 31 46 0 11 -44 34 -30 32 18 -2 34 5 55 31 95 18 29 36 50 41 47 4 -2 10 -35 14 -72 7 -81 15 -113 27 -113 12 0 11 78 -2 138 -13 61 -1 93 62 175 l44 57 7 -43 c3 -23 7 -66 7 -96 2 -96 15 -44 22 83 7 129 30 206 66 220 22 9 35 -5 81 -82 22 -37 54 -84 71 -106 21 -26 31 -50 31 -72 0 -28 -44 -178 -75 -257 -7 -16 -3 -18 26 -15 31 3 35 8 51 53 10 28 23 70 30 95 l12 45 7 -50 c4 -27 8 -71 8 -97 1 -37 5 -48 17 -48 15 0 16 14 9 133 -5 103 -3 136 7 148 22 27 110 81 119 72 10 -11 31 -298 23 -328 -6 -23 -3 -25 25 -25 l31 0 0 112 c0 71 3 109 10 102 5 -5 20 -54 32 -109 16 -69 28 -101 39 -103 14 -2 14 7 3 85 -7 48 -15 102 -19 118 -8 30 -7 30 39 -15 48 -46 66 -87 66 -152 0 -30 4 -38 18 -38 14 0 17 7 14 40 -2 22 0 40 5 40 5 0 27 -18 48 -40 l39 -40 98 0 98 0 41 82 c23 45 60 137 82 203 36 108 40 131 41 225 0 58 -2 137 -6 175 -9 84 -37 266 -44 276 -2 4 -20 68 -39 142 -38 148 -77 254 -131 355 -71 132 -161 256 -214 293 -27 20 -42 42 -59 90 -13 35 -36 89 -53 120 -24 47 -27 60 -18 83 5 15 10 70 10 122 0 75 4 105 20 140 39 84 15 314 -54 529 -26 79 -26 80 -6 94 11 7 20 24 20 37 0 46 -41 210 -75 299 -26 70 -35 108 -37 170 -2 69 0 80 15 83 14 3 17 14 17 63 0 48 3 59 16 59 9 0 27 11 40 25 14 16 34 25 52 25 16 0 35 6 41 14 7 8 26 18 42 21 19 4 29 13 29 25 0 22 20 39 57 49 23 6 29 14 33 47 5 38 8 40 88 80 110 54 118 62 98 102 -23 45 -20 57 24 86 44 29 48 37 25 56 -29 24 -27 49 4 87 35 43 38 58 14 72 -19 10 -11 25 15 27 57 3 55 1 47 50 -6 42 -4 48 29 85 43 46 45 66 10 79 l-25 10 31 45 c36 53 69 123 70 148 0 13 -8 17 -35 17 -19 0 -35 2 -35 4 0 2 19 37 41 77 42 74 57 135 45 183 -3 14 -11 26 -17 26 -7 0 -42 -22 -79 -50 -73 -54 -100 -62 -100 -30 0 14 -7 20 -22 20 -27 0 -103 -33 -112 -49 -4 -6 -25 -11 -47 -11 -22 0 -58 -10 -81 -21 -35 -18 -47 -20 -76 -11 -28 9 -39 8 -56 -3 -11 -8 -31 -15 -43 -15 -17 0 -25 -8 -33 -40 -14 -50 -41 -67 -65 -40 -21 23 -33 2 124 220 62 85 135 189 163 230 28 41 54 77 57 80 8 7 90 131 149 226 57 92 105 184 99 190 -4 4 -39 -43 -228 -304 -31 -42 -83 -115 -117 -162 -34 -47 -86 -118 -115 -158 -28 -40 -81 -113 -117 -162 -36 -49 -78 -107 -93 -130 -21 -30 -35 -40 -55 -40 -15 0 -38 -9 -52 -20 -14 -11 -29 -20 -33 -20 -9 0 -3 67 7 77 3 4 -1 15 -10 25 -16 17 -14 21 40 74 31 31 94 102 139 157 139 169 566 751 662 902 32 50 77 121 102 158 65 101 49 114 -22 17 -33 -46 -107 -147 -165 -225 -246 -333 -376 -512 -398 -544 -13 -18 -29 -39 -35 -47 -7 -7 -30 -38 -51 -68 -38 -54 -66 -75 -51 -38 4 9 10 42 13 72 4 45 16 74 69 160 35 58 85 126 111 151 26 25 58 60 72 78 14 18 61 78 105 134 44 56 109 145 143 197 181 276 212 316 398 510 103 107 219 230 258 274 64 70 133 128 474 399 121 96 115 116 -11 36 -79 -50 -514 -386 -607 -468 -76 -66 -205 -170 -208 -166 -2 1 17 41 42 88 25 47 50 103 55 125 9 31 27 51 93 105 46 36 94 76 108 89 24 23 172 150 218 189 13 10 28 19 33 19 5 0 9 4 9 8 0 5 37 37 83 72 45 35 89 69 97 77 22 19 148 121 208 168 28 22 51 46 52 54 0 9 -4 10 -12 3 -7 -5 -44 -27 -83 -48 -38 -20 -86 -50 -105 -64 -19 -15 -69 -52 -110 -83 -41 -31 -120 -92 -174 -136 -101 -82 -124 -95 -111 -63 4 9 10 36 12 60 5 40 5 42 -22 42 -39 0 -22 17 80 80 149 91 280 230 278 295 -1 33 -1 33 96 63 113 36 132 41 163 47 13 3 52 12 88 21 36 8 110 26 165 39 l100 25 -105 -5 c-94 -4 -203 -20 -297 -45 -41 -10 -52 4 -25 33 11 12 36 48 57 80 40 60 43 62 140 72 33 3 87 15 121 27 l62 21 59 -35 c32 -19 96 -58 142 -86 46 -29 89 -52 94 -52 32 0 -133 130 -220 174 -29 14 -53 33 -53 41 0 21 22 19 75 -9 25 -14 71 -30 103 -37 31 -6 75 -23 97 -37 94 -60 242 -188 418 -361 103 -101 187 -182 187 -178 0 28 -194 256 -304 356 -22 20 -60 56 -85 80 -25 24 -62 54 -83 67 -42 27 -63 52 -32 39 10 -4 40 -11 67 -15 41 -6 56 -15 115 -74 72 -71 123 -106 185 -125 27 -9 37 -18 37 -34 1 -34 18 -58 126 -174 74 -80 306 -359 351 -422 2 -2 5 -2 8 1 6 5 -14 58 -25 68 -3 3 -18 25 -34 50 -16 25 -63 92 -106 150 -105 142 -101 134 -87 221 12 66 11 82 -6 148 -10 41 -27 91 -36 110 -10 20 -26 63 -36 96 -9 33 -21 75 -27 93 -5 19 -7 36 -4 39 9 10 185 -139 336 -285 80 -77 147 -139 149 -137 2 2 -18 32 -45 67 -76 100 -300 316 -417 402 -97 71 -111 86 -143 146 -39 75 -117 147 -191 177 -47 20 -51 28 -28 53 13 15 12 19 -11 41 -14 13 -49 35 -77 49 -81 39 -87 34 198 125 99 31 194 63 211 71 17 7 42 18 55 23 48 19 -14 11 -111 -15 -52 -13 -144 -38 -205 -54 -303 -80 -394 -110 -415 -136 -14 -16 -40 -2 -40 22 0 7 -5 25 -12 40 -11 24 -16 26 -60 21 -26 -4 -48 -3 -48 2 0 4 51 50 113 102 115 96 417 394 417 411 0 11 -63 -39 -176 -139 -39 -34 -116 -100 -172 -145 -154 -128 -345 -290 -365 -310 -15 -15 -22 -16 -39 -7 -47 25 -194 -24 -280 -93 -15 -12 -30 -19 -34 -16 -3 4 82 98 189 210 107 112 212 224 234 250 21 26 85 104 143 174 135 163 143 174 132 174 -5 0 -35 -28 -67 -62 -32 -35 -93 -99 -135 -143 -42 -44 -130 -138 -195 -210 -189 -208 -348 -365 -369 -365 -10 0 -45 -24 -77 -54 -55 -51 -94 -74 -105 -63 -3 3 38 65 90 138 52 74 133 188 180 254 47 66 122 172 168 235 114 159 218 310 218 316 0 2 -6 4 -12 4 -7 -1 -32 -26 -56 -58 -23 -31 -55 -70 -70 -87 -16 -16 -62 -75 -102 -130 -41 -55 -77 -102 -81 -105 -3 -3 -32 -41 -64 -85 -32 -44 -61 -82 -65 -85 -3 -3 -27 -36 -54 -75 -26 -38 -92 -135 -147 -215 -55 -80 -111 -162 -124 -182 -22 -34 -28 -36 -60 -31 -33 5 -38 2 -117 -82 -92 -97 -150 -171 -179 -226 -10 -20 -44 -59 -76 -85 -31 -27 -69 -62 -85 -79 -15 -16 -36 -39 -46 -50 -32 -33 -97 -136 -133 -210 l-34 -70 -3 65 -3 65 145 290 c130 260 162 328 226 470 10 22 37 81 60 130 37 78 70 159 70 171 0 2 -5 4 -11 4 -6 0 -130 -242 -276 -537 -147 -296 -291 -581 -322 -633 -30 -52 -72 -129 -94 -170 -22 -41 -48 -84 -59 -95 -19 -19 -20 -19 -33 -1 -13 18 -15 18 -50 -4 -20 -12 -39 -19 -43 -15 -4 3 4 25 17 48 35 64 260 510 308 612 103 219 198 434 260 585 30 74 64 153 74 175 10 22 34 81 54 130 20 50 40 99 45 110 10 22 149 372 158 395 27 76 -109 -182 -206 -391 -17 -37 -45 -100 -61 -140 -16 -41 -57 -137 -91 -214 -34 -77 -80 -183 -102 -235 -22 -52 -75 -168 -119 -258 -43 -90 -79 -165 -79 -167 0 -3 -262 -548 -322 -670 -14 -27 -35 -68 -48 -90 -13 -22 -56 -102 -95 -177 -49 -95 -74 -135 -81 -128 -7 7 -16 -2 -29 -30 -10 -22 -24 -45 -32 -51 -21 -18 -16 15 11 74 13 29 36 84 51 122 15 39 35 88 45 110 10 22 50 119 89 215 40 96 87 211 106 255 18 44 57 136 85 205 28 69 62 150 75 180 13 30 48 118 78 195 30 77 90 228 132 335 100 253 128 330 121 337 -3 4 -17 -20 -32 -53 -29 -67 -135 -303 -199 -444 -24 -52 -71 -162 -105 -245 -106 -256 -141 -339 -160 -380 -10 -22 -39 -92 -64 -155 -26 -63 -51 -124 -56 -135 -5 -11 -21 -50 -35 -87 -14 -38 -29 -76 -35 -85 -5 -10 -24 -54 -41 -98 -17 -44 -37 -93 -44 -110 -8 -16 -30 -68 -49 -115 -19 -47 -69 -168 -111 -270 -42 -102 -84 -204 -93 -227 -12 -33 -22 -43 -38 -43 -13 0 -31 -12 -42 -27 -24 -34 -157 -299 -167 -331 -4 -13 -9 -21 -12 -19 -5 6 21 145 46 247 11 41 29 118 41 170 11 52 31 140 45 195 13 55 30 132 39 170 14 65 52 231 96 420 10 44 28 123 40 175 20 92 36 156 46 193 3 9 1 17 -4 17 -20 0 -94 -216 -128 -373 -19 -89 -39 -178 -44 -197 -5 -19 -11 -48 -14 -65 -3 -16 -24 -109 -46 -205 -22 -96 -42 -184 -45 -195 -32 -148 -47 -214 -64 -290 -12 -49 -30 -133 -42 -185 -35 -161 -58 -239 -88 -298 -15 -31 -43 -101 -60 -154 -39 -117 -55 -135 -47 -52 8 69 38 292 67 484 11 74 22 153 24 175 3 22 7 61 11 88 6 48 -9 67 -19 25 -3 -13 -15 -54 -26 -93 -21 -74 -39 -201 -66 -450 -9 -82 -25 -217 -35 -300 -11 -82 -21 -163 -22 -179 -3 -28 -28 -51 -28 -26 0 14 -93 151 -98 145 -14 -14 -92 -421 -90 -466 4 -59 -3 -79 -31 -93 -28 -15 -31 -14 -72 19 -53 42 -84 47 -75 11 6 -26 -1 -56 -14 -56 -4 0 -18 16 -29 36 l-22 36 -24 -27 c-35 -37 -75 -32 -94 13 -15 32 -19 33 -67 15 -14 -5 -20 18 -34 137 -6 52 -15 109 -19 125 -5 17 -19 74 -31 127 -13 54 -26 95 -30 93 -4 -3 -26 -36 -49 -75 -23 -38 -48 -70 -56 -70 -10 0 -15 25 -19 98 -4 53 -15 167 -26 252 -10 85 -22 187 -25 225 -3 39 -12 113 -20 165 -38 253 -56 364 -61 372 -12 19 -24 -6 -24 -50 0 -45 6 -98 50 -422 11 -80 22 -170 25 -200 3 -30 10 -90 16 -133 6 -43 9 -80 6 -83 -12 -13 -24 8 -37 63 -7 32 -34 103 -60 158 -45 96 -68 176 -120 420 -11 55 -30 136 -40 180 -11 44 -31 134 -44 200 -14 66 -39 181 -57 255 -17 74 -37 165 -44 201 -8 36 -18 84 -24 105 -5 21 -12 50 -14 64 -19 106 -108 343 -123 327 -3 -3 4 -40 15 -83 11 -44 32 -131 46 -194 15 -63 35 -149 44 -190 10 -41 26 -113 36 -160 9 -47 26 -118 36 -158 11 -40 38 -155 60 -255 23 -100 48 -211 56 -247 8 -36 18 -81 23 -100 4 -19 11 -48 15 -64 16 -58 -16 -21 -51 59 -74 171 -126 255 -172 278 -17 8 -34 33 -52 77 -14 36 -32 76 -38 90 -16 34 -86 206 -129 315 -19 50 -43 108 -53 130 -10 22 -39 92 -65 155 -107 264 -158 386 -244 595 -51 121 -98 234 -105 250 -8 17 -49 111 -91 210 -42 99 -80 184 -84 190 -4 5 -27 57 -51 115 -24 58 -47 110 -51 115 -4 6 -23 51 -44 100 -20 50 -40 94 -45 99 -22 22 18 -97 105 -319 24 -60 61 -157 84 -215 45 -117 135 -339 155 -385 36 -81 176 -415 176 -420 0 -5 124 -304 145 -350 7 -16 31 -75 53 -130 22 -55 47 -113 55 -130 8 -16 18 -43 22 -60 6 -28 4 -26 -29 17 -21 28 -42 45 -50 42 -8 -3 -19 12 -31 43 -10 26 -22 52 -26 58 -5 5 -9 15 -9 22 0 7 -24 50 -53 95 -29 46 -86 153 -127 238 -40 85 -131 273 -202 418 -70 145 -128 265 -128 268 0 3 -22 52 -50 110 -27 58 -50 107 -50 109 0 3 -134 310 -170 390 -5 11 -21 49 -35 85 -53 130 -167 377 -257 555 -40 81 -58 108 -64 102 -5 -5 194 -502 240 -598 14 -31 26 -62 26 -70 0 -8 4 -19 9 -25 5 -5 26 -49 46 -99 20 -49 48 -114 61 -143 13 -29 35 -80 49 -113 14 -33 39 -90 56 -127 17 -37 51 -112 76 -167 25 -55 114 -238 199 -407 85 -169 154 -312 154 -318 0 -12 -29 -2 -53 19 -17 14 -20 14 -37 -8 l-18 -24 -24 39 c-14 21 -42 73 -64 114 -21 41 -51 94 -66 117 -16 23 -98 185 -183 360 -179 365 -394 794 -412 819 -23 31 -25 6 -5 -48 38 -103 227 -506 344 -735 65 -128 125 -252 132 -276 13 -44 11 -107 -4 -107 -7 0 -60 100 -60 114 0 32 -202 268 -252 295 -14 7 -40 38 -59 69 -41 69 -127 176 -202 255 -51 54 -59 58 -93 55 l-38 -3 -103 150 c-56 83 -123 179 -148 215 -25 36 -65 92 -88 125 -53 75 -147 201 -180 240 -14 17 -79 98 -145 181 -66 83 -128 157 -138 165 -16 13 -16 12 -4 -11z m7013 -763 c-43 -46 -111 -149 -139 -214 -14 -31 -28 -53 -31 -50 -11 12 29 132 60 181 30 47 124 132 135 121 3 -3 -8 -20 -25 -38z m137 -9 c0 -29 -4 -70 -9 -91 -11 -46 -53 -110 -84 -126 -24 -12 -149 -32 -157 -24 -3 2 13 39 35 81 45 88 159 212 194 212 19 0 21 -6 21 -52z m-7272 -8 c28 -21 66 -60 85 -85 45 -58 104 -172 94 -181 -11 -12 -147 18 -172 38 -32 25 -73 112 -81 170 -7 50 1 98 15 98 5 0 32 -18 59 -40z m138 -54 c42 -46 59 -75 80 -138 14 -44 24 -82 21 -85 -3 -3 -20 23 -37 57 -46 91 -116 194 -150 219 -17 12 -30 26 -30 32 0 19 63 -26 116 -85z m7348 75 c3 -5 -7 -11 -23 -14 -16 -3 -41 -9 -56 -13 -40 -10 -23 13 18 25 43 12 55 13 61 2z m-7674 -54 c0 -5 -6 -7 -14 -4 -8 3 -32 9 -53 13 -30 6 -34 9 -18 14 22 8 85 -9 85 -23z m7126 -34 c-15 -145 -55 -212 -159 -265 -34 -16 -78 -42 -99 -56 -21 -13 -41 -22 -44 -19 -13 13 95 213 146 271 54 62 138 136 153 136 5 0 6 -30 3 -67z m713 41 c2 -1 -23 -19 -55 -40 -33 -20 -85 -61 -116 -92 -52 -51 -60 -55 -100 -54 -46 2 -98 11 -98 18 0 2 12 33 26 68 25 64 27 65 77 79 29 8 68 19 87 24 30 9 168 6 179 -3z m-7291 -73 c23 -19 67 -70 96 -115 59 -90 119 -213 107 -220 -13 -8 -205 103 -232 134 -33 38 -89 235 -74 260 7 11 37 -6 103 -59z m92 -4 c62 -56 99 -107 115 -162 27 -96 13 -96 -40 -1 -31 55 -74 113 -112 152 -35 35 -63 66 -63 69 0 9 71 -32 100 -58z m6338 36 c-34 -38 -98 -134 -138 -211 -18 -34 -35 -60 -37 -58 -8 7 25 124 46 165 22 42 117 131 140 131 10 0 7 -9 -11 -27z m-7003 -1 l70 -17 32 -65 c18 -36 28 -69 23 -74 -4 -4 -37 -10 -72 -13 l-64 -5 -71 65 c-40 37 -90 75 -113 87 -22 11 -40 25 -40 30 0 16 158 10 235 -8z m7931 -71 c73 -33 60 -47 -16 -17 -8 3 -33 7 -55 9 -21 2 -41 9 -43 16 -6 18 68 13 114 -8z m-8122 -20 c3 -5 -20 -14 -52 -20 -31 -6 -68 -14 -82 -18 -21 -5 -23 -3 -12 8 25 27 134 50 146 30z m8138 -37 c92 -32 171 -96 153 -124 -3 -5 -40 -10 -82 -10 -68 0 -90 5 -195 47 -65 26 -118 51 -118 55 0 5 12 21 26 35 24 24 29 25 100 19 40 -4 93 -14 116 -22z m-1280 -72 c-54 -83 -132 -233 -132 -251 0 -25 -20 -9 -21 17 -3 83 31 165 100 238 47 49 92 86 99 80 2 -3 -18 -41 -46 -84z m105 -9 c-6 -116 -25 -184 -70 -249 -31 -45 -146 -144 -168 -144 -45 0 89 294 204 447 18 23 34 43 36 43 2 0 1 -44 -2 -97z m-6873 51 c14 -15 26 -30 26 -34 0 -4 -21 -15 -47 -25 -27 -9 -81 -30 -121 -46 -61 -25 -84 -29 -145 -27 -69 3 -72 4 -75 28 -2 21 6 31 54 60 63 38 164 68 235 69 37 1 51 -4 73 -25z m1089 -48 c90 -89 127 -158 127 -233 0 -29 -3 -53 -7 -52 -5 0 -28 41 -52 90 -24 50 -69 127 -98 172 -30 45 -57 85 -59 90 -3 4 0 7 5 7 6 0 44 -33 84 -74z m-69 -20 c66 -97 132 -220 161 -304 39 -112 35 -121 -38 -72 -58 39 -125 112 -144 158 -33 77 -64 278 -46 296 8 8 8 8 67 -78z m6578 -13 c36 -34 65 -96 69 -149 3 -34 1 -39 -16 -36 -11 2 -31 10 -45 17 -14 7 -65 32 -115 56 -72 34 -155 82 -184 106 -13 10 25 28 81 38 91 16 172 4 210 -32z m139 11 c67 -19 138 -51 163 -73 44 -38 76 -177 45 -197 -12 -7 -279 255 -279 275 0 14 6 14 71 -5z m-7238 -24 c15 -7 26 -18 24 -23 -3 -10 -308 -171 -344 -182 -19 -5 -23 -3 -23 17 1 69 54 167 105 193 37 19 195 16 238 -5z m-381 -58 c-49 -58 -219 -222 -231 -222 -29 0 -14 111 24 175 20 34 34 44 97 67 93 35 142 47 146 36 2 -4 -14 -30 -36 -56z m6425 -21 c21 -74 31 -174 22 -230 -12 -79 -42 -131 -128 -223 -43 -46 -93 -100 -111 -120 -59 -69 -61 -55 -13 162 14 63 43 160 65 215 43 106 126 247 143 242 5 -2 15 -23 22 -46z m718 38 c48 -13 135 -96 135 -128 0 -21 -2 -21 -230 -21 -126 0 -230 3 -230 7 0 6 67 66 104 92 26 19 135 60 161 60 11 1 38 -4 60 -10z m-5893 -96 c26 -43 55 -96 64 -118 9 -22 22 -53 30 -70 25 -55 72 -249 79 -323 6 -69 5 -72 -12 -61 -28 18 -202 219 -229 264 -28 49 -45 156 -34 216 27 142 34 169 44 169 6 0 32 -35 58 -77z m6841 63 c43 -18 113 -96 138 -153 11 -25 17 -48 14 -51 -5 -5 -216 194 -223 211 -6 12 36 8 71 -7z m-7459 -32 c36 -19 84 -53 108 -74 l43 -39 -237 -1 c-265 0 -259 -2 -209 67 39 53 100 83 173 83 47 0 69 -7 122 -36z m7445 -122 c24 -36 43 -182 23 -182 -23 0 -106 111 -153 205 -27 55 -49 105 -49 112 0 19 154 -97 179 -135z m-8511 129 c-6 -17 -210 -222 -215 -217 -3 3 4 30 17 61 25 61 85 129 133 150 37 16 70 19 65 6z m8168 -129 c-8 -8 -44 18 -79 58 -60 65 -42 70 23 5 33 -32 58 -61 56 -63z m-8036 103 c0 -3 -22 -52 -49 -108 -33 -69 -66 -120 -99 -155 -27 -29 -52 -52 -56 -52 -14 0 -5 131 12 166 21 45 192 177 192 149z m6566 -56 c-32 -56 -81 -204 -101 -300 -23 -115 -25 -120 -35 -114 -18 11 -11 152 11 218 23 70 79 173 117 218 34 41 37 31 8 -22z m-6295 13 c-14 -25 -88 -92 -103 -92 -7 0 14 27 47 60 59 59 76 69 56 32z m1377 -24 c94 -128 137 -261 124 -385 -6 -59 -18 -54 -26 11 -8 73 -80 287 -121 364 -19 34 -30 62 -25 62 5 0 27 -24 48 -52z m6118 20 c27 -12 44 -23 38 -25 -11 -4 -104 34 -104 42 0 9 18 5 66 -17z m-7276 -13 c0 -7 -81 -47 -86 -42 -3 3 12 14 33 25 39 21 53 26 53 17z m7734 -51 c14 -30 35 -69 47 -85 32 -46 17 -44 -34 4 -43 40 -47 47 -47 90 0 26 2 47 4 47 3 0 16 -25 30 -56z m-674 17 c0 -18 -103 -34 -185 -28 -121 7 -128 21 -15 28 164 9 200 9 200 0z m-334 -49 c76 -39 75 -45 -28 -97 -181 -91 -412 -159 -432 -127 -7 11 121 135 206 200 55 42 74 51 115 54 57 4 85 -2 139 -30z m-7206 -3 c0 -23 -13 -43 -51 -85 -52 -54 -85 -74 -55 -31 8 12 32 50 52 85 20 34 40 62 45 62 5 0 9 -14 9 -31z m840 22 c70 -6 73 -8 47 -19 -55 -23 -247 -8 -247 20 0 9 88 9 200 -1z m368 -57 c77 -62 232 -216 226 -226 -21 -34 -328 66 -454 149 -19 13 -40 23 -47 23 -55 0 23 67 100 86 78 20 120 12 175 -32z m7318 -46 c61 -69 94 -139 94 -203 0 -55 -8 -95 -20 -95 -11 0 -64 121 -104 238 -20 57 -36 106 -36 108 0 15 25 -3 66 -48z m-8816 -15 c-15 -51 -50 -148 -60 -168 -5 -11 -20 -46 -34 -77 -35 -82 -56 -75 -56 21 0 71 25 132 81 194 56 63 83 75 69 30z m7520 -12 c0 -4 -18 -28 -39 -53 -68 -77 -230 -131 -292 -98 -22 13 -18 15 76 47 95 31 221 89 232 106 6 10 23 9 23 -2z m-6185 -67 c44 -23 118 -54 163 -69 87 -28 94 -41 29 -52 -23 -3 -61 2 -107 16 -58 18 -81 32 -126 75 -30 28 -54 58 -54 65 0 7 3 11 8 9 4 -2 43 -22 87 -44z m7435 -16 c0 -7 11 -37 25 -65 17 -39 20 -53 11 -53 -8 0 -21 11 -30 24 -20 32 -33 106 -17 106 6 0 11 -6 11 -12z m-2127 -20 c3 -13 9 -68 13 -124 7 -111 -2 -171 -43 -263 -28 -64 -203 -312 -215 -305 -24 15 7 209 57 359 52 154 151 355 176 355 4 0 9 -10 12 -22z m-6653 -87 c-20 -40 -40 -54 -40 -28 0 6 12 37 27 67 24 50 27 53 31 28 2 -14 -6 -45 -18 -67z m2230 -69 c60 -124 78 -171 111 -304 32 -129 49 -268 31 -268 -26 0 -209 277 -238 360 -20 59 -26 245 -10 325 l8 40 28 -33 c15 -18 46 -72 70 -120z m4276 15 c-42 -91 -74 -178 -96 -264 -17 -66 -34 -54 -28 20 4 49 16 85 56 164 43 87 96 173 108 173 2 0 -16 -42 -40 -93z m-4234 13 c66 -85 134 -259 125 -319 -5 -33 -27 -40 -27 -9 0 40 -59 207 -106 296 -59 115 -59 117 8 32z m4838 46 c57 -14 151 -63 157 -83 7 -21 -182 -137 -342 -210 -154 -71 -254 -98 -270 -74 -11 19 73 138 170 239 138 144 167 157 285 128z m-5295 -37 c62 -33 181 -155 251 -258 34 -52 61 -98 58 -103 -8 -12 -53 -10 -104 6 -112 34 -410 186 -500 256 -25 19 -25 19 -5 35 57 45 158 82 225 84 19 1 53 -8 75 -20z m5405 -149 c0 -31 -289 -190 -358 -198 -65 -6 -49 7 73 62 55 24 138 67 185 94 90 54 100 58 100 42z m-895 -154 c18 -132 13 -294 -11 -381 -10 -35 -43 -89 -112 -179 -53 -71 -103 -131 -109 -134 -18 -5 -17 176 2 248 8 30 30 119 49 197 19 78 48 176 64 217 36 93 81 171 92 159 5 -4 16 -62 25 -127z m-4657 74 c48 -27 130 -68 182 -91 112 -49 126 -59 81 -59 -19 0 -70 16 -115 36 -110 49 -279 164 -241 164 3 0 44 -22 93 -50z m865 -54 c38 -74 45 -96 102 -308 45 -169 65 -289 65 -385 0 -29 -4 -53 -10 -53 -15 0 -124 136 -176 219 -72 113 -86 220 -63 456 15 153 16 160 35 144 9 -7 30 -40 47 -73z m3602 -199 c-38 -135 -55 -173 -55 -123 0 47 52 229 77 270 20 32 10 -31 -22 -147z m-3478 26 c23 -67 42 -201 25 -173 -9 14 -17 38 -58 190 -27 100 -27 98 -7 71 9 -13 27 -53 40 -88z m4226 37 c37 -11 67 -26 67 -31 0 -22 -77 -103 -153 -160 -88 -66 -235 -144 -359 -190 -81 -29 -108 -35 -108 -21 0 4 19 33 43 64 23 31 80 112 127 180 47 68 98 138 115 157 l29 34 86 -6 c47 -3 115 -15 153 -27z m-4733 -18 c14 -10 57 -66 97 -123 167 -242 205 -300 202 -304 -7 -7 -171 55 -264 99 -49 24 -116 61 -147 82 -67 46 -208 181 -208 200 0 13 131 58 195 67 48 8 98 -1 125 -21z m3868 -402 c-3 -252 -4 -256 -30 -311 -15 -31 -50 -90 -78 -130 -28 -41 -67 -98 -87 -127 -31 -45 -38 -51 -46 -36 -12 21 5 192 33 339 11 55 22 120 25 145 21 170 74 322 147 420 l33 45 3 -45 c2 -25 2 -160 0 -300z m-72 308 c-31 -44 -74 -134 -94 -198 -19 -62 -30 -115 -67 -317 -10 -51 -21 -93 -25 -93 -12 0 -40 117 -40 166 0 93 87 294 177 409 24 30 48 55 54 55 7 0 5 -9 -5 -22z m-3094 -25 c54 -56 137 -204 171 -302 35 -100 41 -175 20 -246 -15 -49 -33 -81 -33 -57 0 14 2 5 -22 112 -10 47 -23 113 -28 148 -18 107 -60 224 -111 305 -27 42 -45 77 -41 77 4 0 24 -17 44 -37z m-43 -35 c67 -90 96 -169 116 -318 3 -25 14 -88 25 -140 60 -309 73 -428 45 -437 -13 -4 -192 276 -219 342 -18 45 -20 78 -24 328 -3 191 -1 277 7 277 6 0 28 -24 50 -52z m4030 -45 c-153 -162 -200 -192 -315 -200 -65 -5 -85 -3 -80 5 4 7 13 12 20 12 7 0 55 17 108 39 107 43 214 110 272 170 22 22 42 39 44 36 3 -3 -19 -31 -49 -62z m-4752 -115 c43 -25 105 -55 138 -68 118 -47 121 -52 22 -47 -107 6 -133 20 -259 148 -97 97 -120 140 -33 61 30 -27 89 -70 132 -94z m4529 -150 c13 -13 -9 -46 -74 -113 -51 -53 -96 -86 -187 -137 l-120 -68 -98 0 c-97 0 -98 0 -91 23 10 31 169 242 196 259 27 17 99 37 148 40 64 5 219 2 226 -4z m-4132 -45 c21 -6 54 -26 73 -45 45 -42 168 -206 177 -236 7 -22 7 -22 -94 -22 l-102 0 -84 46 c-47 25 -112 66 -145 92 -68 50 -163 158 -153 173 8 13 277 6 328 -8z m3228 -258 c13 -104 15 -227 5 -270 -4 -16 -9 -44 -12 -62 -3 -18 -16 -54 -28 -81 -27 -60 -179 -314 -184 -308 -6 6 16 252 37 411 30 222 66 378 112 483 l20 47 19 -65 c11 -36 25 -105 31 -155z m-2560 108 c30 -89 39 -125 72 -296 24 -119 42 -235 38 -248 -1 -4 8 -73 18 -154 23 -171 23 -165 11 -165 -13 0 -133 197 -184 300 l-41 85 -4 149 c-3 88 0 170 7 200 6 28 13 67 16 86 10 59 27 120 34 120 3 0 18 -35 33 -77z m2414 -75 c-33 -114 -49 -190 -60 -278 -3 -19 -11 -87 -20 -150 -8 -63 -18 -151 -21 -194 -11 -128 -20 -132 -34 -14 -34 301 -13 402 148 735 27 57 23 27 -13 -99z m974 93 c0 -20 -78 -84 -137 -113 -85 -40 -118 -32 -38 9 33 17 85 49 115 72 62 45 60 44 60 32z m-4276 -40 c12 -11 61 -45 110 -75 59 -37 82 -56 67 -56 -33 0 -93 32 -149 80 -47 39 -71 70 -55 70 4 0 16 -9 27 -19z m974 -66 c44 -83 100 -250 113 -337 10 -63 8 -162 -6 -288 -1 -14 -3 -35 -4 -47 0 -13 -5 -23 -10 -23 -4 0 -16 62 -25 138 -39 315 -62 450 -95 556 -31 102 -25 102 27 1z m3271 -103 c-168 -162 -238 -225 -224 -202 74 126 102 160 171 207 23 15 57 40 75 55 78 62 124 96 128 92 2 -2 -66 -70 -150 -152z m-4309 68 c19 -15 70 -53 113 -85 71 -52 121 -111 182 -214 20 -35 -26 6 -184 162 -191 188 -211 213 -111 137z m4020 -71 l85 -12 -65 -60 c-36 -33 -97 -84 -136 -113 -125 -93 -364 -228 -364 -205 0 14 82 163 135 245 62 96 97 130 150 151 41 15 51 15 195 -6z m-3435 -41 c52 -33 59 -42 141 -173 70 -113 118 -204 111 -211 -5 -5 -151 70 -189 97 -14 11 -29 19 -32 19 -3 0 -46 26 -94 57 -93 62 -242 196 -230 209 4 4 24 8 45 10 57 6 106 14 110 18 2 2 25 2 51 2 31 -2 60 -11 87 -28z m3452 -120 c-81 -138 -207 -224 -358 -244 -60 -8 -66 9 -11 34 79 37 219 127 300 193 46 39 87 68 89 65 3 -3 -6 -24 -20 -48z m-3430 -184 c132 -80 137 -84 92 -84 -96 0 -193 46 -270 127 -49 51 -129 161 -129 177 0 3 45 -30 99 -74 55 -44 148 -110 208 -146z m2483 142 c0 -2 -11 -46 -25 -98 -30 -112 -45 -186 -51 -253 -2 -27 -9 -86 -14 -130 -6 -44 -10 -111 -10 -149 0 -40 -4 -66 -9 -60 -21 23 -43 117 -48 205 -5 91 -4 103 31 215 37 120 103 274 118 274 4 0 8 -2 8 -4z m-1748 -103 c50 -110 69 -168 90 -272 19 -94 20 -113 9 -183 -11 -72 -37 -155 -46 -147 -2 2 -8 73 -14 156 -6 84 -15 172 -20 195 -5 24 -12 63 -16 88 -3 25 -17 86 -31 135 -13 50 -24 94 -24 99 0 20 28 -18 52 -71z m1802 14 c36 -126 41 -164 40 -367 l0 -205 -75 -137 c-40 -76 -78 -138 -83 -138 -11 0 0 412 13 493 6 32 13 88 16 125 4 37 12 90 20 117 7 28 18 76 25 108 6 31 15 57 20 57 5 0 15 -24 24 -53z m929 -49 c-64 -93 -280 -384 -310 -417 -2 -3 -8 0 -14 6 -8 8 4 29 41 74 48 58 120 188 120 214 0 22 49 76 126 140 43 35 82 65 87 65 4 0 -18 -37 -50 -82z m-2785 -20 c31 -131 61 -351 68 -503 8 -144 -2 -288 -18 -283 -6 2 -41 62 -78 134 l-68 130 -7 115 c-6 93 -3 144 13 256 20 135 47 243 61 243 4 0 17 -42 29 -92z m-983 35 c23 -21 66 -59 96 -84 41 -35 59 -58 68 -90 20 -68 54 -128 115 -204 37 -46 52 -73 46 -79 -11 -11 -24 3 -147 164 -68 91 -203 280 -227 318 -14 23 7 12 49 -25z m3545 -99 c0 -14 -94 -125 -140 -167 -63 -57 -163 -115 -261 -152 -41 -15 -93 -37 -117 -48 -23 -11 -45 -17 -47 -15 -9 9 24 89 60 147 39 63 129 163 161 180 31 15 99 29 184 36 41 3 91 10 110 15 46 11 50 11 50 4z m-3185 -45 c132 -15 189 -32 239 -70 48 -37 123 -134 160 -207 44 -87 34 -97 -66 -63 -175 60 -356 187 -440 308 -34 50 -40 49 107 32z m3140 -96 c-10 -15 -45 -60 -77 -100 -61 -75 -92 -93 -165 -93 -44 0 -42 12 6 33 66 30 156 95 201 148 45 52 66 60 35 12z m-3104 -126 c20 -15 65 -42 100 -60 l64 -32 -47 -3 c-62 -4 -112 22 -170 90 -76 90 -92 132 -25 72 23 -22 58 -52 78 -67z m2150 -19 c1 -32 7 -84 24 -213 17 -127 20 -390 5 -520 -18 -149 -58 -210 -80 -122 -6 23 -18 64 -27 91 -13 40 -14 78 -9 205 6 171 37 458 56 534 13 49 29 63 31 25z m-1296 -45 c4 -21 13 -72 21 -113 14 -72 26 -215 40 -455 6 -100 4 -119 -21 -210 -14 -55 -30 -104 -35 -108 -4 -5 -17 6 -28 25 -33 55 -49 316 -33 565 18 286 39 399 56 296z m2115 -63 c0 -23 -85 -122 -148 -173 -113 -90 -166 -125 -253 -166 -86 -41 -175 -68 -186 -58 -8 9 24 91 64 165 78 141 181 219 306 232 112 11 217 11 217 0z m-2760 -30 c160 -18 247 -88 339 -274 28 -57 51 -108 51 -114 0 -61 -338 107 -460 228 -71 69 -119 128 -125 151 -6 26 -6 26 52 22 32 -2 96 -8 143 -13z m2036 -166 c36 -120 38 -240 6 -341 -12 -40 -26 -74 -30 -77 -4 -2 -7 102 -8 232 0 131 -3 251 -8 267 -5 21 -4 27 3 19 6 -5 23 -50 37 -100z m-210 -70 c-7 -72 -11 -145 -8 -162 2 -19 0 -32 -6 -32 -16 0 -25 81 -18 148 8 66 26 163 33 175 12 20 12 -9 -1 -129z m894 131 c0 -3 -17 -29 -39 -58 -42 -57 -84 -93 -146 -124 -40 -21 -105 -39 -105 -30 0 3 44 35 98 71 54 37 116 84 137 106 36 37 55 49 55 35z m-2163 -107 c-4 -51 -5 -162 -2 -245 4 -95 3 -153 -3 -153 -6 0 -18 19 -27 43 -26 61 -32 232 -12 327 33 157 57 173 44 28z m-502 -83 c74 -43 86 -55 55 -55 -27 0 -114 45 -162 83 -36 28 -108 123 -108 140 0 5 34 -22 75 -61 41 -38 105 -86 140 -107z m700 40 c16 -97 14 -212 -5 -200 -4 3 -11 53 -14 112 -4 60 -8 133 -11 163 -7 84 10 40 30 -75z m928 -98 c38 -76 84 -236 91 -320 3 -27 8 -73 12 -103 6 -48 4 -54 -10 -48 -11 4 -26 -2 -41 -16 -13 -12 -28 -19 -34 -15 -25 15 -3 82 38 119 l21 19 -20 14 c-11 8 -42 15 -68 16 -46 2 -47 2 -54 42 -9 50 -10 297 -2 348 8 48 19 39 67 -56z m-743 -82 c0 -74 1 -206 1 -292 0 -129 -3 -160 -15 -167 -17 -11 -46 8 -46 30 0 53 -83 -45 -96 -113 -12 -62 -17 -25 -15 99 1 82 9 152 22 208 11 47 23 103 26 125 10 76 89 245 113 245 6 0 10 -54 10 -135z m1639 68 c-89 -148 -335 -379 -499 -470 -36 -19 -80 -45 -99 -56 l-33 -20 7 34 c18 83 110 227 202 316 47 45 95 77 176 119 120 61 260 124 266 118 2 -1 -7 -20 -20 -41z m-2415 -83 c161 -78 193 -97 245 -149 85 -85 175 -228 196 -314 7 -27 7 -27 -21 -15 -45 19 -121 67 -214 132 -98 70 -321 288 -368 360 -29 44 -40 76 -27 76 2 0 88 -40 189 -90z m2151 34 c-11 -9 -38 -25 -60 -36 -22 -11 -68 -43 -102 -70 -66 -52 -72 -53 -49 -10 31 59 141 131 201 131 29 0 29 0 10 -15z m-2043 -20 c72 -10 155 -69 189 -136 11 -21 17 -38 13 -38 -3 0 -34 25 -68 55 -35 30 -93 69 -129 86 -37 17 -67 35 -67 41 0 6 8 7 18 3 9 -4 29 -9 44 -11z m1308 -134 c0 -80 -4 -130 -10 -130 -6 0 -10 48 -10 123 0 109 3 137 17 137 2 0 3 -58 3 -130z m-581 -86 c1 -83 -3 -115 -14 -130 -13 -17 -14 -7 -15 102 0 67 3 137 7 155 7 33 7 33 14 9 4 -14 7 -75 8 -136z m1464 58 c-16 -20 -60 -63 -98 -94 -64 -55 -91 -70 -83 -48 4 13 202 189 207 184 3 -2 -9 -21 -26 -42z m-2304 -64 c116 -105 142 -130 137 -135 -9 -10 -62 32 -130 104 -76 80 -80 97 -7 31z m1701 -189 c3 -80 1 -99 -8 -99 -16 0 -31 75 -36 185 l-6 110 24 -71 c14 -38 25 -95 26 -125z m1300 148 c0 -6 19 -7 46 -3 l47 6 -70 -73 c-147 -155 -409 -397 -429 -397 -18 0 16 99 89 260 16 36 32 67 36 70 4 3 22 26 40 52 40 59 84 85 116 68 19 -10 26 -7 59 26 37 37 39 37 52 19 8 -10 14 -23 14 -28z m-1995 -52 c41 -41 77 -75 80 -75 10 0 5 25 -10 54 -14 26 -14 30 2 42 15 11 21 10 39 -7 28 -26 59 -24 83 7 15 19 24 24 33 17 15 -12 63 -23 136 -30 l53 -5 -16 -24 c-21 -32 -7 -30 43 6 23 17 44 30 46 30 2 0 2 -32 -1 -70 -7 -92 3 -104 74 -96 60 7 66 1 77 -76 4 -27 10 -48 14 -48 4 0 21 9 39 19 36 23 45 18 32 -16 -20 -54 3 -61 26 -7 18 44 36 36 28 -12 -5 -32 -1 -39 40 -79 35 -33 55 -44 84 -47 35 -3 38 -6 41 -35 2 -18 7 -33 12 -33 12 0 23 38 14 51 -4 7 -1 10 7 7 9 -3 19 -37 28 -97 12 -83 16 -93 44 -114 52 -38 111 -103 135 -148 l23 -43 -23 -17 -23 -18 71 -73 c73 -76 157 -194 175 -248 15 -41 5 -50 -15 -12 -32 62 -115 136 -133 118 -3 -3 21 -34 53 -69 85 -93 99 -137 99 -312 -1 -136 -7 -200 -20 -213 -4 -4 -15 3 -25 16 -10 12 -20 22 -23 22 -3 0 -8 -26 -12 -57 -11 -94 -25 -143 -68 -233 l-41 -85 -6 52 c-3 28 -8 55 -12 58 -16 17 -28 -11 -28 -64 0 -32 -4 -80 -9 -107 -12 -61 -50 -164 -60 -164 -5 0 -11 28 -15 62 -4 39 -13 69 -24 80 -16 17 -17 11 -17 -105 0 -97 -4 -130 -18 -159 -10 -21 -22 -38 -27 -38 -5 0 -14 19 -21 43 -6 23 -17 54 -25 70 -18 33 -37 37 -25 5 13 -36 22 -155 15 -194 -8 -42 -24 -35 -24 10 0 37 -17 96 -33 111 -6 7 -7 -20 -3 -77 5 -58 4 -88 -3 -88 -6 0 -14 12 -17 28 -8 31 -33 64 -44 57 -4 -3 1 -51 11 -107 10 -57 19 -152 19 -213 2 -232 -61 -360 -196 -400 -45 -13 -81 -16 -149 -12 -157 9 -227 56 -240 162 -4 31 -5 70 -2 88 12 73 22 83 119 130 146 70 167 93 183 210 3 26 5 47 3 48 -2 0 -55 4 -118 9 -101 7 -122 6 -173 -11 -58 -20 -58 -20 -84 1 -31 24 -67 25 -184 4 l-89 -17 -1 -31 c-4 -109 21 -141 159 -206 46 -22 88 -45 95 -52 26 -27 37 -72 37 -148 0 -75 -1 -80 -33 -113 -44 -48 -99 -61 -211 -52 -364 28 -468 211 -384 673 11 62 18 115 15 118 -12 12 -57 -75 -76 -145 -12 -41 -25 -79 -30 -84 -6 -6 -16 12 -26 49 -25 85 -38 92 -33 17 2 -35 1 -63 -4 -63 -16 0 -27 49 -39 174 -7 69 -16 126 -20 126 -10 0 -19 -28 -19 -61 0 -18 -4 -28 -10 -24 -5 3 -10 44 -10 91 0 46 -4 84 -9 84 -12 0 -27 -50 -36 -112 -3 -27 -10 -48 -15 -48 -20 0 -32 80 -28 188 1 62 0 112 -3 112 -10 0 -28 -51 -35 -102 -12 -89 -26 -40 -20 71 5 99 4 104 -9 73 -9 -18 -17 -41 -18 -52 -13 -82 -42 25 -42 153 0 88 -2 104 -12 90 -7 -9 -13 -27 -13 -39 0 -34 -18 -39 -27 -7 -4 15 -8 101 -8 190 0 125 -3 160 -12 150 -6 -7 -18 -36 -25 -65 -7 -29 -18 -54 -23 -55 -15 -3 -18 58 -5 115 12 56 7 71 -14 43 -11 -16 -14 -6 -20 81 -4 54 -3 113 2 130 5 17 37 81 71 143 34 63 61 121 59 130 -2 9 -13 20 -26 26 -33 15 -27 41 24 95 44 47 46 51 35 81 -10 29 -8 35 11 57 13 13 40 33 60 43 24 12 40 28 43 44 3 14 7 36 10 50 4 16 10 22 20 19 12 -5 15 5 15 52 0 77 10 92 41 70 54 -37 129 -5 129 55 0 43 20 47 49 9 14 -19 36 -45 49 -59 l23 -26 -6 30 c-3 17 -17 47 -31 67 -13 21 -24 40 -24 43 0 13 58 3 88 -15 18 -11 37 -18 43 -15 5 4 9 31 9 61 0 58 14 72 25 24 4 -16 11 -33 17 -36 8 -5 9 10 4 51 -7 63 3 86 34 78 29 -8 53 11 80 64 23 43 29 48 63 51 32 3 37 6 32 20 -19 43 -21 78 -8 105 7 15 15 27 18 27 2 0 38 -34 80 -75z m-424 -85 c-8 -171 -5 -190 20 -190 12 0 19 -5 16 -12 -5 -16 -47 -11 -66 7 -28 27 -16 187 25 324 9 30 10 1 5 -129z m2562 107 c-27 -29 -63 -89 -63 -104 0 -7 18 -22 40 -33 22 -11 40 -27 40 -34 0 -23 -69 -76 -139 -108 -123 -56 -296 -128 -306 -128 -5 0 91 99 215 219 124 120 227 217 229 215 3 -2 -5 -14 -16 -27z m-3801 -14 c30 -29 41 -34 50 -25 43 43 120 -36 207 -214 42 -87 87 -221 78 -231 -9 -8 -148 118 -342 309 l-160 158 42 -6 c39 -6 43 -4 53 20 13 35 27 33 72 -11z m-97 -129 c66 -69 166 -167 223 -217 57 -50 99 -93 93 -95 -11 -4 -149 54 -305 127 -92 43 -146 85 -146 112 0 5 18 20 40 34 22 14 40 32 40 39 0 8 -15 34 -33 58 -84 110 -53 90 88 -58z m3475 109 c0 -5 -23 -48 -50 -96 -43 -77 -116 -268 -134 -348 -3 -14 -54 -82 -112 -150 -59 -68 -112 -132 -118 -141 -16 -26 -37 -23 -32 5 42 194 105 345 214 512 75 114 233 263 232 218z m-3078 -100 c150 -154 260 -342 302 -518 31 -128 37 -165 28 -165 -4 0 -58 60 -121 134 l-114 133 -24 94 c-13 51 -28 98 -32 104 -5 5 -15 32 -24 58 -9 26 -37 82 -62 124 -41 68 -51 103 -28 103 5 0 38 -30 75 -67z m2578 39 c0 -5 -17 -37 -39 -73 -31 -52 -44 -65 -67 -67 -16 -2 -34 -8 -40 -13 -6 -5 -19 -7 -27 -3 -14 5 -47 -33 -61 -71 -2 -6 -17 -2 -36 9 -33 19 -33 19 -51 -2 -15 -19 -49 -22 -49 -5 0 26 209 172 298 208 65 27 72 28 72 17z m278 -12 l24 -20 -31 -52 c-73 -123 -143 -234 -157 -248 -12 -12 -14 -9 -15 30 -6 194 8 239 86 282 60 33 63 33 93 8z m-2367 -58 c114 -57 284 -182 292 -214 7 -26 -17 -58 -44 -58 -9 0 -29 14 -44 32 -23 27 -30 30 -46 20 -25 -16 -26 -16 -32 17 -4 21 -15 32 -37 39 -16 6 -33 18 -36 27 -3 8 -16 15 -28 15 -32 0 -136 120 -136 157 0 20 9 17 111 -35z m1889 31 c0 -13 -94 -70 -107 -66 -25 9 -12 24 40 48 56 26 67 29 67 18z m-2148 -32 c26 -16 52 -40 59 -52 13 -25 25 -230 15 -256 -5 -12 -15 -2 -39 38 -18 30 -62 101 -96 158 l-64 105 23 18 c31 25 49 23 102 -11z m442 -29 c79 -38 146 -85 146 -103 0 -5 -13 -9 -28 -9 -19 0 -57 20 -113 61 -142 102 -143 116 -5 51z m1980 -14 c-4 -13 -6 -79 -4 -148 2 -69 3 -136 3 -150 0 -37 -55 -240 -64 -240 -14 0 -57 93 -79 172 -12 40 -24 114 -27 165 -6 92 -6 92 19 102 14 5 36 24 48 41 21 29 84 78 103 79 5 1 5 -9 1 -21z m-2258 -58 c7 0 22 -16 35 -36 12 -20 35 -41 52 -46 l30 -11 -6 -121 c-7 -145 -20 -198 -58 -234 -31 -29 -35 -54 -19 -98 8 -21 7 -32 -5 -51 -9 -13 -21 -23 -28 -20 -24 8 -55 252 -59 458 l-3 197 24 -19 c13 -11 29 -19 37 -19z m3058 -98 c-6 -9 -35 -31 -65 -48 -30 -16 -97 -62 -149 -100 -199 -146 -313 -218 -440 -278 -82 -38 -130 -53 -130 -40 1 16 151 198 228 276 73 75 80 79 172 109 52 17 129 47 170 67 41 19 97 45 125 58 l50 24 25 -25 c20 -20 23 -29 14 -43z m-3803 -16 c41 -18 108 -50 150 -69 42 -20 107 -44 144 -53 62 -16 75 -24 135 -83 92 -91 242 -283 230 -295 -11 -11 -231 94 -317 152 -87 58 -190 131 -268 189 -38 29 -95 66 -128 84 -32 17 -61 37 -63 44 -6 14 23 65 36 65 4 0 41 -15 81 -34z m2798 -78 c18 -111 24 -168 16 -168 -5 0 -17 7 -27 17 -15 13 -18 32 -18 115 0 54 4 98 9 98 5 0 14 -28 20 -62z m-1880 -45 c-2 -107 -9 -143 -31 -157 -26 -16 -29 -5 -13 54 8 29 17 84 21 122 4 37 11 68 15 68 5 0 8 -39 8 -87z m2830 53 c10 -11 5 -20 -24 -42 -34 -26 -36 -31 -31 -67 4 -23 2 -45 -4 -52 -6 -7 -14 -32 -18 -56 l-7 -44 -60 -13 c-82 -17 -255 -28 -255 -15 0 5 24 26 53 47 203 143 275 198 295 225 25 35 34 37 51 17z m-3733 -90 c35 -30 108 -85 161 -122 54 -37 114 -79 133 -93 l35 -26 -35 -5 c-45 -8 -190 5 -247 21 -38 10 -44 15 -39 33 3 13 -3 36 -15 55 -14 23 -18 42 -14 62 9 40 0 62 -35 82 -18 11 -27 23 -23 32 3 8 7 15 10 15 2 0 33 -25 69 -54z m3600 -228 c-3 -13 -6 -40 -6 -60 0 -31 -5 -40 -30 -53 -90 -46 -390 -58 -479 -18 l-44 19 37 22 c98 58 168 79 286 87 63 4 133 11 155 15 75 15 88 13 81 -12z m-3336 -48 c122 -10 145 -15 239 -53 57 -23 106 -47 108 -52 17 -51 -349 -65 -490 -19 -55 18 -67 36 -67 99 l0 47 38 -6 c20 -3 98 -11 172 -16z m2757 -101 c15 -6 39 -17 52 -23 15 -7 91 -11 203 -11 98 0 178 -2 178 -5 -1 -26 -16 -49 -36 -54 -14 -4 -34 -22 -46 -41 -11 -19 -26 -35 -34 -35 -8 0 -23 -9 -35 -21 -12 -12 -35 -23 -53 -26 -17 -3 -39 -12 -49 -20 -13 -13 -22 -14 -40 -6 -24 12 -194 253 -178 253 6 0 23 -5 38 -11z m-2345 -91 c-5 -48 -4 -51 17 -45 11 3 21 3 21 1 0 -6 -81 -167 -87 -174 -2 -3 -12 6 -22 19 -19 24 -25 25 -103 5 -18 -4 -40 0 -62 10 -19 9 -41 16 -48 16 -8 0 -23 9 -33 20 -10 11 -26 20 -37 20 -10 0 -24 11 -30 25 -6 14 -26 35 -45 46 -18 11 -33 24 -33 29 0 5 -3 15 -6 24 -5 14 14 16 167 16 149 -1 182 2 229 19 78 29 78 29 72 -31z m-52 -661 c0 -2 -14 -19 -31 -38 -52 -57 -90 -117 -108 -171 -21 -61 -47 -80 -36 -27 4 19 15 52 25 74 25 56 150 191 150 162z m2560 -56 c-1 -25 -1 -25 -15 -7 -8 11 -15 31 -15 45 1 25 1 25 15 7 8 -11 15 -31 15 -45z m-2518 -28 c43 -41 38 -80 -18 -145 -25 -29 -59 -77 -75 -105 -70 -122 -158 -126 -92 -4 17 31 31 70 31 88 0 17 10 50 22 72 20 40 86 121 98 121 3 0 19 -12 34 -27z m2509 -58 c21 -45 20 -70 -3 -47 -18 18 -38 14 -38 -7 0 -10 15 -51 34 -92 39 -85 94 -248 100 -299 14 -106 18 -213 9 -207 -6 4 -13 24 -16 45 -7 43 -76 206 -77 179 0 -9 14 -69 30 -132 17 -63 30 -118 30 -122 0 -16 -21 17 -62 98 -46 90 -112 181 -172 238 -35 34 -46 64 -26 76 5 3 28 -15 51 -40 35 -38 69 -58 69 -40 0 2 -20 33 -45 68 -45 65 -54 90 -35 102 20 12 47 -6 80 -53 18 -26 35 -49 37 -51 2 -2 6 -2 9 2 4 3 -17 49 -45 101 -51 94 -51 95 -39 141 12 45 21 54 33 35 11 -18 23 -10 30 20 9 42 21 38 46 -15z m-2458 -128 c3 -7 -17 -40 -45 -72 -69 -84 -129 -187 -161 -275 -29 -84 -67 -239 -67 -276 0 -15 -4 -23 -11 -19 -21 14 21 212 73 345 55 141 84 192 148 268 36 43 54 51 63 29z m50 -104 c29 -68 28 -76 -1 -108 -41 -43 -86 -114 -78 -122 3 -4 29 17 57 46 41 43 53 50 65 41 7 -7 14 -18 14 -24 -1 -6 -33 -45 -72 -86 -126 -133 -185 -225 -238 -367 -32 -89 -44 -81 -37 25 9 138 49 289 110 416 50 104 128 214 153 215 6 1 18 -16 27 -36z m2252 -197 c93 -97 154 -218 219 -433 17 -55 21 -103 9 -103 -5 0 -24 30 -43 66 -33 62 -70 108 -70 87 0 -6 16 -44 35 -86 19 -42 35 -80 35 -86 0 -27 -19 -3 -78 94 -83 137 -141 215 -220 297 -45 46 -63 71 -59 83 10 25 38 5 104 -76 36 -44 59 -65 61 -55 4 19 -20 57 -86 133 -40 47 -52 68 -47 83 3 11 11 20 17 20 12 0 70 -58 115 -115 17 -22 34 -37 38 -33 14 13 -7 48 -63 105 -31 33 -63 67 -71 77 -13 16 -12 17 15 11 17 -4 53 -31 89 -69z m-139 -213 c67 -70 213 -280 264 -381 55 -106 82 -224 78 -347 -2 -73 -5 -92 -11 -70 -16 59 -59 165 -69 171 -7 5 -9 -2 -5 -17 37 -158 47 -204 56 -260 16 -99 14 -251 -4 -275 -13 -17 -14 -14 -15 42 0 98 -30 224 -53 224 -4 0 -4 -12 0 -27 10 -40 10 -250 0 -260 -5 -4 -14 0 -21 10 -23 30 -36 20 -36 -29 0 -67 -30 -115 -57 -92 -7 6 -13 16 -13 22 0 7 -6 20 -13 30 -12 16 -16 10 -41 -58 -26 -70 -82 -164 -92 -153 -2 2 -18 60 -34 128 -71 291 -129 421 -254 567 -52 61 -56 80 -22 119 21 24 27 26 49 16 13 -6 46 -39 73 -74 32 -40 50 -56 52 -46 5 23 -31 88 -78 142 -22 25 -40 56 -40 68 1 21 2 21 25 -5 46 -53 62 -27 18 30 -21 28 -27 49 -31 108 -5 75 2 88 34 66 12 -8 101 -124 154 -202 63 -91 61 -90 54 -45 -7 47 -29 83 -130 213 -75 96 -85 123 -61 157 11 13 21 16 42 11 35 -9 156 -130 218 -220 27 -37 50 -66 53 -64 6 7 -28 89 -57 135 -47 76 -113 150 -171 193 -55 40 -71 60 -47 60 21 0 117 -71 166 -123 71 -76 117 -150 159 -257 20 -52 38 -97 41 -100 3 -3 3 26 0 63 -11 122 -126 306 -252 406 -61 49 -71 83 -27 89 18 3 40 -14 97 -72 73 -75 101 -88 66 -29 -11 16 -46 59 -80 95 -57 61 -76 98 -50 98 6 0 35 -26 65 -57z m-1066 -230 c0 -55 -3 -74 -12 -71 -9 3 -14 32 -16 88 -3 74 -1 82 13 70 11 -9 15 -32 15 -87z m225 65 c3 -18 5 -60 3 -93 -2 -45 -7 -60 -18 -60 -11 0 -15 17 -18 78 -2 43 -1 84 2 92 9 25 25 16 31 -17z m67 -44 c2 -48 -1 -79 -8 -85 -16 -13 -24 21 -24 99 0 47 3 62 14 62 11 0 15 -19 18 -76z m128 41 c0 -7 -7 -18 -15 -25 -13 -11 -15 -7 -15 25 0 32 2 36 15 25 8 -7 15 -18 15 -25z m-481 -82 c1 -13 -3 -23 -7 -23 -24 0 -36 89 -17 120 7 11 11 4 17 -30 3 -25 7 -55 7 -67z m417 72 c7 -39 -1 -85 -16 -85 -6 0 -10 27 -10 60 0 66 15 81 26 25z m-292 -6 c11 -57 7 -141 -6 -137 -12 4 -29 142 -20 161 8 16 20 5 26 -24z m-1489 -46 c4 -38 18 -93 32 -124 l25 -57 -35 -93 c-19 -52 -38 -110 -42 -129 -3 -19 -9 -43 -11 -52 -3 -10 -1 -18 3 -18 5 0 16 21 25 48 30 86 72 182 80 182 15 0 8 -94 -11 -163 -23 -78 -39 -221 -22 -197 5 8 20 54 32 102 11 48 25 88 29 88 4 0 15 -36 25 -81 9 -44 31 -111 47 -147 17 -36 34 -77 39 -90 8 -20 12 -22 24 -12 18 15 19 1 2 -21 -20 -26 -245 -161 -257 -154 -23 14 -58 105 -76 195 -50 248 3 790 76 790 5 0 11 -30 15 -67z m1295 46 c0 -11 -4 -17 -10 -14 -5 3 -10 13 -10 21 0 8 5 14 10 14 6 0 10 -9 10 -21z m284 -11 c13 -48 7 -155 -10 -169 -25 -21 -34 6 -34 104 0 79 2 87 19 87 11 0 21 -9 25 -22z m1334 -419 c7 -30 21 -88 32 -129 54 -212 64 -294 63 -535 0 -223 -1 -233 -28 -315 -35 -108 -67 -164 -157 -274 -72 -88 -192 -195 -205 -182 -4 4 5 32 21 63 18 37 24 59 17 66 -6 6 -19 -9 -37 -47 -31 -61 -44 -70 -44 -30 0 37 -24 25 -28 -14 -2 -18 -7 -32 -11 -32 -11 0 -63 68 -95 125 -35 63 -41 130 -16 207 10 31 22 77 25 102 8 50 26 74 42 54 5 -7 21 -52 36 -100 31 -98 53 -128 42 -57 -4 24 -15 73 -26 108 -10 35 -19 73 -19 84 0 24 49 127 60 127 4 0 15 -9 25 -19 12 -14 18 -41 21 -92 3 -77 6 -85 25 -74 8 6 10 31 5 91 -4 55 -2 92 6 109 10 22 105 95 124 95 4 0 5 -84 2 -187 -4 -156 -3 -183 7 -158 17 41 33 156 40 300 4 66 10 136 15 155 5 19 12 55 15 80 3 25 10 71 17 104 11 58 6 315 -8 400 -11 62 18 40 34 -25z m-3078 -36 c0 -37 -7 -59 -30 -93 -16 -25 -30 -57 -30 -72 0 -32 2 -33 30 -15 17 10 22 9 30 -2 11 -18 -2 -45 -42 -88 -40 -41 -27 -66 14 -26 24 23 30 25 38 13 20 -31 8 -54 -52 -111 -34 -32 -59 -61 -56 -65 7 -7 91 40 108 61 17 21 25 19 39 -11 10 -23 9 -30 -9 -49 -11 -11 -47 -36 -80 -55 -105 -59 -66 -71 45 -14 l70 36 32 -39 c18 -21 29 -41 24 -46 -11 -11 -70 -44 -117 -66 -23 -11 -45 -25 -49 -32 -15 -23 68 1 158 47 48 24 89 44 92 44 12 0 22 -46 14 -61 -15 -29 -143 -106 -222 -134 -95 -34 -110 -51 -39 -41 65 8 173 52 236 95 26 18 49 31 52 29 2 -3 6 -18 10 -34 5 -27 1 -33 -71 -83 -42 -29 -74 -55 -71 -58 8 -8 65 17 113 49 41 27 42 28 53 9 15 -28 13 -36 -16 -71 -29 -33 -25 -52 6 -32 29 18 47 15 54 -10 13 -50 6 -66 -59 -126 -108 -101 -251 -156 -315 -122 -22 12 -73 139 -107 270 -23 86 -25 113 -25 290 0 165 3 208 22 280 11 47 23 95 26 107 3 17 41 115 101 261 11 27 23 9 23 -35z m1668 -116 c6 -7 14 -32 18 -55 8 -51 24 -45 24 9 0 44 20 55 21 12 l1 -28 11 25 c24 50 27 53 48 34 15 -13 22 -15 31 -6 15 15 40 15 74 0 l27 -12 -5 -123 c-3 -68 -3 -123 -2 -123 12 0 34 81 34 125 0 71 10 115 26 115 22 0 36 -39 32 -88 -3 -49 12 -69 24 -30 3 13 6 42 7 64 1 43 12 54 52 54 32 0 32 -24 1 -91 -41 -89 -110 -179 -168 -217 -26 -18 -54 -46 -60 -62 -19 -45 -34 -36 -34 21 0 62 -16 56 -25 -10 -4 -27 -13 -58 -21 -68 -14 -17 -15 -17 -29 1 -8 11 -22 40 -31 65 -10 25 -21 50 -26 56 -11 13 -10 -53 2 -94 5 -19 7 -37 4 -40 -8 -8 -23 19 -34 64 -20 76 -42 125 -56 125 -17 0 -17 1 2 -45 8 -20 14 -41 12 -47 -4 -12 -128 81 -189 143 -37 36 -49 57 -59 100 -13 60 -11 124 5 124 6 0 17 -21 25 -47 21 -64 30 -69 30 -16 0 25 6 50 13 56 7 6 49 13 92 15 44 1 87 4 96 5 9 1 21 -4 27 -11z m-342 -8 c4 -7 8 -30 10 -52 2 -22 7 -49 10 -60 9 -28 -13 -13 -30 21 -8 15 -17 44 -21 65 -6 30 -4 37 8 37 9 0 19 -5 23 -11z m1977 -164 c109 -200 162 -354 217 -620 25 -123 35 -220 35 -350 0 -91 -4 -109 -38 -200 -46 -119 -62 -141 -53 -71 7 54 -3 186 -14 186 -7 0 -13 -46 -26 -201 -10 -122 -44 -208 -52 -132 -5 46 -32 184 -49 246 -30 109 -35 59 -13 -118 5 -38 7 -71 6 -73 -2 -1 -17 21 -34 50 -17 29 -38 62 -47 73 -16 20 -16 20 -12 -5 3 -14 19 -63 35 -110 17 -46 29 -87 26 -89 -3 -3 -44 36 -92 86 -48 50 -124 121 -169 158 -46 37 -83 72 -83 78 1 7 16 30 35 52 l34 40 29 -28 c36 -34 49 -23 21 19 -26 40 -24 49 17 107 38 52 108 194 120 241 9 37 19 40 38 11 9 -14 21 -25 27 -25 12 0 5 27 -18 79 -11 24 -13 48 -8 90 4 31 10 60 13 65 3 5 24 -29 48 -75 27 -52 43 -76 43 -62 1 22 -35 128 -49 148 -22 30 -40 116 -40 189 l1 81 22 -26 c12 -14 32 -39 45 -55 l23 -29 -6 35 c-5 32 -15 49 -80 138 -13 18 -29 59 -35 90 -6 31 -17 82 -25 113 -8 30 -15 59 -15 64 0 27 67 -65 123 -170z m-2809 -116 c0 -24 -4 -98 -8 -164 -7 -127 6 -134 19 -10 7 70 15 85 48 85 16 0 17 -16 18 -197 0 -109 4 -207 9 -218 5 -12 9 38 9 133 1 83 5 152 9 152 4 0 22 -42 39 -92 26 -75 33 -116 39 -211 3 -64 11 -120 16 -123 14 -9 15 -5 8 81 -4 44 -5 84 -2 88 4 9 52 -54 76 -101 9 -17 16 -42 16 -57 0 -29 15 -33 29 -7 8 14 12 15 22 5 21 -21 72 -15 111 12 20 14 41 25 47 25 10 0 39 -73 61 -154 l14 -50 -90 -85 c-91 -87 -170 -148 -179 -139 -3 3 -2 16 3 29 5 13 12 42 16 64 l7 40 -20 -25 c-11 -14 -25 -44 -32 -68 -21 -75 -48 -66 -69 23 -7 31 -20 64 -27 73 -13 15 -14 12 -10 -25 3 -24 1 -43 -3 -43 -5 0 -28 27 -52 60 -23 33 -60 84 -82 113 -57 77 -149 274 -201 429 -39 118 -45 147 -43 204 l3 67 50 26 c27 14 68 45 90 67 22 23 45 41 50 40 6 -2 10 -23 9 -47z m-148 -732 c-11 -53 -11 -67 -1 -67 7 0 18 21 25 48 17 61 20 66 33 53 12 -12 12 -94 1 -273 l-6 -107 -41 -27 -40 -26 -19 23 c-59 75 -108 182 -123 270 -6 33 -4 38 28 58 50 30 55 27 49 -29 -2 -27 -1 -50 4 -50 5 0 18 28 28 63 18 57 64 142 73 134 2 -2 -3 -34 -11 -70z"/>
    <path d="M5080 4791 c0 -34 -44 -86 -66 -77 -62 24 -62 23 -71 -56 -10 -92 -10 -88 2 -89 5 0 14 19 20 42 10 44 21 54 67 64 15 3 43 19 62 35 l33 30 18 -48 c28 -78 29 -79 33 -44 2 19 -1 47 -7 63 -5 16 -7 29 -3 29 3 0 30 -23 59 -52 51 -51 71 -58 59 -21 -10 32 -92 109 -140 131 -59 28 -66 28 -66 -7z"/>
    <path d="M4760 4707 c0 -2 7 -25 16 -51 13 -38 19 -45 30 -35 16 13 10 44 -14 72 -13 15 -32 23 -32 14z"/>
    <path d="M4720 4667 c0 -7 7 -22 15 -33 14 -18 14 -17 15 14 0 22 -5 32 -15 32 -8 0 -15 -6 -15 -13z"/>
    <path d="M4682 4533 c-44 -49 -58 -57 -82 -55 -24 3 -32 -1 -39 -21 -11 -29 -1 -79 18 -85 9 -3 11 2 6 17 -10 31 12 53 45 46 24 -5 30 0 59 46 32 53 46 55 53 10 1 -14 9 -26 16 -29 9 -3 12 14 12 62 0 85 -15 87 -88 9z"/>
    <path d="M5145 4537 c-2 -7 -5 -23 -7 -36 -7 -57 -68 -53 -68 4 0 19 -4 35 -9 35 -5 0 -30 -23 -55 -51 -44 -49 -88 -150 -73 -166 4 -3 8 -4 10 -2 1 2 13 27 27 54 17 34 31 50 44 50 17 0 19 -8 20 -57 1 -31 7 -63 14 -70 9 -10 12 -2 12 40 0 50 1 52 40 72 21 11 48 30 59 42 l21 21 17 -39 18 -39 3 38 c2 20 7 37 11 37 8 0 44 -75 59 -125 l9 -30 18 43 c21 52 33 53 37 5 4 -47 22 -50 26 -5 4 38 20 41 52 7 39 -41 54 -30 20 16 -16 23 -32 57 -36 75 -7 39 -26 43 -64 14 -35 -27 -44 -25 -87 21 -40 42 -110 69 -118 46z"/>
    <path d="M4882 4488 c-14 -14 -16 -68 -2 -68 9 0 26 67 18 75 -2 3 -10 -1 -16 -7z"/>
    <path d="M4807 4454 c-4 -4 -7 -23 -7 -41 0 -42 23 -41 28 1 4 29 -9 52 -21 40z"/>
    <path d="M4440 4444 c0 -13 44 -84 52 -84 14 0 9 21 -13 56 -18 30 -39 45 -39 28z"/>
    <path d="M4720 4411 c0 -20 9 -36 27 -50 36 -29 40 -19 12 34 -28 52 -39 57 -39 16z"/>
    <path d="M5516 4394 c-7 -19 2 -37 15 -29 12 8 12 45 0 45 -5 0 -12 -7 -15 -16z"/>
    <path d="M5570 4366 c0 -9 5 -16 10 -16 6 0 10 4 10 9 0 6 -4 13 -10 16 -5 3 -10 -1 -10 -9z"/>
    <path d="M5190 4285 c-21 -56 -23 -75 -6 -75 9 0 16 3 16 8 0 4 4 24 9 45 10 44 -4 61 -19 22z"/>
    <path d="M5581 4255 c-48 -64 -50 -90 -4 -51 40 33 44 33 37 -6 l-6 -33 25 29 24 30 12 -23 c15 -26 35 -15 45 24 4 14 11 25 16 25 14 0 30 -35 30 -69 0 -36 16 -49 25 -21 9 27 17 25 43 -10 32 -42 43 -37 24 10 -21 50 -111 150 -136 150 -10 0 -20 -9 -23 -20 -3 -11 -11 -20 -17 -20 -6 0 -18 9 -26 20 -8 11 -17 20 -21 20 -4 0 -25 -25 -48 -55z"/>
    <path d="M4500 4238 c-48 -50 -50 -51 -69 -34 -11 10 -23 31 -26 47 -13 58 -52 17 -61 -64 -5 -46 -2 -69 15 -118 21 -57 22 -62 6 -79 -9 -10 -24 -33 -33 -51 -14 -26 -30 -37 -82 -56 -48 -17 -76 -35 -107 -68 -63 -68 -121 -161 -141 -224 -22 -73 -22 -247 1 -308 16 -42 16 -43 -9 -68 -32 -32 -21 -55 11 -25 l22 21 51 -65 c103 -131 221 -192 377 -195 111 -2 183 15 266 62 73 40 125 97 188 205 l43 72 114 2 c63 1 122 2 131 2 12 1 30 -22 54 -69 20 -38 53 -89 72 -111 l36 -41 -25 -12 c-14 -6 -24 -17 -21 -24 5 -15 58 -12 68 4 8 14 56 -20 73 -52 13 -24 82 -66 92 -56 4 4 1 14 -7 24 -12 15 -12 16 3 10 9 -3 34 -9 55 -13 21 -3 52 -14 70 -24 31 -18 32 -18 49 1 17 19 19 19 31 3 12 -16 14 -16 30 -2 10 9 49 29 86 44 178 71 291 212 316 396 36 261 -134 499 -392 549 -44 9 -61 17 -67 33 -15 39 -48 59 -105 64 -58 5 -81 24 -69 56 3 9 1 16 -5 16 -7 0 -17 -14 -23 -30 l-10 -31 -87 3 -86 3 3 43 c2 23 1 42 -2 42 -4 0 -15 -20 -26 -45 -14 -32 -25 -45 -40 -45 -17 0 -20 6 -20 42 l0 41 -30 -41 c-33 -46 -53 -54 -46 -19 23 109 11 134 -18 38 -18 -59 -30 -70 -78 -71 -14 0 -18 8 -18 35 0 19 -4 35 -10 35 -5 0 -10 -14 -10 -31 0 -27 -3 -31 -22 -26 -12 3 -30 1 -41 -5 -17 -9 -25 -5 -54 26 -36 37 -62 41 -43 5 14 -25 5 -39 -26 -39 -34 0 -64 17 -96 54 -31 37 -49 28 -25 -13 9 -16 17 -32 17 -36 0 -4 -27 -5 -60 -3 -45 3 -66 10 -85 28 l-25 24 2 -25 c3 -21 -1 -24 -33 -27 -43 -4 -81 24 -109 79 -25 49 -26 63 -2 50 15 -8 25 -3 51 25 18 18 37 34 43 34 6 0 23 -11 40 -25 28 -23 48 -32 48 -20 0 10 -60 125 -65 125 -3 0 -28 -23 -55 -52z m-40 -210 c0 -10 -47 -11 -53 0 -3 4 -8 23 -12 42 l-7 35 36 -34 c20 -19 36 -39 36 -43z m502 -85 l11 -28 7 25 c6 22 8 23 15 8 4 -10 11 -18 16 -18 5 0 9 8 9 18 1 15 2 15 16 -3 14 -19 16 -19 25 -2 10 18 11 18 25 0 7 -10 14 -13 14 -6 0 11 70 15 70 3 0 -8 43 -5 58 4 7 4 17 4 23 0 6 -3 16 0 21 7 7 11 11 11 15 2 6 -15 33 -17 33 -3 0 6 8 5 20 -2 17 -11 22 -10 29 0 6 11 10 10 15 -4 6 -16 7 -16 20 1 12 17 13 17 20 -1 7 -18 8 -18 21 -1 13 18 14 18 24 0 9 -16 12 -16 21 -3 8 12 11 13 19 1 6 -9 11 -10 15 -2 4 6 21 9 39 7 18 -2 38 1 45 6 15 13 26 4 19 -15 -3 -7 -31 -19 -62 -26 -111 -25 -237 -124 -300 -236 -35 -63 -34 -62 -46 -45 -8 11 -12 12 -16 3 -7 -20 -23 -15 -23 6 0 11 -4 23 -10 26 -5 3 -10 -1 -10 -9 0 -24 -19 -19 -30 7 l-9 22 -7 -22 c-8 -29 -21 -29 -30 -1 l-7 23 -8 -23 c-9 -24 -29 -21 -29 4 0 8 -4 12 -10 9 -5 -3 -10 -15 -10 -26 0 -21 -16 -26 -23 -6 -3 8 -9 6 -19 -7 -10 -13 -17 -15 -22 -8 -4 6 -12 9 -19 6 -8 -3 -22 14 -34 40 -37 76 -124 159 -216 207 -98 50 -91 44 -83 65 6 16 7 16 20 -1 12 -17 13 -17 20 1 7 17 9 17 18 -6 l10 -25 10 25 c9 23 10 24 23 7 12 -16 13 -16 19 -1 5 13 10 14 18 6 6 -6 17 -8 25 -5 8 3 19 0 23 -8 7 -11 10 -10 16 4 5 14 9 15 21 5 11 -9 16 -9 23 2 7 11 11 9 19 -10 l10 -25 7 23 c6 21 8 22 24 7 16 -15 18 -14 23 5 7 27 15 25 29 -7z m-432 7 c0 -5 -4 -10 -10 -10 -5 0 -10 5 -10 10 0 6 5 10 10 10 6 0 10 -4 10 -10z m50 -4 c0 -8 -4 -18 -10 -21 -5 -3 -10 3 -10 14 0 12 5 21 10 21 6 0 10 -6 10 -14z m-180 -6 c0 -5 -4 -10 -10 -10 -5 0 -10 5 -10 10 0 6 5 10 10 10 6 0 10 -4 10 -10z m206 -77 c142 -48 261 -175 298 -319 28 -108 15 -207 -40 -316 -55 -109 -207 -218 -329 -235 -70 -9 -53 11 20 25 210 40 362 247 339 462 -9 78 -71 205 -125 256 -229 217 -600 128 -699 -166 -33 -96 -26 -221 17 -310 67 -141 199 -238 343 -253 29 -2 32 -4 16 -12 -46 -20 -208 50 -283 124 -92 91 -134 189 -135 316 0 193 103 344 289 421 73 30 212 33 289 7z m1279 -23 c116 -59 198 -155 240 -280 12 -37 16 -75 13 -143 -3 -81 -7 -101 -38 -162 -22 -45 -56 -92 -97 -132 -67 -67 -96 -85 -182 -114 -63 -21 -97 -24 -106 -9 -4 6 5 10 20 10 87 0 229 77 295 160 105 132 120 312 40 470 -25 48 -112 136 -163 162 -84 44 -111 51 -212 52 -96 1 -103 -1 -179 -37 -230 -109 -312 -364 -192 -595 21 -41 117 -137 158 -158 50 -26 138 -54 170 -54 15 0 28 -4 28 -10 0 -31 -154 14 -232 68 -119 82 -198 225 -199 360 -1 126 40 229 129 319 103 104 175 133 328 130 104 -2 114 -4 179 -37z m-1281 -41 c113 -38 230 -162 235 -247 2 -22 -78 29 -99 63 -11 17 -36 44 -57 58 l-38 28 -40 -44 c-22 -23 -45 -52 -52 -62 -11 -19 -13 -19 -79 15 -37 19 -87 50 -111 68 -24 17 -48 32 -54 32 -35 0 -184 -139 -200 -187 -13 -40 -34 -45 -25 -5 15 64 68 152 119 198 119 108 248 134 401 83z m1239 -5 c115 -47 187 -127 233 -258 18 -50 3 -72 -20 -28 -9 17 -37 48 -63 69 -27 21 -51 42 -54 46 -8 11 -76 -2 -87 -17 -5 -6 -16 -32 -26 -57 -20 -56 -48 -86 -63 -67 -5 7 -38 64 -72 125 -35 62 -66 115 -71 118 -18 11 -37 -9 -78 -80 -23 -41 -46 -75 -50 -75 -5 0 -18 20 -30 44 -12 24 -29 50 -38 57 -22 18 -39 -5 -54 -74 -24 -111 -68 -173 -58 -83 8 66 45 135 107 195 121 117 273 147 424 85z m-1503 -153 c5 -11 10 -31 10 -45 0 -14 18 -59 40 -101 22 -42 40 -81 40 -88 0 -6 -25 -53 -56 -104 -56 -95 -98 -134 -156 -148 -38 -10 -37 8 7 85 73 130 78 145 80 275 1 66 3 126 4 133 2 18 19 15 31 -7z m1295 -11 c6 -18 -22 -76 -32 -66 -8 8 8 86 17 86 5 0 11 -9 15 -20z m-929 -29 c12 -29 13 -63 2 -87 -17 -37 -26 -29 -38 34 -6 31 -14 65 -16 75 -5 15 -2 16 20 6 14 -7 28 -19 32 -28z m-282 -1 c27 -24 37 -43 49 -98 18 -77 8 -103 -23 -62 -11 14 -23 34 -26 45 -4 11 -15 31 -24 45 -22 32 -37 100 -21 100 5 0 26 -14 45 -30z m-154 -33 c0 -24 -4 -37 -9 -31 -11 12 -22 70 -14 78 13 13 23 -7 23 -47z m380 -21 c0 -20 0 -20 -21 1 -15 14 -19 27 -15 40 7 17 8 17 22 -1 8 -11 14 -29 14 -40z m513 32 c30 -16 47 -72 47 -154 0 -62 -3 -75 -14 -71 -8 3 -20 -1 -26 -8 -7 -8 -17 -12 -23 -8 -17 10 -56 13 -62 4 -5 -8 -97 3 -115 14 -5 3 -10 46 -10 94 0 95 7 110 68 138 29 13 104 8 135 -9z m257 -24 c0 -13 5 -24 10 -24 6 0 10 10 10 23 1 21 1 21 14 4 8 -10 12 -27 9 -37 -6 -23 -14 -25 -30 -9 -8 8 -14 1 -23 -25 -11 -33 -60 -86 -81 -86 -5 0 7 28 25 63 19 34 37 77 41 95 7 36 25 34 25 -4z m160 -1 c0 -31 -8 -44 -60 -95 -55 -53 -72 -78 -52 -78 4 0 39 32 77 70 38 39 73 70 77 70 11 0 10 -68 -2 -109 -8 -28 -6 -36 6 -46 15 -10 14 -17 -10 -66 -30 -64 -82 -129 -102 -129 -8 0 -14 5 -14 10 0 18 -23 11 -50 -15 l-26 -25 -38 52 c-32 43 -37 54 -27 70 9 15 8 18 -8 18 -22 0 -36 30 -27 58 4 9 34 37 69 61 39 28 82 71 117 117 29 41 58 74 62 74 4 0 8 -17 8 -37z m-1355 -17 c7 -44 -14 -106 -35 -106 -14 0 -12 94 2 125 16 36 26 31 33 -19z m1669 -2 c-2 -93 -17 -160 -40 -189 -13 -16 -42 -52 -64 -80 -112 -142 -141 -161 -223 -143 -21 5 -43 5 -49 2 -6 -4 -8 -1 -6 7 3 8 11 13 17 11 14 -3 53 41 93 105 l28 44 29 -16 c34 -17 51 -19 51 -6 0 5 -14 14 -30 21 -17 7 -33 17 -36 22 -3 5 9 32 27 61 18 29 33 53 33 53 1 1 18 4 39 8 l39 7 -7 -43 c-13 -73 20 -29 40 55 24 98 33 119 48 114 6 -2 12 -17 11 -33z m-1365 0 c12 -15 21 -34 21 -43 1 -9 7 -33 14 -53 15 -41 6 -49 -27 -25 -15 11 -47 101 -47 135 0 20 17 14 39 -14z m140 -99 c45 -93 35 -110 -28 -45 -39 40 -70 118 -56 140 9 15 57 -40 84 -95z m111 33 c7 -35 24 -88 37 -118 l24 -55 -22 -17 c-11 -10 -24 -18 -28 -18 -15 0 -51 61 -70 118 l-21 61 26 50 c15 28 30 49 34 46 4 -2 13 -33 20 -67z m1173 -43 c3 -55 6 -104 7 -110 1 -5 2 -22 1 -37 -1 -33 -21 -38 -21 -6 0 15 -3 19 -10 12 -8 -8 -8 -25 -1 -55 24 -103 4 -142 -61 -120 -36 13 -46 8 -29 -13 10 -12 8 -17 -11 -29 -46 -29 -66 -30 -93 -2 -19 19 -24 31 -19 48 9 32 34 57 57 57 13 0 17 5 14 15 -8 19 11 31 26 16 18 -18 29 -13 22 9 -11 34 5 79 36 101 29 21 31 21 45 3 14 -17 14 -16 7 16 -14 62 0 222 17 204 5 -5 11 -54 13 -109z m-272 41 c5 -6 9 1 9 18 0 24 2 27 15 16 20 -17 19 -36 -4 -52 -10 -8 -21 -24 -23 -36 -6 -44 -23 -22 -26 34 -3 63 9 110 16 59 2 -16 8 -34 13 -39z m313 32 c9 -34 7 -88 -3 -88 -13 0 -21 27 -21 71 0 43 14 52 24 17z m-1137 -30 c13 -38 7 -108 -9 -108 -14 0 -48 82 -48 118 0 29 3 33 22 30 16 -2 27 -14 35 -40z m-697 -2 c0 -34 -39 -156 -50 -156 -21 0 -19 24 6 100 26 79 44 102 44 56z m94 -103 c-21 -57 -81 -153 -94 -153 -5 0 -17 11 -26 25 -16 25 -15 27 21 88 21 34 52 80 69 101 l30 39 9 -27 c6 -18 4 -40 -9 -73z m1834 43 c5 -38 -34 -147 -69 -195 -34 -48 -54 -54 -46 -13 52 244 56 255 90 243 14 -5 23 -18 25 -35z m-1560 -43 c6 -10 13 -33 17 -50 6 -31 5 -33 -19 -33 -48 0 -84 -92 -49 -126 10 -11 24 -31 31 -46 6 -16 16 -28 22 -28 15 0 12 11 -15 59 -14 23 -25 51 -25 61 0 22 16 35 25 20 10 -16 25 -12 19 5 -15 38 25 4 82 -70 15 -20 15 -19 9 3 -6 21 -4 23 17 17 37 -12 78 -35 78 -44 0 -11 -25 -21 -51 -21 -11 0 -18 -4 -14 -10 7 -11 -46 -40 -75 -40 -12 0 -31 -5 -42 -11 -47 -25 -218 3 -218 36 0 8 24 42 54 76 41 47 58 76 71 123 18 63 39 96 61 96 7 0 17 -8 22 -17z m163 -71 c88 -85 90 -88 78 -115 -7 -15 -17 -27 -23 -27 -18 0 -127 69 -147 93 -28 34 -44 103 -29 122 7 8 17 15 22 15 5 0 50 -39 99 -88z m-282 -44 c-13 -25 -118 -151 -129 -156 -4 -1 -13 5 -21 14 -12 15 -11 19 11 32 14 9 52 43 85 77 33 34 61 61 63 59 2 -1 -2 -13 -9 -26z m1289 -174 c30 -21 19 -34 -29 -34 -61 0 -106 31 -61 43 36 10 68 6 90 -9z"/>
    <path d="M5240 3836 c0 -8 5 -18 10 -21 6 -3 10 3 10 14 0 12 -4 21 -10 21 -5 0 -10 -6 -10 -14z"/>
    <path d="M5042 3488 c-33 -33 2 -88 57 -88 43 0 62 37 37 75 -18 28 -72 35 -94 13z m62 -24 c19 -19 12 -34 -15 -34 -19 0 -27 29 -12 43 9 9 9 9 27 -9z"/>
    <path d="M4760 4270 c0 -12 70 -62 81 -58 17 6 -28 55 -56 60 -14 3 -25 2 -25 -2z"/>
    <path d="M4967 4236 c-6 -14 -2 -61 9 -113 2 -13 9 -23 15 -23 8 0 10 22 7 65 -4 65 -20 101 -31 71z"/>
    <path d="M5327 4232 c-18 -20 -22 -42 -9 -42 12 0 42 34 42 48 0 17 -15 15 -33 -6z"/>
    <path d="M5104 4185 c-7 -30 2 -59 16 -50 13 8 13 75 0 75 -5 0 -12 -11 -16 -25z"/>
    <path d="M4735 4178 c8 -27 41 -58 61 -58 21 0 17 10 -21 46 -40 40 -49 42 -40 12z"/>
    <path d="M4109 4130 c13 -11 31 -20 40 -20 12 1 11 5 -8 20 -13 11 -31 20 -40 20 -12 -1 -11 -5 8 -20z"/>
    <path d="M4195 4139 c-10 -15 3 -25 16 -12 7 7 7 13 1 17 -6 3 -14 1 -17 -5z"/>
    <path d="M4901 4126 c15 -32 32 -34 27 -4 -2 13 -11 24 -21 26 -15 3 -16 0 -6 -22z"/>
    <path d="M5418 4099 c-18 -10 -25 -49 -9 -49 8 0 41 43 41 55 0 8 -13 6 -32 -6z"/>
    <path d="M5940 4097 c0 -17 37 -39 45 -26 8 13 -13 39 -31 39 -8 0 -14 -6 -14 -13z"/>
    <path d="M4086 4019 c-31 -37 -33 -49 -6 -56 18 -5 15 -11 -32 -61 -29 -31 -47 -57 -41 -59 11 -4 113 64 157 103 19 17 19 18 -2 32 -12 8 -22 21 -22 30 0 12 9 13 50 8 28 -4 50 -4 50 0 0 17 -39 33 -82 34 -40 0 -50 -4 -72 -31z"/>
    <path d="M5930 4025 c0 -8 5 -15 10 -15 6 0 10 7 10 15 0 8 -4 15 -10 15 -5 0 -10 -7 -10 -15z"/>
    <path d="M5743 4015 c-3 -9 -3 -18 0 -21 6 -7 47 18 47 28 0 15 -41 8 -47 -7z"/>
    <path d="M5888 3963 c-46 -7 -31 -20 29 -26 59 -6 74 -3 57 12 -13 12 -54 18 -86 14z"/>
    <path d="M6032 3884 c4 -20 34 -41 44 -31 8 8 -24 47 -38 47 -5 0 -8 -7 -6 -16z"/>
    <path d="M4079 3841 c-23 -24 -39 -61 -26 -61 2 0 23 20 47 45 33 33 40 45 26 45 -10 0 -31 -13 -47 -29z"/>
    <path d="M3954 3676 c-28 -20 -67 -116 -62 -153 4 -24 9 -17 47 60 45 95 48 116 15 93z"/>
    <path d="M5100 3230 c-9 -17 -8 -20 9 -20 19 0 35 23 24 34 -11 11 -22 6 -33 -14z"/>
    <path d="M4985 3190 c-9 -15 3 -30 24 -30 25 0 33 11 20 27 -13 15 -35 17 -44 3z"/>
    <path d="M5184 3176 c-10 -8 -16 -18 -11 -22 10 -10 59 8 65 24 5 17 -30 15 -54 -2z"/>
    <path d="M5086 3134 c-4 -9 -4 -19 -1 -22 6 -6 35 18 35 29 0 16 -28 10 -34 -7z"/>
    <path d="M4960 3113 c1 -11 50 -46 56 -40 11 11 -17 47 -36 47 -11 0 -20 -3 -20 -7z"/>
    <path d="M4044 3055 c-8 -13 -14 -32 -12 -42 2 -13 9 -9 26 20 25 43 26 47 12 47 -5 0 -17 -11 -26 -25z"/>
    <path d="M5132 3040 c-15 -40 2 -47 27 -11 26 36 26 41 2 41 -12 0 -23 -11 -29 -30z"/>
    <path d="M5215 3050 c-10 -11 -16 -23 -13 -26 9 -8 48 19 48 33 0 19 -14 16 -35 -7z"/>
    <path d="M4840 3040 c0 -10 41 -31 48 -25 1 1 0 10 -4 19 -7 17 -44 23 -44 6z"/>
    <path d="M4970 3033 c0 -15 59 -67 67 -59 13 12 -21 61 -45 64 -12 2 -22 -1 -22 -5z"/>
    <path d="M4111 3004 c-6 -15 -9 -29 -6 -33 9 -8 46 39 39 50 -9 16 -20 10 -33 -17z"/>
    <path d="M5122 2958 c-14 -14 -16 -48 -4 -48 12 0 42 34 42 48 0 16 -23 15 -38 0z"/>
    <path d="M4770 2951 c0 -5 18 -13 40 -19 41 -10 49 -5 28 16 -14 14 -68 16 -68 3z"/>
    <path d="M5192 2948 c-12 -12 -17 -38 -7 -38 16 0 55 25 52 34 -5 16 -31 18 -45 4z"/>
    <path d="M5356 2946 c-10 -8 -16 -19 -15 -24 5 -12 90 10 92 23 3 16 -56 16 -77 1z"/>
    <path d="M4180 2918 c-20 -33 -26 -68 -12 -68 8 1 72 83 72 93 0 4 -9 7 -20 7 -12 0 -28 -13 -40 -32z"/>
    <path d="M4950 2942 c0 -12 67 -72 80 -72 18 0 11 23 -17 52 -25 26 -63 38 -63 20z"/>
    <path d="M4700 2910 c0 -5 9 -10 21 -10 11 0 17 5 14 10 -3 6 -13 10 -21 10 -8 0 -14 -4 -14 -10z"/>
    <path d="M5602 2898 c6 -18 55 -44 65 -34 10 9 -33 46 -54 46 -8 0 -13 -6 -11 -12z"/>
    <path d="M5928 2905 c-3 -4 -1 -19 5 -36 14 -35 42 -41 32 -6 -8 26 -29 50 -37 42z"/>
    <path d="M4572 2888 c-19 -19 -14 -27 13 -24 34 4 40 12 17 25 -13 7 -22 7 -30 -1z"/>
    <path d="M4255 2869 c-4 -6 -5 -13 -2 -16 7 -7 27 6 27 18 0 12 -17 12 -25 -2z"/>
    <path d="M4657 2873 c-15 -15 -5 -23 29 -23 31 0 35 2 24 15 -13 16 -42 20 -53 8z"/>
    <path d="M5374 2849 l-19 -22 45 7 c52 8 60 14 40 26 -24 15 -46 11 -66 -11z"/>
    <path d="M5490 2861 c0 -11 29 -35 35 -29 10 9 -7 38 -21 38 -8 0 -14 -4 -14 -9z"/>
    <path d="M5127 2853 c-4 -3 -7 -15 -7 -25 0 -18 1 -18 25 -1 13 10 25 21 25 26 0 9 -34 9 -43 0z"/>
    <path d="M4760 2841 c0 -16 19 -23 40 -16 30 10 24 25 -10 25 -16 0 -30 -4 -30 -9z"/>
    <path d="M5580 2843 c0 -5 14 -22 30 -38 26 -25 30 -26 30 -9 0 10 -4 24 -8 30 -9 15 -52 28 -52 17z"/>
    <path d="M5226 2818 c-16 -23 -21 -48 -10 -48 15 0 64 43 64 56 0 22 -37 17 -54 -8z"/>
    <path d="M4475 2821 c-7 -13 17 -24 40 -19 9 1 16 8 16 13 0 14 -48 19 -56 6z"/>
    <path d="M4980 2800 c36 -51 51 -49 30 4 -6 17 -17 26 -30 26 l-21 0 21 -30z"/>
    <path d="M4423 2803 c-18 -7 -16 -30 4 -37 21 -8 38 8 30 28 -7 16 -13 18 -34 9z"/>
    <path d="M5760 2795 c0 -20 22 -65 32 -65 16 0 9 68 -8 74 -22 8 -24 8 -24 -9z"/>
    <path d="M4637 2794 c-12 -13 4 -24 34 -24 20 0 29 4 27 13 -5 13 -50 22 -61 11z"/>
    <path d="M4560 2775 c-18 -21 -1 -35 29 -24 19 8 21 12 11 24 -16 19 -24 19 -40 0z"/>
    <path d="M5132 2778 c-7 -7 -12 -21 -12 -32 0 -18 1 -18 25 4 13 12 22 27 19 31 -7 12 -18 11 -32 -3z"/>
    <path d="M4934 2766 c-7 -19 40 -76 62 -76 19 0 5 35 -27 66 -25 24 -29 25 -35 10z"/>
    <path d="M5530 2763 c0 -4 18 -28 40 -53 38 -43 39 -44 40 -19 0 15 -8 36 -17 47 -19 21 -63 39 -63 25z"/>
    <path d="M4737 2743 c-13 -12 -7 -21 19 -27 32 -8 57 10 34 24 -18 11 -44 13 -53 3z"/>
    <path d="M5356 2719 c-8 -13 -14 -24 -13 -25 8 -8 87 20 84 30 -7 22 -54 18 -71 -5z"/>
    <path d="M4625 2710 c-10 -17 20 -44 40 -36 9 3 15 14 13 23 -4 21 -43 30 -53 13z"/>
    <path d="M4860 2701 c0 -12 54 -51 69 -51 17 0 13 25 -7 43 -20 18 -62 23 -62 8z"/>
    <path d="M4331 2657 c-21 -44 -28 -97 -12 -97 8 0 51 107 51 129 0 24 -19 9 -39 -32z"/>
    <path d="M5113 2688 c-18 -23 -22 -58 -8 -58 12 0 55 50 55 64 0 11 -38 6 -47 -6z"/>
    <path d="M5221 2674 c-20 -25 -28 -54 -15 -54 14 0 84 56 84 68 0 22 -48 13 -69 -14z"/>
    <path d="M4730 2680 c-15 -9 -6 -15 58 -34 27 -9 29 5 4 27 -21 19 -40 21 -62 7z"/>
    <path d="M5692 2683 c26 -55 43 -83 51 -83 13 0 -1 52 -20 73 -16 17 -38 24 -31 10z"/>
    <path d="M4494 2665 c-8 -21 6 -41 17 -24 12 19 11 39 -1 39 -6 0 -13 -7 -16 -15z"/>
    <path d="M5045 2669 c-9 -13 3 -59 14 -59 5 0 11 9 14 21 10 36 -12 65 -28 38z"/>
    <path d="M5462 2628 c-20 -20 -14 -29 16 -23 15 4 38 9 51 11 20 4 22 7 10 15 -20 13 -63 11 -77 -3z"/>
    <path d="M4977 2624 c-12 -12 -8 -51 6 -63 16 -13 27 -5 27 19 0 21 -24 53 -33 44z"/>
    <path d="M5132 2618 c-7 -7 -12 -20 -12 -31 0 -17 2 -17 30 3 17 12 28 26 25 31 -8 13 -29 11 -43 -3z"/>
    <path d="M4740 2610 c-21 -13 -7 -22 47 -30 58 -9 66 -4 34 21 -25 20 -57 24 -81 9z"/>
    <path d="M5312 2608 c-26 -26 -13 -38 26 -22 55 23 62 34 21 34 -19 0 -40 -5 -47 -12z"/>
    <path d="M4880 2596 c0 -15 40 -49 48 -41 2 2 2 16 -2 30 -7 27 -46 36 -46 11z"/>
    <path d="M5620 2585 c0 -20 32 -85 42 -85 11 0 10 43 -2 74 -10 28 -40 36 -40 11z"/>
    <path d="M5350 2560 c-12 -7 -12 -12 -3 -21 15 -15 68 5 58 21 -8 13 -35 13 -55 0z"/>
    <path d="M4633 2554 c-27 -11 -11 -24 28 -24 28 0 39 4 37 13 -5 13 -44 19 -65 11z"/>
    <path d="M5007 2521 c-5 -20 9 -51 23 -51 11 0 13 30 4 54 -8 21 -21 20 -27 -3z"/>
    <path d="M5151 2521 c-20 -20 -28 -41 -15 -41 15 0 64 35 61 44 -6 19 -26 17 -46 -3z"/>
    <path d="M5070 2516 c-8 -10 -10 -28 -6 -51 8 -43 23 -38 32 11 8 41 -6 63 -26 40z"/>
    <path d="M4927 2514 c-12 -12 23 -64 43 -64 26 0 26 24 0 50 -21 21 -32 24 -43 14z"/>
    <path d="M5262 2488 c-19 -19 -14 -28 16 -28 35 0 45 9 31 27 -14 16 -31 17 -47 1z"/>
    <path d="M4672 2473 c4 -21 36 -29 51 -14 9 9 8 14 -3 21 -25 16 -52 12 -48 -7z"/>
    <path d="M5400 2470 c-12 -8 -12 -10 3 -16 20 -7 47 1 47 16 0 12 -30 13 -50 0z"/>
    <path d="M4532 2458 c-16 -16 -15 -38 1 -38 17 0 37 20 37 37 0 16 -22 17 -38 1z"/>
    <path d="M4850 2450 c-8 -5 -12 -10 -10 -12 3 -2 24 -13 48 -26 33 -18 42 -19 42 -8 0 13 -45 56 -59 56 -3 0 -13 -4 -21 -10z"/>
    <path d="M5150 2400 c-9 -17 -8 -20 12 -20 13 0 33 3 46 6 18 5 20 9 11 20 -17 21 -57 17 -69 -6z"/>
    <path d="M5509 2400 c29 -25 54 -26 49 -2 -2 12 -14 18 -38 20 l-35 2 24 -20z"/>
    <path d="M4688 2399 c-29 -16 -22 -41 10 -37 19 2 27 9 27 22 0 23 -14 29 -37 15z"/>
    <path d="M4500 2323 c-18 -7 -30 -23 -30 -41 0 -11 7 -9 29 5 41 25 42 51 1 36z"/>
    <path d="M5502 2078 c5 -15 28 -18 29 -3 0 6 -7 12 -17 13 -10 3 -15 -1 -12 -10z"/>
    <path d="M5346 2062 c-3 -6 -1 -14 5 -17 15 -10 25 3 12 16 -7 7 -13 7 -17 1z"/>
    <path d="M4530 2050 c0 -5 5 -10 10 -10 6 0 10 5 10 10 0 6 -4 10 -10 10 -5 0 -10 -4 -10 -10z"/>
    <path d="M4702 2018 c6 -18 28 -21 28 -4 0 9 -7 16 -16 16 -9 0 -14 -5 -12 -12z"/>
    <path d="M5505 2020 c-3 -6 1 -13 10 -16 19 -8 30 0 20 15 -8 14 -22 14 -30 1z"/>
    <path d="M4632 2001 c4 -13 18 -16 19 -4 0 4 -5 9 -11 12 -7 2 -11 -2 -8 -8z"/>
    <path d="M5422 1988 c6 -18 28 -21 28 -4 0 9 -7 16 -16 16 -9 0 -14 -5 -12 -12z"/>
    <path d="M4752 1969 c2 -6 8 -10 13 -10 5 0 11 4 13 10 2 6 -4 11 -13 11 -9 0 -15 -5 -13 -11z"/>
    <path d="M5587 1973 c-12 -11 -8 -23 8 -23 8 0 15 7 15 15 0 16 -12 20 -23 8z"/>
    <path d="M4745 1889 c-10 -15 3 -25 16 -12 7 7 7 13 1 17 -6 3 -14 1 -17 -5z"/>
    <path d="M5486 1893 c-11 -11 -6 -23 9 -23 8 0 15 4 15 9 0 13 -16 22 -24 14z"/>
    <path d="M4570 1860 c0 -11 5 -20 10 -20 6 0 10 9 10 20 0 11 -4 20 -10 20 -5 0 -10 -9 -10 -20z"/>
    <path d="M5396 1863 c-11 -11 -6 -23 9 -23 8 0 15 4 15 9 0 13 -16 22 -24 14z"/>
    <path d="M4825 1810 c-3 -6 1 -13 10 -16 19 -8 30 0 20 15 -8 14 -22 14 -30 1z"/>
    <path d="M6170 2162 c0 -16 92 -152 103 -152 15 0 -2 52 -31 94 -29 41 -72 76 -72 58z"/>
    <path d="M5895 1750 c3 -5 40 -58 83 -117 42 -60 90 -138 107 -173 34 -76 34 -75 40 -69 9 9 -25 100 -66 180 -41 79 -133 189 -158 189 -7 0 -10 -4 -6 -10z"/>
    <path d="M6164 1503 c13 -32 27 -66 30 -75 11 -36 25 -17 20 30 -4 50 -30 95 -58 100 -14 3 -13 -5 8 -55z"/>
    <path d="M4956 1581 c-10 -16 2 -67 20 -82 17 -14 17 -6 0 50 -8 27 -16 40 -20 32z"/>
    <path d="M5178 1465 c3 -29 8 -45 16 -42 16 5 19 42 6 66 -17 34 -25 24 -22 -24z"/>
    <path d="M6760 735 c0 -3 4 -13 10 -23 5 -9 14 -29 20 -44 11 -33 30 -37 30 -8 0 30 -28 80 -45 80 -8 0 -15 -2 -15 -5z"/>
    <path d="M4152 1593 c-15 -38 -19 -77 -8 -83 8 -5 36 69 36 98 0 22 -17 13 -28 -15z"/>
    <path d="M4331 1527 c-37 -76 -22 -108 17 -38 23 40 29 81 13 81 -5 0 -19 -19 -30 -43z"/>
    <path d="M4430 885 c1 -36 64 -152 75 -135 9 14 -32 118 -56 145 -19 19 -19 19 -19 -10z"/>
    <path d="M4666 689 c-9 -48 -7 -187 5 -259 12 -77 54 -159 88 -171 13 -5 25 -8 27 -6 2 1 -12 28 -31 59 -40 67 -54 131 -62 291 -6 117 -15 145 -27 86z"/>
    <path d="M4982 483 c32 -69 74 -143 81 -143 5 0 6 8 3 18 -2 9 -7 31 -11 49 -6 31 -48 83 -67 83 -5 0 -8 -3 -6 -7z"/>
    <path d="M4870 331 c0 -5 31 -39 69 -76 45 -43 82 -91 106 -136 20 -38 39 -69 42 -69 11 0 -8 66 -34 115 -30 59 -78 117 -124 151 -34 25 -59 31 -59 15z"/>
    <path d="M5130 202 c0 -10 9 -45 20 -78 11 -32 20 -74 20 -91 0 -23 5 -33 15 -33 23 0 18 83 -8 154 -22 59 -47 85 -47 48z"/>
    <path d="M5240 190 c0 -44 10 -80 21 -80 15 0 10 75 -6 96 -13 18 -14 17 -15 -16z"/>
  </g>
</svg>
