<?xml version="1.0" standalone="no"?>
<!DOCTYPE svg PUBLIC "-//W3C//DTD SVG 20010904//EN" "http://www.w3.org/TR/2001/REC-SVG-20010904/DTD/svg10.dtd">
<svg xmlns="http://www.w3.org/2000/svg" version="1.0" width="993.000000pt" height="949.000000pt" viewBox="0 0 993.000000 949.000000" preserveAspectRatio="xMidYMid meet">
  <g transform="translate(0.000000,949.000000) scale(0.100000,-0.100000)" fill="#000000" stroke="none">
    <path d="m 1490,9450 c 13,-24 77,-121 155,-230 21,-30 66,-93 99,-140 33,-47 84,-119 113,-160 29,-41 77,-108 106,-149 28,-41 73,-104 99,-140 79,-110 100,-143 94,-149 -8,-7 -64,33 -121,87 -29,27 -52,41 -61,37 -18,-7 -19,-6 -441,447 -271,290 -333,352 -333,334 0,-4 46,-62 164,-209 102,-126 203,-237 383,-421 96,-99 172,-181 170,-184 -3,-2 -34,15 -68,39 -98,67 -168,92 -235,84 l -55,-6 -91,77 c -87,75 -205,175 -297,251 -25,20 -52,44 -60,53 -9,8 -56,49 -106,89 -49,41 -103,87 -118,102 -16,15 -36,28 -45,28 -24,0 414,-428 499,-488 31,-22 22,-32 -27,-29 -45,2 -46,1 -62,-40 -22,-54 -28,-59 -50,-40 -23,21 -81,45 -157,67 -33,10 -112,33 -175,53 -103,31 -152,43 -310,78 -25,5 -53,12 -62,15 -10,3 -18,1 -18,-5 0,-6 5,-11 11,-11 6,0 25,-6 42,-14 29,-13 98,-36 372,-125 49,-16 91,-33 92,-38 2,-6 -21,-20 -50,-32 -30,-12 -67,-35 -82,-51 l -27,-28 21,-14 c 11,-7 21,-16 21,-20 0,-5 -29,-22 -64,-38 -88,-42 -145,-95 -181,-169 -26,-55 -40,-70 -130,-137 -180,-135 -401,-355 -470,-469 -19,-31 -3,-16 210,190 104,102 252,221 262,211 3,-3 2,-18 -2,-33 -5,-15 -9,-32 -11,-38 -25,-89 -46,-152 -57,-169 -26,-39 -39,-130 -32,-233 l 6,-98 -56,-80 c -31,-44 -79,-114 -107,-155 -29,-41 -58,-81 -65,-88 -17,-18 -46,-73 -40,-78 4,-4 10,3 178,207 57,70 150,176 206,237 60,65 105,122 108,139 4,15 8,33 10,39 2,5 22,16 46,23 60,18 111,52 171,116 34,36 65,59 88,65 114,29 116,25 23,-47 -121,-92 -371,-356 -427,-450 -20,-34 18,0 168,150 256,256 409,372 545,413 47,15 99,33 115,41 22,11 31,12 40,3 8,-9 6,-15 -8,-24 -91,-56 -255,-168 -270,-185 -36,-39 4,-22 153,68 l 149,90 62,-20 c 34,-10 94,-22 133,-25 88,-8 103,-15 121,-58 8,-19 30,-52 50,-74 42,-46 46,-65 14,-57 -13,3 -52,12 -88,20 -64,15 -350,48 -357,41 -3,-3 97,-28 312,-78 50,-11 141,-37 203,-56 110,-36 112,-37 112,-67 0,-71 183,-252 337,-333 60,-30 66,-42 25,-42 -41,0 -43,-6 -21,-57 20,-48 25,-77 10,-71 -5,2 -48,35 -96,73 -48,39 -130,105 -183,147 -131,104 -322,223 -322,200 0,-8 52,-52 330,-276 102,-83 190,-155 197,-160 7,-6 19,-16 27,-23 98,-82 279,-236 307,-262 24,-21 46,-57 65,-104 15,-40 41,-91 57,-115 16,-23 27,-47 25,-53 -3,-10 -79,43 -143,102 -115,105 -618,494 -723,559 -52,33 -77,35 -51,4 7,-9 50,-44 94,-77 44,-34 82,-64 85,-67 3,-4 56,-46 118,-94 123,-95 198,-168 513,-491 197,-204 208,-217 328,-404 118,-183 250,-360 399,-534 37,-43 71,-86 76,-95 5,-9 30,-48 55,-86 39,-59 47,-79 51,-133 3,-34 3,-63 -1,-63 -5,0 -230,299 -521,691 -128,173 -213,280 -216,270 -7,-20 233,-373 458,-673 19,-26 56,-76 81,-110 181,-248 256,-346 278,-368 14,-14 55,-59 91,-99 63,-71 64,-73 65,-132 l 1,-59 h -37 c -31,0 -43,8 -90,58 -30,31 -77,91 -106,132 -57,83 -247,347 -266,370 -7,8 -59,80 -117,160 -111,155 -193,261 -197,256 -4,-3 41,-88 91,-171 46,-78 97,-154 225,-334 92,-128 161,-226 277,-392 24,-34 30,-49 21,-58 -22,-22 -44,-11 -62,29 -13,29 -24,40 -40,40 -13,0 -28,7 -35,15 -8,9 -21,13 -37,9 -16,-5 -44,4 -88,26 -37,19 -87,35 -121,39 -33,4 -69,12 -81,19 -33,18 -64,15 -70,-8 -3,-11 -8,-20 -12,-20 -15,0 -108,53 -134,76 -20,18 -32,23 -39,16 -15,-15 8,-103 50,-192 20,-41 36,-79 36,-85 1,-5 -12,-12 -29,-15 -28,-5 -30,-8 -29,-48 0,-28 11,-58 33,-94 27,-42 31,-56 22,-70 -16,-26 -14,-32 23,-77 29,-35 33,-46 29,-79 -4,-33 -2,-39 21,-51 27,-15 34,-35 16,-46 -16,-10 -11,-30 15,-61 27,-31 32,-63 13,-82 -9,-9 -3,-22 30,-55 47,-47 49,-57 26,-92 -22,-34 -12,-44 92,-95 46,-23 87,-46 90,-52 3,-5 -2,-18 -11,-28 -23,-25 -14,-35 40,-49 27,-7 49,-19 55,-32 7,-11 27,-27 45,-35 22,-9 35,-22 37,-36 2,-19 11,-24 45,-29 23,-3 48,-11 57,-18 14,-11 27,-11 78,-1 61,13 61,13 85,-14 21,-25 23,-35 23,-151 v -124 l -80,-95 c -92,-110 -125,-169 -141,-249 -10,-48 -9,-60 4,-81 14,-20 14,-33 5,-84 -14,-77 -8,-92 37,-92 19,0 35,-2 35,-4 0,-17 -93,-267 -139,-376 -61,-140 -68,-162 -81,-245 -14,-89 -19,-103 -74,-207 -63,-120 -125,-283 -158,-418 -20,-82 -23,-120 -23,-285 0,-182 2,-195 32,-313 32,-121 81,-257 108,-298 8,-13 29,-24 54,-28 22,-3 42,-10 45,-14 3,-4 -1,-48 -9,-98 -23,-148 -45,-305 -51,-366 -7,-57 -6,-58 19,-58 270.3792,-6.3506529 2391.4534,0 3477,0 l 41,82 c 23,45 60,137 82,203 36,108 40,131 41,225 0,58 -2,137 -6,175 -9,84 -37,266 -44,276 -2,4 -20,68 -39,142 -38,148 -77,254 -131,355 -71,132 -161,256 -214,293 -27,20 -42,42 -59,90 -13,35 -36,89 -53,120 -24,47 -27,60 -18,83 5,15 10,70 10,122 0,75 4,105 20,140 39,84 15,314 -54,529 -26,79 -26,80 -6,94 11,7 20,24 20,37 0,46 -41,210 -75,299 -26,70 -35,108 -37,170 -2,69 0,80 15,83 14,3 17,14 17,63 0,48 3,59 16,59 9,0 27,11 40,25 14,16 34,25 52,25 16,0 35,6 41,14 7,8 26,18 42,21 19,4 29,13 29,25 0,22 20,39 57,49 23,6 29,14 33,47 5,38 8,40 88,80 110,54 118,62 98,102 -23,45 -20,57 24,86 44,29 48,37 25,56 -29,24 -27,49 4,87 35,43 38,58 14,72 -19,10 -11,25 15,27 57,3 55,1 47,50 -6,42 -4,48 29,85 43,46 45,66 10,79 l -25,10 31,45 c 36,53 69,123 70,148 0,13 -8,17 -35,17 -19,0 -35,2 -35,4 0,2 19,37 41,77 42,74 57,135 45,183 -3,14 -11,26 -17,26 -7,0 -42,-22 -79,-50 -73,-54 -100,-62 -100,-30 0,14 -7,20 -22,20 -27,0 -103,-33 -112,-49 -4,-6 -25,-11 -47,-11 -22,0 -58,-10 -81,-21 -35,-18 -47,-20 -76,-11 -28,9 -39,8 -56,-3 -11,-8 -31,-15 -43,-15 -17,0 -25,-8 -33,-40 -14,-50 -41,-67 -65,-40 -21,23 -33,2 124,220 62,85 135,189 163,230 28,41 54,77 57,80 8,7 90,131 149,226 57,92 105,184 99,190 -4,4 -39,-43 -228,-304 -31,-42 -83,-115 -117,-162 -34,-47 -86,-118 -115,-158 -28,-40 -81,-113 -117,-162 -36,-49 -78,-107 -93,-130 -21,-30 -35,-40 -55,-40 -15,0 -38,-9 -52,-20 -14,-11 -29,-20 -33,-20 -9,0 -3,67 7,77 3,4 -1,15 -10,25 -16,17 -14,21 40,74 31,31 94,102 139,157 139,169 566,751 662,902 32,50 77,121 102,158 65,101 49,114 -22,17 -33,-46 -107,-147 -165,-225 -246,-333 -376,-512 -398,-544 -13,-18 -29,-39 -35,-47 -7,-7 -30,-38 -51,-68 -38,-54 -66,-75 -51,-38 4,9 10,42 13,72 4,45 16,74 69,160 35,58 85,126 111,151 26,25 58,60 72,78 14,18 61,78 105,134 44,56 109,145 143,197 181,276 212,316 398,510 103,107 219,230 258,274 64,70 133,128 474,399 121,96 115,116 -11,36 -79,-50 -514,-386 -607,-468 -76,-66 -205,-170 -208,-166 -2,1 17,41 42,88 25,47 50,103 55,125 9,31 27,51 93,105 46,36 94,76 108,89 24,23 172,150 218,189 13,10 28,19 33,19 5,0 9,4 9,8 0,5 37,37 83,72 45,35 89,69 97,77 22,19 148,121 208,168 28,22 51,46 52,54 0,9 -4,10 -12,3 -7,-5 -44,-27 -83,-48 -38,-20 -86,-50 -105,-64 -19,-15 -69,-52 -110,-83 -41,-31 -120,-92 -174,-136 -101,-82 -124,-95 -111,-63 4,9 10,36 12,60 5,40 5,42 -22,42 -39,0 -22,17 80,80 149,91 280,230 278,295 -1,33 -1,33 96,63 113,36 132,41 163,47 13,3 52,12 88,21 36,8 110,26 165,39 l 100,25 -105,-5 c -94,-4 -203,-20 -297,-45 -41,-10 -52,4 -25,33 11,12 36,48 57,80 40,60 43,62 140,72 33,3 87,15 121,27 l 62,21 59,-35 c 32,-19 96,-58 142,-86 46,-29 89,-52 94,-52 32,0 -133,130 -220,174 -29,14 -53,33 -53,41 0,21 22,19 75,-9 25,-14 71,-30 103,-37 31,-6 75,-23 97,-37 94,-60 242,-188 418,-361 103,-101 187,-182 187,-178 0,28 -194,256 -304,356 -22,20 -60,56 -85,80 -25,24 -62,54 -83,67 -42,27 -63,52 -32,39 10,-4 40,-11 67,-15 41,-6 56,-15 115,-74 72,-71 123,-106 185,-125 27,-9 37,-18 37,-34 1,-34 18,-58 126,-174 74,-80 306,-359 351,-422 2,-2 5,-2 8,1 6,5 -14,58 -25,68 -3,3 -18,25 -34,50 -16,25 -63,92 -106,150 -105,142 -101,134 -87,221 12,66 11,82 -6,148 -10,41 -27,91 -36,110 -10,20 -26,63 -36,96 -9,33 -21,75 -27,93 -5,19 -7,36 -4,39 9,10 185,-139 336,-285 80,-77 147,-139 149,-137 2,2 -18,32 -45,67 -76,100 -300,316 -417,402 -97,71 -111,86 -143,146 -39,75 -117,147 -191,177 -47,20 -51,28 -28,53 13,15 12,19 -11,41 -14,13 -49,35 -77,49 -81,39 -87,34 198,125 99,31 194,63 211,71 17,7 42,18 55,23 48,19 -14,11 -111,-15 -52,-13 -144,-38 -205,-54 -303,-80 -394,-110 -415,-136 -14,-16 -40,-2 -40,22 0,7 -5,25 -12,40 -11,24 -16,26 -60,21 -26,-4 -48,-3 -48,2 0,4 51,50 113,102 115,96 417,394 417,411 0,11 -63,-39 -176,-139 -39,-34 -116,-100 -172,-145 -154,-128 -345,-290 -365,-310 -15,-15 -22,-16 -39,-7 -47,25 -194,-24 -280,-93 -15,-12 -30,-19 -34,-16 -3,4 82,98 189,210 107,112 212,224 234,250 21,26 85,104 143,174 135,163 143,174 132,174 -5,0 -35,-28 -67,-62 -32,-35 -93,-99 -135,-143 -42,-44 -130,-138 -195,-210 -189,-208 -348,-365 -369,-365 -10,0 -45,-24 -77,-54 -55,-51 -94,-74 -105,-63 -3,3 38,65 90,138 52,74 133,188 180,254 47,66 122,172 168,235 114,159 218,310 218,316 0,2 -6,4 -12,4 -7,-1 -32,-26 -56,-58 -23,-31 -55,-70 -70,-87 -16,-16 -62,-75 -102,-130 -41,-55 -77,-102 -81,-105 -3,-3 -32,-41 -64,-85 -32,-44 -61,-82 -65,-85 -3,-3 -27,-36 -54,-75 -26,-38 -92,-135 -147,-215 -55,-80 -111,-162 -124,-182 -22,-34 -28,-36 -60,-31 -33,5 -38,2 -117,-82 -92,-97 -150,-171 -179,-226 -10,-20 -44,-59 -76,-85 -31,-27 -69,-62 -85,-79 -15,-16 -36,-39 -46,-50 -32,-33 -97,-136 -133,-210 l -34,-70 -3,65 -3,65 145,290 c 130,260 162,328 226,470 10,22 37,81 60,130 37,78 70,159 70,171 0,2 -5,4 -11,4 -6,0 -130,-242 -276,-537 -147,-296 -291,-581 -322,-633 -30,-52 -72,-129 -94,-170 -22,-41 -48,-84 -59,-95 -19,-19 -20,-19 -33,-1 -13,18 -15,18 -50,-4 -20,-12 -39,-19 -43,-15 -4,3 4,25 17,48 35,64 260,510 308,612 103,219 198,434 260,585 30,74 64,153 74,175 10,22 34,81 54,130 20,50 40,99 45,110 10,22 149,372 158,395 27,76 -109,-182 -206,-391 -17,-37 -45,-100 -61,-140 -16,-41 -57,-137 -91,-214 -34,-77 -80,-183 -102,-235 -22,-52 -75,-168 -119,-258 -43,-90 -79,-165 -79,-167 0,-3 -262,-548 -322,-670 -14,-27 -35,-68 -48,-90 -13,-22 -56,-102 -95,-177 -49,-95 -74,-135 -81,-128 -7,7 -16,-2 -29,-30 -10,-22 -24,-45 -32,-51 -21,-18 -16,15 11,74 13,29 36,84 51,122 15,39 35,88 45,110 10,22 50,119 89,215 40,96 87,211 106,255 18,44 57,136 85,205 28,69 62,150 75,180 13,30 48,118 78,195 30,77 90,228 132,335 100,253 128,330 121,337 -3,4 -17,-20 -32,-53 -29,-67 -135,-303 -199,-444 -24,-52 -71,-162 -105,-245 -106,-256 -141,-339 -160,-380 -10,-22 -39,-92 -64,-155 -26,-63 -51,-124 -56,-135 -5,-11 -21,-50 -35,-87 -14,-38 -29,-76 -35,-85 -5,-10 -24,-54 -41,-98 -17,-44 -37,-93 -44,-110 -8,-16 -30,-68 -49,-115 -19,-47 -69,-168 -111,-270 -42,-102 -84,-204 -93,-227 -12,-33 -22,-43 -38,-43 -13,0 -31,-12 -42,-27 -24,-34 -157,-299 -167,-331 -4,-13 -9,-21 -12,-19 -5,6 21,145 46,247 11,41 29,118 41,170 11,52 31,140 45,195 13,55 30,132 39,170 14,65 52,231 96,420 10,44 28,123 40,175 20,92 36,156 46,193 3,9 1,17 -4,17 -20,0 -94,-216 -128,-373 -19,-89 -39,-178 -44,-197 -5,-19 -11,-48 -14,-65 -3,-16 -24,-109 -46,-205 -22,-96 -42,-184 -45,-195 -32,-148 -47,-214 -64,-290 -12,-49 -30,-133 -42,-185 -35,-161 -58,-239 -88,-298 -15,-31 -43,-101 -60,-154 -39,-117 -55,-135 -47,-52 8,69 38,292 67,484 11,74 22,153 24,175 3,22 7,61 11,88 6,48 -9,67 -19,25 -3,-13 -15,-54 -26,-93 -21,-74 -39,-201 -66,-450 -9,-82 -25,-217 -35,-300 -11,-82 -21,-163 -22,-179 -3,-28 -28,-51 -28,-26 0,14 -93,151 -98,145 -14,-14 -92,-421 -90,-466 4,-59 -3,-79 -31,-93 -28,-15 -31,-14 -72,19 -53,42 -84,47 -75,11 6,-26 -1,-56 -14,-56 -4,0 -18,16 -29,36 l -22,36 -24,-27 c -35,-37 -75,-32 -94,13 -15,32 -19,33 -67,15 -14,-5 -20,18 -34,137 -6,52 -15,109 -19,125 -5,17 -19,74 -31,127 -13,54 -26,95 -30,93 -4,-3 -26,-36 -49,-75 -23,-38 -48,-70 -56,-70 -10,0 -15,25 -19,98 -4,53 -15,167 -26,252 -10,85 -22,187 -25,225 -3,39 -12,113 -20,165 -38,253 -56,364 -61,372 -12,19 -24,-6 -24,-50 0,-45 6,-98 50,-422 11,-80 22,-170 25,-200 3,-30 10,-90 16,-133 6,-43 9,-80 6,-83 -12,-13 -24,8 -37,63 -7,32 -34,103 -60,158 -45,96 -68,176 -120,420 -11,55 -30,136 -40,180 -11,44 -31,134 -44,200 -14,66 -39,181 -57,255 -17,74 -37,165 -44,201 -8,36 -18,84 -24,105 -5,21 -12,50 -14,64 -19,106 -108,343 -123,327 -3,-3 4,-40 15,-83 11,-44 32,-131 46,-194 15,-63 35,-149 44,-190 10,-41 26,-113 36,-160 9,-47 26,-118 36,-158 11,-40 38,-155 60,-255 23,-100 48,-211 56,-247 8,-36 18,-81 23,-100 4,-19 11,-48 15,-64 16,-58 -16,-21 -51,59 -74,171 -126,255 -172,278 -17,8 -34,33 -52,77 -14,36 -32,76 -38,90 -16,34 -86,206 -129,315 -19,50 -43,108 -53,130 -10,22 -39,92 -65,155 -107,264 -158,386 -244,595 -51,121 -98,234 -105,250 -8,17 -49,111 -91,210 -42,99 -80,184 -84,190 -4,5 -27,57 -51,115 -24,58 -47,110 -51,115 -4,6 -23,51 -44,100 -20,50 -40,94 -45,99 -22,22 18,-97 105,-319 24,-60 61,-157 84,-215 45,-117 135,-339 155,-385 36,-81 176,-415 176,-420 0,-5 124,-304 145,-350 7,-16 31,-75 53,-130 22,-55 47,-113 55,-130 8,-16 18,-43 22,-60 6,-28 4,-26 -29,17 -21,28 -42,45 -50,42 -8,-3 -19,12 -31,43 -10,26 -22,52 -26,58 -5,5 -9,15 -9,22 0,7 -24,50 -53,95 -29,46 -86,153 -127,238 -40,85 -131,273 -202,418 -70,145 -128,265 -128,268 0,3 -22,52 -50,110 -27,58 -50,107 -50,109 0,3 -134,310 -170,390 -5,11 -21,49 -35,85 -53,130 -167,377 -257,555 -40,81 -58,108 -64,102 -5,-5 194,-502 240,-598 14,-31 26,-62 26,-70 0,-8 4,-19 9,-25 5,-5 26,-49 46,-99 20,-49 48,-114 61,-143 13,-29 35,-80 49,-113 14,-33 39,-90 56,-127 17,-37 51,-112 76,-167 25,-55 114,-238 199,-407 85,-169 154,-312 154,-318 0,-12 -29,-2 -53,19 -17,14 -20,14 -37,-8 l -18,-24 -24,39 c -14,21 -42,73 -64,114 -21,41 -51,94 -66,117 -16,23 -98,185 -183,360 -179,365 -394,794 -412,819 -23,31 -25,6 -5,-48 38,-103 227,-506 344,-735 65,-128 125,-252 132,-276 13,-44 11,-107 -4,-107 -7,0 -60,100 -60,114 0,32 -202,268 -252,295 -14,7 -40,38 -59,69 -41,69 -127,176 -202,255 -51,54 -59,58 -93,55 l -38,-3 -103,150 c -56,83 -123,179 -148,215 -25,36 -65,92 -88,125 -53,75 -147,201 -180,240 -14,17 -79,98 -145,181 -66,83 -128,157 -138,165 -16,13 -16,12 -4,-11 z" />
  </g>
</svg>
