<?xml version="1.0" standalone="no"?>
<!DOCTYPE svg PUBLIC "-//W3C//DTD SVG 20010904//EN" "http://www.w3.org/TR/2001/REC-SVG-20010904/DTD/svg10.dtd">
<svg version="1.0" xmlns="http://www.w3.org/2000/svg" width="2872.000000pt" height="1764.000000pt" viewBox="0 0 2872.000000 1764.000000" preserveAspectRatio="xMidYMid meet" >
    <g transform="translate(0.000000,1764.000000) scale(0.100000,-0.100000)" fill="#000000" stroke="none" >
        <path d="M14075 17634 c-159 -5 -589 -31 -795 -50 -1237 -109 -2361 -479 -3455 -1137 -251 -150 -448 -289 -894 -625 -199 -150 -266 -196 -305 -207 -41 -11 -217 -15 -911 -19 -977 -5 -1477 -20 -2315 -67 -860 -48 -1220 -77 -1855 -150 -462 -53 -1249 -156 -1680 -219 -678 -100 -1124 -175 -1235 -207 -167 -48 -393 -164 -478 -246 -123 -118 -179 -318 -137 -495 31 -131 94 -220 247 -349 189 -159 353 -246 601 -317 291 -84 402 -134 622 -279 254 -167 375 -275 860 -762 237 -238 471 -468 520 -512 201 -178 266 -234 390 -335 751 -608 1583 -1068 2490 -1374 356 -121 679 -205 1129 -294 164 -33 301 -62 303 -64 3 -2 0 -36 -6 -75 -53 -339 7 -675 176 -991 152 -285 321 -488 754 -905 206 -199 234 -242 233 -357 0 -74 1 -71 -158 -368 -143 -266 -208 -348 -332 -422 -88 -53 -202 -246 -244 -413 -27 -109 -27 -314 -1 -440 59 -274 167 -493 399 -803 121 -162 124 -172 84 -315 -42 -150 -118 -500 -133 -612 -29 -222 24 -453 141 -610 49 -65 72 -86 145 -130 87 -52 144 -67 287 -74 149 -7 150 -8 210 -123 93 -180 219 -248 460 -248 65 0 118 -3 118 -6 0 -25 -61 -222 -101 -326 -107 -279 -147 -468 -169 -813 -20 -319 -68 -512 -186 -746 -72 -145 -88 -204 -81 -298 12 -158 142 -339 302 -423 133 -69 251 -94 955 -202 506 -78 662 -95 1230 -140 1018 -81 974 -80 2205 -72 594 3 1107 8 1140 10 33 3 152 7 265 11 198 5 442 19 890 50 118 8 287 19 375 25 601 39 856 57 1465 106 796 63 1180 103 1322 139 237 60 474 309 543 570 19 71 22 221 5 285 -6 26 -13 168 -16 340 -5 316 -10 376 -49 599 -61 349 -89 700 -79 1006 7 211 -4 479 -36 933 -22 300 -18 349 27 403 52 62 57 62 398 64 340 1 381 6 553 67 216 76 407 210 579 407 229 262 331 516 408 1021 40 263 147 477 345 694 227 248 287 469 185 684 -43 90 -115 165 -243 251 -120 80 -169 129 -178 177 -10 54 1 155 31 278 62 256 19 384 -156 458 -51 22 -67 23 -259 23 -133 0 -231 -5 -278 -15 -63 -12 -75 -12 -82 1 -11 17 33 100 146 270 109 163 136 227 189 430 72 275 108 368 219 566 14 24 32 78 42 120 24 102 64 146 144 161 382 73 1375 275 1545 313 1051 239 1824 516 2535 911 403 224 633 378 1245 833 619 462 757 541 1335 765 157 61 306 134 405 198 218 140 327 373 284 608 -38 208 -177 382 -374 469 -202 90 -453 135 -990 180 -327 27 -380 35 -1170 165 -581 97 -650 109 -910 165 -93 21 -186 41 -205 45 -19 4 -114 26 -211 48 -228 54 -386 88 -759 167 -168 35 -359 76 -425 90 -455 98 -1470 304 -1760 359 -631 118 -1199 187 -1735 211 -297 13 -348 16 -410 26 -141 22 -278 69 -393 137 -32 18 -116 80 -188 137 -341 274 -713 505 -1254 780 -334 170 -542 261 -875 384 -931 346 -1991 522 -2975 495z m386 -404 c1034 -37 1982 -252 2979 -676 233 -99 626 -294 835 -414 290 -167 661 -423 965 -665 63 -51 134 -102 156 -113 58 -30 147 -42 305 -42 410 0 1056 -70 1759 -191 158 -27 272 -48 670 -124 114 -22 585 -117 885 -179 66 -13 197 -43 290 -65 94 -23 253 -61 355 -85 102 -24 376 -85 610 -136 422 -90 741 -160 1042 -226 620 -137 919 -185 1623 -264 359 -41 935 -112 1051 -130 107 -17 208 -61 243 -106 41 -52 21 -119 -63 -212 -43 -47 -71 -65 -176 -115 -194 -93 -386 -167 -431 -167 -56 0 -86 18 -181 112 -161 160 -341 233 -603 245 -137 7 -297 -7 -670 -57 -522 -71 -560 -74 -840 -73 -362 0 -530 19 -1505 168 -1032 157 -1288 185 -1721 185 -562 0 -950 -70 -1262 -228 -423 -215 -661 -542 -708 -971 -16 -145 -6 -287 40 -611 78 -541 82 -974 11 -1158 -74 -192 -292 -434 -540 -599 -272 -181 -539 -275 -1070 -377 -831 -159 -990 -188 -1585 -286 -825 -136 -1175 -190 -1230 -190 -46 0 -122 40 -210 111 -135 108 -187 146 -251 178 -91 46 -252 96 -421 130 l-149 31 -491 0 c-489 0 -678 6 -1038 36 -549 44 -995 99 -1494 185 -354 60 -586 105 -1546 299 -418 85 -606 122 -740 145 -346 59 -714 94 -990 95 -145 0 -198 11 -219 43 -8 12 -27 63 -41 112 -22 74 -28 117 -32 240 -6 155 -2 188 48 465 27 148 37 503 20 676 -24 236 -92 520 -165 693 -126 298 -361 547 -694 735 -310 175 -748 322 -1192 400 -571 101 -935 102 -1750 5 -505 -60 -692 -79 -1035 -105 -450 -34 -808 18 -1356 200 -377 125 -620 188 -859 222 -174 25 -432 19 -570 -13 l-25 -6 30 32 c45 49 155 96 275 120 550 108 1342 236 1920 310 1476 190 3037 327 4070 356 107 3 229 7 270 10 41 3 280 7 530 11 1006 14 1203 19 1240 36 19 8 78 50 130 92 691 563 1548 1064 2340 1368 835 320 1748 507 2635 537 116 4 221 8 235 9 14 1 145 -3 291 -8z m-13226 -3044 c167 -31 316 -67 549 -133 931 -263 961 -268 1431 -268 352 1 410 5 1015 80 477 60 607 72 862 86 407 23 791 -19 1127 -122 385 -118 744 -328 1025 -599 245 -237 403 -503 524 -880 71 -223 101 -376 133 -671 25 -240 25 -269 -1 -447 -45 -312 -112 -503 -223 -643 -117 -146 -347 -256 -492 -234 -167 26 -1034 266 -1450 402 -822 269 -1317 515 -1874 931 -243 182 -394 315 -836 737 -417 398 -584 555 -694 654 -519 464 -946 739 -1387 891 -164 57 -206 77 -253 115 -44 38 -43 86 4 114 30 18 425 8 540 -13z m21590 -486 c264 -23 494 -56 1055 -155 710 -125 1062 -165 1460 -165 377 0 856 40 1198 102 147 26 338 28 434 5 80 -20 188 -67 236 -103 79 -61 95 -147 41 -209 -18 -20 -44 -42 -58 -50 -14 -7 -116 -75 -226 -151 -500 -344 -614 -422 -990 -673 -565 -377 -754 -492 -1100 -673 -371 -193 -528 -261 -875 -375 -777 -255 -1135 -344 -2085 -519 -280 -51 -886 -153 -1001 -169 -44 -5 -83 1 -245 44 -275 71 -280 73 -302 104 l-21 27 28 236 c38 315 34 471 -18 716 -59 280 -66 416 -30 623 44 257 197 531 439 784 336 353 789 545 1415 600 138 12 506 12 645 1z m-13910 -3471 c147 -15 284 -39 834 -149 589 -117 953 -193 1226 -255 307 -69 442 -90 1420 -220 310 -41 533 -64 730 -75 105 -6 300 -17 435 -25 135 -8 362 -19 505 -25 377 -14 478 -19 482 -23 1 -2 -29 -87 -68 -188 -225 -583 -409 -1241 -498 -1789 -27 -166 -40 -260 -70 -524 -6 -46 -15 -82 -23 -87 -21 -13 -98 -19 -403 -28 -448 -13 -864 -6 -1095 18 -1012 108 -1738 254 -2407 482 -689 236 -1134 492 -1518 874 -374 372 -574 764 -615 1209 -13 138 0 320 29 396 69 180 247 331 462 390 134 36 334 43 574 19z m11678 -15 c59 -20 131 -89 160 -152 29 -64 30 -169 1 -232 -26 -56 -255 -393 -376 -553 -311 -412 -652 -724 -1188 -1089 -555 -377 -1207 -748 -2055 -1168 -651 -322 -1030 -484 -1980 -845 -492 -188 -529 -201 -664 -235 -127 -32 -159 -31 -306 6 -220 57 -420 212 -539 416 -33 57 -38 123 -12 163 34 51 85 65 246 65 232 0 235 3 304 350 78 385 174 746 274 1025 90 251 322 813 357 867 29 43 92 83 155 97 25 5 110 17 190 26 227 25 526 69 1180 171 800 125 867 136 1195 189 154 25 364 59 466 75 799 128 1292 260 1718 461 120 56 218 112 375 212 235 150 377 193 499 151z m338 -1919 c52 -19 106 -67 125 -112 8 -18 14 -60 14 -93 0 -77 -25 -143 -127 -327 -158 -287 -190 -378 -144 -403 32 -17 55 -12 198 36 120 40 145 46 202 42 108 -7 185 -58 232 -156 74 -152 4 -306 -179 -393 -108 -51 -569 -195 -752 -234 -104 -23 -373 -26 -415 -5 -56 28 -70 76 -68 235 4 344 77 661 218 951 104 214 215 333 382 411 129 60 235 76 314 48z m-1225 -546 c53 -49 59 -91 57 -369 -3 -355 -19 -714 -32 -718 -18 -6 -14 -860 3 -944 23 -106 59 -172 105 -193 81 -36 120 7 87 95 -52 135 -58 163 -53 254 4 80 9 97 48 174 56 110 129 184 284 286 196 130 330 180 475 179 139 -1 226 -48 275 -147 47 -95 44 -212 -11 -431 -70 -275 -183 -475 -383 -676 -266 -267 -599 -409 -964 -409 -222 0 -387 63 -551 211 -41 37 -107 84 -147 105 -141 74 -227 194 -274 380 -24 94 -75 386 -114 660 -18 118 -19 154 -11 223 31 247 96 455 220 708 70 142 89 171 156 242 109 116 219 183 512 315 203 91 267 103 318 55z m-10501 -483 c72 -19 321 -97 555 -172 511 -164 809 -254 990 -299 204 -50 392 -78 1155 -170 543 -66 577 -73 630 -137 54 -63 55 -83 55 -707 0 -509 -6 -749 -25 -996 -10 -132 -32 -627 -51 -1150 -3 -93 -10 -264 -14 -380 -10 -265 -4 -1135 10 -1490 18 -447 45 -781 85 -1055 21 -141 4 -194 -74 -232 -42 -20 -52 -21 -305 -15 -345 9 -465 19 -1271 108 -1363 150 -1570 183 -1658 267 -50 47 -71 99 -71 177 -1 123 12 140 294 395 69 62 161 147 205 188 144 135 667 656 677 675 26 49 -16 29 -107 -50 -55 -48 -136 -110 -180 -139 -156 -101 -489 -254 -554 -254 -51 0 -101 35 -129 90 -21 41 -23 55 -19 160 5 141 32 247 93 365 24 47 64 124 88 171 100 192 175 474 176 657 0 79 24 190 64 295 41 108 53 161 65 282 8 78 19 120 64 235 134 343 228 691 298 1098 19 114 19 181 -1 161 -15 -15 -137 -265 -168 -344 -16 -41 -62 -167 -102 -280 -90 -254 -135 -360 -197 -462 -57 -96 -102 -138 -144 -138 -39 0 -37 -1 -274 150 -110 69 -255 160 -323 201 -305 183 -482 358 -671 659 -218 349 -337 673 -348 947 -7 149 5 230 44 308 29 59 83 118 138 150 163 96 310 35 645 -265 121 -108 181 -150 215 -150 15 0 15 3 -2 24 -10 13 -102 134 -205 269 -303 396 -348 468 -348 565 0 125 114 254 275 312 91 32 247 23 420 -24z m9065 -251 c16 -8 39 -29 51 -47 36 -51 31 -110 -26 -268 -224 -630 -459 -1081 -752 -1445 -108 -134 -173 -220 -173 -228 0 -10 124 38 205 79 179 91 349 247 546 501 95 121 105 123 137 25 36 -110 46 -213 46 -457 1 -252 -12 -365 -64 -580 -67 -279 -144 -461 -353 -835 -140 -252 -441 -850 -426 -850 27 0 138 63 186 105 67 59 263 333 392 547 64 107 190 366 269 553 106 252 210 518 238 608 35 114 72 169 130 198 40 19 50 20 85 10 49 -15 101 -60 123 -106 16 -33 82 -453 111 -705 25 -221 27 -338 10 -675 -9 -181 -18 -568 -21 -860 l-6 -530 33 -255 c54 -427 46 -629 -32 -797 -35 -73 -113 -149 -193 -187 -105 -50 -165 -58 -831 -111 -225 -18 -605 -56 -860 -85 -808 -93 -1095 -125 -1450 -162 -499 -51 -524 -52 -560 -18 -32 30 -36 38 -86 205 -54 181 -246 1096 -338 1615 -105 596 -150 1197 -136 1865 3 193 8 370 10 395 2 25 7 135 10 245 15 502 29 603 94 689 73 94 131 119 544 237 628 179 1128 335 1287 404 78 33 166 78 391 199 47 25 115 57 152 71 73 27 480 229 682 338 151 81 312 180 406 248 53 39 118 76 137 79 2 0 16 -7 32 -15z m-5183 -729 c57 -28 73 -45 106 -111 64 -126 194 -281 305 -363 150 -111 241 -151 490 -217 214 -56 271 -78 307 -115 37 -39 42 -97 22 -277 -9 -76 -18 -178 -21 -228 -4 -49 -13 -191 -21 -315 -49 -738 -47 -890 20 -1635 39 -439 58 -606 85 -780 46 -284 180 -896 280 -1275 23 -85 52 -197 66 -249 48 -185 29 -271 -71 -321 -55 -27 -20 -26 -490 -19 -93 1 -269 -4 -390 -11 -121 -7 -326 -13 -455 -14 -194 0 -245 2 -290 16 -70 22 -122 65 -150 125 -29 60 -31 105 -70 1363 -11 385 -8 2080 6 2775 13 668 25 977 50 1325 16 229 30 301 65 339 19 20 28 22 65 17 24 -3 65 -16 91 -30z m-4501 -1789 c74 -49 129 -113 174 -202 109 -215 87 -449 -54 -590 -77 -76 -164 -95 -251 -54 -90 42 -141 136 -156 286 -16 156 15 392 64 489 56 109 131 133 223 71z m695 -593 c49 -24 118 -112 135 -172 52 -176 -99 -373 -276 -360 -73 5 -118 37 -154 110 -39 78 -35 104 37 241 101 194 156 233 258 181z" />
</g >
</svg>
