<?xml version="1.0" standalone="no"?>
<!DOCTYPE svg PUBLIC "-//W3C//DTD SVG 20010904//EN" "http://www.w3.org/TR/2001/REC-SVG-20010904/DTD/svg10.dtd">
<svg version="1.0" xmlns="http://www.w3.org/2000/svg" width="2872.000000pt" height="1764.000000pt" viewBox="0 0 2872.000000 1764.000000" preserveAspectRatio="xMidYMid meet" >
    <g transform="translate(0.000000,1764.000000) scale(0.100000,-0.100000)" fill="#000000" stroke="none" >
        <path d="M17065 13740 c-393 -39 -715 -182 -1005 -443 -308 -278 -515 -639 -594 -1039 -14 -68 -32 -185 -40 -262 -20 -176 -15 -198 69 -282 54 -55 84 -73 270 -166 426 -211 702 -295 1086 -329 160 -14 438 -7 589 16 438 66 857 247 1245 539 249 187 304 253 313 375 11 159 -125 539 -269 753 -193 286 -464 530 -754 675 -119 61 -325 127 -455 148 -128 20 -335 27 -455 15z m-170 -603 c98 -46 142 -164 100 -272 -60 -160 -213 -264 -432 -297 -64 -9 -78 -8 -136 11 -155 52 -217 143 -167 246 31 63 166 196 252 247 139 83 289 108 383 65z" />
</g >
</svg>
