<?xml version="1.0" standalone="no"?>
<!DOCTYPE svg PUBLIC "-//W3C//DTD SVG 20010904//EN" "http://www.w3.org/TR/2001/REC-SVG-20010904/DTD/svg10.dtd">
<svg version="1.0" xmlns="http://www.w3.org/2000/svg" width="2872.000000pt" height="1764.000000pt" viewBox="0 0 2872.000000 1764.000000" preserveAspectRatio="xMidYMid meet" >
    <g transform="translate(0.000000,1764.000000) scale(0.100000,-0.100000)" fill="#000000" stroke="none" >
        <path d="M15653 15246 c-60 -19 -225 -109 -313 -171 -152 -107 -294 -251 -402 -405 -81 -117 -189 -320 -170 -320 4 0 81 75 172 166 192 193 324 311 469 414 108 77 302 192 358 212 27 10 32 16 27 33 -12 35 -37 67 -61 76 -29 11 -28 11 -80 -5z" />
</g >
</svg>
