<?xml version="1.0" standalone="no"?>
<!DOCTYPE svg PUBLIC "-//W3C//DTD SVG 20010904//EN" "http://www.w3.org/TR/2001/REC-SVG-20010904/DTD/svg10.dtd">
<svg version="1.0" xmlns="http://www.w3.org/2000/svg" width="2872.000000pt" height="1764.000000pt" viewBox="0 0 2872.000000 1764.000000" preserveAspectRatio="xMidYMid meet" >
    <g transform="translate(0.000000,1764.000000) scale(0.100000,-0.100000)" fill="#000000" stroke="none" >
        <path d="M15080 10673 c-179 -31 -664 -106 -760 -118 -300 -37 -535 -14 -878 84 -107 31 -133 30 -161 -3 -20 -24 -6 -56 49 -113 42 -43 71 -60 169 -101 132 -56 291 -104 426 -128 126 -22 410 -30 543 -14 216 25 487 111 668 211 124 68 160 123 110 166 -22 19 -38 23 -84 22 -31 -1 -68 -4 -82 -6z" />
</g >
</svg>
