<?xml version="1.0" standalone="no"?>
<!DOCTYPE svg PUBLIC "-//W3C//DTD SVG 20010904//EN" "http://www.w3.org/TR/2001/REC-SVG-20010904/DTD/svg10.dtd">
<svg version="1.0" xmlns="http://www.w3.org/2000/svg" width="2872.000000pt" height="1764.000000pt" viewBox="0 0 2872.000000 1764.000000" preserveAspectRatio="xMidYMid meet" >
    <g transform="translate(0.000000,1764.000000) scale(0.100000,-0.100000)" fill="#000000" stroke="none" >
        <path d="M12551 15220 c-38 -53 -48 -83 -30 -89 8 -2 69 -32 136 -66 147 -76 311 -182 453 -296 109 -87 375 -345 497 -484 39 -44 73 -77 77 -74 7 7 -99 215 -162 319 -134 220 -330 416 -562 564 -106 68 -291 157 -338 163 -38 5 -42 3 -71 -37z" />
</g >
</svg>
