<?xml version="1.0" standalone="no"?>
<!DOCTYPE svg PUBLIC "-//W3C//DTD SVG 20010904//EN" "http://www.w3.org/TR/2001/REC-SVG-20010904/DTD/svg10.dtd">
<svg version="1.0" xmlns="http://www.w3.org/2000/svg" width="2872.000000pt" height="1764.000000pt" viewBox="0 0 2872.000000 1764.000000" preserveAspectRatio="xMidYMid meet" >
    <g transform="translate(0.000000,1764.000000) scale(0.100000,-0.100000)" fill="#000000" stroke="none" >
        <path d="M17130 14204 c-249 -29 -509 -103 -715 -203 -234 -113 -370 -212 -617 -450 -124 -120 -128 -124 -128 -165 0 -24 3 -45 6 -49 13 -13 93 27 159 81 184 151 229 185 345 261 223 146 453 251 665 304 170 43 247 51 435 48 341 -7 352 -7 392 12 37 19 63 61 56 93 -14 73 -292 104 -598 68z" />
</g >
</svg>
