<?xml version="1.0" encoding="UTF-8" standalone="no"?>
<svg
   version="1.0"
   width="395.000000pt"
   height="178.000000pt"
   viewBox="0 0 395.000000 178.000000"
   preserveAspectRatio="xMidYMid meet"
   id="svg6"
   sodipodi:docname="t-rex_side.svg"
   inkscape:version="1.1.2 (0a00cf5339, 2022-02-04)"
   xmlns:inkscape="http://www.inkscape.org/namespaces/inkscape"
   xmlns:sodipodi="http://sodipodi.sourceforge.net/DTD/sodipodi-0.dtd"
   xmlns="http://www.w3.org/2000/svg"
   xmlns:svg="http://www.w3.org/2000/svg">
  <defs
     id="defs10" />
  <sodipodi:namedview
     id="namedview8"
     pagecolor="#ffffff"
     bordercolor="#666666"
     borderopacity="1.0"
     inkscape:pageshadow="2"
     inkscape:pageopacity="0.0"
     inkscape:pagecheckerboard="0"
     inkscape:document-units="pt"
     showgrid="false"
     inkscape:zoom="2.335443"
     inkscape:cx="263.33333"
     inkscape:cy="118.82114"
     inkscape:window-width="1920"
     inkscape:window-height="1127"
     inkscape:window-x="1920"
     inkscape:window-y="0"
     inkscape:window-maximized="1"
     inkscape:current-layer="svg6" />
  <g
     transform="matrix(0.1,0,0,-0.1,0.3875,178.05)"
     fill="#000000"
     stroke="none"
     id="g4">
    <path
       d="m 3181,1733 c -25,-27 -69,-74 -96,-106 -62,-73 -77,-76 -290,-77 h -161 l -131,-45 c -100,-34 -156,-48 -234,-55 -120,-11 -197,-37 -294,-95 -150,-91 -234,-120 -435,-155 -30,-5 -91,-19 -135,-30 -107,-28 -335,-37 -488,-19 -65,7 -194,12 -308,11 -215,-2 -259,-11 -388,-75 C 156,1054 0,917 0,892 c 0,-23 30,-25 53,-4 12,11 63,41 114,66 104,51 202,72 293,62 56,-7 435,-97 483,-115 141,-54 517,-120 770,-136 54,-3 114,-13 135,-22 20,-9 76,-19 123,-23 56,-4 99,-13 125,-27 34,-17 39,-25 42,-61 5,-60 -23,-141 -68,-201 -46,-61 -48,-76 -20,-156 11,-32 20,-78 20,-102 0,-26 11,-70 28,-108 l 27,-64 150,1 c 141,0 151,2 167,22 14,17 18,18 18,5 0,-23 31,-33 48,-15 13,13 12,19 -5,48 -22,38 -85,67 -150,67 -54,1 -96,36 -117,98 -34,99 -17,141 102,250 71,65 97,97 126,153 20,40 36,80 36,90 0,27 54,64 130,89 84,29 238,103 269,130 28,24 39,25 78,10 15,-7 64,-13 108,-15 44,-2 89,-4 100,-6 32,-5 21,42 -18,75 -32,28 -40,28 -109,11 -34,-8 -37,9 -7,34 11,9 34,43 50,74 16,32 38,62 48,68 11,5 46,9 79,8 45,-1 68,4 96,20 27,16 54,22 95,22 66,0 109,-15 187,-67 58,-38 82,-39 124,-5 19,16 21,23 13,48 -5,16 -19,33 -31,39 -12,5 -26,22 -31,37 -6,17 -17,28 -29,28 -22,0 -62,51 -62,80 0,18 49,80 63,80 4,0 36,-13 72,-30 97,-44 145,-39 194,22 31,39 31,83 0,140 -32,58 -99,91 -194,96 -58,4 -77,9 -109,33 -46,34 -55,35 -118,12 -45,-16 -49,-16 -112,5 -37,12 -87,22 -113,22 -42,0 -50,-4 -92,-47 z"
       id="path2" />
  </g>
</svg>
