<?xml version="1.0" encoding="UTF-8" standalone="no"?>
<svg
   version="1.0"
   width="395.000000pt"
   height="64.000000pt"
   viewBox="0 0 395.000000 64.000000"
   preserveAspectRatio="xMidYMid meet"
   id="svg6"
   sodipodi:docname="t-rex_top.svg"
   inkscape:version="1.1.2 (0a00cf5339, 2022-02-04)"
   xmlns:inkscape="http://www.inkscape.org/namespaces/inkscape"
   xmlns:sodipodi="http://sodipodi.sourceforge.net/DTD/sodipodi-0.dtd"
   xmlns="http://www.w3.org/2000/svg"
   xmlns:svg="http://www.w3.org/2000/svg">
  <defs
     id="defs10" />
  <sodipodi:namedview
     id="namedview8"
     pagecolor="#ffffff"
     bordercolor="#666666"
     borderopacity="1.0"
     inkscape:pageshadow="2"
     inkscape:pageopacity="0.0"
     inkscape:pagecheckerboard="0"
     inkscape:document-units="pt"
     showgrid="false"
     inkscape:zoom="2.335443"
     inkscape:cx="263.33333"
     inkscape:cy="42.604336"
     inkscape:window-width="1920"
     inkscape:window-height="1127"
     inkscape:window-x="1920"
     inkscape:window-y="0"
     inkscape:window-maximized="1"
     inkscape:current-layer="svg6" />
  <g
     transform="matrix(0.1,0,0,-0.1,-0.00777146,63.909877)"
     fill="#000000"
     stroke="none"
     id="g4">
    <path
       d="m 2203,631 c -43,-11 -95,-36 -172,-83 -88,-54 -102,-59 -216,-69 -55,-5 -152,-18 -215,-29 C 1301,396 1154,384 545,365 82,350 14,345 4,328 c -31,-49 200,-88 522,-88 292,0 684,-23 934,-56 105,-13 304,-37 436,-53 52,-6 92,-19 152,-49 122,-63 197,-85 257,-78 247,32 282,35 357,24 71,-9 89,-7 195,17 100,23 128,33 186,72 82,55 120,58 236,18 104,-35 227,-35 326,1 39,14 108,36 155,48 111,29 139,44 167,85 32,47 29,81 -9,129 -27,33 -46,45 -103,63 -38,12 -110,35 -160,51 -185,60 -315,60 -411,-1 -73,-47 -123,-39 -201,32 -53,49 -72,56 -144,57 -36,0 -79,4 -95,10 -16,5 -117,12 -224,14 -107,2 -229,7 -270,10 -41,3 -89,1 -107,-3 z"
       id="path2" />
  </g>
</svg>
