<?xml version="1.0" standalone="no"?>
<!DOCTYPE svg PUBLIC "-//W3C//DTD SVG 20010904//EN" "http://www.w3.org/TR/2001/REC-SVG-20010904/DTD/svg10.dtd">
<svg version="1.0" xmlns="http://www.w3.org/2000/svg" width="2872.000000pt" height="1764.000000pt" viewBox="0 0 2872.000000 1764.000000" preserveAspectRatio="xMidYMid meet" >
    <g transform="translate(0.000000,1764.000000) scale(0.100000,-0.100000)" fill="#000000" stroke="none" >
        <path d="M10785 14146 c-5 -2 -27 -7 -48 -11 -45 -7 -101 -54 -127 -105 l-19 -38 37 -6 c20 -4 143 -11 272 -16 404 -15 654 -75 986 -235 183 -87 255 -134 521 -337 43 -33 66 -35 93 -8 39 39 27 72 -52 146 -306 285 -783 513 -1218 584 -113 18 -420 36 -445 26z" />
</g >
</svg>
