<?xml version="1.0" standalone="no"?>
<!DOCTYPE svg PUBLIC "-//W3C//DTD SVG 20010904//EN" "http://www.w3.org/TR/2001/REC-SVG-20010904/DTD/svg10.dtd">
<svg version="1.0" xmlns="http://www.w3.org/2000/svg" width="2872.000000pt" height="1764.000000pt" viewBox="0 0 2872.000000 1764.000000" preserveAspectRatio="xMidYMid meet" >
    <g transform="translate(0.000000,1764.000000) scale(0.100000,-0.100000)" fill="#000000" stroke="none" >
        <path d="M14095 11900 c-184 -20 -341 -101 -476 -248 -88 -95 -139 -184 -139 -241 0 -58 48 -139 62 -102 6 17 202 244 253 294 157 152 443 183 655 71 91 -47 140 -91 194 -172 52 -79 69 -95 114 -110 32 -11 34 -10 48 23 18 45 18 54 -7 121 -15 39 -41 77 -86 125 -167 176 -391 263 -618 239z" />
</g >
</svg>
