<?xml version="1.0" standalone="no"?>
<!DOCTYPE svg PUBLIC "-//W3C//DTD SVG 20010904//EN" "http://www.w3.org/TR/2001/REC-SVG-20010904/DTD/svg10.dtd">
<svg version="1.0" xmlns="http://www.w3.org/2000/svg" width="2872.000000pt" height="1764.000000pt" viewBox="0 0 2872.000000 1764.000000" preserveAspectRatio="xMidYMid meet" >
    <g transform="translate(0.000000,1764.000000) scale(0.100000,-0.100000)" fill="#000000" stroke="none" >
        <path d="M10775 13584 c-462 -50 -878 -251 -1190 -575 -161 -168 -235 -279 -430 -642 -168 -315 -168 -312 19 -505 196 -202 428 -371 697 -507 421 -213 774 -294 1244 -282 246 6 363 21 573 73 182 45 329 98 510 185 156 74 210 105 377 215 61 39 156 95 213 123 56 28 102 57 102 64 0 24 -71 344 -96 430 -128 448 -429 847 -854 1132 -186 125 -437 224 -667 265 -115 21 -400 34 -498 24z m-130 -453 c215 -99 83 -449 -202 -536 -26 -8 -78 -20 -115 -25 -174 -25 -328 63 -328 188 0 70 97 197 211 274 144 99 338 143 434 99z" />
</g >
</svg>
