<?xml version="1.0" encoding="UTF-8"?>
<svg version="1.1" xmlns="http://www.w3.org/2000/svg" width="735" height="956">
<path d="M0 0 C242.55 0 485.1 0 735 0 C735 315.48 735 630.96 735 956 C492.45 956 249.9 956 0 956 C0 640.52 0 325.04 0 0 Z " fill="#FEFEFE" transform="translate(0,0)"/>
<path d="M0 0 C19.80749514 18.20148202 25.51246993 53.57435984 26.9375 78.9375 C28.02109741 110.64130482 23.37005148 138.33704888 13.19592285 168.23812866 C2.73760688 198.87830015 2.73760688 198.87830015 -0.0625 230.9375 C7.51295243 230.55872738 12.25506302 225.45794328 17.625 220.625 C20.29188107 218.29376757 22.27379926 217.0452559 25.9375 216.9375 C27.63134237 218.63134237 27.19053099 220.67444881 27.25 223 C27.15485983 234.40322849 23.604637 245.61021812 18.9375 255.9375 C19.82953125 255.2878125 20.7215625 254.638125 21.640625 253.96875 C22.82256485 253.12450725 24.00487611 252.28078428 25.1875 251.4375 C25.77402344 251.00824219 26.36054687 250.57898438 26.96484375 250.13671875 C30.33200265 247.75322425 31.69049728 246.9375 35.9375 246.9375 C38.25853611 254.95562474 34.57576182 262.01756241 30.8125 269 C28.14650322 273.72849678 28.14650322 273.72849678 26.9375 274.9375 C27.9275 275.5975 28.9175 276.2575 29.9375 276.9375 C31.99126788 287.04525959 27.7824305 298.25003842 22.9375 306.9375 C23.6166748 306.86748779 24.29584961 306.79747559 24.99560547 306.7253418 C32.98816025 305.97317176 40.94210425 305.75125844 48.96533203 305.75219727 C51.06693345 305.74999535 53.16802088 305.73171085 55.26953125 305.71289062 C62.70714647 305.68301937 69.71975873 306.02870268 76.9375 307.9375 C76.9375 308.2675 76.9375 308.5975 76.9375 308.9375 C76.30585937 308.92702637 75.67421875 308.91655273 75.0234375 308.90576172 C62.95547384 308.73404538 50.97138189 308.812838 38.9375 309.8125 C37.96683594 309.89097168 36.99617187 309.96944336 35.99609375 310.05029297 C33.30062434 310.29444102 30.62203022 310.59421882 27.9375 310.9375 C26.69830811 311.08662842 26.69830811 311.08662842 25.43408203 311.23876953 C21.17163212 311.93523676 19.32246098 312.569601 16.1171875 315.6328125 C15.31865439 316.75508424 14.55121389 317.89998085 13.8125 319.0625 C13.4 319.67270996 12.9875 320.28291992 12.5625 320.91162109 C8.74085746 326.7820557 5.92964081 333.0592248 3.3125 339.5390625 C2.27986976 342.09130202 1.18739556 344.49312626 -0.0625 346.9375 C0.4951001 347.03248779 1.0527002 347.12747559 1.62719727 347.2253418 C25.34453296 351.33049954 25.34453296 351.33049954 35.9375 355.9375 C36.2675 356.5975 36.5975 357.2575 36.9375 357.9375 C28.36374429 357.09655665 19.87975159 355.72408136 11.375 354.375 C9.87437819 354.13848631 8.37372737 353.90215668 6.87304688 353.66601562 C3.22752751 353.09196565 -0.41759267 352.51542494 -4.0625 351.9375 C-4.35745361 352.54940186 -4.65240723 353.16130371 -4.95629883 353.79174805 C-8.74451339 361.13993119 -15.14222702 367.26758683 -21.0625 372.9375 C-22.2071875 374.113125 -22.2071875 374.113125 -23.375 375.3125 C-40.12866268 391.67654261 -59.40673264 403.18478139 -80.0625 413.9375 C-78.85071372 421.81739185 -76.38251529 428.78989332 -73.3125 436.125 C-72.83369385 437.28628418 -72.3548877 438.44756836 -71.86157227 439.64404297 C-67.81252654 449.36563049 -63.47898944 458.95068148 -59.10171509 468.52789307 C-51.27591458 485.66565203 -44.12753144 503.09353907 -38.0625 520.9375 C-37.44246094 520.74414062 -36.82242187 520.55078125 -36.18359375 520.3515625 C-5.9990929 511.47635264 23.47912709 516.69048517 51 530.9375 C62.53032342 537.62148436 72.77370811 546.29140328 81.9375 555.9375 C82.51757812 556.53433594 83.09765625 557.13117187 83.6953125 557.74609375 C89.74254841 564.20833604 94.42930806 571.36661257 98.9375 578.9375 C99.4639209 579.81535156 99.4639209 579.81535156 100.00097656 580.7109375 C117.24673179 609.91353338 122.48347507 644.4779177 114.46606445 677.42553711 C110.67527824 691.93261446 104.34515344 706.19317238 94.9375 717.9375 C94.22722656 718.84757813 93.51695312 719.75765625 92.78515625 720.6953125 C76.9267688 740.59284478 57.04046589 753.23388863 32.9375 760.9375 C34.7565103 762.7565103 37.6251001 762.43664082 40.0859375 762.69921875 C41.38917969 762.84560791 42.69242188 762.99199707 44.03515625 763.14282227 C44.7327002 763.22090118 45.43024414 763.2989801 46.14892578 763.37942505 C57.88288316 764.71127953 69.40638545 766.40675103 80.9375 769 C82.03239746 769.24516357 83.12729492 769.49032715 84.25537109 769.74291992 C90.01474536 771.09013934 95.45476387 772.71672827 100.9375 774.9375 C97.86511225 775.87335092 95.46717804 775.95622317 92.28344727 775.60791016 C90.9053463 775.46248276 90.9053463 775.46248276 89.49940491 775.31411743 C88.51089035 775.2027243 87.52237579 775.09133118 86.50390625 774.9765625 C85.47498764 774.866539 84.44606903 774.7565155 83.38597107 774.64315796 C80.0898942 774.28954665 76.79495106 773.92643937 73.5 773.5625 C65.31415584 772.67177142 57.12730244 771.7911264 48.9375 770.9375 C47.72513672 770.81101074 46.51277344 770.68452148 45.26367188 770.55419922 C35.92419222 769.70722175 26.55931847 769.7863141 17.18945312 769.80712891 C14.31114467 769.81250253 11.43299132 769.80714701 8.5546875 769.80078125 C-4.7819805 769.7940442 -4.7819805 769.7940442 -18.0625 770.9375 C-18.0625 772.9175 -18.0625 774.8975 -18.0625 776.9375 C-17.49161148 776.93305878 -16.92072296 776.92861755 -16.33253479 776.92404175 C32.19569416 776.5638942 32.19569416 776.5638942 47.5 777.8125 C48.48863037 777.89097168 49.47726074 777.96944336 50.49584961 778.05029297 C52.65329051 778.25873557 54.79932652 778.58223425 56.9375 778.9375 C57.2675 779.5975 57.5975 780.2575 57.9375 780.9375 C56.92888916 780.95731934 55.92027832 780.97713867 54.88110352 780.99755859 C36.72087068 781.36457283 18.57249088 781.82087939 0.4375 782.875 C-0.2527829 782.9125238 -0.9430658 782.95004761 -1.65426636 782.9887085 C-11.56129418 783.4058912 -11.56129418 783.4058912 -21.0625 785.9375 C-21.3925 786.5975 -21.7225 787.2575 -22.0625 787.9375 C-20.3913916 787.92178955 -20.3913916 787.92178955 -18.68652344 787.90576172 C5.31207836 787.7008476 29.16615982 788.00146253 53.11181641 789.67529297 C55.7241298 789.85433729 58.33254553 790.01700153 60.94677734 790.15673828 C62.20570801 790.23005371 63.46463867 790.30336914 64.76171875 790.37890625 C66.43947388 790.46893921 66.43947388 790.46893921 68.15112305 790.56079102 C70.9375 790.9375 70.9375 790.9375 73.9375 792.9375 C73.20533768 792.94780746 72.47317535 792.95811493 71.71882629 792.96873474 C54.94432515 793.20590999 38.17019848 793.45940437 21.39633179 793.7379303 C14.04531006 793.8593541 6.69439541 793.96901134 -0.65718079 794.05204773 C-4.10938719 794.09406821 -7.56120005 794.15097301 -11.01309204 794.21340942 C-12.53543834 794.23763458 -14.05790966 794.25504529 -15.58041382 794.26535034 C-17.64290353 794.28014814 -19.70360127 794.31853565 -21.765625 794.36328125 C-23.43093262 794.38515503 -23.43093262 794.38515503 -25.12988281 794.4074707 C-28.70884641 795.05431802 -30.43363458 796.48626886 -33.0625 798.9375 C-32.14887695 799.00743164 -31.23525391 799.07736328 -30.29394531 799.14941406 C-10.08310645 800.72198621 9.9055719 802.7602561 29.9375 805.9375 C29.9375 806.2675 29.9375 806.5975 29.9375 806.9375 C16.28149994 807.04658689 2.64843339 806.99235432 -11 806.5 C-15.80899435 806.33707994 -20.6181262 806.17872153 -25.42736816 806.02331543 C-27.31566347 805.9618214 -29.20392487 805.89928234 -31.09216309 805.83605957 C-38.00888946 805.60597651 -44.9257948 805.40152517 -51.84402466 805.22213745 C-54.18138704 805.1578364 -56.51855403 805.08594467 -58.85543823 805.00613403 C-62.17033334 804.89414614 -65.48495652 804.80946136 -68.80078125 804.73046875 C-69.78823334 804.69112213 -70.77568542 804.65177551 -71.7930603 804.61123657 C-78.73957812 804.48483086 -83.79630768 806.04819342 -90.0625 808.9375 C-111.64489204 816.2600973 -145.91435872 814.16061293 -166.70532227 805.40307617 C-171.07615197 803.76242402 -174.9275345 803.53174799 -179.55859375 803.609375 C-180.35040543 803.61124817 -181.1422171 803.61312134 -181.95802307 803.61505127 C-183.62790157 803.62173575 -185.29776538 803.63557781 -186.9675293 803.65625 C-189.46223351 803.68703397 -191.95629745 803.69719952 -194.45117188 803.703125 C-210.20030527 803.77734068 -224.95555774 804.10020718 -240.0625 808.9375 C-250.72001353 811.82425957 -261.5747497 812.11825905 -272.5625 812.125 C-273.61308594 812.13724609 -274.66367187 812.14949219 -275.74609375 812.16210938 C-286.09076742 812.18128986 -299.47453884 811.55625437 -307.76513672 804.48535156 C-313.37081311 799.70809326 -317.5669131 799.10752801 -324.8125 799.1875 C-326.76181105 799.15636551 -328.71104519 799.11994651 -330.66015625 799.078125 C-331.58973145 799.06201172 -332.51930664 799.04589844 -333.47705078 799.02929688 C-339.46767063 798.81659876 -345.37352885 797.83382372 -351.0625 795.9375 C-353.7940956 795.85242921 -356.49941443 795.82158435 -359.23046875 795.83984375 C-360.02528152 795.8412587 -360.8200943 795.84267365 -361.63899231 795.84413147 C-364.17603325 795.84972622 -366.71298575 795.86227772 -369.25 795.875 C-370.97070185 795.88001568 -372.69140508 795.88457847 -374.41210938 795.88867188 C-378.6289403 795.89969393 -382.84570516 795.91695494 -387.0625 795.9375 C-384.83560135 793.71060135 -384.13801844 793.57546155 -381.140625 793.0859375 C-379.97273438 792.89257812 -379.97273438 792.89257812 -378.78125 792.6953125 C-377.9665625 792.56898438 -377.151875 792.44265625 -376.3125 792.3125 C-375.51328125 792.1784375 -374.7140625 792.044375 -373.890625 791.90625 C-369.56887029 791.20965138 -365.45583326 790.78160753 -361.0625 790.9375 C-361.3925 790.2775 -361.7225 789.6175 -362.0625 788.9375 C-371.44801656 788.75483824 -380.76592511 789.33375407 -390.125 789.9375 C-399.11152532 790.51583593 -408.05103528 791.08039736 -417.0625 790.9375 C-414.12081756 787.99581756 -410.58205243 787.77177099 -406.625 787 C-405.33384277 786.74331543 -405.33384277 786.74331543 -404.01660156 786.48144531 C-392.13471698 784.2387135 -380.0877654 783.11666068 -368.0625 781.9375 C-368.7225 780.2875 -369.3825 778.6375 -370.0625 776.9375 C-375.3969693 776.91252589 -380.73140354 776.89451202 -386.06591797 776.88256836 C-387.87549432 776.87758197 -389.68506674 776.87079046 -391.49462891 776.86206055 C-401.39916213 776.81552183 -411.20413264 776.8215771 -421.0625 777.9375 C-421.0625 777.2775 -421.0625 776.6175 -421.0625 775.9375 C-410.95742289 773.16493706 -400.91432645 771.37920007 -390.5 770.1875 C-388.84218506 769.99643677 -388.84218506 769.99643677 -387.15087891 769.80151367 C-381.41873792 769.18079997 -375.82732684 768.79774662 -370.0625 768.9375 C-370.145 767.803125 -370.2275 766.66875 -370.3125 765.5 C-370.28391818 757.39705416 -365.67073743 749.59170659 -360.0625 743.9375 C-355.05120554 740.19376826 -349.93065604 737.12346771 -344.0625 734.9375 C-346.08162681 731.38222689 -348.35544656 728.16721484 -350.83129883 724.92797852 C-370.03238759 699.68008328 -379.52511626 668.98243816 -375.73291016 637.17285156 C-373.071104 618.85469716 -367.80574608 598.79884305 -355.81640625 584.203125 C-353.12581102 579.19346439 -353.55772134 574.34819724 -353.5625 568.75 C-352.81659022 528.94111923 -340.71232075 493.49226556 -325.32951355 457.30271912 C-323.07005892 451.97748954 -320.87046832 446.63202891 -318.75 441.25 C-318.46632568 440.54447998 -318.18265137 439.83895996 -317.89038086 439.11206055 C-316.59216535 435.7767359 -316.0625 433.58504425 -316.0625 429.9375 C-317.12460693 429.41953857 -318.18671387 428.90157715 -319.28100586 428.36791992 C-323.31405869 426.39749466 -327.33991808 424.41271762 -331.36401367 422.42407227 C-333.08904442 421.57393902 -334.81587034 420.72743639 -336.54467773 419.88500977 C-356.66045819 410.07600474 -375.58652497 398.57919484 -391.5625 382.75 C-392.13830811 382.17983154 -392.71411621 381.60966309 -393.30737305 381.0222168 C-397.01535983 377.24993281 -400.08475418 373.3096753 -403.0625 368.9375 C-405.58371432 369.56099358 -408.10446931 370.18625361 -410.625 370.8125 C-411.68170898 371.07353516 -411.68170898 371.07353516 -412.75976562 371.33984375 C-417.22274998 372.45044815 -421.64737052 373.64951216 -426.0625 374.9375 C-425.0625 371.9375 -425.0625 371.9375 -422.296875 370.40234375 C-420.57210937 369.64630859 -420.57210937 369.64630859 -418.8125 368.875 C-417.10320312 368.11509766 -417.10320312 368.11509766 -415.359375 367.33984375 C-412.60648298 366.16888612 -409.84676492 365.03131836 -407.0625 363.9375 C-408.1878203 361.11612278 -409.3219277 358.2986864 -410.46484375 355.484375 C-410.97667905 354.21879713 -411.48839361 352.95317042 -412 351.6875 C-412.40520874 350.69278687 -412.40520874 350.69278687 -412.81860352 349.67797852 C-414.2559995 346.10907617 -415.48691997 342.59173735 -416.5 338.875 C-417.78773091 334.82243507 -419.88726619 332.92441796 -423.24609375 330.4140625 C-425.18286968 328.8396511 -426.45854128 327.18965581 -427.9375 325.1875 C-431.4447726 321.02089679 -434.81967053 320.57870936 -440.0625 319.9375 C-441.13371094 319.75574219 -442.20492187 319.57398438 -443.30859375 319.38671875 C-458.17492702 317.03434955 -473.11734068 317.57219996 -488.0625 318.9375 C-480.29723255 313.76065503 -469.6136461 314.65356619 -460.625 314.75 C-458.91860352 314.7509668 -458.91860352 314.7509668 -457.17773438 314.75195312 C-449.76283155 314.79002165 -442.44084999 315.20880513 -435.0625 315.9375 C-435.495625 315.03386719 -435.92875 314.13023437 -436.375 313.19921875 C-437.2103125 311.42998047 -437.2103125 311.42998047 -438.0625 309.625 C-438.619375 308.45324219 -439.17625 307.28148437 -439.75 306.07421875 C-441.0625 302.9375 -441.0625 302.9375 -441.0625 299.9375 C-435.40855369 299.59134002 -432.03243194 300.50324762 -427.0625 302.9375 C-427.42601562 302.47601563 -427.78953125 302.01453125 -428.1640625 301.5390625 C-434.54449214 293.26086405 -439.5763959 284.81201496 -443.0625 274.9375 C-443.495625 273.720625 -443.92875 272.50375 -444.375 271.25 C-445.17237345 267.40810974 -445.10113632 264.72110374 -444.0625 260.9375 C-442.22265625 259.65625 -442.22265625 259.65625 -440.0625 258.9375 C-434.02009888 261.24459861 -428.95043973 264.98411508 -423.80688477 268.85083008 C-420.24955012 271.43842779 -417.44134328 272.54958445 -413.0625 272.9375 C-407.52556721 264.63210081 -412.22739514 249.18906458 -414.0625 239.9375 C-416.97609024 226.71329457 -421.78105979 214.27654801 -426.80908203 201.7355957 C-447.67802516 149.47105432 -457.28417045 86.9771543 -436.23828125 32.81640625 C-433.7203796 27.51855889 -429.10718883 24.58418534 -424.0625 21.9375 C-411.10768192 17.61922731 -397.35177635 22.91799536 -385.0625 26.9375 C-384.31564941 27.17774902 -383.56879883 27.41799805 -382.79931641 27.66552734 C-364.94249768 33.4672484 -347.63680568 41.13906895 -331.0625 49.9375 C-329.9075 50.54980469 -328.7525 51.16210938 -327.5625 51.79296875 C-313.94458434 59.29829727 -301.23235506 68.16937812 -290.05883789 79.01245117 C-289.4889917 79.5407251 -288.91914551 80.06899902 -288.33203125 80.61328125 C-287.84323486 81.08677002 -287.35443848 81.56025879 -286.85083008 82.0480957 C-282.70364658 84.11064717 -277.27274641 81.48753054 -273.09765625 80.1953125 C-271.41518799 79.68133911 -271.41518799 79.68133911 -269.69873047 79.15698242 C-267.92973389 78.61521362 -267.92973389 78.61521362 -266.125 78.0625 C-256.47426109 75.1711004 -247.04038491 72.42821986 -237.0625 70.9375 C-236.23298828 70.80504883 -235.40347656 70.67259766 -234.54882812 70.53613281 C-203.77278637 65.73075085 -171.00459453 65.61902824 -141.0625 74.9375 C-140.84078125 74.40125 -140.6190625 73.865 -140.390625 73.3125 C-120.15324041 37.12329462 -62.06326056 9.9155651 -25.0625 -4.0625 C-15.77865569 -6.34201534 -7.94707533 -5.35211196 0 0 Z " fill="#FEFEFE" transform="translate(551.0625,68.0625)"/>
<path d="M0 0 C0.24492187 0.94875 0.48984375 1.8975 0.7421875 2.875 C5.16937139 19.28732091 12.11213812 34.66406741 19.11328125 50.109375 C31.35923794 77.13376444 42.27839201 103.88172169 48.52612305 133.01464844 C51.15176019 145.05389139 55.82535817 153.08792632 64.25708008 161.88818359 C86.27111664 185.00986594 101.92277549 216.1706983 101.17578125 248.52734375 C101.11777344 249.67332031 101.05976562 250.81929687 101 252 C100.9695459 252.64211426 100.9390918 253.28422852 100.90771484 253.94580078 C99.24314486 283.80181134 86.07853226 309.56505929 67 332 C63.82166979 330.53419474 61.17656437 328.71476626 58.375 326.625 C47.67513508 319.067533 36.35828582 316.62852866 23.4375 316.875 C22.06754883 316.88853516 22.06754883 316.88853516 20.66992188 316.90234375 C18.44632681 316.92562747 16.22331323 316.9583229 14 317 C14.49841558 306.6450893 16.11793526 296.59323462 17.83956909 286.38641357 C20.42857897 270.92719951 22.73841875 255.45804902 24.4375 239.875 C24.56253403 238.7934111 24.56253403 238.7934111 24.69009399 237.68997192 C26.27577022 223.80837817 26.16455186 209.95663036 26 196 C24.1232642 205.97884083 22.24832291 215.95801797 20.375 225.9375 C20.23716724 226.67175201 20.09933449 227.40600403 19.95732498 228.1625061 C16.11336709 248.6425168 12.3022015 269.12725909 8.61401367 289.63598633 C7.76514999 294.28667922 6.88855 298.93210082 6.00291443 303.57592773 C5.22811175 307.66763687 4.46045407 311.73724947 4.1640625 315.89453125 C4 318 4 318 3.5234375 320.38671875 C2.57289758 327.78103508 5.55656128 331.92295334 9.8125 337.625 C10.6317395 338.66333984 10.6317395 338.66333984 11.4675293 339.72265625 C17.51272966 347.45992767 20.12978518 355.15018275 19 365 C17.89067245 370.62658929 15.55066306 374.1619559 11.04296875 377.6796875 C7.24967255 380.13118677 2.6181269 383 -2 383 C-1.835 382.236875 -1.67 381.47375 -1.5 380.6875 C-0.24313114 371.41809218 -0.8832163 364.47248789 -5 356 C-4.96519531 356.96679688 -4.93039062 357.93359375 -4.89453125 358.9296875 C-4.71402274 367.61128747 -4.67524244 375.67115246 -9.40625 383.25390625 C-13.67867219 386.13006998 -18.23669085 385.41541375 -23.25 385.25 C-24.28125 385.23195313 -25.3125 385.21390625 -26.375 385.1953125 C-28.91761064 385.14822712 -31.45833162 385.0824805 -34 385 C-33.76941895 383.85712524 -33.76941895 383.85712524 -33.53417969 382.69116211 C-31.66572149 373.27799269 -30.53470573 362.93058854 -35 354 C-35.10957031 355.25554687 -35.21914063 356.51109375 -35.33203125 357.8046875 C-37.43016112 380.43016112 -37.43016112 380.43016112 -41 384 C-44.66697492 384.21911625 -48.32963876 384.10277011 -52 384 C-52.78117188 383.98324219 -53.56234375 383.96648437 -54.3671875 383.94921875 C-58.08570481 383.70365629 -59.7367226 383.25652669 -62.4375 380.625 C-65.1230262 376.11331599 -65.15257923 372.22715747 -65.125 367.125 C-65.12886719 366.41730469 -65.13273438 365.70960938 -65.13671875 364.98046875 C-65.12966857 361.19451956 -64.90907953 357.67960763 -64 354 C-68.8958507 359.54863079 -70.17799429 364.57390682 -70.625 371.875 C-70.69976562 373.02742188 -70.77453125 374.17984375 -70.8515625 375.3671875 C-70.92503906 376.67042969 -70.92503906 376.67042969 -71 378 C-76.42207775 374.02560801 -78.4059485 370.47047787 -80 364 C-81.98608673 346.1031518 -75.9236306 328.86403208 -70.74621582 312.02122498 C-57.34876576 268.42788233 -54.22965661 214.19487083 -75 172 C-75.96828778 170.64346156 -76.96099061 169.30316432 -78 168 C-77.74605469 168.7528125 -77.49210938 169.505625 -77.23046875 170.28125 C-61.36428669 219.24654594 -67.6794981 274.20975182 -83.16088867 322.21191406 C-86.71045556 333.59748028 -88.49302203 345.19227625 -90 357 C-97.97981234 357.20431952 -105.29567437 357.21989044 -113 355 C-114.65051256 353.34948744 -114.53241569 351.20690698 -114.89819336 348.98852539 C-117.38794709 334.03099724 -122.71750825 321.23815216 -129.34008789 307.68286133 C-149.67577164 265.91522214 -158.13490618 222.37573146 -152 176 C-152.63137175 178.41515018 -153.25508812 180.831904 -153.875 183.25 C-154.04902344 183.91257812 -154.22304688 184.57515625 -154.40234375 185.2578125 C-157.19031744 196.20319068 -158.36939915 206.96971162 -158.6875 218.25 C-158.72512451 219.53052246 -158.76274902 220.81104492 -158.80151367 222.13037109 C-159.64959025 255.78427143 -149.82429512 284.5999165 -135.81152344 314.83569336 C-132.35787779 322.33403886 -129.20331715 329.83444167 -126.5703125 337.6640625 C-126.32280243 338.39579681 -126.07529236 339.12753113 -125.82028198 339.88143921 C-122.71593947 349.44820892 -121.74725936 359.32921736 -125 369 C-127.43260567 373.69744544 -129.11338889 375.25535868 -134 377 C-134.08636719 376.24976563 -134.17273438 375.49953125 -134.26171875 374.7265625 C-135.26095025 367.44775688 -136.94249771 361.20329677 -141 355 C-141.66 354.67 -142.32 354.34 -143 354 C-142.51273437 354.98613281 -142.02546875 355.97226562 -141.5234375 356.98828125 C-139.76097359 361.11211466 -139.549972 364.74834341 -139.625 369.1875 C-139.61339844 369.88552734 -139.60179687 370.58355469 -139.58984375 371.30273438 C-139.60686374 374.28406929 -139.84260713 376.65767051 -141.09375 379.37890625 C-143.83258158 381.70803557 -146.36533678 382.08219939 -149.875 382.75 C-151.08929688 382.99234375 -152.30359375 383.2346875 -153.5546875 383.484375 C-156.48052535 383.92225549 -159.06063358 384.29918551 -162 384 C-168.82063059 376.57754907 -169.94245209 364.68243643 -170 355 C-169.515625 352.65234375 -169.515625 352.65234375 -169 351 C-169.66 351 -170.32 351 -171 351 C-174.27073452 362.85641262 -173.49407819 373.32663247 -170 385 C-173.74959217 385.14528105 -177.49846105 385.23406281 -181.25 385.3125 C-182.31347656 385.35439453 -183.37695312 385.39628906 -184.47265625 385.43945312 C-192.27371312 385.56211125 -192.27371312 385.56211125 -195.609375 382.98046875 C-198.73601094 376.27927992 -199.28875813 370.26834162 -199.125 363 C-199.11597656 362.22527344 -199.10695313 361.45054687 -199.09765625 360.65234375 C-199.07439388 358.76809157 -199.0385364 356.88400168 -199 355 C-204.55279121 363.64954015 -204.26460615 372.05404349 -203 382 C-209.33845497 381.03162494 -213.49930522 377.93350734 -217.625 373.09375 C-221.92766145 366.54197006 -222.16749584 359.60540149 -221 352 C-218.50805662 344.69965884 -214.31252744 338.64158936 -209.41796875 332.7421875 C-205.6831674 328.1534233 -206.6790651 322.6375546 -207 317 C-210.29814363 288.10342049 -222.09382114 259.89486293 -232.5390625 232.99243164 C-258.23877492 166.67075659 -248.57115156 108.94727668 -221.34277344 44.86035156 C-217.5131107 35.82097292 -213.90741908 26.78118467 -211.07739258 17.3671875 C-210.39453125 15.20703125 -210.39453125 15.20703125 -209 12 C-205.7015637 10.55956099 -203.2037712 11.21881684 -199.80859375 12.109375 C-198.28310913 12.49754395 -198.28310913 12.49754395 -196.72680664 12.89355469 C-195.09859985 13.31749512 -195.09859985 13.31749512 -193.4375 13.75 C-114.75390071 33.31816135 -69.29360691 0 0 0 Z " fill="#FEFEFE" transform="translate(458,485)"/>
<path d="M0 0 C19.80749514 18.20148202 25.51246993 53.57435984 26.9375 78.9375 C28.02109741 110.64130482 23.37005148 138.33704888 13.19592285 168.23812866 C2.73760688 198.87830015 2.73760688 198.87830015 -0.0625 230.9375 C7.51295243 230.55872738 12.25506302 225.45794328 17.625 220.625 C20.29188107 218.29376757 22.27379926 217.0452559 25.9375 216.9375 C27.63134237 218.63134237 27.19053099 220.67444881 27.25 223 C27.15485983 234.40322849 23.604637 245.61021812 18.9375 255.9375 C19.82953125 255.2878125 20.7215625 254.638125 21.640625 253.96875 C22.82256485 253.12450725 24.00487611 252.28078428 25.1875 251.4375 C25.77402344 251.00824219 26.36054687 250.57898438 26.96484375 250.13671875 C30.33200265 247.75322425 31.69049728 246.9375 35.9375 246.9375 C38.25853611 254.95562474 34.57576182 262.01756241 30.8125 269 C28.14650322 273.72849678 28.14650322 273.72849678 26.9375 274.9375 C27.9275 275.5975 28.9175 276.2575 29.9375 276.9375 C31.99126788 287.04525959 27.7824305 298.25003842 22.9375 306.9375 C23.6166748 306.86748779 24.29584961 306.79747559 24.99560547 306.7253418 C32.98816025 305.97317176 40.94210425 305.75125844 48.96533203 305.75219727 C51.06693345 305.74999535 53.16802088 305.73171085 55.26953125 305.71289062 C62.70714647 305.68301937 69.71975873 306.02870268 76.9375 307.9375 C76.9375 308.2675 76.9375 308.5975 76.9375 308.9375 C76.30585937 308.92702637 75.67421875 308.91655273 75.0234375 308.90576172 C62.95547384 308.73404538 50.97138189 308.812838 38.9375 309.8125 C37.96683594 309.89097168 36.99617187 309.96944336 35.99609375 310.05029297 C33.30062434 310.29444102 30.62203022 310.59421882 27.9375 310.9375 C26.69830811 311.08662842 26.69830811 311.08662842 25.43408203 311.23876953 C21.17163212 311.93523676 19.32246098 312.569601 16.1171875 315.6328125 C15.31865439 316.75508424 14.55121389 317.89998085 13.8125 319.0625 C13.4 319.67270996 12.9875 320.28291992 12.5625 320.91162109 C8.74085746 326.7820557 5.92964081 333.0592248 3.3125 339.5390625 C2.27986976 342.09130202 1.18739556 344.49312626 -0.0625 346.9375 C0.4951001 347.03248779 1.0527002 347.12747559 1.62719727 347.2253418 C25.34453296 351.33049954 25.34453296 351.33049954 35.9375 355.9375 C36.2675 356.5975 36.5975 357.2575 36.9375 357.9375 C28.36374429 357.09655665 19.87975159 355.72408136 11.375 354.375 C9.87437819 354.13848631 8.37372737 353.90215668 6.87304688 353.66601562 C3.22752751 353.09196565 -0.41759267 352.51542494 -4.0625 351.9375 C-4.35745361 352.54940186 -4.65240723 353.16130371 -4.95629883 353.79174805 C-8.74451339 361.13993119 -15.14222702 367.26758683 -21.0625 372.9375 C-22.2071875 374.113125 -22.2071875 374.113125 -23.375 375.3125 C-40.12866268 391.67654261 -59.40673264 403.18478139 -80.0625 413.9375 C-78.85071372 421.81739185 -76.38251529 428.78989332 -73.3125 436.125 C-72.83369385 437.28628418 -72.3548877 438.44756836 -71.86157227 439.64404297 C-67.81252654 449.36563049 -63.47898944 458.95068148 -59.10171509 468.52789307 C-51.27591458 485.66565203 -44.12753144 503.09353907 -38.0625 520.9375 C-37.44246094 520.74414062 -36.82242187 520.55078125 -36.18359375 520.3515625 C-5.9990929 511.47635264 23.47912709 516.69048517 51 530.9375 C62.53032342 537.62148436 72.77370811 546.29140328 81.9375 555.9375 C82.51757812 556.53433594 83.09765625 557.13117187 83.6953125 557.74609375 C89.74254841 564.20833604 94.42930806 571.36661257 98.9375 578.9375 C99.4639209 579.81535156 99.4639209 579.81535156 100.00097656 580.7109375 C117.24673179 609.91353338 122.48347507 644.4779177 114.46606445 677.42553711 C110.67527824 691.93261446 104.34515344 706.19317238 94.9375 717.9375 C94.22722656 718.84757813 93.51695312 719.75765625 92.78515625 720.6953125 C76.9267688 740.59284478 57.04046589 753.23388863 32.9375 760.9375 C34.7565103 762.7565103 37.6251001 762.43664082 40.0859375 762.69921875 C41.38917969 762.84560791 42.69242188 762.99199707 44.03515625 763.14282227 C44.7327002 763.22090118 45.43024414 763.2989801 46.14892578 763.37942505 C57.88288316 764.71127953 69.40638545 766.40675103 80.9375 769 C82.03239746 769.24516357 83.12729492 769.49032715 84.25537109 769.74291992 C90.01474536 771.09013934 95.45476387 772.71672827 100.9375 774.9375 C97.86511225 775.87335092 95.46717804 775.95622317 92.28344727 775.60791016 C90.9053463 775.46248276 90.9053463 775.46248276 89.49940491 775.31411743 C88.51089035 775.2027243 87.52237579 775.09133118 86.50390625 774.9765625 C85.47498764 774.866539 84.44606903 774.7565155 83.38597107 774.64315796 C80.0898942 774.28954665 76.79495106 773.92643937 73.5 773.5625 C65.31415584 772.67177142 57.12730244 771.7911264 48.9375 770.9375 C47.72513672 770.81101074 46.51277344 770.68452148 45.26367188 770.55419922 C35.92419222 769.70722175 26.55931847 769.7863141 17.18945312 769.80712891 C14.31114467 769.81250253 11.43299132 769.80714701 8.5546875 769.80078125 C-4.7819805 769.7940442 -4.7819805 769.7940442 -18.0625 770.9375 C-18.0625 772.9175 -18.0625 774.8975 -18.0625 776.9375 C-17.49161148 776.93305878 -16.92072296 776.92861755 -16.33253479 776.92404175 C32.19569416 776.5638942 32.19569416 776.5638942 47.5 777.8125 C48.48863037 777.89097168 49.47726074 777.96944336 50.49584961 778.05029297 C52.65329051 778.25873557 54.79932652 778.58223425 56.9375 778.9375 C57.2675 779.5975 57.5975 780.2575 57.9375 780.9375 C56.92888916 780.95731934 55.92027832 780.97713867 54.88110352 780.99755859 C36.72087068 781.36457283 18.57249088 781.82087939 0.4375 782.875 C-0.2527829 782.9125238 -0.9430658 782.95004761 -1.65426636 782.9887085 C-11.56129418 783.4058912 -11.56129418 783.4058912 -21.0625 785.9375 C-21.3925 786.5975 -21.7225 787.2575 -22.0625 787.9375 C-20.3913916 787.92178955 -20.3913916 787.92178955 -18.68652344 787.90576172 C5.31207836 787.7008476 29.16615982 788.00146253 53.11181641 789.67529297 C55.7241298 789.85433729 58.33254553 790.01700153 60.94677734 790.15673828 C62.20570801 790.23005371 63.46463867 790.30336914 64.76171875 790.37890625 C66.43947388 790.46893921 66.43947388 790.46893921 68.15112305 790.56079102 C70.9375 790.9375 70.9375 790.9375 73.9375 792.9375 C73.20533768 792.94780746 72.47317535 792.95811493 71.71882629 792.96873474 C54.94432515 793.20590999 38.17019848 793.45940437 21.39633179 793.7379303 C14.04531006 793.8593541 6.69439541 793.96901134 -0.65718079 794.05204773 C-4.10938719 794.09406821 -7.56120005 794.15097301 -11.01309204 794.21340942 C-12.53543834 794.23763458 -14.05790966 794.25504529 -15.58041382 794.26535034 C-17.64290353 794.28014814 -19.70360127 794.31853565 -21.765625 794.36328125 C-23.43093262 794.38515503 -23.43093262 794.38515503 -25.12988281 794.4074707 C-28.70884641 795.05431802 -30.43363458 796.48626886 -33.0625 798.9375 C-32.14887695 799.00743164 -31.23525391 799.07736328 -30.29394531 799.14941406 C-10.08310645 800.72198621 9.9055719 802.7602561 29.9375 805.9375 C29.9375 806.2675 29.9375 806.5975 29.9375 806.9375 C16.28149994 807.04658689 2.64843339 806.99235432 -11 806.5 C-15.80899435 806.33707994 -20.6181262 806.17872153 -25.42736816 806.02331543 C-27.31566347 805.9618214 -29.20392487 805.89928234 -31.09216309 805.83605957 C-38.00888946 805.60597651 -44.9257948 805.40152517 -51.84402466 805.22213745 C-54.18138704 805.1578364 -56.51855403 805.08594467 -58.85543823 805.00613403 C-62.17033334 804.89414614 -65.48495652 804.80946136 -68.80078125 804.73046875 C-69.78823334 804.69112213 -70.77568542 804.65177551 -71.7930603 804.61123657 C-78.73957812 804.48483086 -83.79630768 806.04819342 -90.0625 808.9375 C-111.64489204 816.2600973 -145.91435872 814.16061293 -166.70532227 805.40307617 C-171.07615197 803.76242402 -174.9275345 803.53174799 -179.55859375 803.609375 C-180.35040543 803.61124817 -181.1422171 803.61312134 -181.95802307 803.61505127 C-183.62790157 803.62173575 -185.29776538 803.63557781 -186.9675293 803.65625 C-189.46223351 803.68703397 -191.95629745 803.69719952 -194.45117188 803.703125 C-210.20030527 803.77734068 -224.95555774 804.10020718 -240.0625 808.9375 C-250.72001353 811.82425957 -261.5747497 812.11825905 -272.5625 812.125 C-273.61308594 812.13724609 -274.66367187 812.14949219 -275.74609375 812.16210938 C-286.09076742 812.18128986 -299.47453884 811.55625437 -307.76513672 804.48535156 C-313.37081311 799.70809326 -317.5669131 799.10752801 -324.8125 799.1875 C-326.76181105 799.15636551 -328.71104519 799.11994651 -330.66015625 799.078125 C-331.58973145 799.06201172 -332.51930664 799.04589844 -333.47705078 799.02929688 C-339.46767063 798.81659876 -345.37352885 797.83382372 -351.0625 795.9375 C-353.7940956 795.85242921 -356.49941443 795.82158435 -359.23046875 795.83984375 C-360.02528152 795.8412587 -360.8200943 795.84267365 -361.63899231 795.84413147 C-364.17603325 795.84972622 -366.71298575 795.86227772 -369.25 795.875 C-370.97070185 795.88001568 -372.69140508 795.88457847 -374.41210938 795.88867188 C-378.6289403 795.89969393 -382.84570516 795.91695494 -387.0625 795.9375 C-384.83560135 793.71060135 -384.13801844 793.57546155 -381.140625 793.0859375 C-379.97273438 792.89257812 -379.97273438 792.89257812 -378.78125 792.6953125 C-377.9665625 792.56898438 -377.151875 792.44265625 -376.3125 792.3125 C-375.51328125 792.1784375 -374.7140625 792.044375 -373.890625 791.90625 C-369.56887029 791.20965138 -365.45583326 790.78160753 -361.0625 790.9375 C-361.3925 790.2775 -361.7225 789.6175 -362.0625 788.9375 C-371.44801656 788.75483824 -380.76592511 789.33375407 -390.125 789.9375 C-399.11152532 790.51583593 -408.05103528 791.08039736 -417.0625 790.9375 C-414.12081756 787.99581756 -410.58205243 787.77177099 -406.625 787 C-405.33384277 786.74331543 -405.33384277 786.74331543 -404.01660156 786.48144531 C-392.13471698 784.2387135 -380.0877654 783.11666068 -368.0625 781.9375 C-368.7225 780.2875 -369.3825 778.6375 -370.0625 776.9375 C-375.3969693 776.91252589 -380.73140354 776.89451202 -386.06591797 776.88256836 C-387.87549432 776.87758197 -389.68506674 776.87079046 -391.49462891 776.86206055 C-401.39916213 776.81552183 -411.20413264 776.8215771 -421.0625 777.9375 C-421.0625 777.2775 -421.0625 776.6175 -421.0625 775.9375 C-410.95742289 773.16493706 -400.91432645 771.37920007 -390.5 770.1875 C-388.84218506 769.99643677 -388.84218506 769.99643677 -387.15087891 769.80151367 C-381.41873792 769.18079997 -375.82732684 768.79774662 -370.0625 768.9375 C-370.145 767.803125 -370.2275 766.66875 -370.3125 765.5 C-370.28391818 757.39705416 -365.67073743 749.59170659 -360.0625 743.9375 C-355.05120554 740.19376826 -349.93065604 737.12346771 -344.0625 734.9375 C-346.08162681 731.38222689 -348.35544656 728.16721484 -350.83129883 724.92797852 C-370.03238759 699.68008328 -379.52511626 668.98243816 -375.73291016 637.17285156 C-373.071104 618.85469716 -367.80574608 598.79884305 -355.81640625 584.203125 C-353.12581102 579.19346439 -353.55772134 574.34819724 -353.5625 568.75 C-352.81659022 528.94111923 -340.71232075 493.49226556 -325.32951355 457.30271912 C-323.07005892 451.97748954 -320.87046832 446.63202891 -318.75 441.25 C-318.46632568 440.54447998 -318.18265137 439.83895996 -317.89038086 439.11206055 C-316.59216535 435.7767359 -316.0625 433.58504425 -316.0625 429.9375 C-317.12460693 429.41953857 -318.18671387 428.90157715 -319.28100586 428.36791992 C-323.31405869 426.39749466 -327.33991808 424.41271762 -331.36401367 422.42407227 C-333.08904442 421.57393902 -334.81587034 420.72743639 -336.54467773 419.88500977 C-356.66045819 410.07600474 -375.58652497 398.57919484 -391.5625 382.75 C-392.13830811 382.17983154 -392.71411621 381.60966309 -393.30737305 381.0222168 C-397.01535983 377.24993281 -400.08475418 373.3096753 -403.0625 368.9375 C-405.58371432 369.56099358 -408.10446931 370.18625361 -410.625 370.8125 C-411.68170898 371.07353516 -411.68170898 371.07353516 -412.75976562 371.33984375 C-417.22274998 372.45044815 -421.64737052 373.64951216 -426.0625 374.9375 C-425.0625 371.9375 -425.0625 371.9375 -422.296875 370.40234375 C-420.57210937 369.64630859 -420.57210937 369.64630859 -418.8125 368.875 C-417.10320312 368.11509766 -417.10320312 368.11509766 -415.359375 367.33984375 C-412.60648298 366.16888612 -409.84676492 365.03131836 -407.0625 363.9375 C-408.1878203 361.11612278 -409.3219277 358.2986864 -410.46484375 355.484375 C-410.97667905 354.21879713 -411.48839361 352.95317042 -412 351.6875 C-412.40520874 350.69278687 -412.40520874 350.69278687 -412.81860352 349.67797852 C-414.2559995 346.10907617 -415.48691997 342.59173735 -416.5 338.875 C-417.78773091 334.82243507 -419.88726619 332.92441796 -423.24609375 330.4140625 C-425.18286968 328.8396511 -426.45854128 327.18965581 -427.9375 325.1875 C-431.4447726 321.02089679 -434.81967053 320.57870936 -440.0625 319.9375 C-441.13371094 319.75574219 -442.20492187 319.57398438 -443.30859375 319.38671875 C-458.17492702 317.03434955 -473.11734068 317.57219996 -488.0625 318.9375 C-480.29723255 313.76065503 -469.6136461 314.65356619 -460.625 314.75 C-458.91860352 314.7509668 -458.91860352 314.7509668 -457.17773438 314.75195312 C-449.76283155 314.79002165 -442.44084999 315.20880513 -435.0625 315.9375 C-435.495625 315.03386719 -435.92875 314.13023437 -436.375 313.19921875 C-437.2103125 311.42998047 -437.2103125 311.42998047 -438.0625 309.625 C-438.619375 308.45324219 -439.17625 307.28148437 -439.75 306.07421875 C-441.0625 302.9375 -441.0625 302.9375 -441.0625 299.9375 C-435.40855369 299.59134002 -432.03243194 300.50324762 -427.0625 302.9375 C-427.42601562 302.47601563 -427.78953125 302.01453125 -428.1640625 301.5390625 C-434.54449214 293.26086405 -439.5763959 284.81201496 -443.0625 274.9375 C-443.495625 273.720625 -443.92875 272.50375 -444.375 271.25 C-445.17237345 267.40810974 -445.10113632 264.72110374 -444.0625 260.9375 C-442.22265625 259.65625 -442.22265625 259.65625 -440.0625 258.9375 C-434.02009888 261.24459861 -428.95043973 264.98411508 -423.80688477 268.85083008 C-420.24955012 271.43842779 -417.44134328 272.54958445 -413.0625 272.9375 C-407.52556721 264.63210081 -412.22739514 249.18906458 -414.0625 239.9375 C-416.97609024 226.71329457 -421.78105979 214.27654801 -426.80908203 201.7355957 C-447.67802516 149.47105432 -457.28417045 86.9771543 -436.23828125 32.81640625 C-433.7203796 27.51855889 -429.10718883 24.58418534 -424.0625 21.9375 C-411.10768192 17.61922731 -397.35177635 22.91799536 -385.0625 26.9375 C-384.31564941 27.17774902 -383.56879883 27.41799805 -382.79931641 27.66552734 C-364.94249768 33.4672484 -347.63680568 41.13906895 -331.0625 49.9375 C-329.9075 50.54980469 -328.7525 51.16210938 -327.5625 51.79296875 C-313.94458434 59.29829727 -301.23235506 68.16937812 -290.05883789 79.01245117 C-289.4889917 79.5407251 -288.91914551 80.06899902 -288.33203125 80.61328125 C-287.84323486 81.08677002 -287.35443848 81.56025879 -286.85083008 82.0480957 C-282.70364658 84.11064717 -277.27274641 81.48753054 -273.09765625 80.1953125 C-271.41518799 79.68133911 -271.41518799 79.68133911 -269.69873047 79.15698242 C-267.92973389 78.61521362 -267.92973389 78.61521362 -266.125 78.0625 C-256.47426109 75.1711004 -247.04038491 72.42821986 -237.0625 70.9375 C-236.23298828 70.80504883 -235.40347656 70.67259766 -234.54882812 70.53613281 C-203.77278637 65.73075085 -171.00459453 65.61902824 -141.0625 74.9375 C-140.84078125 74.40125 -140.6190625 73.865 -140.390625 73.3125 C-120.15324041 37.12329462 -62.06326056 9.9155651 -25.0625 -4.0625 C-15.77865569 -6.34201534 -7.94707533 -5.35211196 0 0 Z M-35.8125 12.8125 C-36.71025146 13.28880859 -37.60800293 13.76511719 -38.53295898 14.25585938 C-54.48472183 22.83263975 -69.69439161 32.54941547 -84.6875 42.6875 C-85.55050217 43.26939087 -85.55050217 43.26939087 -86.43093872 43.86303711 C-97.76932431 51.5278061 -108.73778032 59.57620174 -118.80859375 68.87109375 C-120.8088006 70.70490558 -122.85593238 72.44787367 -124.9375 74.1875 C-133.11718958 81.32191485 -140.42188397 89.70678679 -146.85546875 98.42578125 C-147.45294922 99.17408203 -147.45294922 99.17408203 -148.0625 99.9375 C-148.3925 99.9375 -148.7225 99.9375 -149.0625 99.9375 C-148.76214844 99.11765625 -148.46179688 98.2978125 -148.15234375 97.453125 C-147.77207031 96.37546875 -147.39179688 95.2978125 -147 94.1875 C-146.61714844 93.12015625 -146.23429687 92.0528125 -145.83984375 90.953125 C-145.05276554 87.89973617 -145.18442051 86.83707712 -146.0625 83.9375 C-149.20699224 83.28502353 -152.35330756 82.64177425 -155.5 82 C-156.37849609 81.81759766 -157.25699219 81.63519531 -158.16210938 81.44726562 C-159.47211914 81.18139648 -159.47211914 81.18139648 -160.80859375 80.91015625 C-161.99473267 80.66664429 -161.99473267 80.66664429 -163.20483398 80.41821289 C-170.07874879 79.26189181 -176.88310492 78.77511646 -183.84765625 78.734375 C-184.65782196 78.72731537 -185.46798767 78.72025574 -186.30270386 78.71298218 C-220.13645481 78.4854163 -251.42538754 82.19215553 -283.0625 94.9375 C-280.7525 99.2275 -278.4425 103.5175 -276.0625 107.9375 C-279.99951711 104.64139266 -283.80618646 101.25290146 -287.54370117 97.73095703 C-319.40709884 67.81258483 -374.1196446 32.81719576 -418.5625 29.3125 C-422.45090205 30.00685751 -423.55946363 31.03815621 -425.93847656 34.09521484 C-427.942471 37.37978089 -428.54198099 40.80747797 -429.1875 44.5625 C-429.34508789 45.4294751 -429.50267578 46.2964502 -429.66503906 47.18969727 C-430.16929053 50.10085814 -430.62457443 53.01564177 -431.0625 55.9375 C-431.21493164 56.95150879 -431.36736328 57.96551758 -431.52441406 59.01025391 C-438.32820498 106.64413782 -432.86198148 150.99790541 -414.796875 195.55078125 C-392.25123068 251.31124751 -392.25123068 251.31124751 -401.14453125 274.06640625 C-403.26573819 278.39005784 -405.60789088 281.13330348 -410.0625 282.9375 C-415.06499676 283.41741432 -420.19362211 283.23586744 -425.0625 281.9375 C-422.69012083 291.95421206 -414.3246942 300.98590881 -407.0625 307.9375 C-406.4025 307.9375 -405.7425 307.9375 -405.0625 307.9375 C-404.0725 311.4025 -404.0725 311.4025 -403.0625 314.9375 C-404.0625 315.9375 -404.0625 315.9375 -407 316.1875 C-411.92611873 316.14644901 -416.43736812 314.50092486 -421.0625 312.9375 C-419.76383604 316.94171387 -418.64199521 318.73206908 -415.0625 320.9375 C-412.39527192 321.87380819 -409.77371643 322.7215076 -407.0625 323.5 C-402.87144773 324.72618649 -398.99198757 325.97275622 -395.0625 327.9375 C-401.0025 326.6175 -406.9425 325.2975 -413.0625 323.9375 C-406.5204659 332.96712524 -406.5204659 332.96712524 -397.03125 337.23388672 C-393.34244998 337.11393841 -389.73003504 336.7868924 -386.0625 336.375 C-383.58335568 336.14429099 -381.10418894 335.91382273 -378.625 335.68359375 C-377.3673584 335.55807129 -376.1097168 335.43254883 -374.81396484 335.30322266 C-361.7262171 334.02732482 -348.71822487 333.72186378 -335.57666016 333.69726562 C-332.46359304 333.68758117 -329.351194 333.65645846 -326.23828125 333.625 C-312.97131506 333.5562606 -300.10598072 334.40288245 -287.0625 336.9375 C-286.7325 337.2675 -286.4025 337.5975 -286.0625 337.9375 C-287.21621094 337.77668945 -288.36992187 337.61587891 -289.55859375 337.45019531 C-293.74769528 336.92942907 -297.90610014 336.76066042 -302.125 336.734375 C-302.8934726 336.72749664 -303.66194519 336.72061829 -304.45370483 336.71353149 C-306.99001778 336.69621544 -309.52613063 336.69004507 -312.0625 336.6875 C-312.94222473 336.68582825 -313.82194946 336.68415649 -314.72833252 336.68243408 C-330.00019742 336.68072517 -345.19889766 337.33629574 -360.4375 338.3125 C-361.43249512 338.37562378 -362.42749023 338.43874756 -363.45263672 338.50378418 C-376.36001787 339.33760399 -389.21049266 340.48294331 -402.0625 341.9375 C-401.59427442 343.3836682 -401.12247681 344.82868021 -400.64916992 346.27319336 C-400.25564583 347.48041298 -400.25564583 347.48041298 -399.85417175 348.71202087 C-398.96778936 351.20374235 -397.85019088 353.30714869 -396.375 355.5 C-395.93800781 356.16128906 -395.50101563 356.82257813 -395.05078125 357.50390625 C-394.56158203 358.21353516 -394.56158203 358.21353516 -394.0625 358.9375 C-387.68478443 358.2576874 -381.76589889 356.49216457 -375.625 354.6875 C-356.04585777 349.08976096 -336.30012504 345.20043089 -316.0625 342.9375 C-315.19705566 342.83888672 -314.33161133 342.74027344 -313.43994141 342.63867188 C-306.30309925 341.90086712 -299.23306734 341.83490047 -292.0625 341.9375 C-292.9604126 342.05230713 -293.8583252 342.16711426 -294.78344727 342.28540039 C-327.03359406 346.47662955 -357.95258206 353.48609977 -389.0625 362.9375 C-386.21893869 375.964544 -368.24314485 386.01335428 -357.80908203 392.81689453 C-338.58463806 405.15128058 -317.07400137 413.10211798 -295.0625 418.9375 C-294.24426758 419.15744629 -293.42603516 419.37739258 -292.58300781 419.60400391 C-266.90030576 426.40647629 -241.18226868 429.15240781 -214.6875 429.125 C-213.21401093 429.12459213 -213.21401093 429.12459213 -211.71075439 429.12417603 C-197.74082342 429.10635032 -183.9160963 428.90865298 -170.0625 426.9375 C-169.33240723 426.84098145 -168.60231445 426.74446289 -167.85009766 426.64501953 C-120.37774235 420.24460678 -73.63923656 402.22669044 -37.0625 370.9375 C-36.20785156 370.21820313 -35.35320312 369.49890625 -34.47265625 368.7578125 C-28.30483731 363.41680442 -22.78600783 357.61202194 -18.0625 350.9375 C-18.0625 350.2775 -18.0625 349.6175 -18.0625 348.9375 C-44.52376245 345.56573198 -70.75293425 342.96180492 -97.4375 342.25 C-98.34009552 342.2249942 -99.24269104 342.1999884 -100.17263794 342.17422485 C-102.74779641 342.10545643 -105.32299139 342.04514412 -107.8984375 341.98828125 C-109.06854118 341.95728333 -109.06854118 341.95728333 -110.26228333 341.92565918 C-113.48711188 341.86420942 -115.97689061 341.90896354 -119.0625 342.9375 C-119.0625 342.2775 -119.0625 341.6175 -119.0625 340.9375 C-109.23575017 340.11011451 -99.48745233 339.73547611 -89.625 339.75 C-88.91962097 339.75027191 -88.21424194 339.75054382 -87.48748779 339.75082397 C-62.88281567 339.79377546 -38.47328751 341.94352606 -14.0625 344.9375 C-12.86258401 343.3425992 -11.67788682 341.73623853 -10.5 340.125 C-9.83871094 339.23167969 -9.17742187 338.33835937 -8.49609375 337.41796875 C-8.02300781 336.59941406 -7.54992187 335.78085937 -7.0625 334.9375 C-7.3925 333.9475 -7.7225 332.9575 -8.0625 331.9375 C-10.3725 332.2675 -12.6825 332.5975 -15.0625 332.9375 C-14.7325 331.6175 -14.4025 330.2975 -14.0625 328.9375 C-38.12846146 328.70309128 -61.96907506 329.70242862 -85.9375 331.8125 C-87.33947632 331.93413513 -87.33947632 331.93413513 -88.76977539 332.05822754 C-102.5973836 333.26995021 -116.3257022 334.94774854 -130.0625 336.9375 C-118.79602412 333.68022756 -107.67321451 331.53779114 -96.0625 329.9375 C-95.1849707 329.80988281 -94.30744141 329.68226563 -93.40332031 329.55078125 C-79.43399989 327.5388007 -65.45966415 326.4835658 -51.375 325.75 C-50.10780121 325.68232422 -50.10780121 325.68232422 -48.81500244 325.61328125 C-39.82718014 325.14352165 -30.95703469 324.88128901 -21.95825195 325.26049805 C-13.99871586 325.74870009 -13.99871586 325.74870009 -6.75 322.94140625 C-4.47571702 320.71912669 -2.70819467 318.64805592 -1.0625 315.9375 C-4.83621512 314.6017543 -7.92081347 315.21341329 -11.8125 315.875 C-12.98296875 316.06964844 -14.1534375 316.26429688 -15.359375 316.46484375 C-16.25140625 316.62082031 -17.1434375 316.77679688 -18.0625 316.9375 C-17.16325806 316.68226563 -17.16325806 316.68226563 -16.24584961 316.421875 C-13.48822436 315.62174606 -10.74492361 314.78012771 -8 313.9375 C-7.05705078 313.67066406 -6.11410156 313.40382813 -5.14257812 313.12890625 C4.07948609 310.23696974 8.59305748 304.73105467 13.4375 296.5625 C13.9428125 295.72976563 14.448125 294.89703125 14.96875 294.0390625 C15.44828125 292.99878906 15.44828125 292.99878906 15.9375 291.9375 C15.6075 291.2775 15.2775 290.6175 14.9375 289.9375 C14.1125 290.411875 13.2875 290.88625 12.4375 291.375 C8.40954099 293.17319599 5.30576421 293.5609255 0.9375 293.9375 C3.21360838 289.57495894 5.71595646 285.90510314 8.875 282.125 C12.75928158 277.39851905 15.46854251 272.51639434 17.9375 266.9375 C14.95702005 267.35338092 12.29240768 267.79189685 9.5 268.9375 C6.34602826 270.16831824 3.28485888 270.49901556 -0.0625 270.9375 C0.69956055 269.4133789 1.46165021 267.88927236 2.22387695 266.36523438 C2.86876585 265.0751298 3.51313047 263.78476302 4.15698242 262.49414062 C5.50052799 259.80228634 6.8471708 257.11321637 8.22265625 254.4375 C11.03608532 248.96040614 13.30497074 244.18450261 12.9375 237.9375 C11.761875 238.4325 10.58625 238.9275 9.375 239.4375 C5.38860928 240.90691033 2.2189981 241.49250901 -2.0625 240.9375 C-6.98788564 238.38008822 -9.88518751 235.54353406 -11.62109375 230.2265625 C-16.01873464 207.42109734 -6.13797187 183.23307798 0.875 162.0859375 C4.53411354 150.98238707 7.56459518 139.98683617 9.51171875 128.44726562 C9.80864367 126.69704305 10.13098204 124.95102405 10.47265625 123.20898438 C12.37246564 112.69896741 12.33265258 102.206981 12.3125 91.5625 C12.31262085 90.58527985 12.3127417 89.60805969 12.31286621 88.60122681 C12.28708251 73.97812128 11.55095559 60.16905355 7.9375 45.9375 C7.62075663 44.5602718 7.3055798 43.18268211 6.9921875 41.8046875 C2.4376357 21.17207241 2.4376357 21.17207241 -8.9609375 4.7109375 C-17.41656204 1.5990162 -28.47572822 8.90185882 -35.8125 12.8125 Z M-102.3125 419.5 C-120.27367601 426.89892555 -139.00806481 431.40131843 -158.0625 434.9375 C-159.24714844 435.16179687 -160.43179688 435.38609375 -161.65234375 435.6171875 C-164.7847826 436.15229532 -167.90594079 436.56887687 -171.0625 436.9375 C-171.79500977 437.02628418 -172.52751953 437.11506836 -173.28222656 437.20654297 C-212.38810322 441.78046503 -253.8416957 440.02631714 -291.82177734 429.42456055 C-292.58699707 429.21613525 -293.3522168 429.00770996 -294.140625 428.79296875 C-294.80481445 428.60371826 -295.46900391 428.41446777 -296.15332031 428.21948242 C-298.50598032 427.87199875 -299.87724749 427.97629712 -302.0625 428.9375 C-303.21003087 430.81446852 -303.21003087 430.81446852 -303.89453125 433.23828125 C-304.21043213 434.17752441 -304.52633301 435.11676758 -304.85180664 436.08447266 C-305.18946045 437.12909668 -305.52711426 438.1737207 -305.875 439.25 C-309.39376911 449.59967971 -313.36191564 459.66686311 -317.63415527 469.72668457 C-346.60229701 538.01612551 -347.50607265 595.38142147 -320.36038208 664.1237793 C-316.39661681 674.1866066 -312.80695438 684.32766052 -309.5 694.625 C-309.29408234 695.26272339 -309.08816467 695.90044678 -308.87600708 696.55749512 C-295.88318797 736.95918484 -295.88318797 736.95918484 -301.1953125 748.37109375 C-302.71277246 750.66317332 -304.34664154 752.79073591 -306.0625 754.9375 C-307.16215476 756.50954166 -308.24589642 758.09284883 -309.3125 759.6875 C-310.03179687 760.73164062 -310.03179687 760.73164062 -310.765625 761.796875 C-314.84556578 768.53123508 -314.99549387 775.22979386 -314.0625 782.9375 C-311.60679885 789.93111279 -307.30077551 794.10804277 -301.11328125 797.9765625 C-298.98719824 799.14965065 -298.98719824 799.14965065 -296.0625 798.9375 C-296.16949219 798.21046875 -296.27648437 797.4834375 -296.38671875 796.734375 C-297.42671539 788.01182255 -297.06707888 779.44436832 -292.0625 771.9375 C-292.11470703 773.62166016 -292.11470703 773.62166016 -292.16796875 775.33984375 C-292.66743828 789.66305741 -292.66743828 789.66305741 -286.0625 801.9375 C-283.55526509 802.48798313 -283.55526509 802.48798313 -280.73828125 802.328125 C-279.71025391 802.31523438 -278.68222656 802.30234375 -277.62304688 802.2890625 C-276.55119141 802.25554687 -275.47933594 802.22203125 -274.375 802.1875 C-273.29154297 802.16945313 -272.20808594 802.15140625 -271.09179688 802.1328125 C-268.41447854 802.08563508 -265.73893091 802.01982249 -263.0625 801.9375 C-263.27543701 801.22609863 -263.48837402 800.51469727 -263.70776367 799.78173828 C-266.84428228 788.895149 -267.08672485 778.90031508 -264.0625 767.9375 C-263.4025 767.9375 -262.7425 767.9375 -262.0625 767.9375 C-262.26875 768.824375 -262.475 769.71125 -262.6875 770.625 C-264.00371624 780.06742086 -261.03212654 790.42451183 -257.0625 798.9375 C-255.29019232 801.17040023 -255.29019232 801.17040023 -252.99609375 800.984375 C-250.34471646 800.66903122 -247.70332014 800.33249446 -245.0625 799.9375 C-244.21945312 799.81246094 -243.37640625 799.68742187 -242.5078125 799.55859375 C-238.02891992 798.82530367 -238.02891992 798.82530367 -234.33203125 796.3515625 C-232.55994444 792.98187128 -232.62577974 789.83850239 -232.6875 786.125 C-232.67589844 785.43857422 -232.66429687 784.75214844 -232.65234375 784.04492188 C-232.68099649 778.99726437 -233.82878648 775.4581107 -236.0625 770.9375 C-229.48956889 776.83522435 -227.70714993 785.39588846 -227.0625 793.9375 C-223.72619794 793.01074943 -222.17820728 792.06973689 -219.875 789.4375 C-214.57552841 779.20403761 -215.38813916 768.01951247 -218.5715332 757.18334961 C-221.81032375 747.05906984 -226.36726887 737.49512028 -230.80374146 727.85742188 C-249.17725427 687.87379925 -261.52895145 639.0831542 -245.93359375 595.8046875 C-245.64613281 595.18851563 -245.35867188 594.57234375 -245.0625 593.9375 C-245.12743652 594.52088135 -245.19237305 595.1042627 -245.25927734 595.70532227 C-250.37759092 643.875181 -240.97295045 685.42208207 -220.33398438 728.96411133 C-214.49905988 741.29857332 -208.90598932 753.56197693 -207.63671875 767.3046875 C-207.44722656 768.50351562 -207.25773438 769.70234375 -207.0625 770.9375 C-200.20375398 775.50999735 -190.98913318 774.03644549 -183.0625 773.9375 C-182.95143921 773.02931519 -182.95143921 773.02931519 -182.83813477 772.1027832 C-181.18801726 759.19474206 -178.72361546 746.94611212 -174.6875 734.5625 C-159.35169494 687.39356756 -155.13768031 631.71195908 -171.0625 583.9375 C-163.73970277 597.22422486 -159.86359694 611.06878416 -157.0625 625.9375 C-156.86785156 626.94296875 -156.67320312 627.9484375 -156.47265625 628.984375 C-150.01917872 664.59626559 -154.8202994 699.32911176 -165.31005859 733.46923828 C-174.17758212 761.01365933 -174.17758212 761.01365933 -170.42578125 788.8515625 C-168.70045552 791.49145918 -166.59085004 793.08421523 -164.0625 794.9375 C-164.02382813 793.68646484 -164.02382813 793.68646484 -163.984375 792.41015625 C-163.62644472 785.30849413 -162.98268706 779.03228139 -159.0625 772.9375 C-158.4025 772.6075 -157.7425 772.2775 -157.0625 771.9375 C-157.22234375 772.43507813 -157.3821875 772.93265625 -157.546875 773.4453125 C-158.2606164 776.89506261 -158.28675719 780.30504261 -158.3125 783.8125 C-158.3434375 784.85470703 -158.3434375 784.85470703 -158.375 785.91796875 C-158.41100819 790.69805544 -157.56034034 793.87547808 -155.0625 797.9375 C-151.14300607 801.85699393 -144.33819897 800.99319265 -139.0625 801 C-137.39577851 800.98414803 -135.72906881 800.96507191 -134.0625 800.9375 C-129.43624035 791.47469617 -128.75154549 781.32758074 -128.0625 770.9375 C-123.6928462 781.36427553 -124.89408039 791.18068329 -127.0625 801.9375 C-123.47944008 802.05377503 -119.89686583 802.1247736 -116.3125 802.1875 C-114.78882813 802.23777344 -114.78882813 802.23777344 -113.234375 802.2890625 C-107.51953153 802.47878678 -107.51953153 802.47878678 -102.46875 800.19140625 C-97.22847002 791.79240195 -97.71823604 782.50038779 -98.0625 772.9375 C-93.65241213 782.01361834 -92.92585141 790.05550025 -95.0625 799.9375 C-87.19974973 797.63109325 -80.78389623 795.01959434 -76.0625 787.9375 C-72.89852453 781.13495273 -73.21952871 773.81574002 -75.375 766.75 C-77.36624269 761.59319201 -80.4309593 757.72926884 -83.8125 753.4375 C-87.7642611 748.30462059 -90.40435013 744.71991797 -89.625 737.98828125 C-89.439375 736.98152344 -89.25375 735.97476562 -89.0625 734.9375 C-88.8975 733.71417969 -88.7325 732.49085938 -88.5625 731.23046875 C-87.85194838 726.11151159 -86.94962617 721.02826456 -86.0625 715.9375 C-85.6796237 713.68751086 -85.29681562 711.4375101 -84.9140625 709.1875 C-81.15558285 687.34433281 -76.99720765 665.57561224 -72.84570312 643.80444336 C-72.61143616 642.57587616 -72.37716919 641.34730896 -72.13580322 640.08151245 C-71.69541609 637.77364372 -71.25449696 635.4658764 -70.81292725 633.15823364 C-69.52663846 626.42433454 -68.27650541 619.68481041 -67.0625 612.9375 C-65.96579227 645.88114603 -70.96465684 678.07095313 -76.41992188 710.47265625 C-76.59388489 711.51486832 -76.7678479 712.55708038 -76.94708252 713.63087463 C-77.2744196 715.58533287 -77.60672878 717.53896767 -77.94500732 719.49156189 C-78.76521525 724.38503759 -79.23718133 728.97561737 -79.0625 733.9375 C-77.79277344 733.89109375 -76.52304687 733.8446875 -75.21484375 733.796875 C-56.86005285 733.32770864 -42.10559388 736.37262653 -28.0625 748.9375 C-17.44947357 744.89098079 -8.87636464 726.70559926 -4.0625 716.9375 C-1.34351661 710.73901318 0.85104464 704.37151013 2.9375 697.9375 C3.27523438 696.94363281 3.61296875 695.94976563 3.9609375 694.92578125 C12.23670628 668.17292475 8.36675194 638.35831687 -4.16796875 613.6796875 C-11.09731776 600.66194495 -19.77760031 589.2358574 -29.50439453 578.20654297 C-39.23796945 567.11873154 -42.96506955 556.84191858 -46.1875 542.5625 C-51.65417849 519.29241746 -60.13333706 497.63894476 -70.0625 475.9375 C-72.29940469 471.04515134 -74.53217416 466.15103099 -76.75 461.25 C-77.02570831 460.64075684 -77.30141663 460.03151367 -77.58547974 459.40380859 C-83.78575415 445.65542378 -89.62374103 431.65809873 -93.0625 416.9375 C-96.74714306 416.9375 -98.91965275 418.04320572 -102.3125 419.5 Z " fill="#000000" transform="translate(551.0625,68.0625)"/>
<path d="M0 0 C-2.97 -2.64 -5.94 -5.28 -9 -8 C-4.83853629 -10.08073186 0.7693976 -7.27478417 5 -6 C20.0055986 -0.9059085 32.94801 6.72102156 45 17 C45.64066406 17.50789062 46.28132812 18.01578125 46.94140625 18.5390625 C48.33416238 19.64421934 49.67499085 20.8144655 51 22 C51 22.66 51 23.32 51 24 C51.66 24 52.32 24 53 24 C54.48022421 25.61048394 55.88467453 27.29102118 57.25 29 C58.04792969 29.99644531 58.84585938 30.99289062 59.66796875 32.01953125 C62.50071641 35.63994409 65.28799324 39.2882731 68 43 C67.505 43.99 67.505 43.99 67 45 C66.45472656 44.60167969 65.90945313 44.20335937 65.34765625 43.79296875 C58.62630754 39.07079042 52.12684027 36.31078069 44 35 C46.38343175 37.6343193 48.93913421 39.22042687 52 41 C68.2583811 51.21525268 81.02596585 69.0416637 85.41992188 87.73046875 C86.40117556 93.26117131 86.44541909 98.70858071 86.375 104.3125 C86.35759766 106.09406494 86.35759766 106.09406494 86.33984375 107.91162109 C85.96308942 128.15939614 79.99904791 145.30723304 67 161 C66.30132813 161.84949219 65.60265625 162.69898438 64.8828125 163.57421875 C57.64614838 171.98265589 49.10817471 178.72547965 40 185 C40.33 185.33 40.66 185.66 41 186 C42.69752187 185.74754803 44.38471545 185.42354225 46.0625 185.0625 C46.98160156 184.86785156 47.90070313 184.67320312 48.84765625 184.47265625 C49.55792969 184.31667969 50.26820313 184.16070313 51 184 C41.1282187 194.44809998 28.29466796 200.95623046 15 206 C14.30036133 206.26796387 13.60072266 206.53592773 12.87988281 206.81201172 C-4.55292202 213.36216083 -22.4143235 216.5128263 -41 217 C-39.824375 215.4221875 -39.824375 215.4221875 -38.625 213.8125 C-38.07457031 213.07 -37.52414062 212.3275 -36.95703125 211.5625 C-35.59737983 209.78219793 -34.19531494 208.03381619 -32.76171875 206.3125 C-17.52582183 187.65034875 -8.95809573 165.57772134 -5 142 C-4.82525146 141.07880371 -4.65050293 140.15760742 -4.47045898 139.20849609 C-3.98439762 135.89359292 -3.90600062 132.77823921 -3.9296875 129.4296875 C-3.919375 128.20378906 -3.9090625 126.97789062 -3.8984375 125.71484375 C-3.88276503 123.14717136 -3.89072194 120.57924998 -3.921875 118.01171875 C-3.78673546 108.85118843 -3.78673546 108.85118843 -1.49804688 106.375 C0.3515625 105.3671875 0.3515625 105.3671875 4 104 C10.5372906 97.57076379 13.12831688 90.31870521 13.4375 81.3125 C13.03210681 65.50216564 6.01684375 53.04612188 -5.26953125 42.2890625 C-15.03595248 34.10147618 -26.26311696 29.52407218 -38.875 28.25 C-43.36652874 27.63214617 -45.7615122 27.03103543 -48.625 23.4375 C-53.81789442 14.79304103 -56.23458367 4.03296332 -56 -6 C-54.60550891 -6.483059 -53.20933293 -6.96125517 -51.8125 -7.4375 C-51.03519531 -7.70433594 -50.25789062 -7.97117187 -49.45703125 -8.24609375 C-31.95723869 -13.61566444 -15.70361773 -7.82572312 0 0 Z " fill="#FEFEFE" transform="translate(572,608)"/>
<path d="M0 0 C13.91042879 11.26718032 19.66650233 29.29501323 22.59765625 46.3359375 C23.03425336 53.46274328 23.03425336 53.46274328 21.59765625 56.3359375 C20.29828125 56.6453125 20.29828125 56.6453125 18.97265625 56.9609375 C14.82621195 58.65022962 13.17226015 60.86965646 10.359375 64.25 C3.06826245 72.88293593 -7.57867342 78.39607361 -18.75 80.15234375 C-33.24025429 81.15535104 -46.28139868 77.80655683 -57.40234375 68.3359375 C-66.36168564 60.00642632 -70.6576626 50.34038544 -72.40234375 38.3359375 C-72.7890625 39.19058594 -73.17578125 40.04523438 -73.57421875 40.92578125 C-74.095 42.03050781 -74.61578125 43.13523437 -75.15234375 44.2734375 C-75.91804687 45.92666016 -75.91804687 45.92666016 -76.69921875 47.61328125 C-78.40234375 50.3359375 -78.40234375 50.3359375 -80.54296875 51.27734375 C-81.1565625 51.29667969 -81.77015625 51.31601562 -82.40234375 51.3359375 C-83.40234375 50.3359375 -83.40234375 50.3359375 -83.5625 46.75390625 C-83.33108725 30.25013673 -75.56510334 15.43754696 -64.1484375 3.9296875 C-45.47939201 -13.70366414 -20.4961934 -14.19736323 0 0 Z " fill="#000000" transform="translate(284.40234375,313.6640625)"/>
<path d="M0 0 C9.64839325 8.23643327 19.67943466 20.08227273 21.1875 33.125 C21.249375 34.40375 21.31125 35.6825 21.375 37 C18.66568581 36.84518205 16.90915961 36.51827919 14.9296875 34.59765625 C13.69820358 33.10228292 12.5320163 31.5537076 11.375 30 C9.5877643 31.7872357 9.86272176 34.57577946 9.5625 37 C7.75932598 49.05625838 2.06915861 59.62703748 -7.421875 67.43359375 C-18.79099702 75.51695887 -31.04617951 77.23300483 -44.625 76 C-56.13534255 73.89690678 -66.62174314 68.21559502 -75.16015625 60.26171875 C-76.74270943 58.79447619 -76.74270943 58.79447619 -79.5 57.5625 C-81.625 56 -81.625 56 -82.26953125 52.90234375 C-83.99847639 33.92194596 -79.51996145 16.82918162 -67.8203125 1.66015625 C-49.91218077 -18.36159617 -19.76524755 -15.05923623 0 0 Z " fill="#000000" transform="translate(461.625,307)"/>
<path d="M0 0 C0.66 0 1.32 0 2 0 C13.51400592 27.9625858 12.38871496 66.2131426 1.06738281 94.31494141 C-2.14457507 101.61813458 -5.25694971 107.25694971 -11 113 C-16.61 111.35 -22.22 109.7 -28 108 C-27.01 107.01 -26.02 106.02 -25 105 C-24.34 105 -23.68 105 -23 105 C-23.33 104.01 -23.66 103.02 -24 102 C-25.28777344 101.87882812 -26.57554687 101.75765625 -27.90234375 101.6328125 C-29.58077848 101.46403135 -31.25916135 101.29473387 -32.9375 101.125 C-33.78763672 101.04636719 -34.63777344 100.96773438 -35.51367188 100.88671875 C-36.72700195 100.76103516 -36.72700195 100.76103516 -37.96484375 100.6328125 C-38.7137085 100.55949707 -39.46257324 100.48618164 -40.23413086 100.41064453 C-40.81686768 100.27513184 -41.39960449 100.13961914 -42 100 C-42.495 99.01 -42.495 99.01 -43 98 C-39.535 97.01 -39.535 97.01 -36 96 C-39.96 95.67 -43.92 95.34 -48 95 C-48 94.34 -48 93.68 -48 93 C-40.91890012 87.87145471 -33.52059814 84.76114725 -25 83 C-30.96877167 80.01561416 -39.89757197 82.01316297 -46 84 C-48.76253741 85.20832187 -51.3482636 86.55359833 -54 88 C-52.47987323 82.59510481 -48.72614782 79.01507372 -45 75 C-48.47510754 75.53738776 -50.81462032 76.25759065 -53.625 78.375 C-54.19476563 78.79523438 -54.76453125 79.21546875 -55.3515625 79.6484375 C-57.01179338 81.00966946 -58.51004257 82.4558623 -60 84 C-57.9685195 57.59075356 -38.45648964 37.10603344 -21 19 C-20.17371094 18.13246094 -19.34742188 17.26492187 -18.49609375 16.37109375 C-13.04290305 10.76181888 -7.10327944 5.88262355 -1 1 C-0.67 0.67 -0.34 0.34 0 0 Z " fill="#FFFFFF" transform="translate(529,100)"/>
<path d="M0 0 C0.66 0.33 1.32 0.66 2 1 C2.3776054 2.74777358 2.74006566 4.49984778 3.03662109 6.26318359 C4.68394487 15.96854915 7.54569428 25.12637681 10.875 34.375 C11.22395325 35.34539215 11.22395325 35.34539215 11.57995605 36.33538818 C14.47607129 44.35065844 17.49319143 52.31857183 20.55078125 60.2734375 C42.48377715 117.3701604 42.48377715 117.3701604 42 134 C23.82941453 133.90804108 23.82941453 133.90804108 17.953125 129.9453125 C15.63389153 127.09282461 13.8309675 124.18723971 12 121 C11.19286738 119.8474279 10.3719354 118.70442372 9.5390625 117.5703125 C-3.362019 99.77730792 -11.60153108 78.08656307 -12 56 C-12.03867188 54.9584375 -12.07734375 53.916875 -12.1171875 52.84375 C-12.52143777 34.33807096 -8.36922692 16.48915772 0 0 Z " fill="#FFFFFF" transform="translate(199,669)"/>
<path d="M0 0 C13.32376595 23.66963952 11.57993223 56.19541197 5.1875 81.6875 C1.15907309 95.73534769 -4.38509651 113.29098555 -18 121 C-27.86018318 123.8370346 -43.36155177 117.63007737 -52 113 C-52.78375 112.60425781 -53.5675 112.20851563 -54.375 111.80078125 C-63.28520989 106.94193242 -72.06415261 99.53490771 -76 90 C-78.7871013 75.56231306 -70.36629047 59.8300426 -63 48 C-60.54392743 44.45179053 -57.84981199 41.23614213 -55 38 C-54.07005099 36.88128219 -53.14317999 35.76000139 -52.21875 34.63671875 C-40.15630304 20.08572711 -24.72058484 4.71953427 -7.03515625 -2.83984375 C-3.83125988 -3.09197379 -2.46551469 -1.99683059 0 0 Z M-11.625 8.0625 C-14.67016868 10.86405518 -17.7203856 13.63505417 -20.875 16.3125 C-30.13082077 24.40900584 -38.52696038 33.23364663 -46 43 C-46.40460449 43.52287598 -46.80920898 44.04575195 -47.22607422 44.58447266 C-56.42615073 56.56473376 -67.44021412 72.28985854 -67 88 C-66.55269531 87.60167969 -66.10539062 87.20335937 -65.64453125 86.79296875 C-56.75182482 79 -56.75182482 79 -52 79 C-52.56589844 79.60328125 -53.13179688 80.2065625 -53.71484375 80.828125 C-54.44832031 81.62734375 -55.18179687 82.4265625 -55.9375 83.25 C-57.03384766 84.43335938 -57.03384766 84.43335938 -58.15234375 85.640625 C-59.91420543 87.89044414 -60.59776603 89.21628554 -61 92 C-60.27554687 91.65066406 -59.55109375 91.30132812 -58.8046875 90.94140625 C-49.79766011 86.70209869 -42.8771488 85.84182502 -33 86 C-34.84492975 87.84492975 -37.65222556 88.37554911 -40.0625 89.25 C-45.54853578 91.33445192 -50.24947338 93.55353951 -55 97 C-55 97.66 -55 98.32 -55 99 C-51.04 99.33 -47.08 99.66 -43 100 C-46.465 100.99 -46.465 100.99 -50 102 C-49.505 102.99 -49.505 102.99 -49 104 C-47.16471137 104.46727852 -47.16471137 104.46727852 -44.96484375 104.6328125 C-43.75151367 104.75849609 -43.75151367 104.75849609 -42.51367188 104.88671875 C-41.66353516 104.96535156 -40.81339844 105.04398437 -39.9375 105.125 C-38.65649414 105.25455078 -38.65649414 105.25455078 -37.34960938 105.38671875 C-35.23389367 105.59947228 -33.11703476 105.80079953 -31 106 C-30.67 106.99 -30.34 107.98 -30 109 C-32.475 109.99 -32.475 109.99 -35 111 C-31.57452501 113.28364999 -28.24343863 114.13400707 -24.3125 115.125 C-23.61060547 115.30675781 -22.90871094 115.48851562 -22.18554688 115.67578125 C-20.45833732 116.12227079 -18.72933544 116.5618166 -17 117 C2.3045949 91.35326153 4.85808453 56.91633423 0.99536133 25.89233398 C-0.06548954 18.55620437 -1.67146622 10.65706757 -5 4 C-8.12808842 4 -9.37434701 5.97559421 -11.625 8.0625 Z " fill="#000000" transform="translate(536,96)"/>
<path d="M0 0 C7.2757738 0.41933176 12.67929559 2.22643272 19.1875 5.4375 C20.10442627 5.88343506 21.02135254 6.32937012 21.96606445 6.78881836 C33.21376955 12.40823219 42.71591289 19.46965433 51.90234375 28.05859375 C54.09761416 30.14680866 54.09761416 30.14680866 57.0625 32.375 C69.8977029 43.84475578 80.75844895 60.60333053 82.8359375 77.875 C83.39735044 88.56857985 78.73876944 96.9934019 72.21875 105.2578125 C62.42455423 115.84052403 48.36361318 122.91595372 34 124 C33.9175 123.38125 33.835 122.7625 33.75 122.125 C33.2274574 119.85420822 33.2274574 119.85420822 31.22265625 119.12890625 C21.69817492 114.29134016 16.43908245 102.61981105 13 93 C13.495 92.01 13.495 92.01 14 91 C14.34256836 91.51908936 14.68513672 92.03817871 15.03808594 92.57299805 C16.60624432 94.94614792 18.17808688 97.31683567 19.75 99.6875 C20.28882813 100.50412109 20.82765625 101.32074219 21.3828125 102.16210938 C27.06871519 111.1632033 27.06871519 111.1632033 35 118 C40.0201606 116.78899635 44.38130924 114.33956296 48.875 111.875 C49.56335938 111.50246094 50.25171875 111.12992187 50.9609375 110.74609375 C52.64294798 109.83500474 54.32180436 108.91809685 56 108 C55.38511719 108.02320313 54.77023438 108.04640625 54.13671875 108.0703125 C53.32847656 108.08835937 52.52023438 108.10640625 51.6875 108.125 C50.48673828 108.15980469 50.48673828 108.15980469 49.26171875 108.1953125 C47 108 47 108 44 106 C44 105.34 44 104.68 44 104 C45.72850345 103.20688633 47.45783354 102.4155741 49.1875 101.625 C50.15042969 101.18414062 51.11335938 100.74328125 52.10546875 100.2890625 C53.06066406 99.86367187 54.01585937 99.43828125 55 99 C55.86238281 98.61585938 56.72476563 98.23171875 57.61328125 97.8359375 C60 97 60 97 64 97 C64 96.34 64 95.68 64 95 C59.71 95 55.42 95 51 95 C53.83328987 92.16671013 55.35446828 91.2808625 59 90 C52.16217825 87.5579208 45.20568193 87.37977242 38 87 C40.55981155 83.87134144 43.12123445 82.97315045 47 82 C50.69140625 81.76953125 50.69140625 81.76953125 54.5625 81.8125 C55.84253906 81.81894531 57.12257812 81.82539063 58.44140625 81.83203125 C61.42937609 81.97306605 64.10047953 82.3043377 67 83 C63.04850342 79.54244049 59.0588453 76.69025303 54.5390625 74.015625 C54.03117187 73.68046875 53.52328125 73.3453125 53 73 C53 72.67 53 72.34 53 72 C59.45512034 71.43868519 64.15439723 73.36536213 70 76 C64.98843824 60.61274255 56.0733415 49.45191728 45 38 C44.19820312 37.14664063 43.39640625 36.29328125 42.5703125 35.4140625 C32.35486786 24.79669872 20.52696003 16.43229469 8.22094727 8.41479492 C7.44162842 7.89763916 6.66230957 7.3804834 5.859375 6.84765625 C5.16295898 6.39398682 4.46654297 5.94031738 3.74902344 5.47290039 C1.78970867 3.82290793 0.97690632 2.34576958 0 0 Z " fill="#000000" transform="translate(132,118)"/>
<path d="M0 0 C3.27691274 2.62153019 4.3944329 4.18562525 4.9375 8.375 C4.5 12 4.5 12 2.625 14.6875 C-0.85104084 17.25977022 -4.11337311 18.56398475 -8.1953125 19.91015625 C-10.97589677 21.22504271 -12.01357881 22.31684354 -13.5 25 C-14.56901335 31.20220359 -13.86163652 36.89147652 -10.7109375 42.34375 C-8.1777439 45.80850511 -5.5278689 47.65737703 -1.5 49 C8.63974774 50.09862276 14.69789093 46.38350437 22.8359375 40.85546875 C23.38507813 40.57316406 23.93421875 40.29085937 24.5 40 C25.16 40.33 25.82 40.66 26.5 41 C25.26082044 47.35079523 21.55650139 50.39942229 16.5 54 C10.12203473 57.96877036 3.93818235 59.06889435 -3.5 58 C-9.68723566 56.16875162 -14.54050408 52.02361045 -18.5 47 C-18.5 46.34 -18.5 45.68 -18.5 45 C-19.16 45 -19.82 45 -20.5 45 C-20.726875 45.721875 -20.95375 46.44375 -21.1875 47.1875 C-23.68037682 52.52937889 -28.4590642 56.57144294 -33.76171875 59.0625 C-40.17006898 61.25651434 -48.22612403 60.95568713 -54.4765625 58.265625 C-58.96641542 55.45730001 -62.72739025 51.68757141 -66.5 48 C-66.17 47.01 -65.84 46.02 -65.5 45 C-61.30085293 45.33151161 -58.41665899 46.52761598 -54.8125 48.5625 C-49.3238737 51.41857251 -44.59642759 51.88326195 -38.5 51 C-33.58699287 49.21345195 -29.8887919 46.85218833 -27.5546875 42.05859375 C-25.44846156 36.60327882 -24.74953317 31.65874184 -26.5 26 C-29.84556284 21.03561643 -33.70392779 20.26256993 -39.18359375 18.80078125 C-42.54552814 17.6385611 -43.89468982 16.13765172 -45.5 13 C-45.98738651 9.65792106 -45.71878459 7.59801122 -44.5625 4.4375 C-34.1900578 -7.82084079 -12.87563316 -8.08614643 0 0 Z " fill="#000000" transform="translate(362.5,382)"/>
<path d="M0 0 C0 3.87624922 -1.47244427 6.4560707 -3 10 C-5.48348485 18.80508265 -3.91902358 27.52891781 0.125 35.5625 C3.91001265 41.98925169 9.45211913 47.28856114 16.671875 49.5625 C27.40550592 51.57955816 35.15964141 49.66453873 44.1875 44 C50.46749216 38.24626417 53.23428383 30.01614102 53.875 21.75 C53.9424624 19.83406784 53.99381578 17.91710954 54 16 C57.42945852 19.03459549 59.02007182 21.81765917 60.6875 26.0625 C61.10386719 27.10535156 61.52023437 28.14820313 61.94921875 29.22265625 C63.68886066 33.82074324 64.55889351 37.04980032 64 42 C58.01885833 54.51017419 47.37815892 61.82059602 35 67 C25.76962552 70.08890484 14.77486126 68.55104609 6.07421875 64.73046875 C-4.4063171 58.83100575 -10.90861398 50.46736968 -14.625 39.0859375 C-16.48114285 28.76114289 -15.33360603 19.08442125 -10 10 C-7.06467518 5.97276004 -4.15202539 2.76801693 0 0 Z " fill="#FFFFFF" transform="translate(235,319)"/>
<path d="M0 0 C6.50372486 2.22984852 10.42853884 5.82089423 13.86328125 11.671875 C18.79665946 21.77597608 19.66739005 32.88014777 16.03515625 43.5234375 C11.75422911 53.76535375 5.29625459 61.61766235 -4.95703125 66.21875 C-16.61455772 70.67669511 -28.4841965 69.39310404 -39.88671875 64.58984375 C-45.05656284 61.94978535 -49.50270284 58.64318863 -54 55 C-55.5778125 53.948125 -55.5778125 53.948125 -57.1875 52.875 C-60.76318095 47.20323021 -59.91124629 40.16358061 -58.51953125 33.8046875 C-57.29724836 29.09602725 -55.86532002 24.49372549 -54 20 C-53.34 19.67 -52.68 19.34 -52 19 C-51.99742187 19.65484375 -51.99484375 20.3096875 -51.9921875 20.984375 C-51.57850378 30.74731085 -48.34763579 39.33012743 -41.0625 46.0625 C-34.21397466 51.43414869 -26.69697375 53.70136885 -18 53 C-9.51235484 50.80923613 -3.36485071 47.70331354 1.7578125 40.54296875 C6.72648587 32.09622402 7.37109429 23.54696815 6 14 C5.04245348 10.40476746 3.76478023 7.2654875 2 4 C1.33241268 2.66712739 0.66546736 1.33393231 0 0 Z " fill="#FFFFFF" transform="translate(446,308)"/>
<path d="M0 0 C27.93212992 -1.02056686 27.93212992 -1.02056686 39.25390625 8.37109375 C45.75463234 14.43552949 49.94636894 20.32781103 50.4375 29.4375 C50.27313759 34.41162565 48.58604061 38.77172922 46 43 C45.01 43.495 45.01 43.495 44 44 C44.02320313 43.19175781 44.04640625 42.38351562 44.0703125 41.55078125 C44.08835937 40.48214844 44.10640625 39.41351562 44.125 38.3125 C44.14820313 37.25675781 44.17140625 36.20101562 44.1953125 35.11328125 C43.99858729 31.97748141 43.33057654 29.82354627 42 27 C41.90203125 27.7734375 41.8040625 28.546875 41.703125 29.34375 C40.64331484 36.72587591 39.47683612 43.52316388 34 49 C31.375 49.125 31.375 49.125 29 49 C29.15597656 48.40574219 29.31195313 47.81148437 29.47265625 47.19921875 C30.99342546 40.72336047 31.55598374 34.53722028 30 28 C28.54761731 25.72445647 28.54761731 25.72445647 27 24 C27.04640625 24.82242188 27.0928125 25.64484375 27.140625 26.4921875 C27.42653711 35.3350407 26.11235379 41.63674748 21.6875 49.26171875 C20 51 20 51 17.51953125 51.390625 C16.62621094 51.34421875 15.73289062 51.2978125 14.8125 51.25 C13.91144531 51.21390625 13.01039063 51.1778125 12.08203125 51.140625 C11.39496094 51.09421875 10.70789063 51.0478125 10 51 C10.2165625 50.33355469 10.433125 49.66710937 10.65625 48.98046875 C14.56229976 36.05072069 13.51990961 25.00385079 7.25 13.02734375 C4.8317119 9.10518274 1.92641387 5.55115391 -1 2 C-0.67 1.34 -0.34 0.68 0 0 Z " fill="#FFFFFF" transform="translate(473,811)"/>
<path d="M0 0 C-0.37511719 0.4846875 -0.75023437 0.969375 -1.13671875 1.46875 C-11.18279344 14.6273365 -15.38535271 24.49997493 -13.765625 41.453125 C-13.55519974 42.97561364 -13.28758409 44.49018351 -13 46 C-18.35075856 45.36453986 -20.19027534 43.14099779 -23.48828125 39.11328125 C-27.01023443 34.18982732 -27.39433598 28.85475223 -28 23 C-30.5012521 28.0025042 -30.89309435 32.96967408 -29.32421875 38.29296875 C-28.60560593 40.21721634 -27.80913106 42.11202752 -27 44 C-35.09500452 43.8097328 -35.09500452 43.8097328 -38.375 40.875 C-41.66217355 35.05923142 -43.41442497 30.76894112 -43 24 C-43.66 24 -44.32 24 -45 24 C-45 28.62 -45 33.24 -45 38 C-49.4999918 34.44737489 -51.02303791 31.36051486 -51.91015625 25.69140625 C-52.11201415 19.64444566 -50.13554366 14.78934152 -46.9375 9.75 C-34.66840946 -3.0635768 -16.27045419 -3.56781226 0 0 Z " fill="#FFFFFF" transform="translate(242,812)"/>
<path d="M0 0 C9.6149113 0.73960856 17.64173414 7.15442179 24 14 C31.59985079 24.10367761 36.12825907 34.45782935 34.75 47.3359375 C33.75571732 51.97000497 31.78991309 55.28011589 29 59 C26.64001501 56.64001501 26.3174793 54.66989054 25.55615234 51.49169922 C21.42147724 34.36129375 13.48432438 19.14608376 3.15234375 4.95703125 C1 2 1 2 0 0 Z " fill="#FFFFFF" transform="translate(539,646)"/>
<path d="M0 0 C-10.60165174 7.35624814 -22.42909647 10.99301891 -34.7734375 14.28125 C-35.90303894 14.5834848 -37.03264038 14.8857196 -38.19647217 15.19711304 C-51.14825483 18.62327317 -64.19175452 21.63627934 -77.25 24.625 C-79.64332774 25.17665586 -82.03655713 25.72873855 -84.4296875 26.28125 C-89.07229288 27.35233301 -93.71622269 28.417354 -98.36132812 29.47753906 C-102.76516717 30.48353712 -107.16428405 31.50730823 -111.56054688 32.54589844 C-112.58339783 32.78513031 -113.60624878 33.02436218 -114.66009521 33.27084351 C-116.57955799 33.71997341 -118.49781141 34.17431418 -120.41461182 34.63467407 C-121.67842682 34.92838394 -121.67842682 34.92838394 -122.96777344 35.22802734 C-123.70235779 35.40216156 -124.43694214 35.57629578 -125.19378662 35.75570679 C-127 36 -127 36 -129 35 C-120.89536111 31.42756423 -112.8033049 28.5619403 -104.2734375 26.19140625 C-102.47270279 25.68414757 -102.47270279 25.68414757 -100.6355896 25.16664124 C-84.67224955 20.72341258 -68.56329084 16.8444782 -52.46533203 12.92456055 C-48.36304478 11.92465877 -44.26283268 10.91656254 -40.1640625 9.90234375 C-39.17915707 9.65929064 -39.17915707 9.65929064 -38.17435455 9.41132736 C-28.46824266 7.00505396 -18.92905251 4.26068678 -9.47549438 0.99705505 C-8.65648651 0.71902542 -7.83747864 0.44099579 -6.99365234 0.15454102 C-6.2889682 -0.09343735 -5.58428406 -0.34141571 -4.85824585 -0.59690857 C-3 -1 -3 -1 0 0 Z " fill="#000000" transform="translate(544,361)"/>
<path d="M0 0 C7.28353321 0.60194399 14.5047062 1.41446817 21.73828125 2.453125 C23.22541122 2.66375832 23.22541122 2.66375832 24.74258423 2.87864685 C27.93308903 3.33212191 31.12286278 3.79046458 34.3125 4.25 C35.40281525 4.40651031 36.49313049 4.56302063 37.6164856 4.72427368 C103.64237497 14.21800627 103.64237497 14.21800627 118 21 C115.43541388 22.28229306 114.47483371 21.84493966 111.69140625 21.25 C110.74160889 21.05704346 109.79181152 20.86408691 108.81323242 20.6652832 C107.74049072 20.44573975 106.66774902 20.22619629 105.5625 20 C86.00024513 16.17010304 66.20939078 13.7776245 46.4604187 11.13395691 C43.64022089 10.75640405 40.820088 10.37837212 38 10 C36.86958786 9.84865097 36.86958786 9.84865097 35.71633911 9.69424438 C28.75641225 8.75649474 21.89000652 7.71785455 15.0625 6.0625 C14.37349609 5.90587891 13.68449219 5.74925781 12.97460938 5.58789062 C8.39402141 4.50016349 4.28153353 2.95934585 0 1 C0 0.67 0 0.34 0 0 Z " fill="#000000" transform="translate(151,379)"/>
<path d="M0 0 C0.66 0.99 1.32 1.98 2 3 C1.50371094 3.30292969 1.00742187 3.60585938 0.49609375 3.91796875 C-3.59133061 6.43867637 -7.45670276 9.02392994 -11.1640625 12.08203125 C-13.96101821 13.48050911 -15.8975331 13.33933232 -19 13 C-21.58015238 11.91710949 -23.93027047 10.82188925 -26.375 9.5 C-27.01566406 9.16613281 -27.65632813 8.83226562 -28.31640625 8.48828125 C-29.88333671 7.66973549 -31.44250241 6.83635487 -33 6 C-32.67578125 3.609375 -32.67578125 3.609375 -32 1 C-22.65804388 -4.8127727 -9.70762103 -5.04049553 0 0 Z " fill="#FFFFFF" transform="translate(358,388)"/>
<path d="M0 0 C6.2905012 4.56223942 12.66255324 10.56894097 15.64453125 17.91796875 C15.14953125 19.40296875 15.14953125 19.40296875 14.64453125 20.91796875 C14.1340625 20.37269531 13.62359375 19.82742188 13.09765625 19.265625 C1.24836957 6.97514147 -13.52768611 -4.79696479 -31.30078125 -5.34765625 C-33.02734365 -5.3528962 -34.75396825 -5.34756199 -36.48046875 -5.33203125 C-37.34800781 -5.33976562 -38.21554688 -5.3475 -39.109375 -5.35546875 C-43.96440915 -5.34068935 -47.76567977 -4.82445114 -52.35546875 -3.08203125 C-54.73046875 -3.45703125 -54.73046875 -3.45703125 -56.35546875 -4.08203125 C-39.46894419 -17.68506492 -16.19718835 -10.62444942 0 0 Z " fill="#000000" transform="translate(283.35546875,270.08203125)"/>
<path d="M0 0 C5.93294564 4.67420944 10.23625712 9.86027335 14.6875 15.9375 C15.33783203 16.80568359 15.98816406 17.67386719 16.65820312 18.56835938 C20.1161518 23.23183144 23.25136535 27.88545199 26 33 C29.10018994 29.26008832 31.11773945 25.05068888 33.3125 20.75 C36.4344928 14.72513524 39.64934546 9.24309649 44 4 C44.495 4.99 44.495 4.99 45 6 C43.75711964 8.82472809 42.44840876 11.55855985 41.0625 14.3125 C36.00699313 24.62284917 31.92267501 35.21628632 28 46 C27.34 46 26.68 46 26 46 C25.70343506 45.42145264 25.40687012 44.84290527 25.10131836 44.24682617 C17.17059956 28.76489522 17.17059956 28.76489522 8 14 C6.5182932 11.81421976 5.03916864 9.62668707 3.5625 7.4375 C2.88316406 6.44621094 2.20382812 5.45492187 1.50390625 4.43359375 C0 2 0 2 0 0 Z " fill="#000000" transform="translate(322,718)"/>
<path d="M0 0 C0 0.66 0 1.32 0 2 C-1.00417969 2.02578125 -2.00835937 2.0515625 -3.04296875 2.078125 C-20.03315009 2.70065962 -34.12080671 7.2039416 -46.1484375 19.80078125 C-48.88734885 23.05396076 -51.24474264 26.52676538 -53.5546875 30.09375 C-54.03164063 30.7228125 -54.50859375 31.351875 -55 32 C-55.66 32 -56.32 32 -57 32 C-55.20710494 25.20587137 -52.49830689 20.35858217 -48 15 C-47.24460937 14.01773437 -46.48921875 13.03546875 -45.7109375 12.0234375 C-39.50551183 4.61430318 -28.77880451 0.0844622 -19.46484375 -1.74609375 C-12.87660566 -2.22888459 -6.47499308 -1.1553582 0 0 Z " fill="#000000" transform="translate(438,250)"/>
<path d="M0 0 C2.69990662 1.79993774 4.5418865 3.083773 6 6 C6.43023798 9.87214182 6.31669086 11.52496371 4.125 14.8125 C1.61855093 17.39266816 0.74538327 17.91717964 -2.8125 18.3125 C-6.85211856 17.91645896 -8.29729155 17.01158942 -11 14 C-12.14888518 10.05070721 -12.43129396 7.97041141 -10.75 4.1875 C-7.52250351 0.15312939 -5.01049933 -0.60125992 0 0 Z " fill="#FFFFFF" transform="translate(271,319)"/>
<path d="M0 0 C2.69990662 1.79993774 4.5418865 3.083773 6 6 C6.43023798 9.87214182 6.31669086 11.52496371 4.125 14.8125 C1.62980912 17.38107884 0.71830363 17.90422618 -2.8125 18.375 C-6 18 -6 18 -8.8125 15.8125 C-11.06715697 12.91365532 -12 11.6413729 -12 8 C-9.53803808 1.72199711 -6.89827534 -0.82779304 0 0 Z " fill="#FFFFFF" transform="translate(422,310)"/>
<path d="M0 0 C0.77070328 -0.00570007 1.54140656 -0.01140015 2.33546448 -0.01727295 C3.96882753 -0.02673567 5.60220978 -0.03326196 7.2355957 -0.03710938 C9.74008304 -0.0468214 12.24375215 -0.07783414 14.74804688 -0.109375 C16.33202636 -0.11590411 17.91601173 -0.12115494 19.5 -0.125 C20.62818398 -0.1435202 20.62818398 -0.1435202 21.77915955 -0.16241455 C23.89233398 -0.15332031 23.89233398 -0.15332031 27.31640625 0.203125 C27.97640625 1.193125 28.63640625 2.183125 29.31640625 3.203125 C28.51122559 3.25847412 27.70604492 3.31382324 26.87646484 3.37084961 C23.8160706 3.58131468 20.75568798 3.79194785 17.6953125 4.00268555 C15.7487065 4.13668072 13.80208781 4.27049159 11.85546875 4.40429688 C3.34146992 4.99072026 -5.1714149 5.59087438 -13.68359375 6.203125 C-8.52812414 1.04765539 -7.2113864 0.04063865 0 0 Z " fill="#FFFFFF" transform="translate(346.68359375,862.796875)"/>
<path d="M0 0 C0.7425 0.598125 1.485 1.19625 2.25 1.8125 C-0.83178976 3.35339488 -3.65065525 2.10405672 -6.875 1.375 C-19.31251384 -1.22296753 -29.48080102 0.62126895 -41.75 3.8125 C-40.75 0.8125 -40.75 0.8125 -39 -0.28515625 C-26.51420615 -5.63930743 -12.08874256 -8.06873316 0 0 Z " fill="#000000" transform="translate(363.75,364.1875)"/>
<path d="M0 0 C0 4.27761159 -1.94433779 5.8660466 -4.76171875 8.9375 C-14.38836413 17.80812611 -27.30193143 20.48738864 -40.05078125 20.10546875 C-40.69402344 20.07066406 -41.33726562 20.03585937 -42 20 C-39.33727419 17.33727419 -37.31572139 17.35150396 -33.625 16.6875 C-21.55203716 14.20878138 -8.57155011 9.27413619 0 0 Z " fill="#000000" transform="translate(651,741)"/>
<path d="M0 0 C-0.90404792 3.34497732 -1.69617615 4.77213211 -4.5 6.875 C-9.12731536 8.36235137 -13.30181438 8.27764773 -18 7 C-19.80078125 5.5703125 -19.80078125 5.5703125 -21 4 C-21 3.34 -21 2.68 -21 2 C-20.360625 2.165 -19.72125 2.33 -19.0625 2.5 C-13.78967584 3.36086925 -8.91525085 3.97800043 -4.0625 1.5 C-2 0 -2 0 0 0 Z " fill="#000000" transform="translate(354,440)"/>
</svg>
