solid OpenSCAD_Model
  facet normal 0 -1 0
    outer loop
      vertex -34.641 -60 0
      vertex 34.641 -60 2
      vertex -34.641 -60 2
    endloop
  endfacet
  facet normal 0 -1 -0
    outer loop
      vertex 34.641 -60 2
      vertex -34.641 -60 0
      vertex 34.641 -60 0
    endloop
  endfacet
  facet normal 0.866026 -0.5 0
    outer loop
      vertex 34.641 -60 2
      vertex 69.282 0 0
      vertex 69.282 0 2
    endloop
  endfacet
  facet normal 0.866026 -0.5 0
    outer loop
      vertex 69.282 0 0
      vertex 34.641 -60 2
      vertex 34.641 -60 0
    endloop
  endfacet
  facet normal 0 1 -0
    outer loop
      vertex 34.641 60 0
      vertex -34.641 60 2
      vertex 34.641 60 2
    endloop
  endfacet
  facet normal 0 1 0
    outer loop
      vertex -34.641 60 2
      vertex 34.641 60 0
      vertex -34.641 60 0
    endloop
  endfacet
  facet normal 0.866026 0.5 0
    outer loop
      vertex 69.282 0 2
      vertex 34.641 60 0
      vertex 34.641 60 2
    endloop
  endfacet
  facet normal 0.866026 0.5 0
    outer loop
      vertex 34.641 60 0
      vertex 69.282 0 2
      vertex 69.282 0 0
    endloop
  endfacet
  facet normal -0.866026 0.5 0
    outer loop
      vertex -69.282 0 0
      vertex -34.641 60 2
      vertex -34.641 60 0
    endloop
  endfacet
  facet normal -0.866026 0.5 0
    outer loop
      vertex -34.641 60 2
      vertex -69.282 0 0
      vertex -69.282 0 2
    endloop
  endfacet
  facet normal -0.866026 -0.5 0
    outer loop
      vertex -34.641 -60 0
      vertex -69.282 0 2
      vertex -69.282 0 0
    endloop
  endfacet
  facet normal -0.866026 -0.5 0
    outer loop
      vertex -69.282 0 2
      vertex -34.641 -60 0
      vertex -34.641 -60 2
    endloop
  endfacet
  facet normal -0 0 1
    outer loop
      vertex -13.8453 -2 2
      vertex -5 -5 2
      vertex -13.8453 2 2
    endloop
  endfacet
  facet normal 0 0 1
    outer loop
      vertex -5 -5 2
      vertex -13.8453 -2 2
      vertex -8.6547 -10.9904 2
    endloop
  endfacet
  facet normal -0 0 1
    outer loop
      vertex -64.1273 2 2
      vertex -13.8453 -2 2
      vertex -13.8453 2 2
    endloop
  endfacet
  facet normal 0 0 1
    outer loop
      vertex -13.8453 -2 2
      vertex -64.1273 2 2
      vertex -64.1273 -2 2
    endloop
  endfacet
  facet normal 0 0 1
    outer loop
      vertex -5 -5 2
      vertex -8.6547 -10.9904 2
      vertex -5.1906 -12.9904 2
    endloop
  endfacet
  facet normal 0 0 1
    outer loop
      vertex -8.6547 -10.9904 2
      vertex -30.3316 -56.5359 2
      vertex -5.1906 -12.9904 2
    endloop
  endfacet
  facet normal 0 -0 1
    outer loop
      vertex -30.3316 -56.5359 2
      vertex -8.6547 -10.9904 2
      vertex -33.7957 -54.5359 2
    endloop
  endfacet
  facet normal 0 0 1
    outer loop
      vertex 8.6547 -10.9904 2
      vertex 5 -5 2
      vertex 5.1906 -12.9904 2
    endloop
  endfacet
  facet normal -0 0 1
    outer loop
      vertex -5 -5 2
      vertex 5.1906 -12.9904 2
      vertex 5 -5 2
    endloop
  endfacet
  facet normal 0 0 1
    outer loop
      vertex -5 -5 2
      vertex -5.1906 -12.9904 2
      vertex 5.1906 -12.9904 2
    endloop
  endfacet
  facet normal 0 0 1
    outer loop
      vertex -13.8453 2 2
      vertex -5 5 2
      vertex -8.6547 10.9904 2
    endloop
  endfacet
  facet normal 0 0 1
    outer loop
      vertex -5 5 2
      vertex -13.8453 2 2
      vertex -5 -5 2
    endloop
  endfacet
  facet normal 0 0 1
    outer loop
      vertex -30.3316 56.5359 2
      vertex -8.6547 10.9904 2
      vertex -5.1906 12.9904 2
    endloop
  endfacet
  facet normal 0 0 1
    outer loop
      vertex -8.6547 10.9904 2
      vertex -30.3316 56.5359 2
      vertex -33.7957 54.5359 2
    endloop
  endfacet
  facet normal 0 0 1
    outer loop
      vertex 8.6547 -10.9904 2
      vertex 30.3316 -56.5359 2
      vertex 33.7957 -54.5359 2
    endloop
  endfacet
  facet normal 0 0 1
    outer loop
      vertex 8.6547 -10.9904 2
      vertex 5.1906 -12.9904 2
      vertex 30.3316 -56.5359 2
    endloop
  endfacet
  facet normal 0 0 1
    outer loop
      vertex 5 -5 2
      vertex 13.8453 -2 2
      vertex 5 5 2
    endloop
  endfacet
  facet normal 0 0 1
    outer loop
      vertex 13.8453 -2 2
      vertex 5 -5 2
      vertex 8.6547 -10.9904 2
    endloop
  endfacet
  facet normal 0 0 1
    outer loop
      vertex 5.1906 12.9904 2
      vertex -5 5 2
      vertex 5 5 2
    endloop
  endfacet
  facet normal -0 0 1
    outer loop
      vertex -8.6547 10.9904 2
      vertex -5 5 2
      vertex -5.1906 12.9904 2
    endloop
  endfacet
  facet normal -0 0 1
    outer loop
      vertex -5.1906 12.9904 2
      vertex -5 5 2
      vertex 5.1906 12.9904 2
    endloop
  endfacet
  facet normal -0 0 1
    outer loop
      vertex 13.8453 2 2
      vertex 64.1273 -2 2
      vertex 64.1273 2 2
    endloop
  endfacet
  facet normal 0 0 1
    outer loop
      vertex 13.8453 2 2
      vertex 13.8453 -2 2
      vertex 64.1273 -2 2
    endloop
  endfacet
  facet normal -0 0 1
    outer loop
      vertex 5 5 2
      vertex 13.8453 2 2
      vertex 8.6547 10.9904 2
    endloop
  endfacet
  facet normal 0 0 1
    outer loop
      vertex 13.8453 2 2
      vertex 5 5 2
      vertex 13.8453 -2 2
    endloop
  endfacet
  facet normal 0 0 1
    outer loop
      vertex 34.641 60 2
      vertex 64.1273 2 2
      vertex 69.282 0 2
    endloop
  endfacet
  facet normal 0 0 1
    outer loop
      vertex 34.641 60 2
      vertex 33.7957 54.5359 2
      vertex 64.1273 2 2
    endloop
  endfacet
  facet normal 0 0 1
    outer loop
      vertex 34.641 60 2
      vertex 30.3316 56.5359 2
      vertex 33.7957 54.5359 2
    endloop
  endfacet
  facet normal 0 0 1
    outer loop
      vertex 34.641 60 2
      vertex -30.3316 56.5359 2
      vertex 30.3316 56.5359 2
    endloop
  endfacet
  facet normal -0 0 1
    outer loop
      vertex -34.641 60 2
      vertex -30.3316 56.5359 2
      vertex 34.641 60 2
    endloop
  endfacet
  facet normal 0 0 1
    outer loop
      vertex -34.641 60 2
      vertex -33.7957 54.5359 2
      vertex -30.3316 56.5359 2
    endloop
  endfacet
  facet normal 0 0 1
    outer loop
      vertex -34.641 60 2
      vertex -64.1273 2 2
      vertex -33.7957 54.5359 2
    endloop
  endfacet
  facet normal 0 0 1
    outer loop
      vertex -64.1273 2 2
      vertex -69.282 0 2
      vertex -64.1273 -2 2
    endloop
  endfacet
  facet normal 0 0 1
    outer loop
      vertex -69.282 0 2
      vertex -64.1273 2 2
      vertex -34.641 60 2
    endloop
  endfacet
  facet normal 0 0 1
    outer loop
      vertex 64.1273 -2 2
      vertex 69.282 0 2
      vertex 64.1273 2 2
    endloop
  endfacet
  facet normal -0 0 1
    outer loop
      vertex 64.1273 -2 2
      vertex 34.641 -60 2
      vertex 69.282 0 2
    endloop
  endfacet
  facet normal -0 0 1
    outer loop
      vertex 33.7957 -54.5359 2
      vertex 34.641 -60 2
      vertex 64.1273 -2 2
    endloop
  endfacet
  facet normal -0 0 1
    outer loop
      vertex 30.3316 -56.5359 2
      vertex 34.641 -60 2
      vertex 33.7957 -54.5359 2
    endloop
  endfacet
  facet normal -0 0 1
    outer loop
      vertex -30.3316 -56.5359 2
      vertex 34.641 -60 2
      vertex 30.3316 -56.5359 2
    endloop
  endfacet
  facet normal 0 0 1
    outer loop
      vertex -30.3316 -56.5359 2
      vertex -34.641 -60 2
      vertex 34.641 -60 2
    endloop
  endfacet
  facet normal 0 0 1
    outer loop
      vertex -33.7957 -54.5359 2
      vertex -34.641 -60 2
      vertex -30.3316 -56.5359 2
    endloop
  endfacet
  facet normal 0 0 1
    outer loop
      vertex -64.1273 -2 2
      vertex -34.641 -60 2
      vertex -33.7957 -54.5359 2
    endloop
  endfacet
  facet normal 0 0 1
    outer loop
      vertex -34.641 -60 2
      vertex -64.1273 -2 2
      vertex -69.282 0 2
    endloop
  endfacet
  facet normal 0 0 1
    outer loop
      vertex 30.3316 56.5359 2
      vertex 8.6547 10.9904 2
      vertex 33.7957 54.5359 2
    endloop
  endfacet
  facet normal 0 0 1
    outer loop
      vertex 5 5 2
      vertex 8.6547 10.9904 2
      vertex 5.1906 12.9904 2
    endloop
  endfacet
  facet normal -0 0 1
    outer loop
      vertex 5.1906 12.9904 2
      vertex 8.6547 10.9904 2
      vertex 30.3316 56.5359 2
    endloop
  endfacet
  facet normal 0 0 -1
    outer loop
      vertex -13.8453 2 0
      vertex -5 5 0
      vertex -13.8453 -2 0
    endloop
  endfacet
  facet normal -0 0 -1
    outer loop
      vertex -5 5 0
      vertex -13.8453 2 0
      vertex -8.6547 10.9904 0
    endloop
  endfacet
  facet normal 0 0 -1
    outer loop
      vertex -64.1273 -2 0
      vertex -13.8453 2 0
      vertex -13.8453 -2 0
    endloop
  endfacet
  facet normal -0 0 -1
    outer loop
      vertex -13.8453 2 0
      vertex -64.1273 -2 0
      vertex -64.1273 2 0
    endloop
  endfacet
  facet normal 0 0 -1
    outer loop
      vertex -5 5 0
      vertex -8.6547 10.9904 0
      vertex -5.1906 12.9904 0
    endloop
  endfacet
  facet normal 0 0 -1
    outer loop
      vertex -8.6547 10.9904 0
      vertex -30.3316 56.5359 0
      vertex -5.1906 12.9904 0
    endloop
  endfacet
  facet normal 0 -0 -1
    outer loop
      vertex -30.3316 56.5359 0
      vertex -8.6547 10.9904 0
      vertex -33.7957 54.5359 0
    endloop
  endfacet
  facet normal -0 0 -1
    outer loop
      vertex 8.6547 10.9904 0
      vertex 5 5 0
      vertex 5.1906 12.9904 0
    endloop
  endfacet
  facet normal 0 0 -1
    outer loop
      vertex -5 5 0
      vertex 5.1906 12.9904 0
      vertex 5 5 0
    endloop
  endfacet
  facet normal 0 0 -1
    outer loop
      vertex -5 5 0
      vertex -5.1906 12.9904 0
      vertex 5.1906 12.9904 0
    endloop
  endfacet
  facet normal 0 0 -1
    outer loop
      vertex -13.8453 -2 0
      vertex -5 -5 0
      vertex -8.6547 -10.9904 0
    endloop
  endfacet
  facet normal 0 0 -1
    outer loop
      vertex -5 -5 0
      vertex -13.8453 -2 0
      vertex -5 5 0
    endloop
  endfacet
  facet normal 0 0 -1
    outer loop
      vertex -30.3316 -56.5359 0
      vertex -8.6547 -10.9904 0
      vertex -5.1906 -12.9904 0
    endloop
  endfacet
  facet normal 0 0 -1
    outer loop
      vertex -8.6547 -10.9904 0
      vertex -30.3316 -56.5359 0
      vertex -33.7957 -54.5359 0
    endloop
  endfacet
  facet normal 0 0 -1
    outer loop
      vertex 8.6547 10.9904 0
      vertex 30.3316 56.5359 0
      vertex 33.7957 54.5359 0
    endloop
  endfacet
  facet normal 0 0 -1
    outer loop
      vertex 8.6547 10.9904 0
      vertex 5.1906 12.9904 0
      vertex 30.3316 56.5359 0
    endloop
  endfacet
  facet normal 0 0 -1
    outer loop
      vertex 5 5 0
      vertex 13.8453 2 0
      vertex 5 -5 0
    endloop
  endfacet
  facet normal 0 0 -1
    outer loop
      vertex 13.8453 2 0
      vertex 5 5 0
      vertex 8.6547 10.9904 0
    endloop
  endfacet
  facet normal 0 0 -1
    outer loop
      vertex 5.1906 -12.9904 0
      vertex -5 -5 0
      vertex 5 -5 0
    endloop
  endfacet
  facet normal 0 0 -1
    outer loop
      vertex -8.6547 -10.9904 0
      vertex -5 -5 0
      vertex -5.1906 -12.9904 0
    endloop
  endfacet
  facet normal 0 0 -1
    outer loop
      vertex -5.1906 -12.9904 0
      vertex -5 -5 0
      vertex 5.1906 -12.9904 0
    endloop
  endfacet
  facet normal 0 0 -1
    outer loop
      vertex 13.8453 -2 0
      vertex 64.1273 2 0
      vertex 64.1273 -2 0
    endloop
  endfacet
  facet normal 0 0 -1
    outer loop
      vertex 13.8453 -2 0
      vertex 13.8453 2 0
      vertex 64.1273 2 0
    endloop
  endfacet
  facet normal 0 0 -1
    outer loop
      vertex 5 -5 0
      vertex 13.8453 -2 0
      vertex 8.6547 -10.9904 0
    endloop
  endfacet
  facet normal -0 0 -1
    outer loop
      vertex 13.8453 -2 0
      vertex 5 -5 0
      vertex 13.8453 2 0
    endloop
  endfacet
  facet normal 0 0 -1
    outer loop
      vertex 34.641 -60 0
      vertex 64.1273 -2 0
      vertex 69.282 0 0
    endloop
  endfacet
  facet normal 0 0 -1
    outer loop
      vertex 34.641 -60 0
      vertex 33.7957 -54.5359 0
      vertex 64.1273 -2 0
    endloop
  endfacet
  facet normal 0 0 -1
    outer loop
      vertex 34.641 -60 0
      vertex 30.3316 -56.5359 0
      vertex 33.7957 -54.5359 0
    endloop
  endfacet
  facet normal 0 0 -1
    outer loop
      vertex 34.641 -60 0
      vertex -30.3316 -56.5359 0
      vertex 30.3316 -56.5359 0
    endloop
  endfacet
  facet normal 0 0 -1
    outer loop
      vertex -34.641 -60 0
      vertex -30.3316 -56.5359 0
      vertex 34.641 -60 0
    endloop
  endfacet
  facet normal 0 0 -1
    outer loop
      vertex -34.641 -60 0
      vertex -33.7957 -54.5359 0
      vertex -30.3316 -56.5359 0
    endloop
  endfacet
  facet normal 0 0 -1
    outer loop
      vertex -34.641 -60 0
      vertex -64.1273 -2 0
      vertex -33.7957 -54.5359 0
    endloop
  endfacet
  facet normal 0 0 -1
    outer loop
      vertex -64.1273 -2 0
      vertex -69.282 0 0
      vertex -64.1273 2 0
    endloop
  endfacet
  facet normal 0 0 -1
    outer loop
      vertex -69.282 0 0
      vertex -64.1273 -2 0
      vertex -34.641 -60 0
    endloop
  endfacet
  facet normal 0 0 -1
    outer loop
      vertex 64.1273 2 0
      vertex 69.282 0 0
      vertex 64.1273 -2 0
    endloop
  endfacet
  facet normal 0 0 -1
    outer loop
      vertex 64.1273 2 0
      vertex 34.641 60 0
      vertex 69.282 0 0
    endloop
  endfacet
  facet normal 0 0 -1
    outer loop
      vertex 33.7957 54.5359 0
      vertex 34.641 60 0
      vertex 64.1273 2 0
    endloop
  endfacet
  facet normal 0 0 -1
    outer loop
      vertex 30.3316 56.5359 0
      vertex 34.641 60 0
      vertex 33.7957 54.5359 0
    endloop
  endfacet
  facet normal 0 0 -1
    outer loop
      vertex -30.3316 56.5359 0
      vertex 34.641 60 0
      vertex 30.3316 56.5359 0
    endloop
  endfacet
  facet normal 0 0 -1
    outer loop
      vertex -30.3316 56.5359 0
      vertex -34.641 60 0
      vertex 34.641 60 0
    endloop
  endfacet
  facet normal 0 0 -1
    outer loop
      vertex -33.7957 54.5359 0
      vertex -34.641 60 0
      vertex -30.3316 56.5359 0
    endloop
  endfacet
  facet normal 0 0 -1
    outer loop
      vertex -64.1273 2 0
      vertex -34.641 60 0
      vertex -33.7957 54.5359 0
    endloop
  endfacet
  facet normal 0 0 -1
    outer loop
      vertex -34.641 60 0
      vertex -64.1273 2 0
      vertex -69.282 0 0
    endloop
  endfacet
  facet normal 0 0 -1
    outer loop
      vertex 30.3316 -56.5359 0
      vertex 8.6547 -10.9904 0
      vertex 33.7957 -54.5359 0
    endloop
  endfacet
  facet normal 0 0 -1
    outer loop
      vertex 5 -5 0
      vertex 8.6547 -10.9904 0
      vertex 5.1906 -12.9904 0
    endloop
  endfacet
  facet normal 0 0 -1
    outer loop
      vertex 5.1906 -12.9904 0
      vertex 8.6547 -10.9904 0
      vertex 30.3316 -56.5359 0
    endloop
  endfacet
  facet normal 0 1 -0
    outer loop
      vertex 30.3316 -56.5359 0
      vertex -30.3316 -56.5359 2
      vertex 30.3316 -56.5359 2
    endloop
  endfacet
  facet normal 0 1 0
    outer loop
      vertex -30.3316 -56.5359 2
      vertex 30.3316 -56.5359 0
      vertex -30.3316 -56.5359 0
    endloop
  endfacet
  facet normal -0.866026 0.5 0
    outer loop
      vertex 33.7957 -54.5359 0
      vertex 64.1273 -2 2
      vertex 64.1273 -2 0
    endloop
  endfacet
  facet normal -0.866026 0.5 0
    outer loop
      vertex 64.1273 -2 2
      vertex 33.7957 -54.5359 0
      vertex 33.7957 -54.5359 2
    endloop
  endfacet
  facet normal 0 -1 0
    outer loop
      vertex -30.3316 56.5359 0
      vertex 30.3316 56.5359 2
      vertex -30.3316 56.5359 2
    endloop
  endfacet
  facet normal 0 -1 -0
    outer loop
      vertex 30.3316 56.5359 2
      vertex -30.3316 56.5359 0
      vertex 30.3316 56.5359 0
    endloop
  endfacet
  facet normal -0.866026 -0.5 0
    outer loop
      vertex 64.1273 2 0
      vertex 33.7957 54.5359 2
      vertex 33.7957 54.5359 0
    endloop
  endfacet
  facet normal -0.866026 -0.5 0
    outer loop
      vertex 33.7957 54.5359 2
      vertex 64.1273 2 0
      vertex 64.1273 2 2
    endloop
  endfacet
  facet normal 0.866026 -0.5 0
    outer loop
      vertex -64.1273 2 2
      vertex -33.7957 54.5359 0
      vertex -33.7957 54.5359 2
    endloop
  endfacet
  facet normal 0.866026 -0.5 0
    outer loop
      vertex -33.7957 54.5359 0
      vertex -64.1273 2 2
      vertex -64.1273 2 0
    endloop
  endfacet
  facet normal 0.866026 0.5 0
    outer loop
      vertex -33.7957 -54.5359 2
      vertex -64.1273 -2 0
      vertex -64.1273 -2 2
    endloop
  endfacet
  facet normal 0.866026 0.5 0
    outer loop
      vertex -64.1273 -2 0
      vertex -33.7957 -54.5359 2
      vertex -33.7957 -54.5359 0
    endloop
  endfacet
  facet normal -0.866025 -0.5 0
    outer loop
      vertex -8.6547 10.9904 0
      vertex -33.7957 54.5359 2
      vertex -33.7957 54.5359 0
    endloop
  endfacet
  facet normal -0.866025 -0.5 0
    outer loop
      vertex -33.7957 54.5359 2
      vertex -8.6547 10.9904 0
      vertex -8.6547 10.9904 2
    endloop
  endfacet
  facet normal -0.866025 -0.5 0
    outer loop
      vertex 30.3316 -56.5359 0
      vertex 5.1906 -12.9904 2
      vertex 5.1906 -12.9904 0
    endloop
  endfacet
  facet normal -0.866025 -0.5 0
    outer loop
      vertex 5.1906 -12.9904 2
      vertex 30.3316 -56.5359 0
      vertex 30.3316 -56.5359 2
    endloop
  endfacet
  facet normal 0.866025 0.5 0
    outer loop
      vertex -5.1906 12.9904 2
      vertex -30.3316 56.5359 0
      vertex -30.3316 56.5359 2
    endloop
  endfacet
  facet normal 0.866025 0.5 0
    outer loop
      vertex -30.3316 56.5359 0
      vertex -5.1906 12.9904 2
      vertex -5.1906 12.9904 0
    endloop
  endfacet
  facet normal 0.866025 0.5 0
    outer loop
      vertex 33.7957 -54.5359 2
      vertex 8.6547 -10.9904 0
      vertex 8.6547 -10.9904 2
    endloop
  endfacet
  facet normal 0.866025 0.5 0
    outer loop
      vertex 8.6547 -10.9904 0
      vertex 33.7957 -54.5359 2
      vertex 33.7957 -54.5359 0
    endloop
  endfacet
  facet normal 0 -1 0
    outer loop
      vertex -64.1273 -2 0
      vertex -13.8453 -2 2
      vertex -64.1273 -2 2
    endloop
  endfacet
  facet normal 0 -1 -0
    outer loop
      vertex -13.8453 -2 2
      vertex -64.1273 -2 0
      vertex -13.8453 -2 0
    endloop
  endfacet
  facet normal 0 -1 0
    outer loop
      vertex 13.8453 -2 0
      vertex 64.1273 -2 2
      vertex 13.8453 -2 2
    endloop
  endfacet
  facet normal 0 -1 -0
    outer loop
      vertex 64.1273 -2 2
      vertex 13.8453 -2 0
      vertex 64.1273 -2 0
    endloop
  endfacet
  facet normal 0 1 -0
    outer loop
      vertex -13.8453 2 0
      vertex -64.1273 2 2
      vertex -13.8453 2 2
    endloop
  endfacet
  facet normal 0 1 0
    outer loop
      vertex -64.1273 2 2
      vertex -13.8453 2 0
      vertex -64.1273 2 0
    endloop
  endfacet
  facet normal 0 1 -0
    outer loop
      vertex 64.1273 2 0
      vertex 13.8453 2 2
      vertex 64.1273 2 2
    endloop
  endfacet
  facet normal 0 1 0
    outer loop
      vertex 13.8453 2 2
      vertex 64.1273 2 0
      vertex 13.8453 2 0
    endloop
  endfacet
  facet normal 0.866025 -0.5 0
    outer loop
      vertex -30.3316 -56.5359 2
      vertex -5.1906 -12.9904 0
      vertex -5.1906 -12.9904 2
    endloop
  endfacet
  facet normal 0.866025 -0.5 0
    outer loop
      vertex -5.1906 -12.9904 0
      vertex -30.3316 -56.5359 2
      vertex -30.3316 -56.5359 0
    endloop
  endfacet
  facet normal 0.866025 -0.5 0
    outer loop
      vertex 8.6547 10.9904 2
      vertex 33.7957 54.5359 0
      vertex 33.7957 54.5359 2
    endloop
  endfacet
  facet normal 0.866025 -0.5 0
    outer loop
      vertex 33.7957 54.5359 0
      vertex 8.6547 10.9904 2
      vertex 8.6547 10.9904 0
    endloop
  endfacet
  facet normal -0.866025 0.5 0
    outer loop
      vertex -33.7957 -54.5359 0
      vertex -8.6547 -10.9904 2
      vertex -8.6547 -10.9904 0
    endloop
  endfacet
  facet normal -0.866025 0.5 0
    outer loop
      vertex -8.6547 -10.9904 2
      vertex -33.7957 -54.5359 0
      vertex -33.7957 -54.5359 2
    endloop
  endfacet
  facet normal -0.866025 0.5 0
    outer loop
      vertex 5.1906 12.9904 0
      vertex 30.3316 56.5359 2
      vertex 30.3316 56.5359 0
    endloop
  endfacet
  facet normal -0.866025 0.5 0
    outer loop
      vertex 30.3316 56.5359 2
      vertex 5.1906 12.9904 0
      vertex 5.1906 12.9904 2
    endloop
  endfacet
  facet normal 0 -1 0
    outer loop
      vertex -5.1906 -12.9904 0
      vertex 5.1906 -12.9904 2
      vertex -5.1906 -12.9904 2
    endloop
  endfacet
  facet normal 0 -1 -0
    outer loop
      vertex 5.1906 -12.9904 2
      vertex -5.1906 -12.9904 0
      vertex 5.1906 -12.9904 0
    endloop
  endfacet
  facet normal 0.866026 -0.499999 0
    outer loop
      vertex 8.6547 -10.9904 2
      vertex 13.8453 -2 0
      vertex 13.8453 -2 2
    endloop
  endfacet
  facet normal 0.866026 -0.499999 0
    outer loop
      vertex 13.8453 -2 0
      vertex 8.6547 -10.9904 2
      vertex 8.6547 -10.9904 0
    endloop
  endfacet
  facet normal 0 1 -0
    outer loop
      vertex 5.1906 12.9904 0
      vertex -5.1906 12.9904 2
      vertex 5.1906 12.9904 2
    endloop
  endfacet
  facet normal 0 1 0
    outer loop
      vertex -5.1906 12.9904 2
      vertex 5.1906 12.9904 0
      vertex -5.1906 12.9904 0
    endloop
  endfacet
  facet normal 0.866026 0.499999 0
    outer loop
      vertex 13.8453 2 2
      vertex 8.6547 10.9904 0
      vertex 8.6547 10.9904 2
    endloop
  endfacet
  facet normal 0.866026 0.499999 0
    outer loop
      vertex 8.6547 10.9904 0
      vertex 13.8453 2 2
      vertex 13.8453 2 0
    endloop
  endfacet
  facet normal -0.866026 0.499999 0
    outer loop
      vertex -13.8453 2 0
      vertex -8.6547 10.9904 2
      vertex -8.6547 10.9904 0
    endloop
  endfacet
  facet normal -0.866026 0.499999 0
    outer loop
      vertex -8.6547 10.9904 2
      vertex -13.8453 2 0
      vertex -13.8453 2 2
    endloop
  endfacet
  facet normal -0.866026 -0.499999 0
    outer loop
      vertex -8.6547 -10.9904 0
      vertex -13.8453 -2 2
      vertex -13.8453 -2 0
    endloop
  endfacet
  facet normal -0.866026 -0.499999 0
    outer loop
      vertex -13.8453 -2 2
      vertex -8.6547 -10.9904 0
      vertex -8.6547 -10.9904 2
    endloop
  endfacet
  facet normal -1 0 0
    outer loop
      vertex 5 -5 0
      vertex 5 5 2
      vertex 5 5 0
    endloop
  endfacet
  facet normal -1 -0 0
    outer loop
      vertex 5 5 2
      vertex 5 -5 0
      vertex 5 -5 2
    endloop
  endfacet
  facet normal 1 -0 0
    outer loop
      vertex -5 -5 2
      vertex -5 5 0
      vertex -5 5 2
    endloop
  endfacet
  facet normal 1 0 0
    outer loop
      vertex -5 5 0
      vertex -5 -5 2
      vertex -5 -5 0
    endloop
  endfacet
  facet normal 0 -1 0
    outer loop
      vertex -5 5 0
      vertex 5 5 2
      vertex -5 5 2
    endloop
  endfacet
  facet normal 0 -1 -0
    outer loop
      vertex 5 5 2
      vertex -5 5 0
      vertex 5 5 0
    endloop
  endfacet
  facet normal 0 1 -0
    outer loop
      vertex 5 -5 0
      vertex -5 -5 2
      vertex 5 -5 2
    endloop
  endfacet
  facet normal 0 1 0
    outer loop
      vertex -5 -5 2
      vertex 5 -5 0
      vertex -5 -5 0
    endloop
  endfacet
endsolid OpenSCAD_Model
