<svg style="height: 512px; width: 512px;" xmlns="http://www.w3.org/2000/svg" viewBox="0 0 512 512">
  <path d="M0 0h512v512H0z" fill="#000" fill-opacity="1"></path>
  <g class="" style="" transform="translate(0,0)">
    <g>
      <path
        d="M426.79998779296875 31.540000915527344C423.79998779296875 34.11000061035156 424.70001220703125 40.040000915527344 428.79998779296875 44.7400016784668C432.8999938964844 49.459999084472656 438.6000061035156 51.15999984741211 441.6000061035156 48.540000915527344C444.6000061035156 45.970001220703125 443.70001220703125 40.040000915527344 439.6000061035156 35.34000015258789C436.29998779296875 32.2599983215332 430.70001220703125 28.239999771118164 426.79998779296875 31.540000915527344Z"
        class="" fill="#fff" fill-opacity="1"></path>
      <path
        d="M378.29998779296875 40.34000015258789C369.3999938964844 40.2400016784668 360.3999938964844 41.439998626708984 351.6000061035156 43.939998626708984C328.1000061035156 50.439998626708984 306.29998779296875 67.44000244140625 298.5 95.63999938964844C331.6000061035156 66.83999633789062 364.5 42.439998626708984 409.3999938964844 66.73999786376953C417.3999938964844 71.73999786376953 424.3999938964844 78.94000244140625 430.20001220703125 87.73999786376953C427.20001220703125 85.91999816894531 422.1000061035156 87.30999755859375 418.1000061035156 91.04000091552734C413.6000061035156 95.29000091552734 412.1000061035156 101 414.79998779296875 103.9000015258789C417.5 106.80000305175781 423.3999938964844 105.69999694824219 427.8999938964844 101.4000015258789C431.20001220703125 98.33999633789062 433 94.36000061035156 432.5 91.23999786376953C443.5 109.5 449.70001220703125 133.39999389648438 449.6000061035156 157.60000610351562C449.6000061035156 168.39999389648438 448.3999938964844 179.10000610351562 446 189.1999969482422C443 187.3000030517578 437.8999938964844 188.6999969482422 433.8999938964844 192.39999389648438C429.3999938964844 196.60000610351562 427.79998779296875 202.39999389648438 430.5 205.3000030517578C432.70001220703125 207.60000610351562 437 207.3000030517578 441.1000061035156 204.6999969482422C433.79998779296875 223.5 421.70001220703125 239 404.70001220703125 247.89999389648438C300.20001220703125 300.6000061035156 155.39999389648438 302.29998779296875 23.290000915527344 279.79998779296875C33.689998626708984 294.1000061035156 34.290000915527344 308.79998779296875 21.389999389648438 323.79998779296875C48.38999938964844 328.3999938964844 76.08999633789062 331.6000061035156 104 333.5C62.9900016784668 342.70001220703125 30.59000015258789 354.1000061035156 15.989999771118164 365.79998779296875C34.189998626708984 375.8999938964844 44.790000915527344 389.5 36.290000915527344 411.5C64.69000244140625 407 107.5 391.3999938964844 155.8000030517578 376.29998779296875C157.5 379.29998779296875 162.39999389648438 380.79998779296875 167.60000610351562 379.8999938964844C173.6999969482422 378.79998779296875 178 374.79998779296875 177.39999389648438 371C177.3000030517578 370.6000061035156 177.1999969482422 370.29998779296875 177.10000610351562 369.8999938964844C210.60000610351562 360.1000061035156 246 351.29998779296875 280.6000061035156 347.29998779296875C279.70001220703125 350.3999938964844 281.1000061035156 354.6000061035156 284.1000061035156 358C288.20001220703125 362.70001220703125 293.8999938964844 364.3999938964844 296.8999938964844 361.79998779296875C300.20001220703125 355.5 296.79998779296875 349.5 292.20001220703125 346.1000061035156C338.70001220703125 342.20001220703125 383 347.6000061035156 418.6000061035156 371.29998779296875C437.79998779296875 384.20001220703125 430.8999938964844 428.20001220703125 410.70001220703125 436.3999938964844C369.79998779296875 445.3999938964844 365.3999938964844 429.70001220703125 342.29998779296875 416.20001220703125C347.29998779296875 434.5 359.1000061035156 447.29998779296875 373.1000061035156 453.29998779296875C382.29998779296875 457.20001220703125 392.20001220703125 458.3999938964844 402 457.1000061035156C401.1000061035156 458.1000061035156 400.6000061035156 459.20001220703125 400.5 460.3999938964844C400.29998779296875 464.29998779296875 405.1000061035156 467.79998779296875 411.20001220703125 468.20001220703125C417.3999938964844 468.6000061035156 422.6000061035156 465.79998779296875 422.8999938964844 461.8999938964844C423.1000061035156 458.5 419.5 455.29998779296875 414.20001220703125 454.29998779296875C415.29998779296875 453.8999938964844 416.29998779296875 453.5 417.3999938964844 453.1000061035156C464.29998779296875 437.1000061035156 480.3999938964844 354.3999938964844 424 329.29998779296875C401 319.8999938964844 369.29998779296875 314.70001220703125 333.6000061035156 312.79998779296875C363.79998779296875 304.5 392.29998779296875 293.8999938964844 418.29998779296875 280.70001220703125C470.70001220703125 255.5 472.79998779296875 184.39999389648438 473.3999938964844 156.10000610351562C473.3999938964844 139 470 122.0999984741211 463.70001220703125 106.69999694824219C467.6000061035156 107.4000015258789 470.79998779296875 106.30000305175781 472 103.9000015258789C473.70001220703125 100.4000015258789 470.79998779296875 95.33000183105469 465.3999938964844 92.44000244140625C462.20001220703125 90.72000122070312 458.70001220703125 90.08999633789062 455.8999938964844 90.73999786376953C446.5 74.54000091552734 433.79998779296875 60.7400016784668 418.79998779296875 51.439998626708984C405.1000061035156 44.63999938964844 391 40.63999938964844 378.29998779296875 40.34000015258789Z"
        class="" fill="#fff" fill-opacity="1"></path>
      <path
        d="M285.79998779296875 52.34000015258789C281.29998779296875 56.599998474121094 279.79998779296875 62.380001068115234 282.5 65.23999786376953C285.20001220703125 68.12000274658203 291.1000061035156 67 295.6000061035156 62.7400016784668C300.1000061035156 58.47999954223633 301.6000061035156 52.70000076293945 298.8999938964844 49.84000015258789C294.79998779296875 46.470001220703125 288.79998779296875 49.630001068115234 285.79998779296875 52.34000015258789Z"
        class="" fill="#fff" fill-opacity="1"></path>
      <path
        d="M368.5 78.33999633789062C362.79998779296875 80.68000030517578 359.29998779296875 85.51000213623047 360.79998779296875 89.13999938964844C362.29998779296875 92.80000305175781 368.1000061035156 93.87000274658203 373.8999938964844 91.54000091552734C374.8999938964844 91.1500015258789 375.79998779296875 90.68000030517578 376.70001220703125 90.13999938964844C374.79998779296875 94.77999877929688 375.5 99.19999694824219 378.20001220703125 100.9000015258789C381.5 103 386.8999938964844 100.30000305175781 390.1000061035156 95.04000091552734C393.29998779296875 89.72000122070312 393.20001220703125 83.7699966430664 389.79998779296875 81.73999786376953C387.70001220703125 80.47000122070312 384.70001220703125 81 381.8999938964844 83.13999938964844C382 82.29000091552734 381.8999938964844 81.4800033569336 381.6000061035156 80.73999786376953C378.5 76.12999725341797 372.79998779296875 76.66000366210938 368.5 78.33999633789062Z"
        class="" fill="#fff" fill-opacity="1"></path>
      <path
        d="M224.60000610351562 92.13999938964844C220.10000610351562 96.38999938964844 218.60000610351562 102.0999984741211 221.3000030517578 105C223.5 107.19999694824219 227.6999969482422 107 231.8000030517578 104.4000015258789C232.1999969482422 108.30000305175781 237.3000030517578 111.0999984741211 243.39999389648438 110.80000305175781C249.60000610351562 110.5 254.5 107.0999984741211 254.3000030517578 103.19999694824219C254.10000610351562 99.27999877929688 248.89999389648438 96.3499984741211 242.6999969482422 96.63999938964844C241.10000610351562 96.73999786376953 239.5 97.02999877929688 238 97.54000091552734C239.5 94.38999938964844 239.3000030517578 91.41999816894531 237.6999969482422 89.63999938964844C233.60000610351562 86.2699966430664 227.60000610351562 89.43000030517578 224.60000610351562 92.13999938964844Z"
        class="" fill="#fff" fill-opacity="1"></path>
      <path
        d="M249.8000030517578 113.4000015258789C245.3000030517578 117.69999694824219 243.8000030517578 123.4000015258789 246.5 126.30000305175781C249.1999969482422 129.10000610351562 255 128 259.5 123.80000305175781C264 119.5999984741211 265.6000061035156 113.80000305175781 262.8999938964844 110.9000015258789C258.79998779296875 107.5 252.8000030517578 110.69999694824219 249.8000030517578 113.4000015258789Z"
        class="" fill="#fff" fill-opacity="1"></path>
      <path
        d="M292.20001220703125 110.4000015258789C286.29998779296875 112.30000305175781 282.3999938964844 116.80000305175781 283.6000061035156 120.5999984741211C284.79998779296875 124.30000305175781 290.6000061035156 125.80000305175781 296.5 123.9000015258789C302.3999938964844 122 306.29998779296875 117.5 305.1000061035156 113.69999694824219C302.1000061035156 109 296.70001220703125 109 292.20001220703125 110.4000015258789Z"
        class="" fill="#fff" fill-opacity="1"></path>
      <path
        d="M427.79998779296875 125.80000305175781C423.8999938964844 125.80000305175781 420.70001220703125 130.8000030517578 420.70001220703125 137C420.70001220703125 143.1999969482422 423.8999938964844 148.3000030517578 427.79998779296875 148.3000030517578C431.70001220703125 148.3000030517578 434.8999938964844 143.3000030517578 434.8999938964844 137.10000610351562C434.8999938964844 130.89999389648438 431.70001220703125 125.80000305175781 427.79998779296875 125.80000305175781Z"
        class="" fill="#fff" fill-opacity="1"></path>
      <path
        d="M205.1999969482422 135.89999389648438C200.6999969482422 140.10000610351562 199.10000610351562 145.89999389648438 201.8000030517578 148.8000030517578C204.5 151.6999969482422 210.39999389648438 150.60000610351562 214.89999389648438 146.3000030517578C219.39999389648438 142 220.89999389648438 136.3000030517578 218.1999969482422 133.39999389648438C214.10000610351562 130 208.10000610351562 133.1999969482422 205.1999969482422 135.89999389648438Z"
        class="" fill="#fff" fill-opacity="1"></path>
      <path
        d="M321.70001220703125 136.8000030517578C311.20001220703125 136.8000030517578 300.5 140.6999969482422 292.6000061035156 148.8000030517578C284.1000061035156 157.5 279.20001220703125 170.6999969482422 280.1000061035156 186.89999389648438C294.70001220703125 164.60000610351562 319.6000061035156 139.6999969482422 339.8999938964844 163C344.1000061035156 168 346.70001220703125 175.3000030517578 345 186.5C343.20001220703125 198 332.3999938964844 209.5 312.79998779296875 219.39999389648438C260.6000061035156 242.10000610351562 196.8000030517578 243.3000030517578 134.89999389648438 235.5C138.89999389648438 232.39999389648438 142.60000610351562 224.6999969482422 139.6999969482422 221.39999389648438C137 218.5 131.10000610351562 219.60000610351562 126.5999984741211 223.89999389648438C123.5 226.8000030517578 121.69999694824219 230.60000610351562 122 233.6999969482422C85.19000244140625 228.3000030517578 49.4900016784668 220.10000610351562 17.690000534057617 211.5C31.690000534057617 230.6999969482422 22.59000015258789 242.89999389648438 16.290000915527344 255.89999389648438C113.4000015258789 269.29998779296875 238.60000610351562 289.3999938964844 324.5 247.1999969482422C340.70001220703125 239.10000610351562 351.8999938964844 222.8000030517578 358 206.8000030517578C360.8999938964844 209 366.29998779296875 207.6999969482422 370.5 203.8000030517578C375 199.5 376.5 193.8000030517578 373.79998779296875 190.89999389648438C371.3999938964844 188.39999389648438 366.6000061035156 188.89999389648438 362.29998779296875 192.10000610351562C362.5 191.10000610351562 362.70001220703125 190.1999969482422 362.79998779296875 189.3000030517578C363.3999938964844 175.3000030517578 361.20001220703125 160.89999389648438 353.70001220703125 151.39999389648438C346 142.3000030517578 334.8999938964844 137.39999389648438 323.79998779296875 136.8000030517578Z"
        class="selected" fill="#fff" fill-opacity="1"></path>
      <path
        d="M484.6000061035156 137.1999969482422C480.70001220703125 137.6999969482422 478.20001220703125 143.10000610351562 478.8999938964844 149.1999969482422C479.29998779296875 152.39999389648438 480.5 155.39999389648438 482.29998779296875 157.39999389648438C478.79998779296875 160.6999969482422 475.5 167.6999969482422 478.29998779296875 170.89999389648438C481 173.6999969482422 486.79998779296875 172.60000610351562 491.29998779296875 168.39999389648438C495.79998779296875 164.1999969482422 497.3999938964844 158.39999389648438 494.70001220703125 155.5C494.1000061035156 154.89999389648438 493.3999938964844 154.5 492.5 154.1999969482422C493.1000061035156 152.1999969482422 493.29998779296875 149.8000030517578 493 147.5C491.3999938964844 142.3000030517578 489.3999938964844 137.5 484.6000061035156 137.1999969482422Z"
        class="" fill="#fff" fill-opacity="1"></path>
      <path
        d="M408.79998779296875 154.6999969482422C404.29998779296875 158.89999389648438 402.70001220703125 164.6999969482422 405.3999938964844 167.60000610351562C408.1000061035156 170.5 414 169.39999389648438 418.5 165.10000610351562C423 160.89999389648438 424.6000061035156 155.10000610351562 421.8999938964844 152.1999969482422C417.79998779296875 148.8000030517578 411.79998779296875 152 408.79998779296875 154.6999969482422Z"
        class="" fill="#fff" fill-opacity="1"></path>
      <path
        d="M231.1999969482422 157.10000610351562C229.8000030517578 160.6999969482422 233.10000610351562 165.5 238.8000030517578 167.89999389648438C244.5 170.3000030517578 250.5 169.3000030517578 252 165.6999969482422C253.5 162.10000610351562 250.10000610351562 157.1999969482422 244.3000030517578 154.8000030517578C240.10000610351562 153.10000610351562 233.10000610351562 152.8000030517578 231.1999969482422 157.10000610351562Z"
        class="" fill="#fff" fill-opacity="1"></path>
      <path
        d="M225.5 194.5C221 198.6999969482422 219.5 204.39999389648438 222.10000610351562 207.3000030517578C224.8000030517578 210.1999969482422 230.60000610351562 209.1999969482422 235.1999969482422 204.89999389648438C239.6999969482422 200.60000610351562 241.1999969482422 194.89999389648438 238.5 192C234.39999389648438 188.60000610351562 228.39999389648438 191.8000030517578 225.5 194.5Z"
        class="" fill="#fff" fill-opacity="1"></path>
      <path
        d="M179.10000610351562 215.39999389648438C173 216.1999969482422 168.39999389648438 220 168.89999389648438 223.89999389648438C169.39999389648438 227.8000030517578 174.8000030517578 230.3000030517578 181 229.5C187.10000610351562 228.6999969482422 191.6999969482422 224.89999389648438 191.1999969482422 221C188.60000610351562 215.8000030517578 183.60000610351562 215.10000610351562 179.10000610351562 215.39999389648438Z"
        class="" fill="#fff" fill-opacity="1"></path>
      <path
        d="M471.29998779296875 225.60000610351562C466.79998779296875 229.89999389648438 465.29998779296875 235.60000610351562 468 238.5C470.70001220703125 241.39999389648438 476.6000061035156 240.3000030517578 481.1000061035156 236C485.6000061035156 231.6999969482422 487.1000061035156 226 484.3999938964844 223.10000610351562C480.29998779296875 219.6999969482422 474.29998779296875 222.89999389648438 471.29998779296875 225.60000610351562Z"
        class="" fill="#fff" fill-opacity="1"></path>
      <path
        d="M405.70001220703125 221.5C402.20001220703125 221.60000610351562 398.6000061035156 225.39999389648438 397.20001220703125 230.6999969482422C395.6000061035156 236.6999969482422 397.3999938964844 242.39999389648438 401.20001220703125 243.39999389648438C405 244.39999389648438 409.3999938964844 240.3000030517578 411 234.3000030517578C411.3999938964844 228.89999389648438 411.29998779296875 221.6999969482422 405.70001220703125 221.5Z"
        class="" fill="#fff" fill-opacity="1"></path>
      <path
        d="M451.1000061035156 276.1000061035156C446.6000061035156 280.3999938964844 445.1000061035156 286.1000061035156 447.79998779296875 289C448.8999938964844 290.20001220703125 450.6000061035156 290.79998779296875 452.6000061035156 290.6000061035156C451.6000061035156 292.3999938964844 451 294.5 450.79998779296875 296.70001220703125C450.20001220703125 302.8999938964844 452.79998779296875 308.20001220703125 456.70001220703125 308.6000061035156C460.6000061035156 309.1000061035156 464.29998779296875 304.3999938964844 465 298.20001220703125C465.6000061035156 293 463.79998779296875 288.20001220703125 460.70001220703125 286.70001220703125L460.8999938964844 286.5C465.3999938964844 282.20001220703125 466.8999938964844 276.5 464.20001220703125 273.6000061035156C460.1000061035156 270.20001220703125 454.1000061035156 273.3999938964844 451.1000061035156 276.1000061035156Z"
        class="" fill="#fff" fill-opacity="1"></path>
      <path
        d="M441.1000061035156 321.29998779296875C438.8999938964844 324.6000061035156 441.29998779296875 330 446.3999938964844 333.5C451.5 337 457.5 337.20001220703125 459.70001220703125 333.8999938964844C461.8999938964844 330.6000061035156 459.5 325.20001220703125 454.3999938964844 321.70001220703125C450.6000061035156 319.3999938964844 444 317.20001220703125 441.1000061035156 321.29998779296875Z"
        class="" fill="#fff" fill-opacity="1"></path>
      <path
        d="M369 357.20001220703125C365.5 359 364.8999938964844 364.8999938964844 367.70001220703125 370.3999938964844C370.5 376 375.70001220703125 379.1000061035156 379.20001220703125 377.29998779296875C382.70001220703125 375.5 383.20001220703125 369.5 380.3999938964844 364C377.5 359.79998779296875 373.79998779296875 355.6000061035156 369 357.20001220703125Z"
        class="" fill="#fff" fill-opacity="1"></path>
      <path
        d="M473.70001220703125 365.29998779296875C470 366.6000061035156 468.70001220703125 372.3999938964844 470.70001220703125 378.20001220703125C472.70001220703125 384.1000061035156 477.5 387.8999938964844 481.20001220703125 386.6000061035156C485 385.29998779296875 486.29998779296875 379.3999938964844 484.20001220703125 373.5C481.79998779296875 369.1000061035156 478.5 364 473.70001220703125 365.29998779296875Z"
        class="" fill="#fff" fill-opacity="1"></path>
      <path
        d="M233 369.70001220703125C227.5 372.6000061035156 224.5 377.79998779296875 226.3000030517578 381.29998779296875C228.1999969482422 384.79998779296875 234.10000610351562 385.20001220703125 239.60000610351562 382.29998779296875C245.10000610351562 379.3999938964844 248.10000610351562 374.20001220703125 246.1999969482422 370.70001220703125C242.60000610351562 366.5 237.1999969482422 367.5 233 369.70001220703125Z"
        class="" fill="#fff" fill-opacity="1"></path>
      <path
        d="M321.70001220703125 393.6000061035156C319.5 396.79998779296875 321.79998779296875 402.29998779296875 326.8999938964844 405.79998779296875C332.1000061035156 409.3999938964844 338.1000061035156 409.6000061035156 340.29998779296875 406.29998779296875C342.5 403 340.1000061035156 397.6000061035156 335 394.1000061035156C331.20001220703125 391.79998779296875 324.6000061035156 389.5 321.70001220703125 393.6000061035156Z"
        class="" fill="#fff" fill-opacity="1"></path>
      <path
        d="M140.60000610351562 391.8999938964844C134.6999969482422 391.79998779296875 129.89999389648438 394.6000061035156 129.6999969482422 398.29998779296875C129.5 402.20001220703125 134.3000030517578 405.70001220703125 140.5 406.1000061035156C146.6999969482422 406.5 151.89999389648438 403.70001220703125 152.1999969482422 399.79998779296875C150.89999389648438 394.29998779296875 144.5 391.8999938964844 140.60000610351562 391.8999938964844Z"
        class="" fill="#fff" fill-opacity="1"></path>
      <path
        d="M279 400.70001220703125C274.5 405 273 410.70001220703125 275.70001220703125 413.6000061035156C278.3999938964844 416.5 284.29998779296875 415.3999938964844 288.79998779296875 411.1000061035156C289.6000061035156 410.29998779296875 290.3999938964844 409.5 291 408.6000061035156C291.3999938964844 411.79998779296875 294.3999938964844 415.20001220703125 298.6000061035156 417.1000061035156C304.20001220703125 419.70001220703125 310.1000061035156 419 311.79998779296875 415.3999938964844C313.3999938964844 411.79998779296875 310.20001220703125 406.79998779296875 304.6000061035156 404.20001220703125C300.3999938964844 402.20001220703125 295.8999938964844 402.1000061035156 293.20001220703125 403.79998779296875C293.70001220703125 401.5 293.29998779296875 399.5 292.1000061035156 398.20001220703125C288 395 282 398 279 400.70001220703125Z"
        class="" fill="#fff" fill-opacity="1"></path>
      <path
        d="M110.5 408.5C106.80000305175781 408.70001220703125 103.5 413.29998779296875 103.0999984741211 419.20001220703125C102.5999984741211 425.3999938964844 105.5 430.70001220703125 109.4000015258789 431C113.30000305175781 431.29998779296875 116.80000305175781 426.5 117.30000305175781 420.29998779296875C116.69999694824219 414.79998779296875 115.4000015258789 409 110.5 408.5Z"
        class="" fill="#fff" fill-opacity="1"></path>
      <path
        d="M387.8999938964844 423.1000061035156C383.3999938964844 427.29998779296875 381.79998779296875 433.1000061035156 384.5 436C387.20001220703125 438.8999938964844 393.1000061035156 437.79998779296875 397.6000061035156 433.5C402.1000061035156 429.20001220703125 403.6000061035156 423.5 400.8999938964844 420.6000061035156C396.79998779296875 417.20001220703125 390.79998779296875 420.3999938964844 387.8999938964844 423.1000061035156Z"
        class="" fill="#fff" fill-opacity="1"></path>
      <path
        d="M325.8999938964844 438.29998779296875C321.3999938964844 442.6000061035156 319.8999938964844 448.29998779296875 322.6000061035156 451.20001220703125C325.29998779296875 454.1000061035156 331.20001220703125 453 335.70001220703125 448.70001220703125C340.20001220703125 444.3999938964844 341.70001220703125 438.70001220703125 339 435.79998779296875C334.8999938964844 432.3999938964844 328.8999938964844 435.6000061035156 325.8999938964844 438.29998779296875Z"
        class="" fill="#fff" fill-opacity="1"></path>
      <path
        d="M442.29998779296875 446.6000061035156C437.79998779296875 450.8999938964844 436.29998779296875 456.6000061035156 439 459.5C441.70001220703125 462.3999938964844 447.6000061035156 461.29998779296875 452.1000061035156 457C456.6000061035156 452.70001220703125 458.1000061035156 447 455.3999938964844 444.1000061035156C451.29998779296875 440.70001220703125 445.29998779296875 443.8999938964844 442.29998779296875 446.6000061035156Z"
        class="" fill="#fff" fill-opacity="1"></path>
      <path
        d="M352.29998779296875 470.20001220703125C351 473.8999938964844 354.6000061035156 478.6000061035156 360.5 480.70001220703125C366.29998779296875 482.79998779296875 372.20001220703125 481.5 373.5 477.79998779296875C374.79998779296875 474.1000061035156 371.20001220703125 469.3999938964844 365.29998779296875 467.29998779296875C361.1000061035156 465.79998779296875 353.8999938964844 466.1000061035156 352.29998779296875 470.20001220703125Z"
        class="" fill="#fff" fill-opacity="1"></path>
    </g>
  </g>
</svg>
