<svg xmlns="http://www.w3.org/2000/svg" viewBox="0 0 512 512">
  <path
    d="M 378.30078 40.339844 C 369.40079 40.239845 360.3996 41.439453 351.59961 43.939453 C 328.09961 50.439453 306.29999 67.440628 298.5 95.640625 C 331.60001 66.840622 364.5004 42.440235 409.40039 66.740234 C 417.40039 71.740234 424.3992 78.940239 430.19922 87.740234 C 427.19922 85.920235 422.09961 87.30906 418.09961 91.039062 C 413.59961 95.289062 412.1008 101.00039 414.80078 103.90039 C 417.50079 106.80039 423.40039 105.70039 427.90039 101.40039 C 431.20041 98.340386 433 94.360237 432.5 91.240234 C 443.5 109.50024 449.69962 133.3996 449.59961 157.59961 C 449.59961 168.3996 448.39999 179.09923 446 189.19922 C 443 187.29922 437.90039 188.70039 433.90039 192.40039 C 429.40039 196.6004 427.79999 202.40077 430.5 205.30078 C 432.70001 207.60078 436.9996 207.29922 441.09961 204.69922 C 433.79959 223.49922 421.69922 239.0004 404.69922 247.90039 C 300.19922 300.6004 155.39906 302.30078 23.289062 279.80078 C 33.68906 294.1008 34.290627 308.80078 21.390625 323.80078 C 48.390625 328.40079 76.089996 331.60001 104 333.5 C 62.990002 342.70001 30.590235 354.1008 15.990234 365.80078 C 34.190233 375.90079 44.789062 389.5 36.289062 411.5 C 64.689065 407 107.50078 391.40079 155.80078 376.30078 C 157.50078 379.30078 162.3996 380.80038 167.59961 379.90039 C 173.6996 378.80038 178.0004 374.79999 177.40039 371 C 177.3004 370.60001 177.1996 370.30038 177.09961 369.90039 C 210.59961 360.1004 245.9996 351.30078 280.59961 347.30078 C 279.69962 350.40079 281.09961 354.60001 284.09961 358 C 288.19962 362.70001 293.90039 364.40079 296.90039 361.80078 C 300.20041 355.50079 296.79919 349.4996 292.19922 346.09961 C 338.69922 342.19962 382.9996 347.6008 418.59961 371.30078 C 437.79959 384.20081 430.8992 428.20041 410.69922 436.40039 C 369.79919 445.40039 365.40079 429.69922 342.30078 416.19922 C 347.30078 434.49921 359.09961 447.30078 373.09961 453.30078 C 382.29959 457.20081 392.20001 458.3996 402 457.09961 C 401.10001 458.09961 400.60001 459.20041 400.5 460.40039 C 400.29999 464.30038 405.09921 467.79919 411.19922 468.19922 C 417.3992 468.59921 422.6004 465.80038 422.90039 461.90039 C 423.1004 458.5004 419.49921 455.30078 414.19922 454.30078 C 415.29919 453.90079 416.30038 453.4996 417.40039 453.09961 C 464.30038 437.09961 480.39999 354.40079 424 329.30078 C 401 319.90079 369.29959 314.70081 333.59961 312.80078 C 363.79959 304.50079 392.30078 293.8992 418.30078 280.69922 C 470.70081 255.49921 472.80038 184.3996 473.40039 156.09961 C 473.40039 138.9996 469.99921 122.09922 463.69922 106.69922 C 467.59921 107.39922 470.79999 106.30039 472 103.90039 C 473.70001 100.40039 470.80038 95.329453 465.40039 92.439453 C 462.20041 90.719452 458.70041 90.090233 455.90039 90.740234 C 446.5004 74.540237 433.80078 60.739456 418.80078 51.439453 C 405.1008 44.639454 391.00079 40.639843 378.30078 40.339844 z M 321.69922 136.80078 C 311.19922 136.80078 300.4996 140.70078 292.59961 148.80078 C 284.09961 157.50078 279.19962 170.70039 280.09961 186.90039 C 294.69962 164.6004 319.6004 139.7 339.90039 163 C 344.1004 168 346.70001 175.3 345 186.5 C 343.20001 198 332.40079 209.5004 312.80078 219.40039 C 260.6008 242.1004 196.8004 243.3 134.90039 235.5 C 138.90039 232.39999 142.59923 224.70039 139.69922 221.40039 C 136.99922 218.5004 131.09962 219.6004 126.59961 223.90039 C 123.49961 226.8004 121.7 230.59923 122 233.69922 C 85.190002 228.29922 49.489454 220.10001 17.689453 211.5 C 31.689453 230.7 22.589062 242.90039 16.289062 255.90039 C 113.39906 269.30038 238.60001 289.39922 324.5 247.19922 C 340.70001 239.09923 351.89999 222.80078 358 206.80078 C 360.89999 209.00078 366.29999 207.70078 370.5 203.80078 C 375 199.50078 376.50079 193.8004 373.80078 190.90039 C 371.40079 188.40039 366.6008 188.8996 362.30078 192.09961 C 362.50079 191.09961 362.70081 190.20078 362.80078 189.30078 C 363.40079 175.30078 361.19922 160.90039 353.69922 151.40039 C 345.99921 142.3004 334.90079 137.40077 323.80078 136.80078 L 321.69922 136.80078 z "
    fill="#fff"/>
</svg>
