<?xml version="1.0" standalone="no"?>
<!DOCTYPE svg PUBLIC "-//W3C//DTD SVG 20010904//EN" "http://www.w3.org/TR/2001/REC-SVG-20010904/DTD/svg10.dtd">
<svg xmlns="http://www.w3.org/2000/svg" version="1.0" width="993.000000pt" height="949.000000pt"
     viewBox="0 0 993.000000 949.000000" preserveAspectRatio="xMidYMid meet">
    <g transform="translate(0.000000,949.000000) scale(0.100000,-0.100000)" fill="#000000" stroke="none">
        <path d="M4086 4019 c-31 -37 -33 -49 -6 -56 18 -5 15 -11 -32 -61 -29 -31 -47 -57 -41 -59 11 -4 113 64 157 103 19 17 19 18 -2 32 -12 8 -22 21 -22 30 0 12 9 13 50 8 28 -4 50 -4 50 0 0 17 -39 33 -82 34 -40 0 -50 -4 -72 -31z"/>
    </g>
</svg>
