<?xml version="1.0" standalone="no"?>
<!DOCTYPE svg PUBLIC "-//W3C//DTD SVG 20010904//EN" "http://www.w3.org/TR/2001/REC-SVG-20010904/DTD/svg10.dtd">
<svg xmlns="http://www.w3.org/2000/svg" version="1.0" width="993.000000pt" height="949.000000pt" viewBox="0 0 993.000000 949.000000" preserveAspectRatio="xMidYMid meet">
    <g transform="translate(0.000000,949.000000) scale(0.100000,-0.100000)" fill="#000000" stroke="none">
        <path d="M5080 4791 c0 -34 -44 -86 -66 -77 -62 24 -62 23 -71 -56 -10 -92 -10 -88 2 -89 5 0 14 19 20 42 10 44 21 54 67 64 15 3 43 19 62 35 l33 30 18 -48 c28 -78 29 -79 33 -44 2 19 -1 47 -7 63 -5 16 -7 29 -3 29 3 0 30 -23 59 -52 51 -51 71 -58 59 -21 -10 32 -92 109 -140 131 -59 28 -66 28 -66 -7z"/>
</g>
</svg>
