<?xml version="1.0" standalone="no"?>
<!DOCTYPE svg PUBLIC "-//W3C//DTD SVG 20010904//EN" "http://www.w3.org/TR/2001/REC-SVG-20010904/DTD/svg10.dtd">
<svg xmlns="http://www.w3.org/2000/svg" version="1.0" width="993.000000pt" height="949.000000pt"
     viewBox="0 0 993.000000 949.000000" preserveAspectRatio="xMidYMid meet">
    <g transform="translate(0.000000,949.000000) scale(0.100000,-0.100000)" fill="#000000" stroke="none">
        <path d="M4682 4533 c-44 -49 -58 -57 -82 -55 -24 3 -32 -1 -39 -21 -11 -29 -1 -79 18 -85 9 -3 11 2 6 17 -10 31 12 53 45 46 24 -5 30 0 59 46 32 53 46 55 53 10 1 -14 9 -26 16 -29 9 -3 12 14 12 62 0 85 -15 87 -88 9z"/>
    </g>
</svg>
