<?xml version="1.0" standalone="no"?>
<!DOCTYPE svg PUBLIC "-//W3C//DTD SVG 20010904//EN" "http://www.w3.org/TR/2001/REC-SVG-20010904/DTD/svg10.dtd">
<svg xmlns="http://www.w3.org/2000/svg" version="1.0" width="993.000000pt" height="949.000000pt"
     viewBox="0 0 993.000000 949.000000" preserveAspectRatio="xMidYMid meet">
    <g transform="translate(0.000000,949.000000) scale(0.100000,-0.100000)" fill="#000000" stroke="none">
        <path d="M4500 4238 c-48 -50 -50 -51 -69 -34 -11 10 -23 31 -26 47 -13 58 -52 17 -61 -64 -5 -46 -2 -69 15 -118 21 -57 22 -62 6 -79 -9 -10 -24 -33 -33 -51 -14 -26 -30 -37 -82 -56 -48 -17 -76 -35 -107 -68 -63 -68 -121 -161 -141 -224 -22 -73 -22 -247 1 -308 16 -42 16 -43 -9 -68 -32 -32 -21 -55 11 -25 l22 21 51 -65 c103 -131 221 -192 377 -195 111 -2 183 15 266 62 73 40 125 97 188 205 l43 72 114 2 c63 1 122 2 131 2 12 1 30 -22 54 -69 20 -38 53 -89 72 -111 l36 -41 -25 -12 c-14 -6 -24 -17 -21 -24 5 -15 58 -12 68 4 8 14 56 -20 73 -52 13 -24 82 -66 92 -56 4 4 1 14 -7 24 -12 15 -12 16 3 10 9 -3 34 -9 55 -13 21 -3 52 -14 70 -24 31 -18 32 -18 49 1 17 19 19 19 31 3 12 -16 14 -16 30 -2 10 9 49 29 86 44 178 71 291 212 316 396 36 261 -134 499 -392 549 -44 9 -61 17 -67 33 -15 39 -48 59 -105 64 -58 5 -81 24 -69 56 3 9 1 16 -5 16 -7 0 -17 -14 -23 -30 l-10 -31 -87 3 -86 3 3 43 c2 23 1 42 -2 42 -4 0 -15 -20 -26 -45 -14 -32 -25 -45 -40 -45 -17 0 -20 6 -20 42 l0 41 -30 -41 c-33 -46 -53 -54 -46 -19 23 109 11 134 -18 38 -18 -59 -30 -70 -78 -71 -14 0 -18 8 -18 35 0 19 -4 35 -10 35 -5 0 -10 -14 -10 -31 0 -27 -3 -31 -22 -26 -12 3 -30 1 -41 -5 -17 -9 -25 -5 -54 26 -36 37 -62 41 -43 5 14 -25 5 -39 -26 -39 -34 0 -64 17 -96 54 -31 37 -49 28 -25 -13 9 -16 17 -32 17 -36 0 -4 -27 -5 -60 -3 -45 3 -66 10 -85 28 l-25 24 2 -25 c3 -21 -1 -24 -33 -27 -43 -4 -81 24 -109 79 -25 49 -26 63 -2 50 15 -8 25 -3 51 25 18 18 37 34 43 34 6 0 23 -11 40 -25 28 -23 48 -32 48 -20 0 10 -60 125 -65 125 -3 0 -28 -23 -55 -52z m-40 -210 c0 -10 -47 -11 -53 0 -3 4 -8 23 -12 42 l-7 35 36 -34 c20 -19 36 -39 36 -43z m502 -85 l11 -28 7 25 c6 22 8 23 15 8 4 -10 11 -18 16 -18 5 0 9 8 9 18 1 15 2 15 16 -3 14 -19 16 -19 25 -2 10 18 11 18 25 0 7 -10 14 -13 14 -6 0 11 70 15 70 3 0 -8 43 -5 58 4 7 4 17 4 23 0 6 -3 16 0 21 7 7 11 11 11 15 2 6 -15 33 -17 33 -3 0 6 8 5 20 -2 17 -11 22 -10 29 0 6 11 10 10 15 -4 6 -16 7 -16 20 1 12 17 13 17 20 -1 7 -18 8 -18 21 -1 13 18 14 18 24 0 9 -16 12 -16 21 -3 8 12 11 13 19 1 6 -9 11 -10 15 -2 4 6 21 9 39 7 18 -2 38 1 45 6 15 13 26 4 19 -15 -3 -7 -31 -19 -62 -26 -111 -25 -237 -124 -300 -236 -35 -63 -34 -62 -46 -45 -8 11 -12 12 -16 3 -7 -20 -23 -15 -23 6 0 11 -4 23 -10 26 -5 3 -10 -1 -10 -9 0 -24 -19 -19 -30 7 l-9 22 -7 -22 c-8 -29 -21 -29 -30 -1 l-7 23 -8 -23 c-9 -24 -29 -21 -29 4 0 8 -4 12 -10 9 -5 -3 -10 -15 -10 -26 0 -21 -16 -26 -23 -6 -3 8 -9 6 -19 -7 -10 -13 -17 -15 -22 -8 -4 6 -12 9 -19 6 -8 -3 -22 14 -34 40 -37 76 -124 159 -216 207 -98 50 -91 44 -83 65 6 16 7 16 20 -1 12 -17 13 -17 20 1 7 17 9 17 18 -6 l10 -25 10 25 c9 23 10 24 23 7 12 -16 13 -16 19 -1 5 13 10 14 18 6 6 -6 17 -8 25 -5 8 3 19 0 23 -8 7 -11 10 -10 16 4 5 14 9 15 21 5 11 -9 16 -9 23 2 7 11 11 9 19 -10 l10 -25 7 23 c6 21 8 22 24 7 16 -15 18 -14 23 5 7 27 15 25 29 -7z m-432 7 c0 -5 -4 -10 -10 -10 -5 0 -10 5 -10 10 0 6 5 10 10 10 6 0 10 -4 10 -10z m50 -4 c0 -8 -4 -18 -10 -21 -5 -3 -10 3 -10 14 0 12 5 21 10 21 6 0 10 -6 10 -14z m-180 -6 c0 -5 -4 -10 -10 -10 -5 0 -10 5 -10 10 0 6 5 10 10 10 6 0 10 -4 10 -10z m206 -77 c142 -48 261 -175 298 -319 28 -108 15 -207 -40 -316 -55 -109 -207 -218 -329 -235 -70 -9 -53 11 20 25 210 40 362 247 339 462 -9 78 -71 205 -125 256 -229 217 -600 128 -699 -166 -33 -96 -26 -221 17 -310 67 -141 199 -238 343 -253 29 -2 32 -4 16 -12 -46 -20 -208 50 -283 124 -92 91 -134 189 -135 316 0 193 103 344 289 421 73 30 212 33 289 7z m1279 -23 c116 -59 198 -155 240 -280 12 -37 16 -75 13 -143 -3 -81 -7 -101 -38 -162 -22 -45 -56 -92 -97 -132 -67 -67 -96 -85 -182 -114 -63 -21 -97 -24 -106 -9 -4 6 5 10 20 10 87 0 229 77 295 160 105 132 120 312 40 470 -25 48 -112 136 -163 162 -84 44 -111 51 -212 52 -96 1 -103 -1 -179 -37 -230 -109 -312 -364 -192 -595 21 -41 117 -137 158 -158 50 -26 138 -54 170 -54 15 0 28 -4 28 -10 0 -31 -154 14 -232 68 -119 82 -198 225 -199 360 -1 126 40 229 129 319 103 104 175 133 328 130 104 -2 114 -4 179 -37z m-1281 -41 c113 -38 230 -162 235 -247 2 -22 -78 29 -99 63 -11 17 -36 44 -57 58 l-38 28 -40 -44 c-22 -23 -45 -52 -52 -62 -11 -19 -13 -19 -79 15 -37 19 -87 50 -111 68 -24 17 -48 32 -54 32 -35 0 -184 -139 -200 -187 -13 -40 -34 -45 -25 -5 15 64 68 152 119 198 119 108 248 134 401 83z m1239 -5 c115 -47 187 -127 233 -258 18 -50 3 -72 -20 -28 -9 17 -37 48 -63 69 -27 21 -51 42 -54 46 -8 11 -76 -2 -87 -17 -5 -6 -16 -32 -26 -57 -20 -56 -48 -86 -63 -67 -5 7 -38 64 -72 125 -35 62 -66 115 -71 118 -18 11 -37 -9 -78 -80 -23 -41 -46 -75 -50 -75 -5 0 -18 20 -30 44 -12 24 -29 50 -38 57 -22 18 -39 -5 -54 -74 -24 -111 -68 -173 -58 -83 8 66 45 135 107 195 121 117 273 147 424 85z m-1503 -153 c5 -11 10 -31 10 -45 0 -14 18 -59 40 -101 22 -42 40 -81 40 -88 0 -6 -25 -53 -56 -104 -56 -95 -98 -134 -156 -148 -38 -10 -37 8 7 85 73 130 78 145 80 275 1 66 3 126 4 133 2 18 19 15 31 -7z m1295 -11 c6 -18 -22 -76 -32 -66 -8 8 8 86 17 86 5 0 11 -9 15 -20z m-929 -29 c12 -29 13 -63 2 -87 -17 -37 -26 -29 -38 34 -6 31 -14 65 -16 75 -5 15 -2 16 20 6 14 -7 28 -19 32 -28z m-282 -1 c27 -24 37 -43 49 -98 18 -77 8 -103 -23 -62 -11 14 -23 34 -26 45 -4 11 -15 31 -24 45 -22 32 -37 100 -21 100 5 0 26 -14 45 -30z m-154 -33 c0 -24 -4 -37 -9 -31 -11 12 -22 70 -14 78 13 13 23 -7 23 -47z m380 -21 c0 -20 0 -20 -21 1 -15 14 -19 27 -15 40 7 17 8 17 22 -1 8 -11 14 -29 14 -40z m513 32 c30 -16 47 -72 47 -154 0 -62 -3 -75 -14 -71 -8 3 -20 -1 -26 -8 -7 -8 -17 -12 -23 -8 -17 10 -56 13 -62 4 -5 -8 -97 3 -115 14 -5 3 -10 46 -10 94 0 95 7 110 68 138 29 13 104 8 135 -9z m257 -24 c0 -13 5 -24 10 -24 6 0 10 10 10 23 1 21 1 21 14 4 8 -10 12 -27 9 -37 -6 -23 -14 -25 -30 -9 -8 8 -14 1 -23 -25 -11 -33 -60 -86 -81 -86 -5 0 7 28 25 63 19 34 37 77 41 95 7 36 25 34 25 -4z m160 -1 c0 -31 -8 -44 -60 -95 -55 -53 -72 -78 -52 -78 4 0 39 32 77 70 38 39 73 70 77 70 11 0 10 -68 -2 -109 -8 -28 -6 -36 6 -46 15 -10 14 -17 -10 -66 -30 -64 -82 -129 -102 -129 -8 0 -14 5 -14 10 0 18 -23 11 -50 -15 l-26 -25 -38 52 c-32 43 -37 54 -27 70 9 15 8 18 -8 18 -22 0 -36 30 -27 58 4 9 34 37 69 61 39 28 82 71 117 117 29 41 58 74 62 74 4 0 8 -17 8 -37z m-1355 -17 c7 -44 -14 -106 -35 -106 -14 0 -12 94 2 125 16 36 26 31 33 -19z m1669 -2 c-2 -93 -17 -160 -40 -189 -13 -16 -42 -52 -64 -80 -112 -142 -141 -161 -223 -143 -21 5 -43 5 -49 2 -6 -4 -8 -1 -6 7 3 8 11 13 17 11 14 -3 53 41 93 105 l28 44 29 -16 c34 -17 51 -19 51 -6 0 5 -14 14 -30 21 -17 7 -33 17 -36 22 -3 5 9 32 27 61 18 29 33 53 33 53 1 1 18 4 39 8 l39 7 -7 -43 c-13 -73 20 -29 40 55 24 98 33 119 48 114 6 -2 12 -17 11 -33z m-1365 0 c12 -15 21 -34 21 -43 1 -9 7 -33 14 -53 15 -41 6 -49 -27 -25 -15 11 -47 101 -47 135 0 20 17 14 39 -14z m140 -99 c45 -93 35 -110 -28 -45 -39 40 -70 118 -56 140 9 15 57 -40 84 -95z m111 33 c7 -35 24 -88 37 -118 l24 -55 -22 -17 c-11 -10 -24 -18 -28 -18 -15 0 -51 61 -70 118 l-21 61 26 50 c15 28 30 49 34 46 4 -2 13 -33 20 -67z m1173 -43 c3 -55 6 -104 7 -110 1 -5 2 -22 1 -37 -1 -33 -21 -38 -21 -6 0 15 -3 19 -10 12 -8 -8 -8 -25 -1 -55 24 -103 4 -142 -61 -120 -36 13 -46 8 -29 -13 10 -12 8 -17 -11 -29 -46 -29 -66 -30 -93 -2 -19 19 -24 31 -19 48 9 32 34 57 57 57 13 0 17 5 14 15 -8 19 11 31 26 16 18 -18 29 -13 22 9 -11 34 5 79 36 101 29 21 31 21 45 3 14 -17 14 -16 7 16 -14 62 0 222 17 204 5 -5 11 -54 13 -109z m-272 41 c5 -6 9 1 9 18 0 24 2 27 15 16 20 -17 19 -36 -4 -52 -10 -8 -21 -24 -23 -36 -6 -44 -23 -22 -26 34 -3 63 9 110 16 59 2 -16 8 -34 13 -39z m313 32 c9 -34 7 -88 -3 -88 -13 0 -21 27 -21 71 0 43 14 52 24 17z m-1137 -30 c13 -38 7 -108 -9 -108 -14 0 -48 82 -48 118 0 29 3 33 22 30 16 -2 27 -14 35 -40z m-697 -2 c0 -34 -39 -156 -50 -156 -21 0 -19 24 6 100 26 79 44 102 44 56z m94 -103 c-21 -57 -81 -153 -94 -153 -5 0 -17 11 -26 25 -16 25 -15 27 21 88 21 34 52 80 69 101 l30 39 9 -27 c6 -18 4 -40 -9 -73z m1834 43 c5 -38 -34 -147 -69 -195 -34 -48 -54 -54 -46 -13 52 244 56 255 90 243 14 -5 23 -18 25 -35z m-1560 -43 c6 -10 13 -33 17 -50 6 -31 5 -33 -19 -33 -48 0 -84 -92 -49 -126 10 -11 24 -31 31 -46 6 -16 16 -28 22 -28 15 0 12 11 -15 59 -14 23 -25 51 -25 61 0 22 16 35 25 20 10 -16 25 -12 19 5 -15 38 25 4 82 -70 15 -20 15 -19 9 3 -6 21 -4 23 17 17 37 -12 78 -35 78 -44 0 -11 -25 -21 -51 -21 -11 0 -18 -4 -14 -10 7 -11 -46 -40 -75 -40 -12 0 -31 -5 -42 -11 -47 -25 -218 3 -218 36 0 8 24 42 54 76 41 47 58 76 71 123 18 63 39 96 61 96 7 0 17 -8 22 -17z m163 -71 c88 -85 90 -88 78 -115 -7 -15 -17 -27 -23 -27 -18 0 -127 69 -147 93 -28 34 -44 103 -29 122 7 8 17 15 22 15 5 0 50 -39 99 -88z m-282 -44 c-13 -25 -118 -151 -129 -156 -4 -1 -13 5 -21 14 -12 15 -11 19 11 32 14 9 52 43 85 77 33 34 61 61 63 59 2 -1 -2 -13 -9 -26z m1289 -174 c30 -21 19 -34 -29 -34 -61 0 -106 31 -61 43 36 10 68 6 90 -9z"/>
    </g>
</svg>
