<?xml version="1.0" encoding="UTF-8"?>
<svg version="1.1" xmlns="http://www.w3.org/2000/svg" width="735" height="956">
<path d="M0 0 C0.66 0.33 1.32 0.66 2 1 C2.3776054 2.74777358 2.74006566 4.49984778 3.03662109 6.26318359 C4.68394487 15.96854915 7.54569428 25.12637681 10.875 34.375 C11.22395325 35.34539215 11.22395325 35.34539215 11.57995605 36.33538818 C14.47607129 44.35065844 17.49319143 52.31857183 20.55078125 60.2734375 C42.48377715 117.3701604 42.48377715 117.3701604 42 134 C23.82941453 133.90804108 23.82941453 133.90804108 17.953125 129.9453125 C15.63389153 127.09282461 13.8309675 124.18723971 12 121 C11.19286738 119.8474279 10.3719354 118.70442372 9.5390625 117.5703125 C-3.362019 99.77730792 -11.60153108 78.08656307 -12 56 C-12.03867188 54.9584375 -12.07734375 53.916875 -12.1171875 52.84375 C-12.52143777 34.33807096 -8.36922692 16.48915772 0 0 Z " fill="#FFFFFF" transform="translate(199,669)"/>
</svg>
