<?xml version="1.0" encoding="UTF-8"?>
<svg version="1.1" xmlns="http://www.w3.org/2000/svg" width="735" height="956">
<path d="M0 0 C5.93294564 4.67420944 10.23625712 9.86027335 14.6875 15.9375 C15.33783203 16.80568359 15.98816406 17.67386719 16.65820312 18.56835938 C20.1161518 23.23183144 23.25136535 27.88545199 26 33 C29.10018994 29.26008832 31.11773945 25.05068888 33.3125 20.75 C36.4344928 14.72513524 39.64934546 9.24309649 44 4 C44.495 4.99 44.495 4.99 45 6 C43.75711964 8.82472809 42.44840876 11.55855985 41.0625 14.3125 C36.00699313 24.62284917 31.92267501 35.21628632 28 46 C27.34 46 26.68 46 26 46 C25.70343506 45.42145264 25.40687012 44.84290527 25.10131836 44.24682617 C17.17059956 28.76489522 17.17059956 28.76489522 8 14 C6.5182932 11.81421976 5.03916864 9.62668707 3.5625 7.4375 C2.88316406 6.44621094 2.20382812 5.45492187 1.50390625 4.43359375 C0 2 0 2 0 0 Z " fill="#000000" transform="translate(322,718)"/>
</svg>
