<?xml version="1.0" encoding="UTF-8"?>
<svg version="1.1" xmlns="http://www.w3.org/2000/svg" width="735" height="956">
<path d="M0 0 C6.50372486 2.22984852 10.42853884 5.82089423 13.86328125 11.671875 C18.79665946 21.77597608 19.66739005 32.88014777 16.03515625 43.5234375 C11.75422911 53.76535375 5.29625459 61.61766235 -4.95703125 66.21875 C-16.61455772 70.67669511 -28.4841965 69.39310404 -39.88671875 64.58984375 C-45.05656284 61.94978535 -49.50270284 58.64318863 -54 55 C-55.5778125 53.948125 -55.5778125 53.948125 -57.1875 52.875 C-60.76318095 47.20323021 -59.91124629 40.16358061 -58.51953125 33.8046875 C-57.29724836 29.09602725 -55.86532002 24.49372549 -54 20 C-53.34 19.67 -52.68 19.34 -52 19 C-51.99742187 19.65484375 -51.99484375 20.3096875 -51.9921875 20.984375 C-51.57850378 30.74731085 -48.34763579 39.33012743 -41.0625 46.0625 C-34.21397466 51.43414869 -26.69697375 53.70136885 -18 53 C-9.51235484 50.80923613 -3.36485071 47.70331354 1.7578125 40.54296875 C6.72648587 32.09622402 7.37109429 23.54696815 6 14 C5.04245348 10.40476746 3.76478023 7.2654875 2 4 C1.33241268 2.66712739 0.66546736 1.33393231 0 0 Z " fill="#FFFFFF" transform="translate(446,308)"/>
</svg>
