<?xml version="1.0" encoding="UTF-8"?>
<svg version="1.1" xmlns="http://www.w3.org/2000/svg" width="735" height="956">
<path d="M0 0 C0.24492187 0.94875 0.48984375 1.8975 0.7421875 2.875 C5.16937139 19.28732091 12.11213812 34.66406741 19.11328125 50.109375 C31.35923794 77.13376444 42.27839201 103.88172169 48.52612305 133.01464844 C51.15176019 145.05389139 55.82535817 153.08792632 64.25708008 161.88818359 C86.27111664 185.00986594 101.92277549 216.1706983 101.17578125 248.52734375 C101.11777344 249.67332031 101.05976562 250.81929687 101 252 C100.9695459 252.64211426 100.9390918 253.28422852 100.90771484 253.94580078 C99.24314486 283.80181134 86.07853226 309.56505929 67 332 C63.82166979 330.53419474 61.17656437 328.71476626 58.375 326.625 C47.67513508 319.067533 36.35828582 316.62852866 23.4375 316.875 C22.06754883 316.88853516 22.06754883 316.88853516 20.66992188 316.90234375 C18.44632681 316.92562747 16.22331323 316.9583229 14 317 C14.49841558 306.6450893 16.11793526 296.59323462 17.83956909 286.38641357 C20.42857897 270.92719951 22.73841875 255.45804902 24.4375 239.875 C24.56253403 238.7934111 24.56253403 238.7934111 24.69009399 237.68997192 C26.27577022 223.80837817 26.16455186 209.95663036 26 196 C24.1232642 205.97884083 22.24832291 215.95801797 20.375 225.9375 C20.23716724 226.67175201 20.09933449 227.40600403 19.95732498 228.1625061 C16.11336709 248.6425168 12.3022015 269.12725909 8.61401367 289.63598633 C7.76514999 294.28667922 6.88855 298.93210082 6.00291443 303.57592773 C5.22811175 307.66763687 4.46045407 311.73724947 4.1640625 315.89453125 C4 318 4 318 3.5234375 320.38671875 C2.57289758 327.78103508 5.55656128 331.92295334 9.8125 337.625 C10.6317395 338.66333984 10.6317395 338.66333984 11.4675293 339.72265625 C17.51272966 347.45992767 20.12978518 355.15018275 19 365 C17.89067245 370.62658929 15.55066306 374.1619559 11.04296875 377.6796875 C7.24967255 380.13118677 2.6181269 383 -2 383 C-1.835 382.236875 -1.67 381.47375 -1.5 380.6875 C-0.24313114 371.41809218 -0.8832163 364.47248789 -5 356 C-4.96519531 356.96679688 -4.93039062 357.93359375 -4.89453125 358.9296875 C-4.71402274 367.61128747 -4.67524244 375.67115246 -9.40625 383.25390625 C-13.67867219 386.13006998 -18.23669085 385.41541375 -23.25 385.25 C-24.28125 385.23195313 -25.3125 385.21390625 -26.375 385.1953125 C-28.91761064 385.14822712 -31.45833162 385.0824805 -34 385 C-33.76941895 383.85712524 -33.76941895 383.85712524 -33.53417969 382.69116211 C-31.66572149 373.27799269 -30.53470573 362.93058854 -35 354 C-35.10957031 355.25554687 -35.21914063 356.51109375 -35.33203125 357.8046875 C-37.43016112 380.43016112 -37.43016112 380.43016112 -41 384 C-44.66697492 384.21911625 -48.32963876 384.10277011 -52 384 C-52.78117188 383.98324219 -53.56234375 383.96648437 -54.3671875 383.94921875 C-58.08570481 383.70365629 -59.7367226 383.25652669 -62.4375 380.625 C-65.1230262 376.11331599 -65.15257923 372.22715747 -65.125 367.125 C-65.12886719 366.41730469 -65.13273438 365.70960938 -65.13671875 364.98046875 C-65.12966857 361.19451956 -64.90907953 357.67960763 -64 354 C-68.8958507 359.54863079 -70.17799429 364.57390682 -70.625 371.875 C-70.69976562 373.02742188 -70.77453125 374.17984375 -70.8515625 375.3671875 C-70.92503906 376.67042969 -70.92503906 376.67042969 -71 378 C-76.42207775 374.02560801 -78.4059485 370.47047787 -80 364 C-81.98608673 346.1031518 -75.9236306 328.86403208 -70.74621582 312.02122498 C-57.34876576 268.42788233 -54.22965661 214.19487083 -75 172 C-75.96828778 170.64346156 -76.96099061 169.30316432 -78 168 C-77.74605469 168.7528125 -77.49210938 169.505625 -77.23046875 170.28125 C-61.36428669 219.24654594 -67.6794981 274.20975182 -83.16088867 322.21191406 C-86.71045556 333.59748028 -88.49302203 345.19227625 -90 357 C-97.97981234 357.20431952 -105.29567437 357.21989044 -113 355 C-114.65051256 353.34948744 -114.53241569 351.20690698 -114.89819336 348.98852539 C-117.38794709 334.03099724 -122.71750825 321.23815216 -129.34008789 307.68286133 C-149.67577164 265.91522214 -158.13490618 222.37573146 -152 176 C-152.63137175 178.41515018 -153.25508812 180.831904 -153.875 183.25 C-154.04902344 183.91257812 -154.22304688 184.57515625 -154.40234375 185.2578125 C-157.19031744 196.20319068 -158.36939915 206.96971162 -158.6875 218.25 C-158.72512451 219.53052246 -158.76274902 220.81104492 -158.80151367 222.13037109 C-159.64959025 255.78427143 -149.82429512 284.5999165 -135.81152344 314.83569336 C-132.35787779 322.33403886 -129.20331715 329.83444167 -126.5703125 337.6640625 C-126.32280243 338.39579681 -126.07529236 339.12753113 -125.82028198 339.88143921 C-122.71593947 349.44820892 -121.74725936 359.32921736 -125 369 C-127.43260567 373.69744544 -129.11338889 375.25535868 -134 377 C-134.08636719 376.24976563 -134.17273438 375.49953125 -134.26171875 374.7265625 C-135.26095025 367.44775688 -136.94249771 361.20329677 -141 355 C-141.66 354.67 -142.32 354.34 -143 354 C-142.51273437 354.98613281 -142.02546875 355.97226562 -141.5234375 356.98828125 C-139.76097359 361.11211466 -139.549972 364.74834341 -139.625 369.1875 C-139.61339844 369.88552734 -139.60179687 370.58355469 -139.58984375 371.30273438 C-139.60686374 374.28406929 -139.84260713 376.65767051 -141.09375 379.37890625 C-143.83258158 381.70803557 -146.36533678 382.08219939 -149.875 382.75 C-151.08929688 382.99234375 -152.30359375 383.2346875 -153.5546875 383.484375 C-156.48052535 383.92225549 -159.06063358 384.29918551 -162 384 C-168.82063059 376.57754907 -169.94245209 364.68243643 -170 355 C-169.515625 352.65234375 -169.515625 352.65234375 -169 351 C-169.66 351 -170.32 351 -171 351 C-174.27073452 362.85641262 -173.49407819 373.32663247 -170 385 C-173.74959217 385.14528105 -177.49846105 385.23406281 -181.25 385.3125 C-182.31347656 385.35439453 -183.37695312 385.39628906 -184.47265625 385.43945312 C-192.27371312 385.56211125 -192.27371312 385.56211125 -195.609375 382.98046875 C-198.73601094 376.27927992 -199.28875813 370.26834162 -199.125 363 C-199.11597656 362.22527344 -199.10695313 361.45054687 -199.09765625 360.65234375 C-199.07439388 358.76809157 -199.0385364 356.88400168 -199 355 C-204.55279121 363.64954015 -204.26460615 372.05404349 -203 382 C-209.33845497 381.03162494 -213.49930522 377.93350734 -217.625 373.09375 C-221.92766145 366.54197006 -222.16749584 359.60540149 -221 352 C-218.50805662 344.69965884 -214.31252744 338.64158936 -209.41796875 332.7421875 C-205.6831674 328.1534233 -206.6790651 322.6375546 -207 317 C-210.29814363 288.10342049 -222.09382114 259.89486293 -232.5390625 232.99243164 C-258.23877492 166.67075659 -248.57115156 108.94727668 -221.34277344 44.86035156 C-217.5131107 35.82097292 -213.90741908 26.78118467 -211.07739258 17.3671875 C-210.39453125 15.20703125 -210.39453125 15.20703125 -209 12 C-205.7015637 10.55956099 -203.2037712 11.21881684 -199.80859375 12.109375 C-198.28310913 12.49754395 -198.28310913 12.49754395 -196.72680664 12.89355469 C-195.09859985 13.31749512 -195.09859985 13.31749512 -193.4375 13.75 C-114.75390071 33.31816135 -69.29360691 0 0 0 Z " fill="#FEFEFE" transform="translate(458,485)"/>
</svg>
