<?xml version="1.0" encoding="UTF-8"?>
<svg version="1.1" xmlns="http://www.w3.org/2000/svg" width="735" height="956">
<path d="M0 0 C-10.60165174 7.35624814 -22.42909647 10.99301891 -34.7734375 14.28125 C-35.90303894 14.5834848 -37.03264038 14.8857196 -38.19647217 15.19711304 C-51.14825483 18.62327317 -64.19175452 21.63627934 -77.25 24.625 C-79.64332774 25.17665586 -82.03655713 25.72873855 -84.4296875 26.28125 C-89.07229288 27.35233301 -93.71622269 28.417354 -98.36132812 29.47753906 C-102.76516717 30.48353712 -107.16428405 31.50730823 -111.56054688 32.54589844 C-112.58339783 32.78513031 -113.60624878 33.02436218 -114.66009521 33.27084351 C-116.57955799 33.71997341 -118.49781141 34.17431418 -120.41461182 34.63467407 C-121.67842682 34.92838394 -121.67842682 34.92838394 -122.96777344 35.22802734 C-123.70235779 35.40216156 -124.43694214 35.57629578 -125.19378662 35.75570679 C-127 36 -127 36 -129 35 C-120.89536111 31.42756423 -112.8033049 28.5619403 -104.2734375 26.19140625 C-102.47270279 25.68414757 -102.47270279 25.68414757 -100.6355896 25.16664124 C-84.67224955 20.72341258 -68.56329084 16.8444782 -52.46533203 12.92456055 C-48.36304478 11.92465877 -44.26283268 10.91656254 -40.1640625 9.90234375 C-39.17915707 9.65929064 -39.17915707 9.65929064 -38.17435455 9.41132736 C-28.46824266 7.00505396 -18.92905251 4.26068678 -9.47549438 0.99705505 C-8.65648651 0.71902542 -7.83747864 0.44099579 -6.99365234 0.15454102 C-6.2889682 -0.09343735 -5.58428406 -0.34141571 -4.85824585 -0.59690857 C-3 -1 -3 -1 0 0 Z " fill="#000000" transform="translate(544,361)"/>
</svg>
