<?xml version="1.0" encoding="UTF-8"?>
<svg version="1.1" xmlns="http://www.w3.org/2000/svg" width="735" height="956">
<path d="M0 0 C27.93212992 -1.02056686 27.93212992 -1.02056686 39.25390625 8.37109375 C45.75463234 14.43552949 49.94636894 20.32781103 50.4375 29.4375 C50.27313759 34.41162565 48.58604061 38.77172922 46 43 C45.01 43.495 45.01 43.495 44 44 C44.02320313 43.19175781 44.04640625 42.38351562 44.0703125 41.55078125 C44.08835937 40.48214844 44.10640625 39.41351562 44.125 38.3125 C44.14820313 37.25675781 44.17140625 36.20101562 44.1953125 35.11328125 C43.99858729 31.97748141 43.33057654 29.82354627 42 27 C41.90203125 27.7734375 41.8040625 28.546875 41.703125 29.34375 C40.64331484 36.72587591 39.47683612 43.52316388 34 49 C31.375 49.125 31.375 49.125 29 49 C29.15597656 48.40574219 29.31195313 47.81148437 29.47265625 47.19921875 C30.99342546 40.72336047 31.55598374 34.53722028 30 28 C28.54761731 25.72445647 28.54761731 25.72445647 27 24 C27.04640625 24.82242188 27.0928125 25.64484375 27.140625 26.4921875 C27.42653711 35.3350407 26.11235379 41.63674748 21.6875 49.26171875 C20 51 20 51 17.51953125 51.390625 C16.62621094 51.34421875 15.73289062 51.2978125 14.8125 51.25 C13.91144531 51.21390625 13.01039063 51.1778125 12.08203125 51.140625 C11.39496094 51.09421875 10.70789063 51.0478125 10 51 C10.2165625 50.33355469 10.433125 49.66710937 10.65625 48.98046875 C14.56229976 36.05072069 13.51990961 25.00385079 7.25 13.02734375 C4.8317119 9.10518274 1.92641387 5.55115391 -1 2 C-0.67 1.34 -0.34 0.68 0 0 Z " fill="#FFFFFF" transform="translate(473,811)"/>
</svg>
