<?xml version="1.0" encoding="UTF-8"?>
<svg version="1.1" xmlns="http://www.w3.org/2000/svg" width="735" height="956">
<path d="M0 0 C3.27691274 2.62153019 4.3944329 4.18562525 4.9375 8.375 C4.5 12 4.5 12 2.625 14.6875 C-0.85104084 17.25977022 -4.11337311 18.56398475 -8.1953125 19.91015625 C-10.97589677 21.22504271 -12.01357881 22.31684354 -13.5 25 C-14.56901335 31.20220359 -13.86163652 36.89147652 -10.7109375 42.34375 C-8.1777439 45.80850511 -5.5278689 47.65737703 -1.5 49 C8.63974774 50.09862276 14.69789093 46.38350437 22.8359375 40.85546875 C23.38507813 40.57316406 23.93421875 40.29085937 24.5 40 C25.16 40.33 25.82 40.66 26.5 41 C25.26082044 47.35079523 21.55650139 50.39942229 16.5 54 C10.12203473 57.96877036 3.93818235 59.06889435 -3.5 58 C-9.68723566 56.16875162 -14.54050408 52.02361045 -18.5 47 C-18.5 46.34 -18.5 45.68 -18.5 45 C-19.16 45 -19.82 45 -20.5 45 C-20.726875 45.721875 -20.95375 46.44375 -21.1875 47.1875 C-23.68037682 52.52937889 -28.4590642 56.57144294 -33.76171875 59.0625 C-40.17006898 61.25651434 -48.22612403 60.95568713 -54.4765625 58.265625 C-58.96641542 55.45730001 -62.72739025 51.68757141 -66.5 48 C-66.17 47.01 -65.84 46.02 -65.5 45 C-61.30085293 45.33151161 -58.41665899 46.52761598 -54.8125 48.5625 C-49.3238737 51.41857251 -44.59642759 51.88326195 -38.5 51 C-33.58699287 49.21345195 -29.8887919 46.85218833 -27.5546875 42.05859375 C-25.44846156 36.60327882 -24.74953317 31.65874184 -26.5 26 C-29.84556284 21.03561643 -33.70392779 20.26256993 -39.18359375 18.80078125 C-42.54552814 17.6385611 -43.89468982 16.13765172 -45.5 13 C-45.98738651 9.65792106 -45.71878459 7.59801122 -44.5625 4.4375 C-34.1900578 -7.82084079 -12.87563316 -8.08614643 0 0 Z " fill="#000000" transform="translate(362.5,382)"/>
</svg>
