<?xml version="1.0" encoding="UTF-8"?>
<svg version="1.1" xmlns="http://www.w3.org/2000/svg" width="735" height="956">
<path d="M0 0 C19.80749514 18.20148202 25.51246993 53.57435984 26.9375 78.9375 C28.02109741 110.64130482 23.37005148 138.33704888 13.19592285 168.23812866 C2.73760688 198.87830015 2.73760688 198.87830015 -0.0625 230.9375 C7.51295243 230.55872738 12.25506302 225.45794328 17.625 220.625 C20.29188107 218.29376757 22.27379926 217.0452559 25.9375 216.9375 C27.63134237 218.63134237 27.19053099 220.67444881 27.25 223 C27.15485983 234.40322849 23.604637 245.61021812 18.9375 255.9375 C19.82953125 255.2878125 20.7215625 254.638125 21.640625 253.96875 C22.82256485 253.12450725 24.00487611 252.28078428 25.1875 251.4375 C25.77402344 251.00824219 26.36054687 250.57898438 26.96484375 250.13671875 C30.33200265 247.75322425 31.69049728 246.9375 35.9375 246.9375 C38.25853611 254.95562474 34.57576182 262.01756241 30.8125 269 C28.14650322 273.72849678 28.14650322 273.72849678 26.9375 274.9375 C27.9275 275.5975 28.9175 276.2575 29.9375 276.9375 C31.99126788 287.04525959 27.7824305 298.25003842 22.9375 306.9375 C23.6166748 306.86748779 24.29584961 306.79747559 24.99560547 306.7253418 C32.98816025 305.97317176 40.94210425 305.75125844 48.96533203 305.75219727 C51.06693345 305.74999535 53.16802088 305.73171085 55.26953125 305.71289062 C62.70714647 305.68301937 69.71975873 306.02870268 76.9375 307.9375 C76.9375 308.2675 76.9375 308.5975 76.9375 308.9375 C76.30585937 308.92702637 75.67421875 308.91655273 75.0234375 308.90576172 C62.95547384 308.73404538 50.97138189 308.812838 38.9375 309.8125 C37.96683594 309.89097168 36.99617187 309.96944336 35.99609375 310.05029297 C33.30062434 310.29444102 30.62203022 310.59421882 27.9375 310.9375 C26.69830811 311.08662842 26.69830811 311.08662842 25.43408203 311.23876953 C21.17163212 311.93523676 19.32246098 312.569601 16.1171875 315.6328125 C15.31865439 316.75508424 14.55121389 317.89998085 13.8125 319.0625 C13.4 319.67270996 12.9875 320.28291992 12.5625 320.91162109 C8.74085746 326.7820557 5.92964081 333.0592248 3.3125 339.5390625 C2.27986976 342.09130202 1.18739556 344.49312626 -0.0625 346.9375 C0.4951001 347.03248779 1.0527002 347.12747559 1.62719727 347.2253418 C25.34453296 351.33049954 25.34453296 351.33049954 35.9375 355.9375 C36.2675 356.5975 36.5975 357.2575 36.9375 357.9375 C28.36374429 357.09655665 19.87975159 355.72408136 11.375 354.375 C9.87437819 354.13848631 8.37372737 353.90215668 6.87304688 353.66601562 C3.22752751 353.09196565 -0.41759267 352.51542494 -4.0625 351.9375 C-4.35745361 352.54940186 -4.65240723 353.16130371 -4.95629883 353.79174805 C-8.74451339 361.13993119 -15.14222702 367.26758683 -21.0625 372.9375 C-22.2071875 374.113125 -22.2071875 374.113125 -23.375 375.3125 C-40.12866268 391.67654261 -59.40673264 403.18478139 -80.0625 413.9375 C-78.85071372 421.81739185 -76.38251529 428.78989332 -73.3125 436.125 C-72.83369385 437.28628418 -72.3548877 438.44756836 -71.86157227 439.64404297 C-67.81252654 449.36563049 -63.47898944 458.95068148 -59.10171509 468.52789307 C-51.27591458 485.66565203 -44.12753144 503.09353907 -38.0625 520.9375 C-37.44246094 520.74414062 -36.82242187 520.55078125 -36.18359375 520.3515625 C-5.9990929 511.47635264 23.47912709 516.69048517 51 530.9375 C62.53032342 537.62148436 72.77370811 546.29140328 81.9375 555.9375 C82.51757812 556.53433594 83.09765625 557.13117187 83.6953125 557.74609375 C89.74254841 564.20833604 94.42930806 571.36661257 98.9375 578.9375 C99.4639209 579.81535156 99.4639209 579.81535156 100.00097656 580.7109375 C117.24673179 609.91353338 122.48347507 644.4779177 114.46606445 677.42553711 C110.67527824 691.93261446 104.34515344 706.19317238 94.9375 717.9375 C94.22722656 718.84757813 93.51695312 719.75765625 92.78515625 720.6953125 C76.9267688 740.59284478 57.04046589 753.23388863 32.9375 760.9375 C34.7565103 762.7565103 37.6251001 762.43664082 40.0859375 762.69921875 C41.38917969 762.84560791 42.69242188 762.99199707 44.03515625 763.14282227 C44.7327002 763.22090118 45.43024414 763.2989801 46.14892578 763.37942505 C57.88288316 764.71127953 69.40638545 766.40675103 80.9375 769 C82.03239746 769.24516357 83.12729492 769.49032715 84.25537109 769.74291992 C90.01474536 771.09013934 95.45476387 772.71672827 100.9375 774.9375 C97.86511225 775.87335092 95.46717804 775.95622317 92.28344727 775.60791016 C90.9053463 775.46248276 90.9053463 775.46248276 89.49940491 775.31411743 C88.51089035 775.2027243 87.52237579 775.09133118 86.50390625 774.9765625 C85.47498764 774.866539 84.44606903 774.7565155 83.38597107 774.64315796 C80.0898942 774.28954665 76.79495106 773.92643937 73.5 773.5625 C65.31415584 772.67177142 57.12730244 771.7911264 48.9375 770.9375 C47.72513672 770.81101074 46.51277344 770.68452148 45.26367188 770.55419922 C35.92419222 769.70722175 26.55931847 769.7863141 17.18945312 769.80712891 C14.31114467 769.81250253 11.43299132 769.80714701 8.5546875 769.80078125 C-4.7819805 769.7940442 -4.7819805 769.7940442 -18.0625 770.9375 C-18.0625 772.9175 -18.0625 774.8975 -18.0625 776.9375 C-17.49161148 776.93305878 -16.92072296 776.92861755 -16.33253479 776.92404175 C32.19569416 776.5638942 32.19569416 776.5638942 47.5 777.8125 C48.48863037 777.89097168 49.47726074 777.96944336 50.49584961 778.05029297 C52.65329051 778.25873557 54.79932652 778.58223425 56.9375 778.9375 C57.2675 779.5975 57.5975 780.2575 57.9375 780.9375 C56.92888916 780.95731934 55.92027832 780.97713867 54.88110352 780.99755859 C36.72087068 781.36457283 18.57249088 781.82087939 0.4375 782.875 C-0.2527829 782.9125238 -0.9430658 782.95004761 -1.65426636 782.9887085 C-11.56129418 783.4058912 -11.56129418 783.4058912 -21.0625 785.9375 C-21.3925 786.5975 -21.7225 787.2575 -22.0625 787.9375 C-20.3913916 787.92178955 -20.3913916 787.92178955 -18.68652344 787.90576172 C5.31207836 787.7008476 29.16615982 788.00146253 53.11181641 789.67529297 C55.7241298 789.85433729 58.33254553 790.01700153 60.94677734 790.15673828 C62.20570801 790.23005371 63.46463867 790.30336914 64.76171875 790.37890625 C66.43947388 790.46893921 66.43947388 790.46893921 68.15112305 790.56079102 C70.9375 790.9375 70.9375 790.9375 73.9375 792.9375 C73.20533768 792.94780746 72.47317535 792.95811493 71.71882629 792.96873474 C54.94432515 793.20590999 38.17019848 793.45940437 21.39633179 793.7379303 C14.04531006 793.8593541 6.69439541 793.96901134 -0.65718079 794.05204773 C-4.10938719 794.09406821 -7.56120005 794.15097301 -11.01309204 794.21340942 C-12.53543834 794.23763458 -14.05790966 794.25504529 -15.58041382 794.26535034 C-17.64290353 794.28014814 -19.70360127 794.31853565 -21.765625 794.36328125 C-23.43093262 794.38515503 -23.43093262 794.38515503 -25.12988281 794.4074707 C-28.70884641 795.05431802 -30.43363458 796.48626886 -33.0625 798.9375 C-32.14887695 799.00743164 -31.23525391 799.07736328 -30.29394531 799.14941406 C-10.08310645 800.72198621 9.9055719 802.7602561 29.9375 805.9375 C29.9375 806.2675 29.9375 806.5975 29.9375 806.9375 C16.28149994 807.04658689 2.64843339 806.99235432 -11 806.5 C-15.80899435 806.33707994 -20.6181262 806.17872153 -25.42736816 806.02331543 C-27.31566347 805.9618214 -29.20392487 805.89928234 -31.09216309 805.83605957 C-38.00888946 805.60597651 -44.9257948 805.40152517 -51.84402466 805.22213745 C-54.18138704 805.1578364 -56.51855403 805.08594467 -58.85543823 805.00613403 C-62.17033334 804.89414614 -65.48495652 804.80946136 -68.80078125 804.73046875 C-69.78823334 804.69112213 -70.77568542 804.65177551 -71.7930603 804.61123657 C-78.73957812 804.48483086 -83.79630768 806.04819342 -90.0625 808.9375 C-111.64489204 816.2600973 -145.91435872 814.16061293 -166.70532227 805.40307617 C-171.07615197 803.76242402 -174.9275345 803.53174799 -179.55859375 803.609375 C-180.35040543 803.61124817 -181.1422171 803.61312134 -181.95802307 803.61505127 C-183.62790157 803.62173575 -185.29776538 803.63557781 -186.9675293 803.65625 C-189.46223351 803.68703397 -191.95629745 803.69719952 -194.45117188 803.703125 C-210.20030527 803.77734068 -224.95555774 804.10020718 -240.0625 808.9375 C-250.72001353 811.82425957 -261.5747497 812.11825905 -272.5625 812.125 C-273.61308594 812.13724609 -274.66367187 812.14949219 -275.74609375 812.16210938 C-286.09076742 812.18128986 -299.47453884 811.55625437 -307.76513672 804.48535156 C-313.37081311 799.70809326 -317.5669131 799.10752801 -324.8125 799.1875 C-326.76181105 799.15636551 -328.71104519 799.11994651 -330.66015625 799.078125 C-331.58973145 799.06201172 -332.51930664 799.04589844 -333.47705078 799.02929688 C-339.46767063 798.81659876 -345.37352885 797.83382372 -351.0625 795.9375 C-353.7940956 795.85242921 -356.49941443 795.82158435 -359.23046875 795.83984375 C-360.02528152 795.8412587 -360.8200943 795.84267365 -361.63899231 795.84413147 C-364.17603325 795.84972622 -366.71298575 795.86227772 -369.25 795.875 C-370.97070185 795.88001568 -372.69140508 795.88457847 -374.41210938 795.88867188 C-378.6289403 795.89969393 -382.84570516 795.91695494 -387.0625 795.9375 C-384.83560135 793.71060135 -384.13801844 793.57546155 -381.140625 793.0859375 C-379.97273438 792.89257812 -379.97273438 792.89257812 -378.78125 792.6953125 C-377.9665625 792.56898438 -377.151875 792.44265625 -376.3125 792.3125 C-375.51328125 792.1784375 -374.7140625 792.044375 -373.890625 791.90625 C-369.56887029 791.20965138 -365.45583326 790.78160753 -361.0625 790.9375 C-361.3925 790.2775 -361.7225 789.6175 -362.0625 788.9375 C-371.44801656 788.75483824 -380.76592511 789.33375407 -390.125 789.9375 C-399.11152532 790.51583593 -408.05103528 791.08039736 -417.0625 790.9375 C-414.12081756 787.99581756 -410.58205243 787.77177099 -406.625 787 C-405.33384277 786.74331543 -405.33384277 786.74331543 -404.01660156 786.48144531 C-392.13471698 784.2387135 -380.0877654 783.11666068 -368.0625 781.9375 C-368.7225 780.2875 -369.3825 778.6375 -370.0625 776.9375 C-375.3969693 776.91252589 -380.73140354 776.89451202 -386.06591797 776.88256836 C-387.87549432 776.87758197 -389.68506674 776.87079046 -391.49462891 776.86206055 C-401.39916213 776.81552183 -411.20413264 776.8215771 -421.0625 777.9375 C-421.0625 777.2775 -421.0625 776.6175 -421.0625 775.9375 C-410.95742289 773.16493706 -400.91432645 771.37920007 -390.5 770.1875 C-388.84218506 769.99643677 -388.84218506 769.99643677 -387.15087891 769.80151367 C-381.41873792 769.18079997 -375.82732684 768.79774662 -370.0625 768.9375 C-370.145 767.803125 -370.2275 766.66875 -370.3125 765.5 C-370.28391818 757.39705416 -365.67073743 749.59170659 -360.0625 743.9375 C-355.05120554 740.19376826 -349.93065604 737.12346771 -344.0625 734.9375 C-346.08162681 731.38222689 -348.35544656 728.16721484 -350.83129883 724.92797852 C-370.03238759 699.68008328 -379.52511626 668.98243816 -375.73291016 637.17285156 C-373.071104 618.85469716 -367.80574608 598.79884305 -355.81640625 584.203125 C-353.12581102 579.19346439 -353.55772134 574.34819724 -353.5625 568.75 C-352.81659022 528.94111923 -340.71232075 493.49226556 -325.32951355 457.30271912 C-323.07005892 451.97748954 -320.87046832 446.63202891 -318.75 441.25 C-318.46632568 440.54447998 -318.18265137 439.83895996 -317.89038086 439.11206055 C-316.59216535 435.7767359 -316.0625 433.58504425 -316.0625 429.9375 C-317.12460693 429.41953857 -318.18671387 428.90157715 -319.28100586 428.36791992 C-323.31405869 426.39749466 -327.33991808 424.41271762 -331.36401367 422.42407227 C-333.08904442 421.57393902 -334.81587034 420.72743639 -336.54467773 419.88500977 C-356.66045819 410.07600474 -375.58652497 398.57919484 -391.5625 382.75 C-392.13830811 382.17983154 -392.71411621 381.60966309 -393.30737305 381.0222168 C-397.01535983 377.24993281 -400.08475418 373.3096753 -403.0625 368.9375 C-405.58371432 369.56099358 -408.10446931 370.18625361 -410.625 370.8125 C-411.68170898 371.07353516 -411.68170898 371.07353516 -412.75976562 371.33984375 C-417.22274998 372.45044815 -421.64737052 373.64951216 -426.0625 374.9375 C-425.0625 371.9375 -425.0625 371.9375 -422.296875 370.40234375 C-420.57210937 369.64630859 -420.57210937 369.64630859 -418.8125 368.875 C-417.10320312 368.11509766 -417.10320312 368.11509766 -415.359375 367.33984375 C-412.60648298 366.16888612 -409.84676492 365.03131836 -407.0625 363.9375 C-408.1878203 361.11612278 -409.3219277 358.2986864 -410.46484375 355.484375 C-410.97667905 354.21879713 -411.48839361 352.95317042 -412 351.6875 C-412.40520874 350.69278687 -412.40520874 350.69278687 -412.81860352 349.67797852 C-414.2559995 346.10907617 -415.48691997 342.59173735 -416.5 338.875 C-417.78773091 334.82243507 -419.88726619 332.92441796 -423.24609375 330.4140625 C-425.18286968 328.8396511 -426.45854128 327.18965581 -427.9375 325.1875 C-431.4447726 321.02089679 -434.81967053 320.57870936 -440.0625 319.9375 C-441.13371094 319.75574219 -442.20492187 319.57398438 -443.30859375 319.38671875 C-458.17492702 317.03434955 -473.11734068 317.57219996 -488.0625 318.9375 C-480.29723255 313.76065503 -469.6136461 314.65356619 -460.625 314.75 C-458.91860352 314.7509668 -458.91860352 314.7509668 -457.17773438 314.75195312 C-449.76283155 314.79002165 -442.44084999 315.20880513 -435.0625 315.9375 C-435.495625 315.03386719 -435.92875 314.13023437 -436.375 313.19921875 C-437.2103125 311.42998047 -437.2103125 311.42998047 -438.0625 309.625 C-438.619375 308.45324219 -439.17625 307.28148437 -439.75 306.07421875 C-441.0625 302.9375 -441.0625 302.9375 -441.0625 299.9375 C-435.40855369 299.59134002 -432.03243194 300.50324762 -427.0625 302.9375 C-427.42601562 302.47601563 -427.78953125 302.01453125 -428.1640625 301.5390625 C-434.54449214 293.26086405 -439.5763959 284.81201496 -443.0625 274.9375 C-443.495625 273.720625 -443.92875 272.50375 -444.375 271.25 C-445.17237345 267.40810974 -445.10113632 264.72110374 -444.0625 260.9375 C-442.22265625 259.65625 -442.22265625 259.65625 -440.0625 258.9375 C-434.02009888 261.24459861 -428.95043973 264.98411508 -423.80688477 268.85083008 C-420.24955012 271.43842779 -417.44134328 272.54958445 -413.0625 272.9375 C-407.52556721 264.63210081 -412.22739514 249.18906458 -414.0625 239.9375 C-416.97609024 226.71329457 -421.78105979 214.27654801 -426.80908203 201.7355957 C-447.67802516 149.47105432 -457.28417045 86.9771543 -436.23828125 32.81640625 C-433.7203796 27.51855889 -429.10718883 24.58418534 -424.0625 21.9375 C-411.10768192 17.61922731 -397.35177635 22.91799536 -385.0625 26.9375 C-384.31564941 27.17774902 -383.56879883 27.41799805 -382.79931641 27.66552734 C-364.94249768 33.4672484 -347.63680568 41.13906895 -331.0625 49.9375 C-329.9075 50.54980469 -328.7525 51.16210938 -327.5625 51.79296875 C-313.94458434 59.29829727 -301.23235506 68.16937812 -290.05883789 79.01245117 C-289.4889917 79.5407251 -288.91914551 80.06899902 -288.33203125 80.61328125 C-287.84323486 81.08677002 -287.35443848 81.56025879 -286.85083008 82.0480957 C-282.70364658 84.11064717 -277.27274641 81.48753054 -273.09765625 80.1953125 C-271.41518799 79.68133911 -271.41518799 79.68133911 -269.69873047 79.15698242 C-267.92973389 78.61521362 -267.92973389 78.61521362 -266.125 78.0625 C-256.47426109 75.1711004 -247.04038491 72.42821986 -237.0625 70.9375 C-236.23298828 70.80504883 -235.40347656 70.67259766 -234.54882812 70.53613281 C-203.77278637 65.73075085 -171.00459453 65.61902824 -141.0625 74.9375 C-140.84078125 74.40125 -140.6190625 73.865 -140.390625 73.3125 C-120.15324041 37.12329462 -62.06326056 9.9155651 -25.0625 -4.0625 C-15.77865569 -6.34201534 -7.94707533 -5.35211196 0 0 Z M-35.8125 12.8125 C-36.71025146 13.28880859 -37.60800293 13.76511719 -38.53295898 14.25585938 C-54.48472183 22.83263975 -69.69439161 32.54941547 -84.6875 42.6875 C-85.55050217 43.26939087 -85.55050217 43.26939087 -86.43093872 43.86303711 C-97.76932431 51.5278061 -108.73778032 59.57620174 -118.80859375 68.87109375 C-120.8088006 70.70490558 -122.85593238 72.44787367 -124.9375 74.1875 C-133.11718958 81.32191485 -140.42188397 89.70678679 -146.85546875 98.42578125 C-147.45294922 99.17408203 -147.45294922 99.17408203 -148.0625 99.9375 C-148.3925 99.9375 -148.7225 99.9375 -149.0625 99.9375 C-148.76214844 99.11765625 -148.46179688 98.2978125 -148.15234375 97.453125 C-147.77207031 96.37546875 -147.39179688 95.2978125 -147 94.1875 C-146.61714844 93.12015625 -146.23429687 92.0528125 -145.83984375 90.953125 C-145.05276554 87.89973617 -145.18442051 86.83707712 -146.0625 83.9375 C-149.20699224 83.28502353 -152.35330756 82.64177425 -155.5 82 C-156.37849609 81.81759766 -157.25699219 81.63519531 -158.16210938 81.44726562 C-159.47211914 81.18139648 -159.47211914 81.18139648 -160.80859375 80.91015625 C-161.99473267 80.66664429 -161.99473267 80.66664429 -163.20483398 80.41821289 C-170.07874879 79.26189181 -176.88310492 78.77511646 -183.84765625 78.734375 C-184.65782196 78.72731537 -185.46798767 78.72025574 -186.30270386 78.71298218 C-220.13645481 78.4854163 -251.42538754 82.19215553 -283.0625 94.9375 C-280.7525 99.2275 -278.4425 103.5175 -276.0625 107.9375 C-279.99951711 104.64139266 -283.80618646 101.25290146 -287.54370117 97.73095703 C-319.40709884 67.81258483 -374.1196446 32.81719576 -418.5625 29.3125 C-422.45090205 30.00685751 -423.55946363 31.03815621 -425.93847656 34.09521484 C-427.942471 37.37978089 -428.54198099 40.80747797 -429.1875 44.5625 C-429.34508789 45.4294751 -429.50267578 46.2964502 -429.66503906 47.18969727 C-430.16929053 50.10085814 -430.62457443 53.01564177 -431.0625 55.9375 C-431.21493164 56.95150879 -431.36736328 57.96551758 -431.52441406 59.01025391 C-438.32820498 106.64413782 -432.86198148 150.99790541 -414.796875 195.55078125 C-392.25123068 251.31124751 -392.25123068 251.31124751 -401.14453125 274.06640625 C-403.26573819 278.39005784 -405.60789088 281.13330348 -410.0625 282.9375 C-415.06499676 283.41741432 -420.19362211 283.23586744 -425.0625 281.9375 C-422.69012083 291.95421206 -414.3246942 300.98590881 -407.0625 307.9375 C-406.4025 307.9375 -405.7425 307.9375 -405.0625 307.9375 C-404.0725 311.4025 -404.0725 311.4025 -403.0625 314.9375 C-404.0625 315.9375 -404.0625 315.9375 -407 316.1875 C-411.92611873 316.14644901 -416.43736812 314.50092486 -421.0625 312.9375 C-419.76383604 316.94171387 -418.64199521 318.73206908 -415.0625 320.9375 C-412.39527192 321.87380819 -409.77371643 322.7215076 -407.0625 323.5 C-402.87144773 324.72618649 -398.99198757 325.97275622 -395.0625 327.9375 C-401.0025 326.6175 -406.9425 325.2975 -413.0625 323.9375 C-406.5204659 332.96712524 -406.5204659 332.96712524 -397.03125 337.23388672 C-393.34244998 337.11393841 -389.73003504 336.7868924 -386.0625 336.375 C-383.58335568 336.14429099 -381.10418894 335.91382273 -378.625 335.68359375 C-377.3673584 335.55807129 -376.1097168 335.43254883 -374.81396484 335.30322266 C-361.7262171 334.02732482 -348.71822487 333.72186378 -335.57666016 333.69726562 C-332.46359304 333.68758117 -329.351194 333.65645846 -326.23828125 333.625 C-312.97131506 333.5562606 -300.10598072 334.40288245 -287.0625 336.9375 C-286.7325 337.2675 -286.4025 337.5975 -286.0625 337.9375 C-287.21621094 337.77668945 -288.36992187 337.61587891 -289.55859375 337.45019531 C-293.74769528 336.92942907 -297.90610014 336.76066042 -302.125 336.734375 C-302.8934726 336.72749664 -303.66194519 336.72061829 -304.45370483 336.71353149 C-306.99001778 336.69621544 -309.52613063 336.69004507 -312.0625 336.6875 C-312.94222473 336.68582825 -313.82194946 336.68415649 -314.72833252 336.68243408 C-330.00019742 336.68072517 -345.19889766 337.33629574 -360.4375 338.3125 C-361.43249512 338.37562378 -362.42749023 338.43874756 -363.45263672 338.50378418 C-376.36001787 339.33760399 -389.21049266 340.48294331 -402.0625 341.9375 C-401.59427442 343.3836682 -401.12247681 344.82868021 -400.64916992 346.27319336 C-400.25564583 347.48041298 -400.25564583 347.48041298 -399.85417175 348.71202087 C-398.96778936 351.20374235 -397.85019088 353.30714869 -396.375 355.5 C-395.93800781 356.16128906 -395.50101563 356.82257813 -395.05078125 357.50390625 C-394.56158203 358.21353516 -394.56158203 358.21353516 -394.0625 358.9375 C-387.68478443 358.2576874 -381.76589889 356.49216457 -375.625 354.6875 C-356.04585777 349.08976096 -336.30012504 345.20043089 -316.0625 342.9375 C-315.19705566 342.83888672 -314.33161133 342.74027344 -313.43994141 342.63867188 C-306.30309925 341.90086712 -299.23306734 341.83490047 -292.0625 341.9375 C-292.9604126 342.05230713 -293.8583252 342.16711426 -294.78344727 342.28540039 C-327.03359406 346.47662955 -357.95258206 353.48609977 -389.0625 362.9375 C-386.21893869 375.964544 -368.24314485 386.01335428 -357.80908203 392.81689453 C-338.58463806 405.15128058 -317.07400137 413.10211798 -295.0625 418.9375 C-294.24426758 419.15744629 -293.42603516 419.37739258 -292.58300781 419.60400391 C-266.90030576 426.40647629 -241.18226868 429.15240781 -214.6875 429.125 C-213.21401093 429.12459213 -213.21401093 429.12459213 -211.71075439 429.12417603 C-197.74082342 429.10635032 -183.9160963 428.90865298 -170.0625 426.9375 C-169.33240723 426.84098145 -168.60231445 426.74446289 -167.85009766 426.64501953 C-120.37774235 420.24460678 -73.63923656 402.22669044 -37.0625 370.9375 C-36.20785156 370.21820313 -35.35320312 369.49890625 -34.47265625 368.7578125 C-28.30483731 363.41680442 -22.78600783 357.61202194 -18.0625 350.9375 C-18.0625 350.2775 -18.0625 349.6175 -18.0625 348.9375 C-44.52376245 345.56573198 -70.75293425 342.96180492 -97.4375 342.25 C-98.34009552 342.2249942 -99.24269104 342.1999884 -100.17263794 342.17422485 C-102.74779641 342.10545643 -105.32299139 342.04514412 -107.8984375 341.98828125 C-109.06854118 341.95728333 -109.06854118 341.95728333 -110.26228333 341.92565918 C-113.48711188 341.86420942 -115.97689061 341.90896354 -119.0625 342.9375 C-119.0625 342.2775 -119.0625 341.6175 -119.0625 340.9375 C-109.23575017 340.11011451 -99.48745233 339.73547611 -89.625 339.75 C-88.91962097 339.75027191 -88.21424194 339.75054382 -87.48748779 339.75082397 C-62.88281567 339.79377546 -38.47328751 341.94352606 -14.0625 344.9375 C-12.86258401 343.3425992 -11.67788682 341.73623853 -10.5 340.125 C-9.83871094 339.23167969 -9.17742187 338.33835937 -8.49609375 337.41796875 C-8.02300781 336.59941406 -7.54992187 335.78085937 -7.0625 334.9375 C-7.3925 333.9475 -7.7225 332.9575 -8.0625 331.9375 C-10.3725 332.2675 -12.6825 332.5975 -15.0625 332.9375 C-14.7325 331.6175 -14.4025 330.2975 -14.0625 328.9375 C-38.12846146 328.70309128 -61.96907506 329.70242862 -85.9375 331.8125 C-87.33947632 331.93413513 -87.33947632 331.93413513 -88.76977539 332.05822754 C-102.5973836 333.26995021 -116.3257022 334.94774854 -130.0625 336.9375 C-118.79602412 333.68022756 -107.67321451 331.53779114 -96.0625 329.9375 C-95.1849707 329.80988281 -94.30744141 329.68226563 -93.40332031 329.55078125 C-79.43399989 327.5388007 -65.45966415 326.4835658 -51.375 325.75 C-50.10780121 325.68232422 -50.10780121 325.68232422 -48.81500244 325.61328125 C-39.82718014 325.14352165 -30.95703469 324.88128901 -21.95825195 325.26049805 C-13.99871586 325.74870009 -13.99871586 325.74870009 -6.75 322.94140625 C-4.47571702 320.71912669 -2.70819467 318.64805592 -1.0625 315.9375 C-4.83621512 314.6017543 -7.92081347 315.21341329 -11.8125 315.875 C-12.98296875 316.06964844 -14.1534375 316.26429688 -15.359375 316.46484375 C-16.25140625 316.62082031 -17.1434375 316.77679688 -18.0625 316.9375 C-17.16325806 316.68226563 -17.16325806 316.68226563 -16.24584961 316.421875 C-13.48822436 315.62174606 -10.74492361 314.78012771 -8 313.9375 C-7.05705078 313.67066406 -6.11410156 313.40382813 -5.14257812 313.12890625 C4.07948609 310.23696974 8.59305748 304.73105467 13.4375 296.5625 C13.9428125 295.72976563 14.448125 294.89703125 14.96875 294.0390625 C15.44828125 292.99878906 15.44828125 292.99878906 15.9375 291.9375 C15.6075 291.2775 15.2775 290.6175 14.9375 289.9375 C14.1125 290.411875 13.2875 290.88625 12.4375 291.375 C8.40954099 293.17319599 5.30576421 293.5609255 0.9375 293.9375 C3.21360838 289.57495894 5.71595646 285.90510314 8.875 282.125 C12.75928158 277.39851905 15.46854251 272.51639434 17.9375 266.9375 C14.95702005 267.35338092 12.29240768 267.79189685 9.5 268.9375 C6.34602826 270.16831824 3.28485888 270.49901556 -0.0625 270.9375 C0.69956055 269.4133789 1.46165021 267.88927236 2.22387695 266.36523438 C2.86876585 265.0751298 3.51313047 263.78476302 4.15698242 262.49414062 C5.50052799 259.80228634 6.8471708 257.11321637 8.22265625 254.4375 C11.03608532 248.96040614 13.30497074 244.18450261 12.9375 237.9375 C11.761875 238.4325 10.58625 238.9275 9.375 239.4375 C5.38860928 240.90691033 2.2189981 241.49250901 -2.0625 240.9375 C-6.98788564 238.38008822 -9.88518751 235.54353406 -11.62109375 230.2265625 C-16.01873464 207.42109734 -6.13797187 183.23307798 0.875 162.0859375 C4.53411354 150.98238707 7.56459518 139.98683617 9.51171875 128.44726562 C9.80864367 126.69704305 10.13098204 124.95102405 10.47265625 123.20898438 C12.37246564 112.69896741 12.33265258 102.206981 12.3125 91.5625 C12.31262085 90.58527985 12.3127417 89.60805969 12.31286621 88.60122681 C12.28708251 73.97812128 11.55095559 60.16905355 7.9375 45.9375 C7.62075663 44.5602718 7.3055798 43.18268211 6.9921875 41.8046875 C2.4376357 21.17207241 2.4376357 21.17207241 -8.9609375 4.7109375 C-17.41656204 1.5990162 -28.47572822 8.90185882 -35.8125 12.8125 Z M-102.3125 419.5 C-120.27367601 426.89892555 -139.00806481 431.40131843 -158.0625 434.9375 C-159.24714844 435.16179687 -160.43179688 435.38609375 -161.65234375 435.6171875 C-164.7847826 436.15229532 -167.90594079 436.56887687 -171.0625 436.9375 C-171.79500977 437.02628418 -172.52751953 437.11506836 -173.28222656 437.20654297 C-212.38810322 441.78046503 -253.8416957 440.02631714 -291.82177734 429.42456055 C-292.58699707 429.21613525 -293.3522168 429.00770996 -294.140625 428.79296875 C-294.80481445 428.60371826 -295.46900391 428.41446777 -296.15332031 428.21948242 C-298.50598032 427.87199875 -299.87724749 427.97629712 -302.0625 428.9375 C-303.21003087 430.81446852 -303.21003087 430.81446852 -303.89453125 433.23828125 C-304.21043213 434.17752441 -304.52633301 435.11676758 -304.85180664 436.08447266 C-305.18946045 437.12909668 -305.52711426 438.1737207 -305.875 439.25 C-309.39376911 449.59967971 -313.36191564 459.66686311 -317.63415527 469.72668457 C-346.60229701 538.01612551 -347.50607265 595.38142147 -320.36038208 664.1237793 C-316.39661681 674.1866066 -312.80695438 684.32766052 -309.5 694.625 C-309.29408234 695.26272339 -309.08816467 695.90044678 -308.87600708 696.55749512 C-295.88318797 736.95918484 -295.88318797 736.95918484 -301.1953125 748.37109375 C-302.71277246 750.66317332 -304.34664154 752.79073591 -306.0625 754.9375 C-307.16215476 756.50954166 -308.24589642 758.09284883 -309.3125 759.6875 C-310.03179687 760.73164062 -310.03179687 760.73164062 -310.765625 761.796875 C-314.84556578 768.53123508 -314.99549387 775.22979386 -314.0625 782.9375 C-311.60679885 789.93111279 -307.30077551 794.10804277 -301.11328125 797.9765625 C-298.98719824 799.14965065 -298.98719824 799.14965065 -296.0625 798.9375 C-296.16949219 798.21046875 -296.27648437 797.4834375 -296.38671875 796.734375 C-297.42671539 788.01182255 -297.06707888 779.44436832 -292.0625 771.9375 C-292.11470703 773.62166016 -292.11470703 773.62166016 -292.16796875 775.33984375 C-292.66743828 789.66305741 -292.66743828 789.66305741 -286.0625 801.9375 C-283.55526509 802.48798313 -283.55526509 802.48798313 -280.73828125 802.328125 C-279.71025391 802.31523438 -278.68222656 802.30234375 -277.62304688 802.2890625 C-276.55119141 802.25554687 -275.47933594 802.22203125 -274.375 802.1875 C-273.29154297 802.16945313 -272.20808594 802.15140625 -271.09179688 802.1328125 C-268.41447854 802.08563508 -265.73893091 802.01982249 -263.0625 801.9375 C-263.27543701 801.22609863 -263.48837402 800.51469727 -263.70776367 799.78173828 C-266.84428228 788.895149 -267.08672485 778.90031508 -264.0625 767.9375 C-263.4025 767.9375 -262.7425 767.9375 -262.0625 767.9375 C-262.26875 768.824375 -262.475 769.71125 -262.6875 770.625 C-264.00371624 780.06742086 -261.03212654 790.42451183 -257.0625 798.9375 C-255.29019232 801.17040023 -255.29019232 801.17040023 -252.99609375 800.984375 C-250.34471646 800.66903122 -247.70332014 800.33249446 -245.0625 799.9375 C-244.21945312 799.81246094 -243.37640625 799.68742187 -242.5078125 799.55859375 C-238.02891992 798.82530367 -238.02891992 798.82530367 -234.33203125 796.3515625 C-232.55994444 792.98187128 -232.62577974 789.83850239 -232.6875 786.125 C-232.67589844 785.43857422 -232.66429687 784.75214844 -232.65234375 784.04492188 C-232.68099649 778.99726437 -233.82878648 775.4581107 -236.0625 770.9375 C-229.48956889 776.83522435 -227.70714993 785.39588846 -227.0625 793.9375 C-223.72619794 793.01074943 -222.17820728 792.06973689 -219.875 789.4375 C-214.57552841 779.20403761 -215.38813916 768.01951247 -218.5715332 757.18334961 C-221.81032375 747.05906984 -226.36726887 737.49512028 -230.80374146 727.85742188 C-249.17725427 687.87379925 -261.52895145 639.0831542 -245.93359375 595.8046875 C-245.64613281 595.18851563 -245.35867188 594.57234375 -245.0625 593.9375 C-245.12743652 594.52088135 -245.19237305 595.1042627 -245.25927734 595.70532227 C-250.37759092 643.875181 -240.97295045 685.42208207 -220.33398438 728.96411133 C-214.49905988 741.29857332 -208.90598932 753.56197693 -207.63671875 767.3046875 C-207.44722656 768.50351562 -207.25773438 769.70234375 -207.0625 770.9375 C-200.20375398 775.50999735 -190.98913318 774.03644549 -183.0625 773.9375 C-182.95143921 773.02931519 -182.95143921 773.02931519 -182.83813477 772.1027832 C-181.18801726 759.19474206 -178.72361546 746.94611212 -174.6875 734.5625 C-159.35169494 687.39356756 -155.13768031 631.71195908 -171.0625 583.9375 C-163.73970277 597.22422486 -159.86359694 611.06878416 -157.0625 625.9375 C-156.86785156 626.94296875 -156.67320312 627.9484375 -156.47265625 628.984375 C-150.01917872 664.59626559 -154.8202994 699.32911176 -165.31005859 733.46923828 C-174.17758212 761.01365933 -174.17758212 761.01365933 -170.42578125 788.8515625 C-168.70045552 791.49145918 -166.59085004 793.08421523 -164.0625 794.9375 C-164.02382813 793.68646484 -164.02382813 793.68646484 -163.984375 792.41015625 C-163.62644472 785.30849413 -162.98268706 779.03228139 -159.0625 772.9375 C-158.4025 772.6075 -157.7425 772.2775 -157.0625 771.9375 C-157.22234375 772.43507813 -157.3821875 772.93265625 -157.546875 773.4453125 C-158.2606164 776.89506261 -158.28675719 780.30504261 -158.3125 783.8125 C-158.3434375 784.85470703 -158.3434375 784.85470703 -158.375 785.91796875 C-158.41100819 790.69805544 -157.56034034 793.87547808 -155.0625 797.9375 C-151.14300607 801.85699393 -144.33819897 800.99319265 -139.0625 801 C-137.39577851 800.98414803 -135.72906881 800.96507191 -134.0625 800.9375 C-129.43624035 791.47469617 -128.75154549 781.32758074 -128.0625 770.9375 C-123.6928462 781.36427553 -124.89408039 791.18068329 -127.0625 801.9375 C-123.47944008 802.05377503 -119.89686583 802.1247736 -116.3125 802.1875 C-114.78882813 802.23777344 -114.78882813 802.23777344 -113.234375 802.2890625 C-107.51953153 802.47878678 -107.51953153 802.47878678 -102.46875 800.19140625 C-97.22847002 791.79240195 -97.71823604 782.50038779 -98.0625 772.9375 C-93.65241213 782.01361834 -92.92585141 790.05550025 -95.0625 799.9375 C-87.19974973 797.63109325 -80.78389623 795.01959434 -76.0625 787.9375 C-72.89852453 781.13495273 -73.21952871 773.81574002 -75.375 766.75 C-77.36624269 761.59319201 -80.4309593 757.72926884 -83.8125 753.4375 C-87.7642611 748.30462059 -90.40435013 744.71991797 -89.625 737.98828125 C-89.439375 736.98152344 -89.25375 735.97476562 -89.0625 734.9375 C-88.8975 733.71417969 -88.7325 732.49085938 -88.5625 731.23046875 C-87.85194838 726.11151159 -86.94962617 721.02826456 -86.0625 715.9375 C-85.6796237 713.68751086 -85.29681562 711.4375101 -84.9140625 709.1875 C-81.15558285 687.34433281 -76.99720765 665.57561224 -72.84570312 643.80444336 C-72.61143616 642.57587616 -72.37716919 641.34730896 -72.13580322 640.08151245 C-71.69541609 637.77364372 -71.25449696 635.4658764 -70.81292725 633.15823364 C-69.52663846 626.42433454 -68.27650541 619.68481041 -67.0625 612.9375 C-65.96579227 645.88114603 -70.96465684 678.07095313 -76.41992188 710.47265625 C-76.59388489 711.51486832 -76.7678479 712.55708038 -76.94708252 713.63087463 C-77.2744196 715.58533287 -77.60672878 717.53896767 -77.94500732 719.49156189 C-78.76521525 724.38503759 -79.23718133 728.97561737 -79.0625 733.9375 C-77.79277344 733.89109375 -76.52304687 733.8446875 -75.21484375 733.796875 C-56.86005285 733.32770864 -42.10559388 736.37262653 -28.0625 748.9375 C-17.44947357 744.89098079 -8.87636464 726.70559926 -4.0625 716.9375 C-1.34351661 710.73901318 0.85104464 704.37151013 2.9375 697.9375 C3.27523438 696.94363281 3.61296875 695.94976563 3.9609375 694.92578125 C12.23670628 668.17292475 8.36675194 638.35831687 -4.16796875 613.6796875 C-11.09731776 600.66194495 -19.77760031 589.2358574 -29.50439453 578.20654297 C-39.23796945 567.11873154 -42.96506955 556.84191858 -46.1875 542.5625 C-51.65417849 519.29241746 -60.13333706 497.63894476 -70.0625 475.9375 C-72.29940469 471.04515134 -74.53217416 466.15103099 -76.75 461.25 C-77.02570831 460.64075684 -77.30141663 460.03151367 -77.58547974 459.40380859 C-83.78575415 445.65542378 -89.62374103 431.65809873 -93.0625 416.9375 C-96.74714306 416.9375 -98.91965275 418.04320572 -102.3125 419.5 Z " fill="#000000" transform="translate(551.0625,68.0625)"/>
</svg>
