<?xml version="1.0" encoding="UTF-8"?>
<svg version="1.1" xmlns="http://www.w3.org/2000/svg" width="735" height="956">
<path d="M0 0 C9.64839325 8.23643327 19.67943466 20.08227273 21.1875 33.125 C21.249375 34.40375 21.31125 35.6825 21.375 37 C18.66568581 36.84518205 16.90915961 36.51827919 14.9296875 34.59765625 C13.69820358 33.10228292 12.5320163 31.5537076 11.375 30 C9.5877643 31.7872357 9.86272176 34.57577946 9.5625 37 C7.75932598 49.05625838 2.06915861 59.62703748 -7.421875 67.43359375 C-18.79099702 75.51695887 -31.04617951 77.23300483 -44.625 76 C-56.13534255 73.89690678 -66.62174314 68.21559502 -75.16015625 60.26171875 C-76.74270943 58.79447619 -76.74270943 58.79447619 -79.5 57.5625 C-81.625 56 -81.625 56 -82.26953125 52.90234375 C-83.99847639 33.92194596 -79.51996145 16.82918162 -67.8203125 1.66015625 C-49.91218077 -18.36159617 -19.76524755 -15.05923623 0 0 Z " fill="#000000" transform="translate(461.625,307)"/>
</svg>
