<?xml version="1.0" encoding="UTF-8"?>
<svg version="1.1" xmlns="http://www.w3.org/2000/svg" width="735" height="956">
<path d="M0 0 C19.80749514 18.20148202 25.51246993 53.57435984 26.9375 78.9375 C28.02109741 110.64130482 23.37005148 138.33704888 13.19592285 168.23812866 C2.73760688 198.87830015 2.73760688 198.87830015 -0.0625 230.9375 C7.51295243 230.55872738 12.25506302 225.45794328 17.625 220.625 C20.29188107 218.29376757 22.27379926 217.0452559 25.9375 216.9375 C27.63134237 218.63134237 27.19053099 220.67444881 27.25 223 C27.15485983 234.40322849 23.604637 245.61021812 18.9375 255.9375 C19.82953125 255.2878125 20.7215625 254.638125 21.640625 253.96875 C22.82256485 253.12450725 24.00487611 252.28078428 25.1875 251.4375 C25.77402344 251.00824219 26.36054687 250.57898438 26.96484375 250.13671875 C30.33200265 247.75322425 31.69049728 246.9375 35.9375 246.9375 C38.25853611 254.95562474 34.57576182 262.01756241 30.8125 269 C28.14650322 273.72849678 28.14650322 273.72849678 26.9375 274.9375 C27.9275 275.5975 28.9175 276.2575 29.9375 276.9375 C31.99126788 287.04525959 27.7824305 298.25003842 22.9375 306.9375 C23.6166748 306.86748779 24.29584961 306.79747559 24.99560547 306.7253418 C32.98816025 305.97317176 40.94210425 305.75125844 48.96533203 305.75219727 C51.06693345 305.74999535 53.16802088 305.73171085 55.26953125 305.71289062 C62.70714647 305.68301937 69.71975873 306.02870268 76.9375 307.9375 C76.9375 308.2675 76.9375 308.5975 76.9375 308.9375 C76.30585937 308.92702637 75.67421875 308.91655273 75.0234375 308.90576172 C62.95547384 308.73404538 50.97138189 308.812838 38.9375 309.8125 C37.96683594 309.89097168 36.99617187 309.96944336 35.99609375 310.05029297 C33.30062434 310.29444102 30.62203022 310.59421882 27.9375 310.9375 C26.69830811 311.08662842 26.69830811 311.08662842 25.43408203 311.23876953 C21.17163212 311.93523676 19.32246098 312.569601 16.1171875 315.6328125 C15.31865439 316.75508424 14.55121389 317.89998085 13.8125 319.0625 C13.4 319.67270996 12.9875 320.28291992 12.5625 320.91162109 C8.74085746 326.7820557 5.92964081 333.0592248 3.3125 339.5390625 C2.27986976 342.09130202 1.18739556 344.49312626 -0.0625 346.9375 C0.4951001 347.03248779 1.0527002 347.12747559 1.62719727 347.2253418 C25.34453296 351.33049954 25.34453296 351.33049954 35.9375 355.9375 C36.2675 356.5975 36.5975 357.2575 36.9375 357.9375 C28.36374429 357.09655665 19.87975159 355.72408136 11.375 354.375 C9.87437819 354.13848631 8.37372737 353.90215668 6.87304688 353.66601562 C3.22752751 353.09196565 -0.41759267 352.51542494 -4.0625 351.9375 C-4.35745361 352.54940186 -4.65240723 353.16130371 -4.95629883 353.79174805 C-8.74451339 361.13993119 -15.14222702 367.26758683 -21.0625 372.9375 C-22.2071875 374.113125 -22.2071875 374.113125 -23.375 375.3125 C-40.12866268 391.67654261 -59.40673264 403.18478139 -80.0625 413.9375 C-78.85071372 421.81739185 -76.38251529 428.78989332 -73.3125 436.125 C-72.83369385 437.28628418 -72.3548877 438.44756836 -71.86157227 439.64404297 C-67.81252654 449.36563049 -63.47898944 458.95068148 -59.10171509 468.52789307 C-51.27591458 485.66565203 -44.12753144 503.09353907 -38.0625 520.9375 C-37.44246094 520.74414062 -36.82242187 520.55078125 -36.18359375 520.3515625 C-5.9990929 511.47635264 23.47912709 516.69048517 51 530.9375 C62.53032342 537.62148436 72.77370811 546.29140328 81.9375 555.9375 C82.51757812 556.53433594 83.09765625 557.13117187 83.6953125 557.74609375 C89.74254841 564.20833604 94.42930806 571.36661257 98.9375 578.9375 C99.4639209 579.81535156 99.4639209 579.81535156 100.00097656 580.7109375 C117.24673179 609.91353338 122.48347507 644.4779177 114.46606445 677.42553711 C110.67527824 691.93261446 104.34515344 706.19317238 94.9375 717.9375 C94.22722656 718.84757813 93.51695312 719.75765625 92.78515625 720.6953125 C76.9267688 740.59284478 57.04046589 753.23388863 32.9375 760.9375 C34.7565103 762.7565103 37.6251001 762.43664082 40.0859375 762.69921875 C41.38917969 762.84560791 42.69242188 762.99199707 44.03515625 763.14282227 C44.7327002 763.22090118 45.43024414 763.2989801 46.14892578 763.37942505 C57.88288316 764.71127953 69.40638545 766.40675103 80.9375 769 C82.03239746 769.24516357 83.12729492 769.49032715 84.25537109 769.74291992 C90.01474536 771.09013934 95.45476387 772.71672827 100.9375 774.9375 C97.86511225 775.87335092 95.46717804 775.95622317 92.28344727 775.60791016 C90.9053463 775.46248276 90.9053463 775.46248276 89.49940491 775.31411743 C88.51089035 775.2027243 87.52237579 775.09133118 86.50390625 774.9765625 C85.47498764 774.866539 84.44606903 774.7565155 83.38597107 774.64315796 C80.0898942 774.28954665 76.79495106 773.92643937 73.5 773.5625 C65.31415584 772.67177142 57.12730244 771.7911264 48.9375 770.9375 C47.72513672 770.81101074 46.51277344 770.68452148 45.26367188 770.55419922 C35.92419222 769.70722175 26.55931847 769.7863141 17.18945312 769.80712891 C14.31114467 769.81250253 11.43299132 769.80714701 8.5546875 769.80078125 C-4.7819805 769.7940442 -4.7819805 769.7940442 -18.0625 770.9375 C-18.0625 772.9175 -18.0625 774.8975 -18.0625 776.9375 C-17.49161148 776.93305878 -16.92072296 776.92861755 -16.33253479 776.92404175 C32.19569416 776.5638942 32.19569416 776.5638942 47.5 777.8125 C48.48863037 777.89097168 49.47726074 777.96944336 50.49584961 778.05029297 C52.65329051 778.25873557 54.79932652 778.58223425 56.9375 778.9375 C57.2675 779.5975 57.5975 780.2575 57.9375 780.9375 C56.92888916 780.95731934 55.92027832 780.97713867 54.88110352 780.99755859 C36.72087068 781.36457283 18.57249088 781.82087939 0.4375 782.875 C-0.2527829 782.9125238 -0.9430658 782.95004761 -1.65426636 782.9887085 C-11.56129418 783.4058912 -11.56129418 783.4058912 -21.0625 785.9375 C-21.3925 786.5975 -21.7225 787.2575 -22.0625 787.9375 C-20.3913916 787.92178955 -20.3913916 787.92178955 -18.68652344 787.90576172 C5.31207836 787.7008476 29.16615982 788.00146253 53.11181641 789.67529297 C55.7241298 789.85433729 58.33254553 790.01700153 60.94677734 790.15673828 C62.20570801 790.23005371 63.46463867 790.30336914 64.76171875 790.37890625 C66.43947388 790.46893921 66.43947388 790.46893921 68.15112305 790.56079102 C70.9375 790.9375 70.9375 790.9375 73.9375 792.9375 C73.20533768 792.94780746 72.47317535 792.95811493 71.71882629 792.96873474 C54.94432515 793.20590999 38.17019848 793.45940437 21.39633179 793.7379303 C14.04531006 793.8593541 6.69439541 793.96901134 -0.65718079 794.05204773 C-4.10938719 794.09406821 -7.56120005 794.15097301 -11.01309204 794.21340942 C-12.53543834 794.23763458 -14.05790966 794.25504529 -15.58041382 794.26535034 C-17.64290353 794.28014814 -19.70360127 794.31853565 -21.765625 794.36328125 C-23.43093262 794.38515503 -23.43093262 794.38515503 -25.12988281 794.4074707 C-28.70884641 795.05431802 -30.43363458 796.48626886 -33.0625 798.9375 C-32.14887695 799.00743164 -31.23525391 799.07736328 -30.29394531 799.14941406 C-10.08310645 800.72198621 9.9055719 802.7602561 29.9375 805.9375 C29.9375 806.2675 29.9375 806.5975 29.9375 806.9375 C16.28149994 807.04658689 2.64843339 806.99235432 -11 806.5 C-15.80899435 806.33707994 -20.6181262 806.17872153 -25.42736816 806.02331543 C-27.31566347 805.9618214 -29.20392487 805.89928234 -31.09216309 805.83605957 C-38.00888946 805.60597651 -44.9257948 805.40152517 -51.84402466 805.22213745 C-54.18138704 805.1578364 -56.51855403 805.08594467 -58.85543823 805.00613403 C-62.17033334 804.89414614 -65.48495652 804.80946136 -68.80078125 804.73046875 C-69.78823334 804.69112213 -70.77568542 804.65177551 -71.7930603 804.61123657 C-78.73957812 804.48483086 -83.79630768 806.04819342 -90.0625 808.9375 C-111.64489204 816.2600973 -145.91435872 814.16061293 -166.70532227 805.40307617 C-171.07615197 803.76242402 -174.9275345 803.53174799 -179.55859375 803.609375 C-180.35040543 803.61124817 -181.1422171 803.61312134 -181.95802307 803.61505127 C-183.62790157 803.62173575 -185.29776538 803.63557781 -186.9675293 803.65625 C-189.46223351 803.68703397 -191.95629745 803.69719952 -194.45117188 803.703125 C-210.20030527 803.77734068 -224.95555774 804.10020718 -240.0625 808.9375 C-250.72001353 811.82425957 -261.5747497 812.11825905 -272.5625 812.125 C-273.61308594 812.13724609 -274.66367187 812.14949219 -275.74609375 812.16210938 C-286.09076742 812.18128986 -299.47453884 811.55625437 -307.76513672 804.48535156 C-313.37081311 799.70809326 -317.5669131 799.10752801 -324.8125 799.1875 C-326.76181105 799.15636551 -328.71104519 799.11994651 -330.66015625 799.078125 C-331.58973145 799.06201172 -332.51930664 799.04589844 -333.47705078 799.02929688 C-339.46767063 798.81659876 -345.37352885 797.83382372 -351.0625 795.9375 C-353.7940956 795.85242921 -356.49941443 795.82158435 -359.23046875 795.83984375 C-360.02528152 795.8412587 -360.8200943 795.84267365 -361.63899231 795.84413147 C-364.17603325 795.84972622 -366.71298575 795.86227772 -369.25 795.875 C-370.97070185 795.88001568 -372.69140508 795.88457847 -374.41210938 795.88867188 C-378.6289403 795.89969393 -382.84570516 795.91695494 -387.0625 795.9375 C-384.83560135 793.71060135 -384.13801844 793.57546155 -381.140625 793.0859375 C-379.97273438 792.89257812 -379.97273438 792.89257812 -378.78125 792.6953125 C-377.9665625 792.56898438 -377.151875 792.44265625 -376.3125 792.3125 C-375.51328125 792.1784375 -374.7140625 792.044375 -373.890625 791.90625 C-369.56887029 791.20965138 -365.45583326 790.78160753 -361.0625 790.9375 C-361.3925 790.2775 -361.7225 789.6175 -362.0625 788.9375 C-371.44801656 788.75483824 -380.76592511 789.33375407 -390.125 789.9375 C-399.11152532 790.51583593 -408.05103528 791.08039736 -417.0625 790.9375 C-414.12081756 787.99581756 -410.58205243 787.77177099 -406.625 787 C-405.33384277 786.74331543 -405.33384277 786.74331543 -404.01660156 786.48144531 C-392.13471698 784.2387135 -380.0877654 783.11666068 -368.0625 781.9375 C-368.7225 780.2875 -369.3825 778.6375 -370.0625 776.9375 C-375.3969693 776.91252589 -380.73140354 776.89451202 -386.06591797 776.88256836 C-387.87549432 776.87758197 -389.68506674 776.87079046 -391.49462891 776.86206055 C-401.39916213 776.81552183 -411.20413264 776.8215771 -421.0625 777.9375 C-421.0625 777.2775 -421.0625 776.6175 -421.0625 775.9375 C-410.95742289 773.16493706 -400.91432645 771.37920007 -390.5 770.1875 C-388.84218506 769.99643677 -388.84218506 769.99643677 -387.15087891 769.80151367 C-381.41873792 769.18079997 -375.82732684 768.79774662 -370.0625 768.9375 C-370.145 767.803125 -370.2275 766.66875 -370.3125 765.5 C-370.28391818 757.39705416 -365.67073743 749.59170659 -360.0625 743.9375 C-355.05120554 740.19376826 -349.93065604 737.12346771 -344.0625 734.9375 C-346.08162681 731.38222689 -348.35544656 728.16721484 -350.83129883 724.92797852 C-370.03238759 699.68008328 -379.52511626 668.98243816 -375.73291016 637.17285156 C-373.071104 618.85469716 -367.80574608 598.79884305 -355.81640625 584.203125 C-353.12581102 579.19346439 -353.55772134 574.34819724 -353.5625 568.75 C-352.81659022 528.94111923 -340.71232075 493.49226556 -325.32951355 457.30271912 C-323.07005892 451.97748954 -320.87046832 446.63202891 -318.75 441.25 C-318.46632568 440.54447998 -318.18265137 439.83895996 -317.89038086 439.11206055 C-316.59216535 435.7767359 -316.0625 433.58504425 -316.0625 429.9375 C-317.12460693 429.41953857 -318.18671387 428.90157715 -319.28100586 428.36791992 C-323.31405869 426.39749466 -327.33991808 424.41271762 -331.36401367 422.42407227 C-333.08904442 421.57393902 -334.81587034 420.72743639 -336.54467773 419.88500977 C-356.66045819 410.07600474 -375.58652497 398.57919484 -391.5625 382.75 C-392.13830811 382.17983154 -392.71411621 381.60966309 -393.30737305 381.0222168 C-397.01535983 377.24993281 -400.08475418 373.3096753 -403.0625 368.9375 C-405.58371432 369.56099358 -408.10446931 370.18625361 -410.625 370.8125 C-411.68170898 371.07353516 -411.68170898 371.07353516 -412.75976562 371.33984375 C-417.22274998 372.45044815 -421.64737052 373.64951216 -426.0625 374.9375 C-425.0625 371.9375 -425.0625 371.9375 -422.296875 370.40234375 C-420.57210937 369.64630859 -420.57210937 369.64630859 -418.8125 368.875 C-417.10320312 368.11509766 -417.10320312 368.11509766 -415.359375 367.33984375 C-412.60648298 366.16888612 -409.84676492 365.03131836 -407.0625 363.9375 C-408.1878203 361.11612278 -409.3219277 358.2986864 -410.46484375 355.484375 C-410.97667905 354.21879713 -411.48839361 352.95317042 -412 351.6875 C-412.40520874 350.69278687 -412.40520874 350.69278687 -412.81860352 349.67797852 C-414.2559995 346.10907617 -415.48691997 342.59173735 -416.5 338.875 C-417.78773091 334.82243507 -419.88726619 332.92441796 -423.24609375 330.4140625 C-425.18286968 328.8396511 -426.45854128 327.18965581 -427.9375 325.1875 C-431.4447726 321.02089679 -434.81967053 320.57870936 -440.0625 319.9375 C-441.13371094 319.75574219 -442.20492187 319.57398438 -443.30859375 319.38671875 C-458.17492702 317.03434955 -473.11734068 317.57219996 -488.0625 318.9375 C-480.29723255 313.76065503 -469.6136461 314.65356619 -460.625 314.75 C-458.91860352 314.7509668 -458.91860352 314.7509668 -457.17773438 314.75195312 C-449.76283155 314.79002165 -442.44084999 315.20880513 -435.0625 315.9375 C-435.495625 315.03386719 -435.92875 314.13023437 -436.375 313.19921875 C-437.2103125 311.42998047 -437.2103125 311.42998047 -438.0625 309.625 C-438.619375 308.45324219 -439.17625 307.28148437 -439.75 306.07421875 C-441.0625 302.9375 -441.0625 302.9375 -441.0625 299.9375 C-435.40855369 299.59134002 -432.03243194 300.50324762 -427.0625 302.9375 C-427.42601562 302.47601563 -427.78953125 302.01453125 -428.1640625 301.5390625 C-434.54449214 293.26086405 -439.5763959 284.81201496 -443.0625 274.9375 C-443.495625 273.720625 -443.92875 272.50375 -444.375 271.25 C-445.17237345 267.40810974 -445.10113632 264.72110374 -444.0625 260.9375 C-442.22265625 259.65625 -442.22265625 259.65625 -440.0625 258.9375 C-434.02009888 261.24459861 -428.95043973 264.98411508 -423.80688477 268.85083008 C-420.24955012 271.43842779 -417.44134328 272.54958445 -413.0625 272.9375 C-407.52556721 264.63210081 -412.22739514 249.18906458 -414.0625 239.9375 C-416.97609024 226.71329457 -421.78105979 214.27654801 -426.80908203 201.7355957 C-447.67802516 149.47105432 -457.28417045 86.9771543 -436.23828125 32.81640625 C-433.7203796 27.51855889 -429.10718883 24.58418534 -424.0625 21.9375 C-411.10768192 17.61922731 -397.35177635 22.91799536 -385.0625 26.9375 C-384.31564941 27.17774902 -383.56879883 27.41799805 -382.79931641 27.66552734 C-364.94249768 33.4672484 -347.63680568 41.13906895 -331.0625 49.9375 C-329.9075 50.54980469 -328.7525 51.16210938 -327.5625 51.79296875 C-313.94458434 59.29829727 -301.23235506 68.16937812 -290.05883789 79.01245117 C-289.4889917 79.5407251 -288.91914551 80.06899902 -288.33203125 80.61328125 C-287.84323486 81.08677002 -287.35443848 81.56025879 -286.85083008 82.0480957 C-282.70364658 84.11064717 -277.27274641 81.48753054 -273.09765625 80.1953125 C-271.41518799 79.68133911 -271.41518799 79.68133911 -269.69873047 79.15698242 C-267.92973389 78.61521362 -267.92973389 78.61521362 -266.125 78.0625 C-256.47426109 75.1711004 -247.04038491 72.42821986 -237.0625 70.9375 C-236.23298828 70.80504883 -235.40347656 70.67259766 -234.54882812 70.53613281 C-203.77278637 65.73075085 -171.00459453 65.61902824 -141.0625 74.9375 C-140.84078125 74.40125 -140.6190625 73.865 -140.390625 73.3125 C-120.15324041 37.12329462 -62.06326056 9.9155651 -25.0625 -4.0625 C-15.77865569 -6.34201534 -7.94707533 -5.35211196 0 0 Z " fill="#FEFEFE" transform="translate(551.0625,68.0625)"/>
</svg>
