<?xml version="1.0" encoding="UTF-8"?>
<svg version="1.1" xmlns="http://www.w3.org/2000/svg" width="735" height="956">
<path d="M0 0 C0.66 0 1.32 0 2 0 C13.51400592 27.9625858 12.38871496 66.2131426 1.06738281 94.31494141 C-2.14457507 101.61813458 -5.25694971 107.25694971 -11 113 C-16.61 111.35 -22.22 109.7 -28 108 C-27.01 107.01 -26.02 106.02 -25 105 C-24.34 105 -23.68 105 -23 105 C-23.33 104.01 -23.66 103.02 -24 102 C-25.28777344 101.87882812 -26.57554687 101.75765625 -27.90234375 101.6328125 C-29.58077848 101.46403135 -31.25916135 101.29473387 -32.9375 101.125 C-33.78763672 101.04636719 -34.63777344 100.96773438 -35.51367188 100.88671875 C-36.72700195 100.76103516 -36.72700195 100.76103516 -37.96484375 100.6328125 C-38.7137085 100.55949707 -39.46257324 100.48618164 -40.23413086 100.41064453 C-40.81686768 100.27513184 -41.39960449 100.13961914 -42 100 C-42.495 99.01 -42.495 99.01 -43 98 C-39.535 97.01 -39.535 97.01 -36 96 C-39.96 95.67 -43.92 95.34 -48 95 C-48 94.34 -48 93.68 -48 93 C-40.91890012 87.87145471 -33.52059814 84.76114725 -25 83 C-30.96877167 80.01561416 -39.89757197 82.01316297 -46 84 C-48.76253741 85.20832187 -51.3482636 86.55359833 -54 88 C-52.47987323 82.59510481 -48.72614782 79.01507372 -45 75 C-48.47510754 75.53738776 -50.81462032 76.25759065 -53.625 78.375 C-54.19476563 78.79523438 -54.76453125 79.21546875 -55.3515625 79.6484375 C-57.01179338 81.00966946 -58.51004257 82.4558623 -60 84 C-57.9685195 57.59075356 -38.45648964 37.10603344 -21 19 C-20.17371094 18.13246094 -19.34742188 17.26492187 -18.49609375 16.37109375 C-13.04290305 10.76181888 -7.10327944 5.88262355 -1 1 C-0.67 0.67 -0.34 0.34 0 0 Z " fill="#FFFFFF" transform="translate(529,100)"/>
</svg>
