<?xml version="1.0" encoding="UTF-8"?>
<svg version="1.1" xmlns="http://www.w3.org/2000/svg" width="735" height="956">
<path d="M0 0 C0 3.87624922 -1.47244427 6.4560707 -3 10 C-5.48348485 18.80508265 -3.91902358 27.52891781 0.125 35.5625 C3.91001265 41.98925169 9.45211913 47.28856114 16.671875 49.5625 C27.40550592 51.57955816 35.15964141 49.66453873 44.1875 44 C50.46749216 38.24626417 53.23428383 30.01614102 53.875 21.75 C53.9424624 19.83406784 53.99381578 17.91710954 54 16 C57.42945852 19.03459549 59.02007182 21.81765917 60.6875 26.0625 C61.10386719 27.10535156 61.52023437 28.14820313 61.94921875 29.22265625 C63.68886066 33.82074324 64.55889351 37.04980032 64 42 C58.01885833 54.51017419 47.37815892 61.82059602 35 67 C25.76962552 70.08890484 14.77486126 68.55104609 6.07421875 64.73046875 C-4.4063171 58.83100575 -10.90861398 50.46736968 -14.625 39.0859375 C-16.48114285 28.76114289 -15.33360603 19.08442125 -10 10 C-7.06467518 5.97276004 -4.15202539 2.76801693 0 0 Z " fill="#FFFFFF" transform="translate(235,319)"/>
</svg>
