<?xml version="1.0" encoding="UTF-8"?>
<svg version="1.1" xmlns="http://www.w3.org/2000/svg" width="735" height="956">
<path d="M0 0 C13.91042879 11.26718032 19.66650233 29.29501323 22.59765625 46.3359375 C23.03425336 53.46274328 23.03425336 53.46274328 21.59765625 56.3359375 C20.29828125 56.6453125 20.29828125 56.6453125 18.97265625 56.9609375 C14.82621195 58.65022962 13.17226015 60.86965646 10.359375 64.25 C3.06826245 72.88293593 -7.57867342 78.39607361 -18.75 80.15234375 C-33.24025429 81.15535104 -46.28139868 77.80655683 -57.40234375 68.3359375 C-66.36168564 60.00642632 -70.6576626 50.34038544 -72.40234375 38.3359375 C-72.7890625 39.19058594 -73.17578125 40.04523438 -73.57421875 40.92578125 C-74.095 42.03050781 -74.61578125 43.13523437 -75.15234375 44.2734375 C-75.91804687 45.92666016 -75.91804687 45.92666016 -76.69921875 47.61328125 C-78.40234375 50.3359375 -78.40234375 50.3359375 -80.54296875 51.27734375 C-81.1565625 51.29667969 -81.77015625 51.31601562 -82.40234375 51.3359375 C-83.40234375 50.3359375 -83.40234375 50.3359375 -83.5625 46.75390625 C-83.33108725 30.25013673 -75.56510334 15.43754696 -64.1484375 3.9296875 C-45.47939201 -13.70366414 -20.4961934 -14.19736323 0 0 Z " fill="#000000" transform="translate(284.40234375,313.6640625)"/>
</svg>
