<?xml version="1.0" encoding="UTF-8"?>
<svg version="1.1" xmlns="http://www.w3.org/2000/svg" width="735" height="956">
<path d="M0 0 C7.28353321 0.60194399 14.5047062 1.41446817 21.73828125 2.453125 C23.22541122 2.66375832 23.22541122 2.66375832 24.74258423 2.87864685 C27.93308903 3.33212191 31.12286278 3.79046458 34.3125 4.25 C35.40281525 4.40651031 36.49313049 4.56302063 37.6164856 4.72427368 C103.64237497 14.21800627 103.64237497 14.21800627 118 21 C115.43541388 22.28229306 114.47483371 21.84493966 111.69140625 21.25 C110.74160889 21.05704346 109.79181152 20.86408691 108.81323242 20.6652832 C107.74049072 20.44573975 106.66774902 20.22619629 105.5625 20 C86.00024513 16.17010304 66.20939078 13.7776245 46.4604187 11.13395691 C43.64022089 10.75640405 40.820088 10.37837212 38 10 C36.86958786 9.84865097 36.86958786 9.84865097 35.71633911 9.69424438 C28.75641225 8.75649474 21.89000652 7.71785455 15.0625 6.0625 C14.37349609 5.90587891 13.68449219 5.74925781 12.97460938 5.58789062 C8.39402141 4.50016349 4.28153353 2.95934585 0 1 C0 0.67 0 0.34 0 0 Z " fill="#000000" transform="translate(151,379)"/>
</svg>
