<?xml version="1.0" encoding="UTF-8"?>
<svg version="1.1" xmlns="http://www.w3.org/2000/svg" width="735" height="956">
<path d="M0 0 C6.2905012 4.56223942 12.66255324 10.56894097 15.64453125 17.91796875 C15.14953125 19.40296875 15.14953125 19.40296875 14.64453125 20.91796875 C14.1340625 20.37269531 13.62359375 19.82742188 13.09765625 19.265625 C1.24836957 6.97514147 -13.52768611 -4.79696479 -31.30078125 -5.34765625 C-33.02734365 -5.3528962 -34.75396825 -5.34756199 -36.48046875 -5.33203125 C-37.34800781 -5.33976562 -38.21554688 -5.3475 -39.109375 -5.35546875 C-43.96440915 -5.34068935 -47.76567977 -4.82445114 -52.35546875 -3.08203125 C-54.73046875 -3.45703125 -54.73046875 -3.45703125 -56.35546875 -4.08203125 C-39.46894419 -17.68506492 -16.19718835 -10.62444942 0 0 Z " fill="#000000" transform="translate(283.35546875,270.08203125)"/>
</svg>
