<?xml version="1.0" encoding="UTF-8"?>
<svg version="1.1" xmlns="http://www.w3.org/2000/svg" width="735" height="956">
<path d="M0 0 C13.32376595 23.66963952 11.57993223 56.19541197 5.1875 81.6875 C1.15907309 95.73534769 -4.38509651 113.29098555 -18 121 C-27.86018318 123.8370346 -43.36155177 117.63007737 -52 113 C-52.78375 112.60425781 -53.5675 112.20851563 -54.375 111.80078125 C-63.28520989 106.94193242 -72.06415261 99.53490771 -76 90 C-78.7871013 75.56231306 -70.36629047 59.8300426 -63 48 C-60.54392743 44.45179053 -57.84981199 41.23614213 -55 38 C-54.07005099 36.88128219 -53.14317999 35.76000139 -52.21875 34.63671875 C-40.15630304 20.08572711 -24.72058484 4.71953427 -7.03515625 -2.83984375 C-3.83125988 -3.09197379 -2.46551469 -1.99683059 0 0 Z M-11.625 8.0625 C-14.67016868 10.86405518 -17.7203856 13.63505417 -20.875 16.3125 C-30.13082077 24.40900584 -38.52696038 33.23364663 -46 43 C-46.40460449 43.52287598 -46.80920898 44.04575195 -47.22607422 44.58447266 C-56.42615073 56.56473376 -67.44021412 72.28985854 -67 88 C-66.55269531 87.60167969 -66.10539062 87.20335937 -65.64453125 86.79296875 C-56.75182482 79 -56.75182482 79 -52 79 C-52.56589844 79.60328125 -53.13179688 80.2065625 -53.71484375 80.828125 C-54.44832031 81.62734375 -55.18179687 82.4265625 -55.9375 83.25 C-57.03384766 84.43335938 -57.03384766 84.43335938 -58.15234375 85.640625 C-59.91420543 87.89044414 -60.59776603 89.21628554 -61 92 C-60.27554687 91.65066406 -59.55109375 91.30132812 -58.8046875 90.94140625 C-49.79766011 86.70209869 -42.8771488 85.84182502 -33 86 C-34.84492975 87.84492975 -37.65222556 88.37554911 -40.0625 89.25 C-45.54853578 91.33445192 -50.24947338 93.55353951 -55 97 C-55 97.66 -55 98.32 -55 99 C-51.04 99.33 -47.08 99.66 -43 100 C-46.465 100.99 -46.465 100.99 -50 102 C-49.505 102.99 -49.505 102.99 -49 104 C-47.16471137 104.46727852 -47.16471137 104.46727852 -44.96484375 104.6328125 C-43.75151367 104.75849609 -43.75151367 104.75849609 -42.51367188 104.88671875 C-41.66353516 104.96535156 -40.81339844 105.04398437 -39.9375 105.125 C-38.65649414 105.25455078 -38.65649414 105.25455078 -37.34960938 105.38671875 C-35.23389367 105.59947228 -33.11703476 105.80079953 -31 106 C-30.67 106.99 -30.34 107.98 -30 109 C-32.475 109.99 -32.475 109.99 -35 111 C-31.57452501 113.28364999 -28.24343863 114.13400707 -24.3125 115.125 C-23.61060547 115.30675781 -22.90871094 115.48851562 -22.18554688 115.67578125 C-20.45833732 116.12227079 -18.72933544 116.5618166 -17 117 C2.3045949 91.35326153 4.85808453 56.91633423 0.99536133 25.89233398 C-0.06548954 18.55620437 -1.67146622 10.65706757 -5 4 C-8.12808842 4 -9.37434701 5.97559421 -11.625 8.0625 Z " fill="#000000" transform="translate(536,96)"/>
</svg>
