<?xml version="1.0" encoding="UTF-8"?>
<svg version="1.1" xmlns="http://www.w3.org/2000/svg" width="735" height="956">
<path d="M0 0 C-2.97 -2.64 -5.94 -5.28 -9 -8 C-4.83853629 -10.08073186 0.7693976 -7.27478417 5 -6 C20.0055986 -0.9059085 32.94801 6.72102156 45 17 C45.64066406 17.50789062 46.28132812 18.01578125 46.94140625 18.5390625 C48.33416238 19.64421934 49.67499085 20.8144655 51 22 C51 22.66 51 23.32 51 24 C51.66 24 52.32 24 53 24 C54.48022421 25.61048394 55.88467453 27.29102118 57.25 29 C58.04792969 29.99644531 58.84585938 30.99289062 59.66796875 32.01953125 C62.50071641 35.63994409 65.28799324 39.2882731 68 43 C67.505 43.99 67.505 43.99 67 45 C66.45472656 44.60167969 65.90945313 44.20335937 65.34765625 43.79296875 C58.62630754 39.07079042 52.12684027 36.31078069 44 35 C46.38343175 37.6343193 48.93913421 39.22042687 52 41 C68.2583811 51.21525268 81.02596585 69.0416637 85.41992188 87.73046875 C86.40117556 93.26117131 86.44541909 98.70858071 86.375 104.3125 C86.35759766 106.09406494 86.35759766 106.09406494 86.33984375 107.91162109 C85.96308942 128.15939614 79.99904791 145.30723304 67 161 C66.30132813 161.84949219 65.60265625 162.69898438 64.8828125 163.57421875 C57.64614838 171.98265589 49.10817471 178.72547965 40 185 C40.33 185.33 40.66 185.66 41 186 C42.69752187 185.74754803 44.38471545 185.42354225 46.0625 185.0625 C46.98160156 184.86785156 47.90070313 184.67320312 48.84765625 184.47265625 C49.55792969 184.31667969 50.26820313 184.16070313 51 184 C41.1282187 194.44809998 28.29466796 200.95623046 15 206 C14.30036133 206.26796387 13.60072266 206.53592773 12.87988281 206.81201172 C-4.55292202 213.36216083 -22.4143235 216.5128263 -41 217 C-39.824375 215.4221875 -39.824375 215.4221875 -38.625 213.8125 C-38.07457031 213.07 -37.52414062 212.3275 -36.95703125 211.5625 C-35.59737983 209.78219793 -34.19531494 208.03381619 -32.76171875 206.3125 C-17.52582183 187.65034875 -8.95809573 165.57772134 -5 142 C-4.82525146 141.07880371 -4.65050293 140.15760742 -4.47045898 139.20849609 C-3.98439762 135.89359292 -3.90600062 132.77823921 -3.9296875 129.4296875 C-3.919375 128.20378906 -3.9090625 126.97789062 -3.8984375 125.71484375 C-3.88276503 123.14717136 -3.89072194 120.57924998 -3.921875 118.01171875 C-3.78673546 108.85118843 -3.78673546 108.85118843 -1.49804688 106.375 C0.3515625 105.3671875 0.3515625 105.3671875 4 104 C10.5372906 97.57076379 13.12831688 90.31870521 13.4375 81.3125 C13.03210681 65.50216564 6.01684375 53.04612188 -5.26953125 42.2890625 C-15.03595248 34.10147618 -26.26311696 29.52407218 -38.875 28.25 C-43.36652874 27.63214617 -45.7615122 27.03103543 -48.625 23.4375 C-53.81789442 14.79304103 -56.23458367 4.03296332 -56 -6 C-54.60550891 -6.483059 -53.20933293 -6.96125517 -51.8125 -7.4375 C-51.03519531 -7.70433594 -50.25789062 -7.97117187 -49.45703125 -8.24609375 C-31.95723869 -13.61566444 -15.70361773 -7.82572312 0 0 Z " fill="#FEFEFE" transform="translate(572,608)"/>
</svg>
