<?xml version="1.0" encoding="UTF-8"?>
<svg version="1.1" xmlns="http://www.w3.org/2000/svg" width="735" height="956">
<path d="M0 0 C0 0.66 0 1.32 0 2 C-1.00417969 2.02578125 -2.00835937 2.0515625 -3.04296875 2.078125 C-20.03315009 2.70065962 -34.12080671 7.2039416 -46.1484375 19.80078125 C-48.88734885 23.05396076 -51.24474264 26.52676538 -53.5546875 30.09375 C-54.03164063 30.7228125 -54.50859375 31.351875 -55 32 C-55.66 32 -56.32 32 -57 32 C-55.20710494 25.20587137 -52.49830689 20.35858217 -48 15 C-47.24460937 14.01773437 -46.48921875 13.03546875 -45.7109375 12.0234375 C-39.50551183 4.61430318 -28.77880451 0.0844622 -19.46484375 -1.74609375 C-12.87660566 -2.22888459 -6.47499308 -1.1553582 0 0 Z " fill="#000000" transform="translate(438,250)"/>
</svg>
