<?xml version="1.0" encoding="UTF-8"?>
<svg version="1.1" xmlns="http://www.w3.org/2000/svg" width="735" height="956">
<path d="M0 0 C0.77070328 -0.00570007 1.54140656 -0.01140015 2.33546448 -0.01727295 C3.96882753 -0.02673567 5.60220978 -0.03326196 7.2355957 -0.03710938 C9.74008304 -0.0468214 12.24375215 -0.07783414 14.74804688 -0.109375 C16.33202636 -0.11590411 17.91601173 -0.12115494 19.5 -0.125 C20.62818398 -0.1435202 20.62818398 -0.1435202 21.77915955 -0.16241455 C23.89233398 -0.15332031 23.89233398 -0.15332031 27.31640625 0.203125 C27.97640625 1.193125 28.63640625 2.183125 29.31640625 3.203125 C28.51122559 3.25847412 27.70604492 3.31382324 26.87646484 3.37084961 C23.8160706 3.58131468 20.75568798 3.79194785 17.6953125 4.00268555 C15.7487065 4.13668072 13.80208781 4.27049159 11.85546875 4.40429688 C3.34146992 4.99072026 -5.1714149 5.59087438 -13.68359375 6.203125 C-8.52812414 1.04765539 -7.2113864 0.04063865 0 0 Z " fill="#FFFFFF" transform="translate(346.68359375,862.796875)"/>
</svg>
