<?xml version="1.0" encoding="UTF-8"?>
<svg version="1.1" xmlns="http://www.w3.org/2000/svg" width="735" height="956">
<path d="M0 0 C7.2757738 0.41933176 12.67929559 2.22643272 19.1875 5.4375 C20.10442627 5.88343506 21.02135254 6.32937012 21.96606445 6.78881836 C33.21376955 12.40823219 42.71591289 19.46965433 51.90234375 28.05859375 C54.09761416 30.14680866 54.09761416 30.14680866 57.0625 32.375 C69.8977029 43.84475578 80.75844895 60.60333053 82.8359375 77.875 C83.39735044 88.56857985 78.73876944 96.9934019 72.21875 105.2578125 C62.42455423 115.84052403 48.36361318 122.91595372 34 124 C33.9175 123.38125 33.835 122.7625 33.75 122.125 C33.2274574 119.85420822 33.2274574 119.85420822 31.22265625 119.12890625 C21.69817492 114.29134016 16.43908245 102.61981105 13 93 C13.495 92.01 13.495 92.01 14 91 C14.34256836 91.51908936 14.68513672 92.03817871 15.03808594 92.57299805 C16.60624432 94.94614792 18.17808688 97.31683567 19.75 99.6875 C20.28882813 100.50412109 20.82765625 101.32074219 21.3828125 102.16210938 C27.06871519 111.1632033 27.06871519 111.1632033 35 118 C40.0201606 116.78899635 44.38130924 114.33956296 48.875 111.875 C49.56335938 111.50246094 50.25171875 111.12992187 50.9609375 110.74609375 C52.64294798 109.83500474 54.32180436 108.91809685 56 108 C55.38511719 108.02320313 54.77023438 108.04640625 54.13671875 108.0703125 C53.32847656 108.08835937 52.52023438 108.10640625 51.6875 108.125 C50.48673828 108.15980469 50.48673828 108.15980469 49.26171875 108.1953125 C47 108 47 108 44 106 C44 105.34 44 104.68 44 104 C45.72850345 103.20688633 47.45783354 102.4155741 49.1875 101.625 C50.15042969 101.18414062 51.11335938 100.74328125 52.10546875 100.2890625 C53.06066406 99.86367187 54.01585937 99.43828125 55 99 C55.86238281 98.61585938 56.72476563 98.23171875 57.61328125 97.8359375 C60 97 60 97 64 97 C64 96.34 64 95.68 64 95 C59.71 95 55.42 95 51 95 C53.83328987 92.16671013 55.35446828 91.2808625 59 90 C52.16217825 87.5579208 45.20568193 87.37977242 38 87 C40.55981155 83.87134144 43.12123445 82.97315045 47 82 C50.69140625 81.76953125 50.69140625 81.76953125 54.5625 81.8125 C55.84253906 81.81894531 57.12257812 81.82539063 58.44140625 81.83203125 C61.42937609 81.97306605 64.10047953 82.3043377 67 83 C63.04850342 79.54244049 59.0588453 76.69025303 54.5390625 74.015625 C54.03117187 73.68046875 53.52328125 73.3453125 53 73 C53 72.67 53 72.34 53 72 C59.45512034 71.43868519 64.15439723 73.36536213 70 76 C64.98843824 60.61274255 56.0733415 49.45191728 45 38 C44.19820312 37.14664063 43.39640625 36.29328125 42.5703125 35.4140625 C32.35486786 24.79669872 20.52696003 16.43229469 8.22094727 8.41479492 C7.44162842 7.89763916 6.66230957 7.3804834 5.859375 6.84765625 C5.16295898 6.39398682 4.46654297 5.94031738 3.74902344 5.47290039 C1.78970867 3.82290793 0.97690632 2.34576958 0 0 Z " fill="#000000" transform="translate(132,118)"/>
</svg>
