<?xml version="1.0" encoding="UTF-8"?>
<svg version="1.1" xmlns="http://www.w3.org/2000/svg" width="735" height="956">
<path d="M0 0 C-0.37511719 0.4846875 -0.75023437 0.969375 -1.13671875 1.46875 C-11.18279344 14.6273365 -15.38535271 24.49997493 -13.765625 41.453125 C-13.55519974 42.97561364 -13.28758409 44.49018351 -13 46 C-18.35075856 45.36453986 -20.19027534 43.14099779 -23.48828125 39.11328125 C-27.01023443 34.18982732 -27.39433598 28.85475223 -28 23 C-30.5012521 28.0025042 -30.89309435 32.96967408 -29.32421875 38.29296875 C-28.60560593 40.21721634 -27.80913106 42.11202752 -27 44 C-35.09500452 43.8097328 -35.09500452 43.8097328 -38.375 40.875 C-41.66217355 35.05923142 -43.41442497 30.76894112 -43 24 C-43.66 24 -44.32 24 -45 24 C-45 28.62 -45 33.24 -45 38 C-49.4999918 34.44737489 -51.02303791 31.36051486 -51.91015625 25.69140625 C-52.11201415 19.64444566 -50.13554366 14.78934152 -46.9375 9.75 C-34.66840946 -3.0635768 -16.27045419 -3.56781226 0 0 Z " fill="#FFFFFF" transform="translate(242,812)"/>
</svg>
