<?xml version="1.0" encoding="UTF-8"?>
<svg version="1.1" xmlns="http://www.w3.org/2000/svg" width="735" height="956">
<path d="M0 0 C0.66 0.99 1.32 1.98 2 3 C1.50371094 3.30292969 1.00742187 3.60585938 0.49609375 3.91796875 C-3.59133061 6.43867637 -7.45670276 9.02392994 -11.1640625 12.08203125 C-13.96101821 13.48050911 -15.8975331 13.33933232 -19 13 C-21.58015238 11.91710949 -23.93027047 10.82188925 -26.375 9.5 C-27.01566406 9.16613281 -27.65632813 8.83226562 -28.31640625 8.48828125 C-29.88333671 7.66973549 -31.44250241 6.83635487 -33 6 C-32.67578125 3.609375 -32.67578125 3.609375 -32 1 C-22.65804388 -4.8127727 -9.70762103 -5.04049553 0 0 Z " fill="#FFFFFF" transform="translate(358,388)"/>
</svg>
