<?xml version="1.0" standalone="no"?>
<!DOCTYPE svg PUBLIC "-//W3C//DTD SVG 20010904//EN" "http://www.w3.org/TR/2001/REC-SVG-20010904/DTD/svg10.dtd">
<svg xmlns="http://www.w3.org/2000/svg" version="1.0" width="993.000000pt" height="949.000000pt"
     viewBox="0 0 993.000000 949.000000" preserveAspectRatio="xMidYMid meet">
    <g transform="translate(0.000000,949.000000) scale(0.100000,-0.100000)" fill="#000000" stroke="none">
        <path d="M5581 4255 c-48 -64 -50 -90 -4 -51 40 33 44 33 37 -6 l-6 -33 25 29 24 30 12 -23 c15 -26 35 -15 45 24 4 14 11 25 16 25 14 0 30 -35 30 -69 0 -36 16 -49 25 -21 9 27 17 25 43 -10 32 -42 43 -37 24 10 -21 50 -111 150 -136 150 -10 0 -20 -9 -23 -20 -3 -11 -11 -20 -17 -20 -6 0 -18 9 -26 20 -8 11 -17 20 -21 20 -4 0 -25 -25 -48 -55z"/>
    </g>
</svg>
