<?xml version="1.0" standalone="no"?>
<!DOCTYPE svg PUBLIC "-//W3C//DTD SVG 20010904//EN" "http://www.w3.org/TR/2001/REC-SVG-20010904/DTD/svg10.dtd">
<svg xmlns="http://www.w3.org/2000/svg" version="1.0" width="993.000000pt" height="949.000000pt"
     viewBox="0 0 993.000000 949.000000" preserveAspectRatio="xMidYMid meet">
    <g transform="translate(0.000000,949.000000) scale(0.100000,-0.100000)" fill="#000000" stroke="none">
        <path d="M5145 4537 c-2 -7 -5 -23 -7 -36 -7 -57 -68 -53 -68 4 0 19 -4 35 -9 35 -5 0 -30 -23 -55 -51 -44 -49 -88 -150 -73 -166 4 -3 8 -4 10 -2 1 2 13 27 27 54 17 34 31 50 44 50 17 0 19 -8 20 -57 1 -31 7 -63 14 -70 9 -10 12 -2 12 40 0 50 1 52 40 72 21 11 48 30 59 42 l21 21 17 -39 18 -39 3 38 c2 20 7 37 11 37 8 0 44 -75 59 -125 l9 -30 18 43 c21 52 33 53 37 5 4 -47 22 -50 26 -5 4 38 20 41 52 7 39 -41 54 -30 20 16 -16 23 -32 57 -36 75 -7 39 -26 43 -64 14 -35 -27 -44 -25 -87 21 -40 42 -110 69 -118 46z"/>
    </g>
</svg>
