<?xml version="1.0" standalone="no"?>
<!DOCTYPE svg PUBLIC "-//W3C//DTD SVG 20010904//EN" "http://www.w3.org/TR/2001/REC-SVG-20010904/DTD/svg10.dtd">
<svg version="1.0" xmlns="http://www.w3.org/2000/svg" width="2872.000000pt" height="1764.000000pt" viewBox="0 0 2872.000000 1764.000000" preserveAspectRatio="xMidYMid meet" >
<g transform="translate(0.000000,1764.000000) scale(0.100000,-0.100000)" fill="#000000" stroke="none" >
  <path d="m 14075,17634 c -159,-5 -589,-31 -795,-50 -1237,-109 -2361,-479 -3455,-1137 -251,-150 -448,-289 -894,-625 -199,-150 -266,-196 -305,-207 -41,-11 -217,-15 -911,-19 -977,-5 -1477,-20 -2315,-67 -860,-48 -1220,-77 -1855,-150 -462,-53 -1249,-156 -1680,-219 -678,-100 -1124,-175 -1235,-207 -167,-48 -393,-164 -478,-246 -123,-118 -179,-318 -137,-495 31,-131 94,-220 247,-349 189,-159 353,-246 601,-317 677.0429,-189.194 1145.62,-703.656 1482,-1041 237,-238 471,-468 520,-512 201,-178 266,-234 390,-335 751,-608 1583,-1068 2490,-1374 356,-121 679,-205 1129,-294 164,-33 301,-62 303,-64 3,-2 0,-36 -6,-75 -53,-339 7,-675 176,-991 152,-285 321,-488 754,-905 206,-199 234,-242 233,-357 0,-74 1,-71 -158,-368 -143,-266 -208,-348 -332,-422 -88,-53 -202,-246 -244,-413 -27,-109 -27,-314 -1,-440 59,-274 167,-493 399,-803 121,-162 124,-172 84,-315 -42,-150 -118,-500 -133,-612 -29,-222 24,-453 141,-610 49,-65 72,-86 145,-130 87,-52 144,-67 287,-74 149,-7 150,-8 210,-123 93,-180 219,-248 460,-248 65,0 118,-3 118,-6 0,-25 -61,-222 -101,-326 -107,-279 -147,-468 -169,-813 -20,-319 -68,-512 -186,-746 -72,-145 -88,-204 -81,-298 12,-158 142,-339 302,-423 133,-69 251,-94 955,-202 506,-78 662,-95 1230,-140 1018,-81 974,-80 2205,-72 594,3 1107,8 1140,10 33,3 152,7 265,11 198,5 442,19 890,50 118,8 287,19 375,25 601,39 856,57 1465,106 796,63 1180,103 1322,139 237,60 474,309 543,570 19,71 22,221 5,285 -6,26 -13,168 -16,340 -5,316 -10,376 -49,599 -61,349 -89,700 -79,1006 7,211 -4,479 -36,933 -22,300 -18,349 27,403 52,62 57,62 398,64 340,1 381,6 553,67 216,76 407,210 579,407 229,262 331,516 408,1021 40,263 147,477 345,694 227,248 287,469 185,684 -43,90 -115,165 -243,251 -120,80 -169,129 -178,177 -10,54 1,155 31,278 62,256 19,384 -156,458 -51,22 -67,23 -259,23 -133,0 -231,-5 -278,-15 -63,-12 -75,-12 -82,1 -11,17 33,100 146,270 109,163 136,227 189,430 72,275 108,368 219,566 14,24 32,78 42,120 24,102 64,146 144,161 382,73 1375,275 1545,313 1051,239 1824,516 2535,911 403,224 633,378 1245,833 619,462 757,541 1335,765 157,61 306,134 405,198 218,140 327,373 284,608 -38,208 -177,382 -374,469 -202,90 -453,135 -990,180 -327,27 -380,35 -1170,165 -581,97 -650,109 -910,165 -93,21 -186,41 -205,45 -19,4 -114,26 -211,48 -228,54 -386,88 -759,167 -168,35 -359,76 -425,90 -455,98 -1470,304 -1760,359 -631,118 -1199,187 -1735,211 -297,13 -348,16 -410,26 -141,22 -278,69 -393,137 -32,18 -116,80 -188,137 -341,274 -713,505 -1254,780 -334,170 -542,261 -875,384 -931,346 -1991,522 -2975,495 z" />
</g >
</svg>
