<svg version="1.0" xmlns="http://www.w3.org/2000/svg" width="1411.48" height="1411.48" xml:space="preserve">
    <path fill-rule="evenodd" clip-rule="evenodd" fill="#7F1617"
          d="M669.707 0h70.996c.375 1.109 1.324.922 2.168.957 39.215 1.754 77.863 7.453 116.172 15.863 67.949 14.922 132.477 38.719 193.059 73.07 88.375 50.109 162.871 115.828 223.141 197.723 40.164 54.594 72.102 113.594 94.621 177.488 21.461 60.914 35.137 123.617 39.82 188.172.402 5.461-.309 11.133 1.797 16.434v73.121c-1.094.359-.957 1.309-1 2.156-1.719 33.355-6.09 66.359-12.645 99.094-14.688 73.281-39.285 142.891-76.242 208.023-50.133 88.363-115.813 162.883-197.734 223.125-55.32 40.672-115.117 72.875-179.969 95.453-60.184 20.945-122.035 34.316-185.68 39.004-5.828.434-11.832-.309-17.508 1.797h-72.051c-.371-1.094-1.313-.957-2.16-1-33.352-1.723-66.352-6.098-99.094-12.637-73.477-14.668-143.277-39.371-208.496-76.461-87.813-49.93-162.012-115.266-222.035-196.66-40.441-54.84-72.617-114.113-95.25-178.34-21.465-60.93-35.152-123.625-39.824-188.18-.367-5.108.379-10.448-1.793-15.374v-74.176c1.094-.371.953-1.313 1-2.16 1.715-33.352 6.105-66.352 12.645-99.094 14.66-73.477 39.359-143.273 76.445-208.496 49.941-87.813 115.262-162.012 196.664-222.031 54.844-40.445 114.105-72.621 178.344-95.254 60.918-21.465 123.613-35.14 188.175-39.824 5.461-.395 11.133.312 16.434-1.793zm36.227 59.344c-357.11.789-645.274 288.172-646.403 644.222-1.125 358.512 287.977 647.617 644.695 648.387 358.215.762 647.293-288.348 647.723-645.359.434-357.883-288.672-646.321-646.015-647.25z"/>
    <path fill-rule="evenodd" clip-rule="evenodd" fill="#7F1617"
          d="M789.742 667.766c11.578-12.707 22.195-24.355 32.813-36.004 11.699-12.844 23.414-25.664 35.082-38.535 10.461-11.527 20.855-23.117 31.289-34.664 9.102-10.07 18.121-20.219 27.41-30.117 2.422-2.586 3.074-5.172 3.063-8.539-.09-41.598.016-83.195-.164-124.793-.02-4.586.996-5.91 5.785-5.895 50.598.195 101.199.188 151.793.008 4.68-.016 5.859 1.141 5.844 5.836-.184 50.598-.188 101.195.008 151.793.012 4.77-1.285 5.813-5.891 5.793-41.398-.188-82.793-.063-124.188-.188-3.527-.012-5.66 1.086-8.008 3.754-18.336 20.828-36.965 41.398-55.383 62.152a5600.618 5600.618 0 0 0-43.832 49.98c-5.098 5.883-11.098 10.98-15.43 17.965 2.066 1.234 4.457.594 6.68.594 142.793.039 285.586.086 428.379-.129 6.188-.008 7.328 1.625 7.293 7.461-.27 43.598-.246 87.199-.004 130.797.031 5.207-1.504 6.027-6.285 6.016-101.598-.145-203.188-.105-304.785-.105-8.27 0-8.27 0-8.27 7.973v357.582c0 3.422 1.141 7.398-4.91 6.859-1.551-.137-3.324 1.977-4.965 3.102-52.348 35.875-104.691 71.754-157.039 107.633-1.617 1.109-3.262 2.188-5.887 3.945v-7.574c0-157.598-.023-315.184.109-472.785.004-5.18-.902-6.996-6.617-6.898-22.594.387-45.195.211-67.793.098-3.004-.012-5.254.625-7.309 2.961-12.008 13.633-24.156 27.137-36.215 40.727-13.918 15.688-27.77 31.434-41.684 47.129-12.852 14.496-25.742 28.961-38.617 43.441-9.68 10.898-19.219 21.934-29.113 32.637-3.699 4.004-5.734 7.898-5.703 13.656.254 45.195.078 90.398.242 135.594.012 4.297-.762 5.656-5.434 5.645-56.398-.195-112.797-.184-169.191-.02-4.383.008-5.609-.895-5.594-5.484.18-56.398.176-112.793.008-169.188-.016-4.469 1.023-5.57 5.527-5.547 44.996.188 89.996.07 134.992.195 3.504.008 5.715-1.008 8.102-3.645 20.508-22.656 41.297-45.059 61.852-67.668 20.961-23.059 41.75-46.266 62.852-69.664-2.199-1.316-4.586-.676-6.801-.676-161.594-.035-323.188-.066-484.777.117-5.988.004-7.402-1.328-7.391-7.363.219-100.195.203-200.387.023-300.578-.012-5.477 1.379-6.742 6.773-6.734 115.594.168 231.191.082 346.785.266 5.547.008 6.699-1.492 6.691-6.816-.152-129.191-.078-258.387-.258-387.582-.012-5.617 1.586-6.668 6.848-6.656 91.598.16 183.191.176 274.789-.031 5.699-.016 6.617 1.711 6.613 6.891-.133 179.191-.109 358.383-.109 537.578.002 2.145.002 4.293.002 7.7z"/>
    </svg>
