solid OpenSCAD_Model
  facet normal -0 0 1
    outer loop
      vertex -2 12.5 2.499
      vertex 2 -12.5 2.499
      vertex 2 12.5 2.499
    endloop
  endfacet
  facet normal 0 0 1
    outer loop
      vertex 2 -12.5 2.499
      vertex -2 12.5 2.499
      vertex -2 -12.5 2.499
    endloop
  endfacet
  facet normal 0 0 -1
    outer loop
      vertex -2 -12.5 -0.001
      vertex 2 12.5 -0.001
      vertex 2 -12.5 -0.001
    endloop
  endfacet
  facet normal -0 0 -1
    outer loop
      vertex 2 12.5 -0.001
      vertex -2 -12.5 -0.001
      vertex -2 12.5 -0.001
    endloop
  endfacet
  facet normal 0 -1 0
    outer loop
      vertex -2 -12.5 -0.001
      vertex 2 -12.5 2.499
      vertex -2 -12.5 2.499
    endloop
  endfacet
  facet normal 0 -1 -0
    outer loop
      vertex 2 -12.5 2.499
      vertex -2 -12.5 -0.001
      vertex 2 -12.5 -0.001
    endloop
  endfacet
  facet normal 1 -0 0
    outer loop
      vertex 2 -12.5 2.499
      vertex 2 12.5 -0.001
      vertex 2 12.5 2.499
    endloop
  endfacet
  facet normal 1 0 0
    outer loop
      vertex 2 12.5 -0.001
      vertex 2 -12.5 2.499
      vertex 2 -12.5 -0.001
    endloop
  endfacet
  facet normal 0 1 -0
    outer loop
      vertex 2 12.5 -0.001
      vertex -2 12.5 2.499
      vertex 2 12.5 2.499
    endloop
  endfacet
  facet normal 0 1 0
    outer loop
      vertex -2 12.5 2.499
      vertex 2 12.5 -0.001
      vertex -2 12.5 -0.001
    endloop
  endfacet
  facet normal -1 0 0
    outer loop
      vertex -2 -12.5 -0.001
      vertex -2 12.5 2.499
      vertex -2 12.5 -0.001
    endloop
  endfacet
  facet normal -1 -0 0
    outer loop
      vertex -2 12.5 2.499
      vertex -2 -12.5 -0.001
      vertex -2 -12.5 2.499
    endloop
  endfacet
endsolid OpenSCAD_Model
